<svg width="24" height="24" viewBox="0 0 24 24" fill="none" xmlns="http://www.w3.org/2000/svg">
<g id="lets-icons:music">
<path id="Vector" d="M9 17.0006H6.252C6.018 17.0006 5.901 17.0006 5.802 17.0106C5.3423 17.0564 4.91261 17.2599 4.58595 17.5865C4.25928 17.9132 4.05577 18.3429 4.01 18.8026C4 18.9016 4 19.0186 4 19.2526C4 19.5326 4 19.6726 4.012 19.7836C4.07005 20.3021 4.3284 20.7773 4.73193 21.108C5.13546 21.4387 5.65223 21.5986 6.172 21.5536C6.282 21.5436 6.42 21.5166 6.694 21.4616L6.99 21.4016C7.37 21.3266 7.561 21.2886 7.721 21.2266C8.04322 21.1021 8.32772 20.8963 8.54678 20.6293C8.76584 20.3622 8.91199 20.0429 8.971 19.7026C9 19.5326 9 19.3386 9 18.9516V10.2796C9 8.70959 9 7.92559 9.453 7.37259C9.907 6.81959 10.676 6.66559 12.216 6.35759L14.216 5.95759C16.429 5.51459 17.536 5.29359 18.268 5.89359C19 6.49359 19 7.62259 19 9.87959V10.0006M19 10.0006V15.0006M19 10.0006L9 12.0006M19 15.0006V16.9506C19 17.3396 19 17.5326 18.97 17.7026C18.9112 18.0427 18.7653 18.3618 18.5466 18.6289C18.3279 18.8959 18.0438 19.1019 17.722 19.2266C17.561 19.2886 17.371 19.3266 16.99 19.4026L16.694 19.4626C16.42 19.5166 16.283 19.5446 16.171 19.5536C15.6514 19.5983 15.1349 19.4383 14.7316 19.1076C14.3283 18.777 14.0701 18.3019 14.012 17.7836C14 17.6736 14 17.5336 14 17.2536C14 17.0186 14 16.9016 14.01 16.8026C14.0558 16.3429 14.2593 15.9132 14.5859 15.5865C14.9126 15.2599 15.3423 15.0564 15.802 15.0106C15.901 15.0006 16.018 15.0006 16.252 15.0006H19Z" stroke="#4ED1FF" stroke-width="2"/>
</g>
</svg>
