<svg width="24" height="24" viewBox="0 0 24 24" fill="none" xmlns="http://www.w3.org/2000/svg">
<g id="icons8-star_half_empty 1">
<path id="Vector" d="M12.0049 2.50001C11.8647 2.49914 11.7271 2.53756 11.6077 2.61092C11.4882 2.68428 11.3917 2.78964 11.3291 2.91505L8.75296 8.0674L2.63578 9.0088C2.49885 9.02996 2.37046 9.08863 2.26485 9.1783C2.15923 9.26798 2.08052 9.38515 2.03743 9.51683C1.99435 9.64851 1.98858 9.78955 2.02076 9.92431C2.05294 10.0591 2.12182 10.1823 2.21976 10.2803L6.45121 14.5117L5.50882 20.6358C5.48774 20.7728 5.50504 20.9129 5.5588 21.0407C5.61256 21.1685 5.70068 21.2789 5.81337 21.3596C5.92607 21.4403 6.05893 21.4882 6.19721 21.498C6.33548 21.5078 6.47377 21.4791 6.59671 21.4151L12 18.5957L17.4034 21.4151C17.5263 21.4791 17.6646 21.5078 17.8029 21.498C17.9411 21.4882 18.074 21.4403 18.1867 21.3596C18.2994 21.2789 18.3875 21.1685 18.4413 21.0407C18.495 20.9129 18.5123 20.7728 18.4912 20.6358L17.5489 14.5117L21.7803 10.2803C21.8782 10.1823 21.9471 10.0591 21.9793 9.92431C22.0115 9.78955 22.0057 9.64851 21.9626 9.51683C21.9195 9.38515 21.8408 9.26798 21.7352 9.1783C21.6296 9.08863 21.5012 9.02996 21.3643 9.0088L15.2471 8.0674L12.6709 2.91505C12.6091 2.79112 12.5141 2.68674 12.3965 2.61349C12.279 2.54023 12.1434 2.50095 12.0049 2.50001ZM12 4.92677L14.0791 9.08498C14.1327 9.19225 14.2112 9.28512 14.308 9.35581C14.4049 9.42649 14.5173 9.47293 14.6358 9.49123L19.6729 10.2666L16.2198 13.7197C16.1364 13.8031 16.0739 13.9048 16.0373 14.0168C16.0006 14.1288 15.9909 14.2478 16.0088 14.3643L16.7832 19.3994L12.3467 17.085C12.2397 17.0292 12.1207 17.0001 12 17.0001C11.8793 17.0001 11.7604 17.0292 11.6534 17.085L10.4971 17.6885C10.4817 17.5009 10.3963 17.326 10.2579 17.1985C10.1195 17.071 9.93823 17.0001 9.75003 17C9.59589 17.0003 9.44558 17.0481 9.31956 17.1368C9.19354 17.2256 9.09793 17.351 9.04574 17.4961C8.99356 17.6411 8.98732 17.7987 9.0279 17.9474C9.06847 18.0961 9.15388 18.2287 9.27249 18.3272L7.21683 19.3994L7.6641 16.4942C7.69261 16.4978 7.7213 16.4997 7.75003 16.5C7.93562 16.4986 8.11408 16.4284 8.25092 16.303C8.38775 16.1776 8.47324 16.006 8.49086 15.8212C8.50847 15.6365 8.45695 15.4517 8.34627 15.3028C8.23559 15.1538 8.07361 15.0511 7.89163 15.0147L7.99124 14.3643C8.00918 14.2478 7.99943 14.1288 7.96278 14.0168C7.92613 13.9048 7.86362 13.8031 7.78031 13.7197L4.32718 10.2666L5.11331 10.1455C5.18056 10.2539 5.27431 10.3433 5.38572 10.4053C5.49713 10.4673 5.62252 10.4999 5.75003 10.5C5.91646 10.4998 6.07808 10.4442 6.20944 10.342C6.34081 10.2398 6.43445 10.0968 6.47562 9.93556L9.02933 9.54298C8.99727 9.65463 8.99157 9.7722 9.0127 9.88642C9.03382 10.0006 9.08119 10.1084 9.15107 10.2012C9.22095 10.294 9.31142 10.3693 9.41537 10.4211C9.51931 10.473 9.63387 10.5 9.75003 10.5C9.93128 10.4997 10.1063 10.4337 10.2426 10.3143C10.379 10.1949 10.4675 10.0302 10.4918 9.85056C10.5161 9.67095 10.4745 9.48861 10.3748 9.33728C10.2751 9.18595 10.1239 9.07585 9.94925 9.02736L12 4.92677ZM11.75 7.00001C11.5511 7.00001 11.3604 7.07903 11.2197 7.21968C11.0791 7.36034 11 7.5511 11 7.75001C11 7.94893 11.0791 8.13969 11.2197 8.28034C11.3604 8.421 11.5511 8.50001 11.75 8.50001C11.9489 8.50001 12.1397 8.421 12.2804 8.28034C12.421 8.13969 12.5 7.94893 12.5 7.75001C12.5 7.5511 12.421 7.36034 12.2804 7.21968C12.1397 7.07903 11.9489 7.00001 11.75 7.00001ZM7.75003 11C7.55112 11 7.36036 11.079 7.2197 11.2197C7.07905 11.3603 7.00003 11.5511 7.00003 11.75C7.00003 11.9489 7.07905 12.1397 7.2197 12.2803C7.36036 12.421 7.55112 12.5 7.75003 12.5C7.94895 12.5 8.13971 12.421 8.28036 12.2803C8.42102 12.1397 8.50003 11.9489 8.50003 11.75C8.50003 11.5511 8.42102 11.3603 8.28036 11.2197C8.13971 11.079 7.94895 11 7.75003 11ZM11.75 11C11.5511 11 11.3604 11.079 11.2197 11.2197C11.0791 11.3603 11 11.5511 11 11.75C11 11.9489 11.0791 12.1397 11.2197 12.2803C11.3604 12.421 11.5511 12.5 11.75 12.5C11.9489 12.5 12.1397 12.421 12.2804 12.2803C12.421 12.1397 12.5 11.9489 12.5 11.75C12.5 11.5511 12.421 11.3603 12.2804 11.2197C12.1397 11.079 11.9489 11 11.75 11ZM9.75003 13C9.55112 13 9.36036 13.079 9.2197 13.2197C9.07905 13.3603 9.00003 13.5511 9.00003 13.75C9.00003 13.9489 9.07905 14.1397 9.2197 14.2803C9.36036 14.421 9.55112 14.5 9.75003 14.5C9.94895 14.5 10.1397 14.421 10.2804 14.2803C10.421 14.1397 10.5 13.9489 10.5 13.75C10.5 13.5511 10.421 13.3603 10.2804 13.2197C10.1397 13.079 9.94895 13 9.75003 13ZM11.75 15C11.5511 15 11.3604 15.079 11.2197 15.2197C11.0791 15.3603 11 15.5511 11 15.75C11 15.9489 11.0791 16.1397 11.2197 16.2803C11.3604 16.421 11.5511 16.5 11.75 16.5C11.9489 16.5 12.1397 16.421 12.2804 16.2803C12.421 16.1397 12.5 15.9489 12.5 15.75C12.5 15.5511 12.421 15.3603 12.2804 15.2197C12.1397 15.079 11.9489 15 11.75 15Z" fill="#3E2ABB"/>
</g>
</svg>
