<svg width="16" height="16" viewBox="0 0 16 16" fill="none" xmlns="http://www.w3.org/2000/svg">
<g id="icons8-ok 2">
<path id="Vector" d="M7.99992 1.33398C4.32392 1.33398 1.33325 4.32465 1.33325 8.00065C1.33325 11.6767 4.32392 14.6673 7.99992 14.6673C11.6759 14.6673 14.6666 11.6767 14.6666 8.00065C14.6666 4.32465 11.6759 1.33398 7.99992 1.33398ZM10.8536 6.85432L7.52025 10.1877C7.42259 10.2853 7.29458 10.334 7.16658 10.334C7.03858 10.334 6.91058 10.2853 6.81292 10.1877L5.14625 8.52098C4.95092 8.32565 4.95092 8.00932 5.14625 7.81398C5.34159 7.61865 5.65792 7.61865 5.85325 7.81398L7.16625 9.12698L10.1459 6.14732C10.3413 5.95198 10.6576 5.95198 10.8529 6.14732C11.0483 6.34265 11.0486 6.65898 10.8536 6.85432Z" fill="#3E2ABB"/>
</g>
</svg>
