<svg width="393" height="8" viewBox="0 0 393 8" fill="none" xmlns="http://www.w3.org/2000/svg">
<path fill-rule="evenodd" clip-rule="evenodd" d="M8 0C12.4183 0 16 3.58172 16 7.99999L8 8.00003L0 7.99999C0 3.58172 3.58172 0 8 0ZM33 7.99999L24.5 8.00003L16 7.99999C16 3.58172 19.8056 0 24.5 0C29.1944 0 33 3.58172 33 7.99999ZM49 7.99999C49 3.58172 45.4183 0 41 0C36.5817 0 33 3.58172 33 7.99999L41 8.00003L49 7.99999ZM66 7.99999L57.5 8.00003L49 7.99999C49 3.58172 52.8056 0 57.5 0C62.1944 0 66 3.58172 66 7.99999ZM82 7.99999C82 3.58172 78.4183 0 74 0C69.5817 0 66 3.58172 66 7.99999L74 8.00003L82 7.99999ZM98 7.99999L90 8.00003L82 7.99999C82 3.58172 85.5817 0 90 0C94.4183 0 98 3.58172 98 7.99999ZM115 7.99999C115 3.58172 111.194 0 106.5 0C101.806 0 98 3.58172 98 7.99999L106.5 8.00003L115 7.99999ZM131 7.99999L123 8.00003L115 7.99999C115 3.58172 118.582 0 123 0C127.418 0 131 3.58172 131 7.99999ZM147 7.99999C147 3.58172 143.418 0 139 0C134.582 0 131 3.58172 131 7.99999L139 8.00003L147 7.99999ZM164 7.99999L155.5 8.00003L147 7.99999C147 3.58172 150.806 0 155.5 0C160.194 0 164 3.58172 164 7.99999ZM180 7.99999C180 3.58172 176.418 0 172 0C167.582 0 164 3.58172 164 7.99999L172 8.00003L180 7.99999ZM197 7.99999L188.5 8.00003L180 7.99999C180 3.58172 183.806 0 188.5 0C193.194 0 197 3.58172 197 7.99999ZM213 7.99999C213 3.58172 209.418 0 205 0C200.582 0 197 3.58172 197 7.99999L205 8.00003L213 7.99999ZM229 7.99999L221 8.00003L213 7.99999C213 3.58172 216.582 0 221 0C225.418 0 229 3.58172 229 7.99999ZM246 7.99999C246 3.58172 242.194 0 237.5 0C232.806 0 229 3.58172 229 7.99999L237.5 8.00003L246 7.99999ZM262 7.99999L254 8.00003L246 7.99999C246 3.58172 249.582 0 254 0C258.418 0 262 3.58172 262 7.99999ZM278 7.99999L270 8.00003L262 7.99999C262 3.58172 265.582 0 270 0C274.418 0 278 3.58172 278 7.99999ZM295 7.99999L286.5 8.00003L278 7.99999C278 3.58172 281.806 0 286.5 0C291.194 0 295 3.58172 295 7.99999ZM311 7.99999C311 3.58172 307.418 0 303 0C298.582 0 295 3.58172 295 7.99999L303 8.00003L311 7.99999ZM328 7.99999L319.5 8.00003L311 7.99999C311 3.58172 314.806 0 319.5 0C324.194 0 328 3.58172 328 7.99999ZM344 7.99999C344 3.58172 340.418 0 336 0C331.582 0 328 3.58172 328 7.99999L336 8.00003L344 7.99999ZM360 7.99999L352 8.00003L344 7.99999C344 3.58172 347.582 0 352 0C356.418 0 360 3.58172 360 7.99999ZM377 7.99999C377 3.58172 373.194 0 368.5 0C363.806 0 360 3.58172 360 7.99999L368.5 8.00003L377 7.99999ZM377 7.99999L385 8.00003L393 7.99999C393 3.58172 389.418 0 385 0C380.582 0 377 3.58172 377 7.99999Z" fill="#1F1926"/>
</svg>
