<svg width="16" height="16" viewBox="0 0 16 16" fill="none" xmlns="http://www.w3.org/2000/svg">
<g id="icons8-dining_room 1">
<path id="Vector" d="M5.16659 1.66602C4.29683 1.66602 3.58021 2.23722 3.09888 2.97005C2.61754 3.70289 2.33325 4.63218 2.33325 5.56576C2.33325 6.83201 2.93262 7.79526 3.80135 8.28516C3.72071 10.3595 3.66659 12.2927 3.66659 12.5827C3.66659 13.4892 4.27649 14.3327 5.16659 14.3327C6.05668 14.3327 6.66659 13.4892 6.66659 12.5827C6.66659 12.2927 6.61246 10.3588 6.53182 8.28516C7.40061 7.79519 7.99992 6.83175 7.99992 5.56576C7.99992 4.63218 7.71563 3.70289 7.23429 2.97005C6.75296 2.23722 6.03635 1.66602 5.16659 1.66602ZM11.7499 1.66992C11.6204 1.6652 11.489 1.67904 11.3606 1.71289C11.1038 1.78058 10.861 1.92689 10.677 2.15755C9.63912 3.45841 8.99992 5.52997 8.99992 8.35807V8.62956C8.99992 9.3508 9.40891 10.0128 10.054 10.3353L10.3333 10.4753V12.9993C10.3333 13.7298 10.9362 14.3327 11.6666 14.3327C12.3951 14.3327 12.9999 13.7324 12.9999 13.002V2.9694C12.9999 2.37917 12.6034 1.90619 12.1262 1.73958C12.0069 1.69793 11.8794 1.67464 11.7499 1.66992ZM11.7083 2.66211C11.7373 2.66532 11.7667 2.67308 11.7968 2.68359C11.9173 2.72565 11.9999 2.7993 11.9999 2.9694V13.002C11.9999 13.1922 11.8588 13.3327 11.6666 13.3327C11.4763 13.3327 11.3333 13.1896 11.3333 12.9993V10.166C11.3333 10.0732 11.3075 9.98218 11.2587 9.90319C11.21 9.8242 11.1402 9.76033 11.0572 9.71875L10.5012 9.44076C10.1929 9.28661 9.99992 8.97431 9.99992 8.62956V8.35807C9.99992 5.68284 10.6228 3.82839 11.4583 2.78125C11.5378 2.68149 11.621 2.65249 11.7083 2.66211ZM5.16659 2.66602C5.58549 2.66602 6.03519 2.96597 6.39836 3.51888C6.76152 4.0718 6.99992 4.84233 6.99992 5.56576C6.99992 6.67203 6.51587 7.28799 5.84497 7.54362C5.74702 7.58094 5.66327 7.64809 5.60556 7.73559C5.54785 7.82309 5.51909 7.92652 5.52336 8.03125C5.61416 10.2718 5.66659 12.4206 5.66659 12.5827C5.66659 13.0569 5.38116 13.3327 5.16659 13.3327C4.95201 13.3327 4.66659 13.0569 4.66659 12.5827C4.66659 12.4206 4.71901 10.2721 4.80981 8.0306C4.81394 7.92598 4.78512 7.8227 4.72742 7.73533C4.66972 7.64795 4.58604 7.5809 4.4882 7.54362C3.8172 7.28795 3.33325 6.67241 3.33325 5.56576C3.33325 4.84233 3.57165 4.0718 3.93481 3.51888C4.29798 2.96597 4.74768 2.66602 5.16659 2.66602Z" fill="#28C7FF"/>
</g>
</svg>
