<svg width="48" height="48" viewBox="0 0 48 48" fill="none" xmlns="http://www.w3.org/2000/svg">
<g id="icons8-wink 1">
<path id="Vector" d="M24 4C12.9721 4 4 12.9721 4 24C4 35.0279 12.9721 44 24 44C35.0279 44 44 35.0279 44 24C44 12.9721 35.0279 4 24 4ZM17 15.5C18.381 15.5 19.5 16.619 19.5 18C19.5 19.381 18.381 20.5 17 20.5C15.619 20.5 14.5 19.381 14.5 18C14.5 16.619 15.619 15.5 17 15.5ZM28.5 17H32.5C33.329 17 34 17.672 34 18.5C34 19.328 33.329 20 32.5 20H28.5C27.671 20 27 19.328 27 18.5C27 17.672 27.671 17 28.5 17ZM33.4023 25.002C33.5968 24.9892 33.7967 25.014 33.9922 25.082C34.7742 25.354 35.188 26.2102 34.916 26.9922C33.689 30.5172 31.0151 33.2184 27.5801 34.4004C26.3131 34.8374 25.0017 35.0586 23.6777 35.0586C23.6097 35.0586 23.5407 35.0576 23.4727 35.0566C22.6447 35.0426 21.984 34.3592 21.998 33.5312C22.012 32.7022 22.7044 32.0766 23.5254 32.0566C24.5684 32.0826 25.6025 31.9085 26.6035 31.5645C29.1625 30.6835 31.159 28.6588 32.082 26.0078C32.286 25.4213 32.8189 25.0403 33.4023 25.002Z" fill="#3E2ABB"/>
</g>
</svg>
