<svg width="16" height="16" viewBox="0 0 16 16" fill="none" xmlns="http://www.w3.org/2000/svg">
<g id="icons8-crescent_moon 1">
<path id="Vector" d="M8.33342 1.3335C4.65751 1.3335 1.66675 4.32426 1.66675 8.00016C1.66675 11.6761 4.65751 14.6668 8.33342 14.6668C10.9221 14.6668 13.1677 13.1841 14.2703 11.0236C14.3071 10.9514 14.3259 10.8712 14.3249 10.7901C14.3239 10.709 14.3032 10.6294 14.2646 10.558C14.2259 10.4867 14.1705 10.4259 14.1031 10.3807C14.0357 10.3356 13.9583 10.3076 13.8777 10.299C10.9478 9.98819 8.66675 7.5172 8.66675 4.50016C8.66675 3.62958 8.86195 2.80826 9.20516 2.06396C9.23909 1.9904 9.25464 1.90969 9.25048 1.82879C9.24631 1.74788 9.22255 1.6692 9.18123 1.59951C9.13992 1.52982 9.08229 1.47122 9.01331 1.42873C8.94433 1.38625 8.86606 1.36116 8.78524 1.35563C8.6522 1.34668 8.502 1.3335 8.33342 1.3335ZM8.05412 2.36149C7.82717 3.03829 7.66675 3.74626 7.66675 4.50016C7.66675 7.7453 9.94726 10.4419 12.9871 11.1349C11.9701 12.6429 10.2928 13.6668 8.33342 13.6668C5.19798 13.6668 2.66675 11.1356 2.66675 8.00016C2.66675 4.96043 5.05188 2.50955 8.05412 2.36149Z" fill="#1F1926"/>
</g>
</svg>
