<svg width="24" height="24" viewBox="0 0 24 24" fill="none" xmlns="http://www.w3.org/2000/svg">
<g id="icons8-registration 1">
<path id="Vector" d="M12 2.53906V2.54102C9.25277 2.54719 7.01074 4.79044 7.01074 7.53906C7.01074 10.1887 9.10964 12.3213 11.7207 12.4805C11.8092 12.5177 11.904 12.5376 12 12.5391H12.0107C12.1081 12.5378 12.2043 12.5175 12.2939 12.4795C14.9031 12.3183 17 10.1873 17 7.53906C17 4.79044 14.758 2.54719 12.0107 2.54102V2.53906H12ZM12.0059 4.04004C13.9446 4.04335 15.5 5.59954 15.5 7.53906C15.5 9.47858 13.9446 11.0348 12.0059 11.0381C10.0667 11.0353 8.51074 9.47892 8.51074 7.53906C8.51074 5.59921 10.0667 4.04282 12.0059 4.04004ZM20.749 11.999C20.612 11.9995 20.4735 12.0116 20.334 12.0371C19.892 12.1166 19.4698 12.3471 19.1133 12.7041L18.4395 13.3779L21.6211 16.5596L22.2949 15.8867C22.6519 15.5302 22.8824 15.107 22.9619 14.665C22.9869 14.5255 22.9985 14.387 22.999 14.25C23.0005 13.653 22.7703 13.0887 22.3398 12.6592C21.9103 12.2292 21.346 11.998 20.749 11.999ZM17.3789 14.4395L13.2139 18.6035C13.0354 18.782 12.904 19.0046 12.834 19.2461L12.0488 21.9863C12.0128 22.0813 11.9965 22.1817 12 22.2822C12.0065 22.4637 12.0778 22.6432 12.2168 22.7822C12.3553 22.9207 12.5338 22.992 12.7148 22.999C12.8153 23.0025 12.9172 22.9867 13.0127 22.9502L15.7529 22.166C15.9944 22.096 16.2155 21.9651 16.3945 21.7861L20.5605 17.6201L17.3789 14.4395ZM6.25 14.5391C5.0095 14.5391 4 15.5486 4 16.7891V17.3896C4 20.0636 7.01591 22.1975 11.0244 22.499C11.0164 22.439 11.0035 22.3803 11.001 22.3193C10.9935 22.0988 11.0257 21.8837 11.0967 21.6787L11.2871 21.0117C7.69661 20.8012 5.5 19.0376 5.5 17.3896V16.7891C5.5 16.3756 5.8365 16.0391 6.25 16.0391H14.3633L15.8633 14.5391H6.25Z" fill="white"/>
</g>
</svg>
