<svg width="120" height="120" viewBox="0 0 120 120" fill="none" xmlns="http://www.w3.org/2000/svg">
<g id="icons8-ok 1">
<path id="Vector" d="M60 10C32.43 10 10 32.43 10 60C10 87.57 32.43 110 60 110C87.57 110 110 87.57 110 60C110 32.43 87.57 10 60 10ZM81.4025 51.4025L56.4025 76.4025C55.67 77.135 54.71 77.5 53.75 77.5C52.79 77.5 51.83 77.135 51.0975 76.4025L38.5975 63.9025C37.1325 62.4375 37.1325 60.065 38.5975 58.6C40.0625 57.135 42.435 57.135 43.9 58.6L53.7475 68.4475L76.095 46.1C77.56 44.635 79.9325 44.635 81.3975 46.1C82.8625 47.565 82.865 49.9375 81.4025 51.4025Z" fill="#28C7FF"/>
</g>
</svg>
