<svg width="32" height="32" viewBox="0 0 32 32" fill="none" xmlns="http://www.w3.org/2000/svg">
<g id="mdi:smoking" clip-path="url(#clip0_1079_6922)">
<path id="Vector" d="M23.3724 23.7957L9.77779 17.4565L8.50993 20.1754L22.1046 26.5147L23.3724 23.7957ZM6.60571 15.9773L5.24625 15.3434L3.9784 18.0623L5.33786 18.6962L6.60571 15.9773ZM8.87148 17.0338L7.51202 16.3999L6.24417 19.1188L7.60363 19.7528L8.87148 17.0338ZM11.5962 9.17945C11.2921 8.36458 11.3027 7.44268 11.6957 6.59982C12.4775 4.92315 14.4709 4.19761 16.1476 4.97946L15.5137 6.33892C14.6074 5.9163 13.4862 6.30931 13.0552 7.23374C12.6241 8.15818 13.0437 9.26964 13.95 9.69226L13.3161 11.0517C11.2859 10.1051 8.91743 11.0198 7.97077 13.0499L7.02833 15.071L5.66887 14.4371L6.61553 12.4069C7.55375 10.3949 9.52525 9.19576 11.5962 9.17945ZM13.1081 12.6098L14.4947 13.2564C15.4011 13.679 16.5856 13.1501 17.0167 12.2256C17.4477 11.3012 16.9859 10.2804 16.0796 9.85776L16.7135 8.4983C17.5187 8.87379 18.1418 9.55377 18.4457 10.3887C18.7496 11.2236 18.7093 12.145 18.3339 12.9502C17.9584 13.7554 17.2784 14.3785 16.4435 14.6824C15.6086 14.9863 14.6872 14.946 13.8819 14.5706L12.4953 13.924C11.5437 13.4802 10.3971 13.7621 9.8435 14.9493L9.2941 16.1275L7.93464 15.4936L8.62773 14.0073C9.39267 12.3668 11.4133 11.8195 13.1081 12.6098Z" fill="#4ED1FF"/>
</g>
<defs>
<clipPath id="clip0_1079_6922">
<rect width="24" height="24" fill="white" transform="matrix(-0.906308 -0.422618 -0.422618 0.906308 31.9473 10.1406)"/>
</clipPath>
</defs>
</svg>
