<svg width="16" height="16" viewBox="0 0 16 16" fill="none" xmlns="http://www.w3.org/2000/svg">
<g id="icons8-circled_right 1">
<path id="Vector" d="M8.00004 14.6666C11.676 14.6666 14.6667 11.6759 14.6667 7.99992C14.6667 4.32392 11.676 1.33325 8.00004 1.33325C4.32404 1.33325 1.33337 4.32392 1.33337 7.99992C1.33337 11.6759 4.32404 14.6666 8.00004 14.6666ZM5.50004 7.49992H9.29304L8.14671 6.35359C7.95137 6.15825 7.95137 5.84192 8.14671 5.64658C8.34204 5.45125 8.65837 5.45125 8.85371 5.64658L10.8537 7.64658C11.049 7.84192 11.049 8.15825 10.8537 8.35359L8.85371 10.3536C8.75604 10.4513 8.62804 10.4999 8.50004 10.4999C8.37204 10.4999 8.24404 10.4513 8.14637 10.3536C7.95104 10.1583 7.95104 9.84192 8.14637 9.64658L9.29271 8.50025H5.50004C5.22404 8.50025 5.00004 8.27625 5.00004 8.00025C5.00004 7.72425 5.22404 7.49992 5.50004 7.49992Z" fill="#28C7FF"/>
</g>
</svg>
