<svg width="16" height="16" viewBox="0 0 16 16" fill="none" xmlns="http://www.w3.org/2000/svg">
<g id="icons8-pay 2">
<path id="Vector" d="M7.16655 1.66655C6.52823 1.66655 5.99988 2.1949 5.99988 2.83322V4.96017L4.35274 5.46668C3.7726 5.64506 3.27704 6.02928 2.95886 6.54611C2.95799 6.54763 2.95712 6.54914 2.95626 6.55067L0.73816 10.2421C0.703002 10.2984 0.679401 10.3611 0.66873 10.4266C0.65806 10.4921 0.660535 10.5591 0.676011 10.6236C0.691486 10.6881 0.719653 10.7489 0.758869 10.8025C0.798085 10.856 0.847566 10.9012 0.904427 10.9354C0.961288 10.9696 1.02439 10.9922 1.09006 11.0018C1.15573 11.0114 1.22265 11.0078 1.28692 10.9913C1.35119 10.9747 1.41152 10.9455 1.4644 10.9054C1.51729 10.8653 1.56166 10.8151 1.59493 10.7577L3.81043 7.0702L3.81173 7.06825C4.00292 6.75877 4.29991 6.52979 4.64701 6.42306L5.99988 6.0064V8.49989C5.99988 8.53953 6.00432 8.5779 6.00834 8.61642L5.24467 9.0702C5.18585 9.10249 5.13414 9.14628 5.0926 9.19897C5.05106 9.25166 5.02055 9.31217 5.00289 9.3769C4.98523 9.44163 4.98077 9.50925 4.98978 9.57574C4.9988 9.64222 5.0211 9.70621 5.05537 9.7639C5.08963 9.82159 5.13515 9.87179 5.18922 9.91152C5.24329 9.95124 5.3048 9.97968 5.37009 9.99514C5.43538 10.0106 5.50311 10.0128 5.56925 10.0015C5.6354 9.99023 5.6986 9.96577 5.75509 9.92957L6.75183 9.33713C6.82984 9.31359 6.90091 9.27135 6.95886 9.21408L8.83777 8.09754C8.84215 8.09501 8.84649 8.0924 8.85079 8.08973C9.06328 7.95456 9.33344 7.98432 9.51095 8.162C9.69185 8.3429 9.71563 8.60607 9.58907 8.81043C9.55973 8.8397 9.53415 8.87251 9.5129 8.90809C9.50838 8.91267 9.50525 8.91795 9.50053 8.92241L5.37683 12.7427C5.37596 12.7434 5.37509 12.744 5.37423 12.7447C4.97205 13.1227 4.4417 13.3332 3.88985 13.3332H1.16655C1.10029 13.3323 1.03451 13.3445 0.973024 13.3692C0.911539 13.3939 0.855579 13.4306 0.808394 13.4771C0.761209 13.5237 0.723741 13.5791 0.698167 13.6402C0.672593 13.7014 0.659424 13.767 0.659424 13.8332C0.659424 13.8995 0.672593 13.9651 0.698167 14.0262C0.723741 14.0873 0.761209 14.1428 0.808394 14.1893C0.855579 14.2358 0.911539 14.2725 0.973024 14.2972C1.03451 14.3219 1.10029 14.3342 1.16655 14.3332H3.88985C4.6949 14.3332 5.46965 14.0263 6.05652 13.4758L6.05782 13.4751L10.1685 9.66655H14.8332C14.8995 9.66749 14.9653 9.65525 15.0267 9.63054C15.0882 9.60584 15.1442 9.56916 15.1914 9.52263C15.2385 9.47611 15.276 9.42068 15.3016 9.35955C15.3272 9.29842 15.3403 9.23282 15.3403 9.16655C15.3403 9.10029 15.3272 9.03469 15.3016 8.97356C15.276 8.91243 15.2385 8.857 15.1914 8.81047C15.1442 8.76395 15.0882 8.72727 15.0267 8.70257C14.9653 8.67786 14.8995 8.66562 14.8332 8.66655H10.6509C10.6874 8.23217 10.5479 7.78492 10.218 7.45497C9.9654 7.20214 9.64014 7.05449 9.30261 7.01747C8.96509 6.98045 8.61576 7.05423 8.31433 7.24598L6.99988 8.02723V5.39377C7.00608 5.34862 7.00608 5.30284 6.99988 5.2577V3.66655C7.55321 3.66655 7.99988 3.21989 7.99988 2.66655H14.8332C14.8995 2.66749 14.9653 2.65525 15.0267 2.63054C15.0882 2.60584 15.1442 2.56916 15.1914 2.52263C15.2385 2.47611 15.276 2.42068 15.3016 2.35955C15.3272 2.29842 15.3403 2.23282 15.3403 2.16655C15.3403 2.10029 15.3272 2.03469 15.3016 1.97356C15.276 1.91243 15.2385 1.857 15.1914 1.81047C15.1442 1.76395 15.0882 1.72727 15.0267 1.70256C14.9653 1.67786 14.8995 1.66562 14.8332 1.66655H7.16655ZM12.3332 3.33322C11.6804 3.33322 11.1316 3.66126 10.8039 4.11187C10.4762 4.56248 10.3332 5.11731 10.3332 5.66655C10.3332 6.2158 10.4762 6.77063 10.8039 7.22124C11.1316 7.67185 11.6804 7.99989 12.3332 7.99989C12.986 7.99989 13.5348 7.67185 13.8625 7.22124C14.1902 6.77063 14.3332 6.2158 14.3332 5.66655C14.3332 5.11731 14.1902 4.56248 13.8625 4.11187C13.5348 3.66126 12.986 3.33322 12.3332 3.33322ZM12.3332 4.33322C12.6804 4.33322 12.8816 4.46352 13.0539 4.70041C13.2262 4.9373 13.3332 5.29913 13.3332 5.66655C13.3332 6.03398 13.2262 6.39581 13.0539 6.6327C12.8816 6.86959 12.6804 6.99989 12.3332 6.99989C11.986 6.99989 11.7848 6.86959 11.6125 6.6327C11.4402 6.39581 11.3332 6.03398 11.3332 5.66655C11.3332 5.29913 11.4402 4.9373 11.6125 4.70041C11.7848 4.46352 11.986 4.33322 12.3332 4.33322ZM8.33321 4.99989C8.1564 4.99989 7.98683 5.07013 7.86181 5.19515C7.73678 5.32017 7.66655 5.48974 7.66655 5.66655C7.66655 5.84336 7.73678 6.01293 7.86181 6.13796C7.98683 6.26298 8.1564 6.33322 8.33321 6.33322C8.51002 6.33322 8.67959 6.26298 8.80462 6.13796C8.92964 6.01293 8.99988 5.84336 8.99988 5.66655C8.99988 5.48974 8.92964 5.32017 8.80462 5.19515C8.67959 5.07013 8.51002 4.99989 8.33321 4.99989Z" fill="white"/>
</g>
</svg>
