<svg width="24" height="2" viewBox="0 0 24 2" fill="none" xmlns="http://www.w3.org/2000/svg">
<g id="Group 64">
<path id="Polygon 1" d="M2.70711 1.29289C2.31658 1.68342 1.68342 1.68342 1.29289 1.29289L8.74227e-08 1.58735e-08L4 7.15256e-07L2.70711 1.29289Z" fill="#3E2ABB"/>
<path id="Polygon 2" d="M6.70711 1.29289C6.31658 1.68342 5.68342 1.68342 5.29289 1.29289L4 1.58735e-08L8 7.15256e-07L6.70711 1.29289Z" fill="#3E2ABB"/>
<path id="Polygon 3" d="M10.7071 1.29289C10.3166 1.68342 9.68342 1.68342 9.29289 1.29289L8 1.58735e-08L12 7.15256e-07L10.7071 1.29289Z" fill="#3E2ABB"/>
<path id="Polygon 4" d="M14.7071 1.29289C14.3166 1.68342 13.6834 1.68342 13.2929 1.29289L12 1.58735e-08L16 7.15256e-07L14.7071 1.29289Z" fill="#3E2ABB"/>
<path id="Polygon 5" d="M18.7071 1.29289C18.3166 1.68342 17.6834 1.68342 17.2929 1.29289L16 1.58735e-08L20 7.15256e-07L18.7071 1.29289Z" fill="#3E2ABB"/>
<path id="Polygon 6" d="M22.7071 1.29289C22.3166 1.68342 21.6834 1.68342 21.2929 1.29289L20 1.58735e-08L24 7.15256e-07L22.7071 1.29289Z" fill="#3E2ABB"/>
</g>
</svg>
