<svg width="40" height="40" viewBox="0 0 40 40" fill="none" xmlns="http://www.w3.org/2000/svg">
<circle opacity="0.1" cx="20" cy="20" r="20" fill="#1F1926"/>
<path d="M18.7352 12.4931C18.5404 12.4988 18.3555 12.58 18.2196 12.7197L11.2196 19.7197C11.079 19.8603 11 20.0511 11 20.2499C11 20.4488 11.079 20.6396 11.2196 20.7802L18.2196 27.7802C18.2887 27.8522 18.3715 27.9097 18.4631 27.9492C18.5547 27.9888 18.6532 28.0097 18.753 28.0108C18.8528 28.0118 18.9518 27.9929 19.0442 27.9552C19.1365 27.9174 19.2205 27.8617 19.291 27.7911C19.3616 27.7206 19.4174 27.6366 19.4551 27.5442C19.4928 27.4519 19.5117 27.3529 19.5107 27.2531C19.5097 27.1533 19.4887 27.0547 19.4492 26.9632C19.4096 26.8716 19.3521 26.7888 19.2801 26.7197L13.5604 20.9999H28.2499C28.3492 21.0014 28.4479 20.983 28.5401 20.9459C28.6324 20.9089 28.7163 20.8538 28.7871 20.7841C28.8579 20.7143 28.9141 20.6311 28.9524 20.5394C28.9908 20.4477 29.0105 20.3493 29.0105 20.2499C29.0105 20.1506 28.9908 20.0521 28.9524 19.9605C28.9141 19.8688 28.8579 19.7856 28.7871 19.7158C28.7163 19.646 28.6324 19.591 28.5401 19.554C28.4479 19.5169 28.3492 19.4985 28.2499 19.4999H13.5604L19.2801 13.7802C19.3883 13.6748 19.4622 13.5393 19.4921 13.3912C19.5219 13.2431 19.5064 13.0895 19.4475 12.9504C19.3886 12.8114 19.2891 12.6933 19.162 12.6117C19.0349 12.5301 18.8862 12.4888 18.7352 12.4931Z" fill="white"/>
</svg>
