<svg width="24" height="24" viewBox="0 0 24 24" fill="none" xmlns="http://www.w3.org/2000/svg">
<g id="mingcute:celebrate-line">
<path id="Vector" d="M21 12V20C21 20.5304 20.7893 21.0391 20.4142 21.4142C20.0391 21.7893 19.5304 22 19 22H3C2.46957 22 1.96086 21.7893 1.58579 21.4142C1.21071 21.0391 1 20.5304 1 20V12C0.734784 12 0.48043 11.8946 0.292893 11.7071C0.105357 11.5196 0 11.2652 0 11V8C0 7.46957 0.210714 6.96086 0.585786 6.58579C0.960859 6.21071 1.46957 6 2 6H5.17C5.05698 5.67873 4.99949 5.34057 5 5C5 4.20435 5.31607 3.44129 5.87868 2.87868C6.44129 2.31607 7.20435 2 8 2C9 2 9.88 2.5 10.43 3.24V3.23L11 4L11.57 3.23V3.24C12.12 2.5 13 2 14 2C14.7956 2 15.5587 2.31607 16.1213 2.87868C16.6839 3.44129 17 4.20435 17 5C17.0005 5.34057 16.943 5.67873 16.83 6H20C20.5304 6 21.0391 6.21071 21.4142 6.58579C21.7893 6.96086 22 7.46957 22 8V11C22 11.2652 21.8946 11.5196 21.7071 11.7071C21.5196 11.8946 21.2652 12 21 12ZM3 20H10V12H3V20ZM19 20V12H12V20H19ZM8 4C7.73478 4 7.48043 4.10536 7.29289 4.29289C7.10536 4.48043 7 4.73478 7 5C7 5.26522 7.10536 5.51957 7.29289 5.70711C7.48043 5.89464 7.73478 6 8 6C8.26522 6 8.51957 5.89464 8.70711 5.70711C8.89464 5.51957 9 5.26522 9 5C9 4.73478 8.89464 4.48043 8.70711 4.29289C8.51957 4.10536 8.26522 4 8 4ZM14 4C13.7348 4 13.4804 4.10536 13.2929 4.29289C13.1054 4.48043 13 4.73478 13 5C13 5.26522 13.1054 5.51957 13.2929 5.70711C13.4804 5.89464 13.7348 6 14 6C14.2652 6 14.5196 5.89464 14.7071 5.70711C14.8946 5.51957 15 5.26522 15 5C15 4.73478 14.8946 4.48043 14.7071 4.29289C14.5196 4.10536 14.2652 4 14 4ZM2 8V10H10V8H2ZM12 8V10H20V8H12Z" fill="white"/>
</g>
</svg>
