<svg width="24" height="24" viewBox="0 0 24 24" fill="none" xmlns="http://www.w3.org/2000/svg">
<g id="icons8-percentage 1">
<path id="Vector" d="M18.7344 2.9925C18.6254 2.99583 18.5184 3.02289 18.4209 3.0718C18.3234 3.12071 18.2378 3.1903 18.1699 3.2757L4.66992 19.7757C4.60296 19.8513 4.55194 19.9396 4.51994 20.0354C4.48793 20.1312 4.4756 20.2324 4.48367 20.3331C4.49174 20.4337 4.52006 20.5317 4.56692 20.6212C4.61378 20.7106 4.67822 20.7897 4.75637 20.8536C4.83453 20.9176 4.92479 20.9651 5.02175 20.9933C5.1187 21.0215 5.22036 21.0299 5.32063 21.0179C5.42089 21.0058 5.51769 20.9737 5.60523 20.9234C5.69278 20.873 5.76925 20.8055 5.83008 20.7249L19.3301 4.22492C19.4232 4.11418 19.4823 3.97888 19.5002 3.83533C19.5182 3.69177 19.4942 3.54609 19.4312 3.41584C19.3683 3.28559 19.269 3.17632 19.1454 3.10121C19.0217 3.02609 18.879 2.98834 18.7344 2.9925ZM6.75 3.50031C4.96472 3.50031 3.5 4.96503 3.5 6.75031V8.75031C3.5 10.5356 4.96472 12.0003 6.75 12.0003C8.53528 12.0003 10 10.5356 10 8.75031V6.75031C10 4.96503 8.53528 3.50031 6.75 3.50031ZM6.75 5.00031C7.72172 5.00031 8.5 5.77859 8.5 6.75031V8.75031C8.5 9.72203 7.72172 10.5003 6.75 10.5003C5.77828 10.5003 5 9.72203 5 8.75031V6.75031C5 5.77859 5.77828 5.00031 6.75 5.00031ZM17.25 12.0003C15.4647 12.0003 14 13.465 14 15.2503V17.2503C14 19.0356 15.4647 20.5003 17.25 20.5003C19.0353 20.5003 20.5 19.0356 20.5 17.2503V15.2503C20.5 13.465 19.0353 12.0003 17.25 12.0003ZM17.25 13.5003C18.2217 13.5003 19 14.2786 19 15.2503V17.2503C19 18.222 18.2217 19.0003 17.25 19.0003C16.2783 19.0003 15.5 18.222 15.5 17.2503V15.2503C15.5 14.2786 16.2783 13.5003 17.25 13.5003Z" fill="#28C7FF"/>
</g>
</svg>
