<svg width="24" height="24" viewBox="0 0 24 24" fill="none" xmlns="http://www.w3.org/2000/svg">
<g id="mingcute:celebrate-line">
<g id="Group">
<path id="Vector" fill-rule="evenodd" clip-rule="evenodd" d="M8.0763 7.26091L8.1713 7.34391L16.6573 15.8289C16.7685 15.94 16.852 16.0758 16.9009 16.2252C16.9498 16.3746 16.9628 16.5334 16.9389 16.6888C16.9149 16.8442 16.8546 16.9917 16.763 17.1194C16.6713 17.2472 16.5508 17.3515 16.4113 17.4239L16.2953 17.4739L5.9103 21.3009C3.9583 22.0209 2.0573 20.1859 2.6503 18.2369L2.7003 18.0909L6.5263 7.70591C6.57688 7.56834 6.65708 7.44358 6.76123 7.34045C6.86538 7.23731 6.99093 7.15834 7.12898 7.10911C7.26704 7.05988 7.41423 7.0416 7.56013 7.05556C7.70604 7.06952 7.84709 7.11539 7.9733 7.18991L8.0763 7.26091ZM7.8623 9.86291L4.5773 18.7829C4.54676 18.8659 4.53877 18.9555 4.55416 19.0426C4.56955 19.1297 4.60775 19.2111 4.66488 19.2786C4.72202 19.3461 4.79603 19.3973 4.87937 19.4268C4.96271 19.4564 5.0524 19.4633 5.1393 19.4469L5.2193 19.4239L14.1373 16.1379L7.8623 9.86291ZM17.1073 11.6049C18.0183 11.6529 19.2673 11.8449 20.3533 12.4969C20.5735 12.6274 20.7352 12.8374 20.8052 13.0836C20.8752 13.3298 20.8481 13.5934 20.7296 13.8203C20.6111 14.0471 20.41 14.2199 20.168 14.3029C19.9259 14.386 19.6612 14.3731 19.4283 14.2669L19.3243 14.2119C18.6423 13.8019 17.7703 13.6419 17.0023 13.6019C16.6858 13.5844 16.3686 13.5858 16.0523 13.6059L15.7363 13.6369C15.4754 13.6706 15.2118 13.6001 15.0025 13.4408C14.7933 13.2814 14.6552 13.0461 14.6182 12.7856C14.5813 12.5252 14.6484 12.2607 14.8051 12.0495C14.9618 11.8382 15.1954 11.6972 15.4553 11.6569C16.003 11.5862 16.5562 11.5685 17.1073 11.6039M19.1323 8.81791C19.3871 8.81844 19.6321 8.91622 19.8172 9.09127C20.0024 9.26632 20.1137 9.50544 20.1285 9.7598C20.1433 10.0142 20.0605 10.2646 19.8969 10.4599C19.7333 10.6553 19.5013 10.7808 19.2483 10.8109L19.1323 10.8179H18.4243C18.1695 10.8174 17.9245 10.7196 17.7394 10.5446C17.5542 10.3695 17.4429 10.1304 17.4281 9.87602C17.4133 9.62165 17.4961 9.37123 17.6597 9.17588C17.8233 8.98054 18.0553 8.855 18.3083 8.82491L18.4243 8.81791H19.1323ZM15.9503 8.05091C16.1225 8.2231 16.2259 8.4522 16.2412 8.69523C16.2565 8.93826 16.1826 9.17851 16.0333 9.37091L15.9503 9.46491L14.8903 10.5259C14.7108 10.7072 14.4687 10.8129 14.2138 10.8216C13.9588 10.8302 13.7101 10.7411 13.5187 10.5724C13.3273 10.4038 13.2076 10.1683 13.1841 9.91429C13.1606 9.66025 13.2351 9.40683 13.3923 9.20591L13.4753 9.11191L14.5353 8.05191C14.6282 7.95893 14.7385 7.88518 14.8599 7.83485C14.9813 7.78453 15.1114 7.75862 15.2428 7.75862C15.3742 7.75862 15.5043 7.78453 15.6257 7.83485C15.7471 7.88518 15.8574 7.95793 15.9503 8.05091ZM13.3633 2.78591C13.8113 4.13191 13.5713 5.60591 13.2913 6.63591C13.1237 7.27827 12.8926 7.90235 12.6013 8.49891C12.4829 8.73628 12.275 8.91688 12.0234 9.00099C11.7719 9.0851 11.4972 9.06583 11.2598 8.94741C11.0224 8.82899 10.8418 8.62113 10.7577 8.36955C10.6736 8.11797 10.6929 7.84328 10.8113 7.60591C11.044 7.1268 11.2282 6.62564 11.3613 6.10991C11.5883 5.27791 11.7023 4.37491 11.5273 3.63491L11.4663 3.41891C11.4227 3.29385 11.4044 3.16138 11.4124 3.02918C11.4205 2.89699 11.4547 2.76771 11.5131 2.64885C11.5715 2.52999 11.6529 2.42391 11.7527 2.33677C11.8524 2.24964 11.9685 2.18318 12.0941 2.14126C12.2197 2.09934 12.3524 2.08279 12.4845 2.09258C12.6166 2.10236 12.7454 2.13828 12.8635 2.19826C12.9815 2.25823 13.0865 2.34106 13.1723 2.44194C13.2581 2.54282 13.323 2.65974 13.3633 2.78591ZM18.7783 5.22391C18.9658 5.41144 19.0711 5.66575 19.0711 5.93091C19.0711 6.19607 18.9658 6.45038 18.7783 6.63791L18.0713 7.34491C17.9791 7.44042 17.8687 7.5166 17.7467 7.56901C17.6247 7.62142 17.4935 7.64901 17.3607 7.65016C17.2279 7.65131 17.0962 7.62601 16.9733 7.57573C16.8504 7.52545 16.7388 7.4512 16.6449 7.35731C16.551 7.26341 16.4768 7.15176 16.4265 7.02886C16.3762 6.90597 16.3509 6.77429 16.352 6.64151C16.3532 6.50873 16.3808 6.37751 16.4332 6.25551C16.4856 6.1335 16.5618 6.02316 16.6573 5.93091L17.3643 5.22391C17.5518 5.03644 17.8061 4.93112 18.0713 4.93112C18.3365 4.93112 18.5908 5.03644 18.7783 5.22391Z" fill="white"/>
</g>
</g>
</svg>
