<svg width="16" height="16" viewBox="0 0 16 16" fill="none" xmlns="http://www.w3.org/2000/svg">
<g id="icons8-cash 1">
<path id="Vector" d="M1.83341 3C1.1951 3 0.666748 3.52835 0.666748 4.16667V9.83333C0.666748 10.4717 1.1951 11 1.83341 11H2.00008H8.92196C8.75938 11.3566 8.66675 11.7508 8.66675 12.1667C8.66675 13.7256 9.9412 15 11.5001 15C12.9184 15 14.0977 13.9437 14.2996 12.5794C15.2796 12.3023 16.0001 11.3975 16.0001 10.3333C16.0001 9.70198 15.7448 9.12766 15.3334 8.70638V4.16667C15.3334 3.52835 14.8051 3 14.1667 3H14.0001H2.00008H1.83341ZM3.28979 4H12.7104C12.6595 4.19692 12.6544 4.40287 12.6954 4.60208C12.7364 4.80129 12.8224 4.98848 12.9469 5.14932C13.0713 5.31017 13.231 5.44041 13.4135 5.53008C13.5961 5.61975 13.7967 5.66647 14.0001 5.66667C14.1126 5.66604 14.2246 5.65116 14.3334 5.6224V8.09896C14.1218 8.03528 13.8984 8 13.6667 8C12.7394 8 11.9352 8.54657 11.56 9.33659C11.5398 9.33616 11.5203 9.33333 11.5001 9.33333C10.8087 9.33333 10.1742 9.58496 9.68107 10H3.28979C3.34064 9.80308 3.34576 9.59713 3.30477 9.39792C3.26378 9.19871 3.17775 9.01152 3.05329 8.85068C2.92882 8.68983 2.7692 8.55959 2.58665 8.46992C2.40411 8.38025 2.20346 8.33353 2.00008 8.33333C1.88755 8.33396 1.77555 8.34884 1.66675 8.3776V5.6237C1.7756 5.65202 1.8876 5.66646 2.00008 5.66667C2.20346 5.66647 2.40411 5.61975 2.58665 5.53008C2.7692 5.44041 2.92882 5.31017 3.05329 5.14932C3.17775 4.98848 3.26378 4.80129 3.30477 4.60208C3.34576 4.40287 3.34064 4.19692 3.28979 4ZM8.00008 5C7.07975 5 6.33341 5.89533 6.33341 7C6.33341 8.10467 7.07975 9 8.00008 9C8.92041 9 9.66675 8.10467 9.66675 7C9.66675 5.89533 8.92041 5 8.00008 5ZM8.00008 6C8.31541 6 8.66675 6.41067 8.66675 7C8.66675 7.58933 8.31541 8 8.00008 8C7.68475 8 7.33341 7.58933 7.33341 7C7.33341 6.41067 7.68475 6 8.00008 6ZM4.33341 6.33333C4.1566 6.33333 3.98703 6.40357 3.86201 6.5286C3.73699 6.65362 3.66675 6.82319 3.66675 7C3.66675 7.17681 3.73699 7.34638 3.86201 7.4714C3.98703 7.59643 4.1566 7.66667 4.33341 7.66667C4.51023 7.66667 4.67979 7.59643 4.80482 7.4714C4.92984 7.34638 5.00008 7.17681 5.00008 7C5.00008 6.82319 4.92984 6.65362 4.80482 6.5286C4.67979 6.40357 4.51023 6.33333 4.33341 6.33333ZM11.6667 6.33333C11.4899 6.33333 11.3204 6.40357 11.1953 6.5286C11.0703 6.65362 11.0001 6.82319 11.0001 7C11.0001 7.17681 11.0703 7.34638 11.1953 7.4714C11.3204 7.59643 11.4899 7.66667 11.6667 7.66667C11.8436 7.66667 12.0131 7.59643 12.1382 7.4714C12.2632 7.34638 12.3334 7.17681 12.3334 7C12.3334 6.82319 12.2632 6.65362 12.1382 6.5286C12.0131 6.40357 11.8436 6.33333 11.6667 6.33333ZM13.6667 9C14.4093 9 15.0001 9.5908 15.0001 10.3333C15.0001 10.8619 14.698 11.3127 14.2579 11.5293C14.0504 10.6364 13.42 9.90146 12.5893 9.55273C12.8304 9.21955 13.2194 9 13.6667 9ZM11.5001 10.3333C12.5185 10.3333 13.3334 11.1482 13.3334 12.1667C13.3334 13.1851 12.5185 14 11.5001 14C10.4816 14 9.66675 13.1851 9.66675 12.1667C9.66675 11.1482 10.4816 10.3333 11.5001 10.3333Z" fill="#1F1926"/>
</g>
</svg>
