<svg width="24" height="24" viewBox="0 0 24 24" fill="none" xmlns="http://www.w3.org/2000/svg">
<g id="icons8-moon_and_stars 1">
<path id="Vector" d="M17.7383 1.48837C17.5395 1.49148 17.3502 1.57334 17.2117 1.71598C17.0733 1.85862 16.9971 2.05037 17 2.24912V2.99911H16.25C16.1506 2.99771 16.0519 3.01607 15.9597 3.05313C15.8675 3.09019 15.7836 3.14521 15.7128 3.21499C15.642 3.28478 15.5858 3.36793 15.5474 3.45963C15.5091 3.55132 15.4893 3.64972 15.4893 3.74911C15.4893 3.84851 15.5091 3.94691 15.5474 4.0386C15.5858 4.1303 15.642 4.21345 15.7128 4.28324C15.7836 4.35302 15.8675 4.40804 15.9597 4.4451C16.0519 4.48216 16.1506 4.50052 16.25 4.49911H17V5.24911C16.9986 5.3485 17.017 5.44717 17.054 5.5394C17.0911 5.63162 17.1461 5.71556 17.2159 5.78634C17.2857 5.85712 17.3688 5.91332 17.4605 5.95168C17.5522 5.99004 17.6506 6.0098 17.75 6.0098C17.8494 6.0098 17.9478 5.99004 18.0395 5.95168C18.1312 5.91332 18.2143 5.85712 18.2841 5.78634C18.3539 5.71556 18.4089 5.63162 18.446 5.5394C18.483 5.44717 18.5014 5.3485 18.5 5.24911V4.49911H19.25C19.3494 4.50052 19.4481 4.48216 19.5403 4.4451C19.6325 4.40804 19.7164 4.35302 19.7872 4.28324C19.858 4.21345 19.9142 4.1303 19.9526 4.0386C19.9909 3.94691 20.0107 3.84851 20.0107 3.74911C20.0107 3.64972 19.9909 3.55132 19.9526 3.45963C19.9142 3.36793 19.858 3.28478 19.7872 3.21499C19.7164 3.14521 19.6325 3.09019 19.5403 3.05313C19.4481 3.01607 19.3494 2.99771 19.25 2.99911H18.5V2.24912C18.5014 2.14873 18.4827 2.04908 18.4449 1.95607C18.4071 1.86306 18.3511 1.77858 18.28 1.70763C18.209 1.63669 18.1245 1.58073 18.0314 1.54307C17.9383 1.5054 17.8387 1.4868 17.7383 1.48837ZM11.25 2.99911C5.87416 2.99911 1.5 7.37327 1.5 12.7491C1.5 18.125 5.87416 22.4991 11.25 22.4991C14.8865 22.4991 18.057 20.4956 19.7295 17.5382C19.7901 17.4308 19.8233 17.3102 19.8262 17.1869C19.8291 17.0637 19.8016 16.9416 19.7461 16.8316C19.6905 16.7215 19.6088 16.6268 19.5079 16.5559C19.4071 16.4849 19.2903 16.44 19.168 16.4249C14.8457 15.8915 11.5 12.2228 11.5 7.74911C11.5 6.43872 11.7958 5.20256 12.3135 4.0831C12.365 3.97133 12.3883 3.84859 12.3812 3.72571C12.3741 3.60283 12.3368 3.48359 12.2728 3.3785C12.2087 3.27341 12.1197 3.1857 12.0137 3.12312C11.9078 3.06053 11.788 3.02499 11.665 3.01962C11.571 3.01557 11.4333 2.99911 11.25 2.99911ZM10.5732 4.56747C10.2384 5.57507 10 6.62756 10 7.74911C10 12.5467 13.3242 16.542 17.7852 17.6515C16.283 19.6564 13.9528 20.9991 11.25 20.9991C6.68484 20.9991 3 17.3143 3 12.7491C3 8.41591 6.33182 4.91603 10.5732 4.56747ZM20.2383 7.98837C20.0395 7.99148 19.8502 8.07334 19.7117 8.21598C19.5733 8.35862 19.4971 8.55037 19.5 8.74911V9.49911H18.75C18.6506 9.49771 18.5519 9.51607 18.4597 9.55313C18.3675 9.59019 18.2836 9.64521 18.2128 9.715C18.142 9.78478 18.0858 9.86793 18.0474 9.95963C18.0091 10.0513 17.9893 10.1497 17.9893 10.2491C17.9893 10.3485 18.0091 10.4469 18.0474 10.5386C18.0858 10.6303 18.142 10.7135 18.2128 10.7832C18.2836 10.853 18.3675 10.908 18.4597 10.9451C18.5519 10.9822 18.6506 11.0005 18.75 10.9991H19.5V11.7491C19.4986 11.8485 19.517 11.9472 19.554 12.0394C19.5911 12.1316 19.6461 12.2156 19.7159 12.2863C19.7857 12.3571 19.8688 12.4133 19.9605 12.4517C20.0522 12.49 20.1506 12.5098 20.25 12.5098C20.3494 12.5098 20.4478 12.49 20.5395 12.4517C20.6312 12.4133 20.7143 12.3571 20.7841 12.2863C20.8539 12.2156 20.9089 12.1316 20.946 12.0394C20.983 11.9472 21.0014 11.8485 21 11.7491V10.9991H21.75C21.8494 11.0005 21.9481 10.9822 22.0403 10.9451C22.1325 10.908 22.2164 10.853 22.2872 10.7832C22.358 10.7135 22.4142 10.6303 22.4526 10.5386C22.4909 10.4469 22.5107 10.3485 22.5107 10.2491C22.5107 10.1497 22.4909 10.0513 22.4526 9.95963C22.4142 9.86793 22.358 9.78478 22.2872 9.715C22.2164 9.64521 22.1325 9.59019 22.0403 9.55313C21.9481 9.51607 21.8494 9.49771 21.75 9.49911H21V8.74911C21.0014 8.64873 20.9827 8.54908 20.9449 8.45607C20.9071 8.36306 20.8511 8.27858 20.78 8.20763C20.709 8.13669 20.6245 8.08073 20.5314 8.04307C20.4383 8.0054 20.3387 7.9868 20.2383 7.98837Z" fill="#3E2ABB"/>
</g>
</svg>
