<svg width="48" height="48" viewBox="0 0 48 48" fill="none" xmlns="http://www.w3.org/2000/svg">
<path d="M21.7641 5.00968C20.2866 5.00968 18.8082 5.56884 17.6899 6.68741C15.451 8.92491 15.451 12.6003 17.6899 14.8378V14.8398L25.4418 22.5624C25.723 22.8424 26.1036 22.9996 26.5004 22.9996C26.8972 22.9996 27.2779 22.8424 27.559 22.5624L35.311 14.8398V14.8378C37.5492 12.601 37.5497 8.92705 35.3129 6.68936C33.0758 4.44957 29.3996 4.44957 27.1625 6.68936L26.5004 7.29874L25.8383 6.68936C24.7198 5.56947 23.2425 5.00968 21.7641 5.00968ZM31.2387 7.99014C31.9426 7.99014 32.6454 8.2634 33.1899 8.8085L33.1918 8.81046C34.2825 9.90049 34.2816 11.6242 33.1918 12.7148L26.5004 19.3808L19.809 12.7167V12.7148C18.7193 11.6242 18.7183 9.90049 19.809 8.81046L19.811 8.8085C20.3554 8.2634 21.06 7.9921 21.7641 7.9921C22.4682 7.9921 23.1708 8.2634 23.7153 8.8085C23.7293 8.82246 23.7436 8.83613 23.7582 8.84952L25.4828 10.4433C25.76 10.6991 26.1233 10.8412 26.5004 10.8412C26.8776 10.8412 27.2409 10.6991 27.518 10.4433L29.2426 8.84952C29.2572 8.83613 29.2715 8.82246 29.2856 8.8085C29.83 8.2634 30.5349 7.99014 31.2387 7.99014ZM41.6137 22.0194C40.4935 22.0291 39.4296 22.4732 38.4848 23.1757C37.4706 23.9292 34.4189 26.208 31.7778 28.1796C31.205 26.3514 29.5063 24.9999 27.5004 24.9999H23.1078C20.2966 24.9999 18.986 24.7721 17.8598 24.5331C16.7336 24.2941 15.6472 23.9999 13.8266 23.9999C9.94182 23.9999 7.01276 26.4929 5.09418 28.7909C3.17559 31.089 2.13519 33.3847 2.13519 33.3847C2.05345 33.564 2.00782 33.7576 2.00092 33.9545C1.99402 34.1515 2.02598 34.3478 2.09498 34.5324C2.16398 34.717 2.26866 34.8861 2.40305 35.0303C2.53744 35.1744 2.6989 35.2906 2.87821 35.3723C3.05752 35.454 3.25117 35.4996 3.4481 35.5064C3.64503 35.5133 3.84138 35.4813 4.02594 35.4122C4.2105 35.3432 4.37965 35.2385 4.52373 35.1041C4.66781 34.9696 4.784 34.8081 4.86566 34.6288C4.86566 34.6288 5.76474 32.6697 7.39691 30.7148C9.02908 28.7598 11.2604 26.9999 13.8266 26.9999C15.348 26.9999 16.0072 27.2057 17.2368 27.4667C18.4663 27.7277 20.1241 27.9999 23.1078 27.9999H27.5004C28.3469 27.9999 29.0004 28.6534 29.0004 29.4999C29.0004 29.9694 28.7946 30.3742 28.4711 30.6464L28.4301 30.6776C28.4013 30.7001 28.3733 30.7235 28.3461 30.748L28.3442 30.7499C28.1057 30.9085 27.8169 30.9999 27.5004 30.9999H20.5004C20.3017 30.9971 20.1043 31.0338 19.9199 31.1079C19.7354 31.1821 19.5675 31.2921 19.426 31.4317C19.2844 31.5712 19.172 31.7375 19.0953 31.9209C19.0186 32.1043 18.9791 32.3011 18.9791 32.4999C18.9791 32.6987 19.0186 32.8955 19.0953 33.0789C19.172 33.2623 19.2844 33.4286 19.426 33.5682C19.5675 33.7077 19.7354 33.8178 19.9199 33.8919C20.1043 33.966 20.3017 34.0027 20.5004 33.9999H27.5004C28.4411 33.9999 29.3157 33.7014 30.0414 33.1991L30.0453 33.1972C30.1079 33.1631 30.168 33.1246 30.225 33.0819C30.225 33.0819 38.7764 26.6963 40.2739 25.5839V25.5819C40.8381 25.1624 41.3103 25.0223 41.6411 25.0194C41.9719 25.0165 42.2187 25.0968 42.561 25.4394C43.1513 26.0292 43.1478 26.935 42.5727 27.5331C37.2176 32.0361 33.8489 35.0368 31.6235 36.7948C29.3703 38.5748 28.4254 38.9999 27.5004 38.9999C23.8483 38.9999 19.8011 37.9999 15.5004 37.9999C13.0004 37.9999 11.2432 39.3435 10.3012 40.5995C9.35921 41.8555 9.04535 43.1366 9.04535 43.1366C8.9924 43.3294 8.97854 43.5309 9.00456 43.7291C9.03059 43.9274 9.09598 44.1184 9.1969 44.291C9.29782 44.4636 9.43223 44.6143 9.59223 44.7343C9.75222 44.8542 9.93457 44.9409 10.1286 44.9893C10.3226 45.0378 10.5243 45.0469 10.7219 45.0163C10.9195 44.9856 11.1089 44.9158 11.2791 44.8109C11.4493 44.706 11.5969 44.5681 11.713 44.4053C11.8292 44.2426 11.9116 44.0583 11.9555 43.8632C11.9555 43.8632 12.1416 43.1443 12.6996 42.4003C13.2576 41.6563 14.0004 40.9999 15.5004 40.9999C19.3078 40.9999 23.3365 41.9999 27.5004 41.9999C29.4024 41.9999 31.0853 41.0443 33.4828 39.1503C35.8502 37.2801 39.1758 34.3098 44.4985 29.8339C44.5636 29.7881 44.625 29.7371 44.6821 29.6816C44.689 29.6747 44.6909 29.6651 44.6977 29.6581L44.7016 29.662L44.7543 29.6073C44.9007 29.4548 45.0132 29.2731 45.0844 29.0741C46.3309 27.3217 46.2493 24.8842 44.6821 23.3183C43.8533 22.4888 42.7339 22.0098 41.6137 22.0194Z" fill="#3E2ABB"/>
</svg>
