<svg width="21" height="21" viewBox="0 0 21 21" fill="none" xmlns="http://www.w3.org/2000/svg">
<g id="icons8-home 2">
<path id="Vector" d="M17.2812 18.8125H13.3438C12.7396 18.8125 12.25 18.3229 12.25 17.7188V13.7812C12.25 13.2978 11.8584 12.9062 11.375 12.9062H9.625C9.14156 12.9062 8.75 13.2978 8.75 13.7812V17.7188C8.75 18.3229 8.26044 18.8125 7.65625 18.8125H3.71875C3.11456 18.8125 2.625 18.3229 2.625 17.7188V9.36819C2.625 8.36238 3.08613 7.41213 3.87581 6.79L10.0936 1.89044C10.332 1.70319 10.668 1.70319 10.906 1.89044L17.1246 6.79C17.9143 7.41213 18.375 8.36194 18.375 9.36731V17.7188C18.375 18.3229 17.8854 18.8125 17.2812 18.8125Z" fill="white"/>
</g>
</svg>
