<svg width="48" height="48" viewBox="0 0 48 48" fill="none" xmlns="http://www.w3.org/2000/svg">
<rect x="0.5" y="0.5" width="47" height="47" rx="23.5" fill="white" stroke="#3E2ABB"/>
<path d="M20.25 16.9165C17.726 16.9165 15.6666 18.9759 15.6666 21.4998C15.6666 23.2066 16.9531 24.8135 18.5214 26.4616C20.0897 28.1096 22.0201 29.7788 23.5581 31.3167C23.6753 31.4339 23.8342 31.4997 24 31.4997C24.1657 31.4997 24.3246 31.4339 24.4419 31.3167C25.9798 29.7788 27.9102 28.1096 29.4785 26.4616C31.0468 24.8135 32.3333 23.2066 32.3333 21.4998C32.3333 18.9759 30.2739 16.9165 27.75 16.9165C26.3014 16.9165 25.0403 17.6942 24 19.0153C22.9596 17.6942 21.6985 16.9165 20.25 16.9165ZM20.25 18.1665C21.4702 18.1665 22.4859 18.8158 23.4718 20.3752C23.5282 20.4642 23.6062 20.5376 23.6985 20.5884C23.7908 20.6393 23.8945 20.6659 24 20.6659C24.1054 20.6659 24.2091 20.6393 24.3014 20.5884C24.3938 20.5376 24.4717 20.4642 24.5281 20.3752C25.514 18.8158 26.5297 18.1665 27.75 18.1665C29.5985 18.1665 31.0833 19.6513 31.0833 21.4998C31.0833 22.5014 30.0781 24.0195 28.5735 25.6006C27.2015 27.0424 25.4959 28.5488 24 30.0073C22.504 28.5488 20.7985 27.0424 19.4264 25.6006C17.9218 24.0195 16.9166 22.5014 16.9166 21.4998C16.9166 19.6513 18.4014 18.1665 20.25 18.1665Z" fill="#3E2ABB"/>
</svg>
