<svg width="120" height="120" viewBox="0 0 120 120" fill="none" xmlns="http://www.w3.org/2000/svg">
<g id="icons8-team 1">
<path id="Vector" d="M75.4688 77.6663C78.3169 77.6663 80.625 75.3581 80.625 72.51V71.25H70.3125V72.51C70.3125 75.3581 72.6206 77.6663 75.4688 77.6663Z" fill="url(#paint0_linear_588_14829)"/>
<path id="Vector_2" d="M54.375 63.75C56.4461 63.75 58.125 62.0711 58.125 60C58.125 57.9289 56.4461 56.25 54.375 56.25C52.3039 56.25 50.625 57.9289 50.625 60C50.625 62.0711 52.3039 63.75 54.375 63.75Z" fill="url(#paint1_linear_588_14829)"/>
<path id="Vector_3" d="M37.5 63.75C39.5711 63.75 41.25 62.0711 41.25 60C41.25 57.9289 39.5711 56.25 37.5 56.25C35.4289 56.25 33.75 57.9289 33.75 60C33.75 62.0711 35.4289 63.75 37.5 63.75Z" fill="url(#paint2_linear_588_14829)"/>
<path id="Vector_4" d="M45.5625 74.4994H46.3125C49.2113 74.4994 51.5625 72.1481 51.5625 69.2494V67.5H40.3125V69.2494C40.3125 72.15 42.6637 74.4994 45.5625 74.4994Z" fill="url(#paint3_linear_588_14829)"/>
<path id="Vector_5" d="M83.4375 67.5C84.9908 67.5 86.25 66.2408 86.25 64.6875C86.25 63.1342 84.9908 61.875 83.4375 61.875C81.8842 61.875 80.625 63.1342 80.625 64.6875C80.625 66.2408 81.8842 67.5 83.4375 67.5Z" fill="url(#paint4_linear_588_14829)"/>
<path id="Vector_6" d="M103.125 79.7194V66.7837C104.278 65.4656 105 63.7612 105 61.875C105 59.9888 104.278 58.2863 103.125 56.9663V56.3381C103.125 48.4069 99.2494 41.3663 93.2812 36.8925V30.9413C93.2812 29.2519 92.4094 27.7369 90.9469 26.8894C89.4844 26.0381 87.7369 26.0325 86.2669 26.8725L81.3769 29.6662C80.5762 29.2819 79.6875 29.0625 78.75 29.0625C77.8219 29.0625 76.9369 29.2894 76.1344 29.6737L71.2313 26.8725C69.7631 26.0325 68.0156 26.0381 66.5513 26.8894C65.6175 27.4312 64.9575 28.2638 64.5788 29.2219C61.3519 25.5506 57.1519 22.8413 52.4006 21.5288C51.9412 18.8869 49.65 16.875 46.875 16.875H45C42.225 16.875 39.9338 18.8869 39.4725 21.5288C28.6425 24.5194 20.625 34.7887 20.625 46.9988V49.2506C17.3606 50.3981 15 53.4994 15 57.255C15 61.7212 18.525 65.3494 22.935 65.58C23.2519 67.2038 23.73 68.7694 24.3713 70.2544C16.1325 76.8938 11.25 87.0525 11.25 97.7513V103.125H79.5881H80.625H108.75V98.0231C108.75 91.3538 106.759 85.035 103.125 79.7194ZM96.8213 72.8625C97.11 71.7319 97.3144 70.5694 97.4119 69.375H97.5C98.1506 69.375 98.7712 69.2663 99.375 69.1088V75.1838C98.5706 74.3719 97.7194 73.5956 96.8213 72.8625ZM67.5056 70.2544C68.145 68.7694 68.625 67.2038 68.94 65.5819C73.35 65.3494 76.875 61.7156 76.875 57.12C76.875 55.6444 76.4587 54.2775 75.7856 53.0719C76.9912 51.8456 77.9775 50.4506 78.75 48.945C81.5531 54.3881 87.2175 58.125 93.75 58.125V67.6275C93.75 76.59 86.9681 83.9887 78.27 84.9881C76.0781 79.275 72.4106 74.2013 67.5056 70.2544ZM26.25 61.185V58.7531V54.375C29.3512 54.375 31.875 51.8512 31.875 48.75V45C31.875 43.965 32.7169 43.125 33.75 43.125H58.125C59.1581 43.125 60 43.965 60 45V48.75C60 51.8512 62.5238 54.375 65.625 54.375V61.185C65.625 71.9044 56.7938 80.625 45.9375 80.625C35.0812 80.625 26.25 71.9044 26.25 61.185ZM73.125 57.255C73.125 59.505 71.5088 61.3838 69.375 61.7925V61.185V52.8244V52.5881C71.5069 52.9988 73.125 54.8869 73.125 57.255ZM101.25 61.875C101.25 63.9431 99.5681 65.625 97.5 65.625V58.125C99.5681 58.125 101.25 59.8069 101.25 61.875ZM99.285 54.6131C98.7113 54.4725 98.1188 54.375 97.5 54.375H93.75C86.5125 54.375 80.625 48.4856 80.625 41.25H76.875C76.875 44.6362 75.5775 47.8387 73.2806 50.2631C72.6619 49.83 71.9756 49.5037 71.25 49.2506V47.0006C71.25 43.6537 70.6238 40.4606 69.5269 37.5113C72.255 36.2963 75.2269 35.625 78.2475 35.625C89.3044 35.625 98.3869 43.9988 99.285 54.6131ZM88.1287 30.1275C88.5525 29.8856 88.9256 30.0487 89.0662 30.1312C89.2069 30.2119 89.5331 30.4538 89.5331 30.9413V34.5637C87.7894 33.6863 85.9275 33.0094 83.9775 32.5556C84.0037 32.5238 84.0225 32.4881 84.0506 32.4581L88.1287 30.1275ZM67.9688 34.02V30.9413C67.9688 30.4538 68.295 30.2119 68.4356 30.1312C68.5763 30.0506 68.9475 29.8894 69.3731 30.1275L73.3369 32.3906C73.335 32.3962 73.3313 32.4 73.3294 32.4056C71.4881 32.7713 69.7031 33.3356 67.995 34.0969C67.98 34.0706 67.9631 34.0462 67.95 34.0181L67.9688 34.02ZM45.9375 24.375C57.8269 24.375 67.5 34.5244 67.5 46.9988V50.625H65.625C64.5919 50.625 63.75 49.785 63.75 48.75V45C63.75 41.8988 61.2262 39.375 58.125 39.375H33.75C30.6488 39.375 28.125 41.8988 28.125 45V48.75C28.125 49.785 27.2831 50.625 26.25 50.625H24.375V46.9988C24.375 34.5244 34.0481 24.375 45.9375 24.375ZM22.5 61.7925C20.3663 61.3819 18.75 59.4881 18.75 57.12C18.75 54.8719 20.3681 52.9969 22.5 52.5881V54.375V58.7531V61.185V61.7925ZM26.1825 73.6106C30.3469 80.07 37.6369 84.375 45.9375 84.375C54.2231 84.375 61.5019 80.0869 65.67 73.6481C66.84 74.6325 67.9256 75.6844 68.925 76.8075C63.4331 83.8125 54.9412 87.9619 45.9375 87.9619C36.8775 87.9619 28.4287 83.8219 22.9369 76.7944C23.9381 75.6619 25.0181 74.595 26.1825 73.6106ZM76.875 99.375H69.375V95.625H65.625V99.375H26.25V95.625H22.5V99.375H15V97.7513C15 91.2787 17.0025 85.0312 20.5725 79.8263C26.7788 87.315 36.0319 91.7138 45.9375 91.7138C55.7869 91.7138 65.0962 87.3075 71.3044 79.83C74.8837 85.0144 76.875 91.2 76.875 97.7513V99.375ZM105 99.375H99.375V95.625H95.625V99.375H80.625V97.7513C80.625 94.6087 80.2087 91.5413 79.4325 88.6012C86.535 87.5306 92.4844 82.9444 95.4544 76.6631C101.531 82.1156 105 89.7562 105 98.0231V99.375Z" fill="url(#paint5_linear_588_14829)"/>
</g>
<defs>
<linearGradient id="paint0_linear_588_14829" x1="75.4688" y1="70.9819" x2="75.4688" y2="78.0675" gradientUnits="userSpaceOnUse">
<stop stop-color="#6DC7FF"/>
<stop offset="1" stop-color="#E6ABFF"/>
</linearGradient>
<linearGradient id="paint1_linear_588_14829" x1="54.375" y1="55.7812" x2="54.375" y2="64.0687" gradientUnits="userSpaceOnUse">
<stop stop-color="#6DC7FF"/>
<stop offset="1" stop-color="#E6ABFF"/>
</linearGradient>
<linearGradient id="paint2_linear_588_14829" x1="37.5" y1="55.7812" x2="37.5" y2="64.0687" gradientUnits="userSpaceOnUse">
<stop stop-color="#6DC7FF"/>
<stop offset="1" stop-color="#E6ABFF"/>
</linearGradient>
<linearGradient id="paint3_linear_588_14829" x1="45.9375" y1="67.2075" x2="45.9375" y2="74.9381" gradientUnits="userSpaceOnUse">
<stop stop-color="#6DC7FF"/>
<stop offset="1" stop-color="#E6ABFF"/>
</linearGradient>
<linearGradient id="paint4_linear_588_14829" x1="83.4375" y1="61.5244" x2="83.4375" y2="67.7381" gradientUnits="userSpaceOnUse">
<stop stop-color="#6DC7FF"/>
<stop offset="1" stop-color="#E6ABFF"/>
</linearGradient>
<linearGradient id="paint5_linear_588_14829" x1="60" y1="17.9119" x2="60" y2="101.137" gradientUnits="userSpaceOnUse">
<stop stop-color="#1A6DFF"/>
<stop offset="1" stop-color="#C822FF"/>
</linearGradient>
</defs>
</svg>
