<svg width="24" height="24" viewBox="0 0 24 24" fill="none" xmlns="http://www.w3.org/2000/svg">
<g id="icons8-verified_account 1">
<path id="Vector" d="M12 2C10.571 2 9.36078 2.82754 8.72949 4.01172C7.41075 3.549 5.89818 3.79909 4.84863 4.84863C3.79906 5.89821 3.54992 7.40974 4.0127 8.72852C2.82795 9.35994 2 10.5706 2 12C2 13.429 2.82754 14.6392 4.01172 15.2705C3.549 16.5893 3.79909 18.1018 4.84863 19.1514C5.89821 20.2009 7.40974 20.4501 8.72852 19.9873C9.35994 21.1721 10.5706 22 12 22C13.429 22 14.6392 21.1725 15.2705 19.9883C16.5893 20.451 18.1018 20.2009 19.1514 19.1514C20.2009 18.1018 20.4501 16.5903 19.9873 15.2715C21.1721 14.6401 22 13.4294 22 12C22 10.571 21.1725 9.36078 19.9883 8.72949C20.451 7.41075 20.2009 5.89818 19.1514 4.84863C18.1018 3.79906 16.5903 3.54992 15.2715 4.0127C14.6401 2.82795 13.4294 2 12 2ZM12 3.5C13.0472 3.5 13.9121 4.20795 14.1699 5.16602C14.2006 5.27965 14.2575 5.38447 14.3362 5.47202C14.4148 5.55957 14.513 5.62738 14.6227 5.66997C14.7324 5.71256 14.8506 5.72874 14.9677 5.71719C15.0848 5.70565 15.1976 5.66671 15.2969 5.60352C16.1664 5.05069 17.3265 5.14487 18.0908 5.90918C18.8551 6.67349 18.9493 7.83359 18.3965 8.70312C18.3333 8.80247 18.2944 8.9153 18.2829 9.03248C18.2714 9.14966 18.2877 9.2679 18.3304 9.37762C18.3731 9.48735 18.441 9.58549 18.5287 9.66409C18.6163 9.74269 18.7212 9.79956 18.835 9.83008C19.7922 10.0874 20.5 10.9528 20.5 12C20.5 13.0472 19.7921 13.9121 18.834 14.1699C18.7204 14.2006 18.6155 14.2575 18.528 14.3362C18.4404 14.4148 18.3726 14.513 18.33 14.6227C18.2874 14.7324 18.2713 14.8506 18.2828 14.9677C18.2944 15.0848 18.3333 15.1976 18.3965 15.2969C18.9493 16.1664 18.8551 17.3265 18.0908 18.0908C17.3265 18.8551 16.1664 18.9493 15.2969 18.3965C15.1975 18.3333 15.0847 18.2944 14.9675 18.2829C14.8503 18.2714 14.7321 18.2877 14.6224 18.3304C14.5126 18.3731 14.4145 18.441 14.3359 18.5287C14.2573 18.6163 14.2004 18.7212 14.1699 18.835C13.9126 19.7922 13.0472 20.5 12 20.5C10.9528 20.5 10.0879 19.7921 9.83008 18.834C9.79944 18.7204 9.74249 18.6155 9.66384 18.528C9.58518 18.4404 9.48703 18.3726 9.37732 18.33C9.26761 18.2874 9.14942 18.2713 9.03229 18.2828C8.91517 18.2944 8.80241 18.3333 8.70312 18.3965C7.83359 18.9493 6.67349 18.8551 5.90918 18.0908C5.14487 17.3265 5.05069 16.1664 5.60352 15.2969C5.6667 15.1975 5.70561 15.0847 5.71709 14.9675C5.72858 14.8503 5.71231 14.7321 5.66962 14.6224C5.62693 14.5126 5.559 14.4145 5.47135 14.3359C5.38369 14.2573 5.27875 14.2004 5.16504 14.1699C4.20776 13.9126 3.5 13.0472 3.5 12C3.5 10.9528 4.20795 10.0879 5.16602 9.83008C5.27965 9.79944 5.38447 9.74249 5.47202 9.66384C5.55957 9.58518 5.62738 9.48703 5.66997 9.37732C5.71256 9.26761 5.72874 9.14942 5.71719 9.03229C5.70565 8.91517 5.66671 8.80241 5.60352 8.70312C5.05069 7.83359 5.14487 6.67349 5.90918 5.90918C6.67349 5.14487 7.83359 5.05069 8.70312 5.60352C8.80247 5.6667 8.9153 5.70561 9.03248 5.71709C9.14966 5.72858 9.2679 5.71231 9.37762 5.66962C9.48735 5.62693 9.58549 5.559 9.66409 5.47135C9.74269 5.38369 9.79956 5.27875 9.83008 5.16504C10.0874 4.20776 10.9528 3.5 12 3.5ZM15.7354 8.99316C15.5406 8.99884 15.3556 9.0801 15.2197 9.21973L10.75 13.6895L8.78027 11.7197C8.71116 11.6477 8.62839 11.5903 8.53679 11.5507C8.4452 11.5111 8.34662 11.4902 8.24684 11.4892C8.14706 11.4882 8.04808 11.5071 7.9557 11.5448C7.86332 11.5825 7.77939 11.6383 7.70883 11.7088C7.63828 11.7794 7.58251 11.8633 7.54479 11.9557C7.50707 12.0481 7.48817 12.1471 7.48918 12.2468C7.4902 12.3466 7.51111 12.4452 7.5507 12.5368C7.59028 12.6284 7.64775 12.7112 7.71973 12.7803L10.2197 15.2803C10.3604 15.4209 10.5511 15.4999 10.75 15.4999C10.9489 15.4999 11.1396 15.4209 11.2803 15.2803L16.2803 10.2803C16.3885 10.1749 16.4623 10.0393 16.4922 9.89126C16.5221 9.7432 16.5066 9.58958 16.4477 9.4505C16.3888 9.31141 16.2893 9.19335 16.1622 9.11175C16.0351 9.03015 15.8863 8.98882 15.7354 8.99316Z" fill="#28C7FF"/>
</g>
</svg>
