<svg width="40" height="40" viewBox="0 0 40 40" fill="none" xmlns="http://www.w3.org/2000/svg">
<circle opacity="0.1" cx="20" cy="20" r="20" fill="#1F1926"/>
<path d="M18.7352 12.4925C18.5404 12.4982 18.3555 12.5794 18.2196 12.7191L11.2196 19.7191C11.079 19.8597 11 20.0505 11 20.2493C11 20.4482 11.079 20.639 11.2196 20.7796L18.2196 27.7796C18.2887 27.8516 18.3715 27.9091 18.4631 27.9486C18.5547 27.9882 18.6532 28.0091 18.753 28.0102C18.8528 28.0112 18.9518 27.9923 19.0442 27.9545C19.1365 27.9168 19.2205 27.8611 19.291 27.7905C19.3616 27.7199 19.4174 27.636 19.4551 27.5436C19.4928 27.4513 19.5117 27.3523 19.5107 27.2525C19.5097 27.1527 19.4887 27.0541 19.4492 26.9625C19.4096 26.8709 19.3521 26.7882 19.2801 26.7191L13.5604 20.9993H28.2499C28.3492 21.0007 28.4479 20.9824 28.5401 20.9453C28.6324 20.9083 28.7163 20.8532 28.7871 20.7835C28.8579 20.7137 28.9141 20.6305 28.9524 20.5388C28.9908 20.4471 29.0105 20.3487 29.0105 20.2493C29.0105 20.1499 28.9908 20.0515 28.9524 19.9598C28.9141 19.8682 28.8579 19.785 28.7871 19.7152C28.7163 19.6454 28.6324 19.5904 28.5401 19.5534C28.4479 19.5163 28.3492 19.4979 28.2499 19.4993H13.5604L19.2801 13.7796C19.3883 13.6742 19.4622 13.5386 19.4921 13.3906C19.5219 13.2425 19.5064 13.0889 19.4475 12.9498C19.3886 12.8107 19.2891 12.6927 19.162 12.6111C19.0349 12.5295 18.8862 12.4882 18.7352 12.4925Z" fill="#1F1926"/>
</svg>
