<svg width="36" height="24" viewBox="0 0 36 24" fill="none" xmlns="http://www.w3.org/2000/svg">
<rect width="36" height="24" rx="12" fill="#FF3880"/>
<path d="M21.8716 7.74425C21.7726 7.74658 21.6785 7.78801 21.6099 7.85948L18.0001 11.4693L14.3902 7.85948C14.3552 7.82348 14.3134 7.79487 14.2672 7.77532C14.221 7.75578 14.1713 7.74571 14.1212 7.74571C14.0465 7.74573 13.9736 7.76801 13.9117 7.80971C13.8498 7.85141 13.8018 7.91062 13.7737 7.97978C13.7457 8.04894 13.7389 8.1249 13.7542 8.19793C13.7696 8.27096 13.8064 8.33775 13.8599 8.38975L17.4698 11.9996L13.8599 15.6095C13.8239 15.644 13.7952 15.6854 13.7754 15.7312C13.7556 15.777 13.7452 15.8263 13.7446 15.8762C13.7441 15.9261 13.7536 15.9756 13.7725 16.0218C13.7913 16.068 13.8192 16.1099 13.8545 16.1452C13.8898 16.1805 13.9317 16.2084 13.9779 16.2272C14.0241 16.2461 14.0736 16.2555 14.1235 16.255C14.1734 16.2545 14.2227 16.2441 14.2685 16.2243C14.3143 16.2045 14.3556 16.1757 14.3902 16.1398L18.0001 12.5299L21.6099 16.1398C21.6445 16.1757 21.6859 16.2045 21.7317 16.2243C21.7775 16.2441 21.8267 16.2545 21.8766 16.255C21.9265 16.2555 21.976 16.2461 22.0222 16.2272C22.0684 16.2084 22.1104 16.1805 22.1456 16.1452C22.1809 16.1099 22.2088 16.068 22.2277 16.0218C22.2465 15.9756 22.256 15.9261 22.2555 15.8762C22.255 15.8263 22.2445 15.777 22.2247 15.7312C22.2049 15.6854 22.1762 15.644 22.1402 15.6095L18.5303 11.9996L22.1402 8.38975C22.1947 8.33741 22.2322 8.26982 22.2476 8.19583C22.2631 8.12184 22.2558 8.04491 22.2268 7.97512C22.1977 7.90533 22.1483 7.84595 22.0849 7.80475C22.0215 7.76355 21.9472 7.74246 21.8716 7.74425Z" fill="white" stroke="white"/>
</svg>
