<svg width="22" height="22" viewBox="0 0 22 22" fill="none" xmlns="http://www.w3.org/2000/svg">
<g id="icons8-discount 1">
<path id="Vector" d="M8.16046 1.82889C7.87078 1.81957 7.57031 1.86127 7.26617 1.98734C6.45508 2.32317 6.08885 3.06071 5.80433 3.67565C5.51982 4.29059 5.27379 4.85059 5.06223 5.06229H5.06133C4.82789 5.296 4.26699 5.54746 3.65679 5.83214C3.04659 6.11682 2.31836 6.46772 1.98728 7.26712C1.65632 8.06658 1.92359 8.83022 2.15378 9.463C2.38398 10.0958 2.6024 10.6697 2.60227 11C2.60214 11.2995 2.38122 11.8697 2.14752 12.5057C1.91381 13.1418 1.65111 13.9228 1.98728 14.7338C2.32311 15.5449 3.06065 15.9112 3.67559 16.1957C4.29053 16.4802 4.84964 16.7262 5.06133 16.9378V16.9387H5.06223C5.29595 17.1721 5.54651 17.733 5.83119 18.3432C6.11587 18.9534 6.46677 19.6816 7.26617 20.0127C8.06562 20.3437 8.82927 20.0764 9.46205 19.8462C10.0948 19.616 10.6696 19.3976 11 19.3977C11.2994 19.3979 11.8696 19.6188 12.5057 19.8525C13.1417 20.0862 13.9218 20.3489 14.7329 20.0127C15.544 19.6769 15.9102 18.9394 16.1947 18.3244C16.4792 17.7095 16.7262 17.1504 16.9377 16.9387V16.9378C17.1712 16.7041 17.7321 16.4535 18.3423 16.1688C18.9525 15.8841 19.6816 15.5332 20.0127 14.7338C20.3436 13.9344 20.0764 13.1707 19.8462 12.538C19.616 11.9052 19.3966 11.3304 19.3968 11C19.3969 10.7006 19.6187 10.1304 19.8524 9.49433C20.0861 8.85827 20.3488 8.07817 20.0127 7.26712C19.6768 6.45603 18.9393 6.0898 18.3244 5.80529C17.7094 5.52078 17.1494 5.27385 16.9377 5.06229C16.704 4.82884 16.4525 4.26795 16.1679 3.65775C15.8832 3.04755 15.5323 2.31842 14.7329 1.98734C13.9334 1.65638 13.1698 1.92364 12.537 2.15384C11.9042 2.38403 11.3303 2.60336 11 2.60322C10.7006 2.60309 10.1303 2.38127 9.49428 2.14757C9.17624 2.03072 8.82208 1.90682 8.44602 1.85395C8.352 1.84074 8.25701 1.83199 8.16046 1.82889ZM8.47914 6.87503C9.3651 6.87503 10.0833 7.59324 10.0833 8.4792C10.0833 9.36516 9.3651 10.0834 8.47914 10.0834C7.59318 10.0834 6.87497 9.36516 6.87497 8.4792C6.87497 7.59324 7.59318 6.87503 8.47914 6.87503ZM14.4375 6.87503C14.6134 6.87503 14.7893 6.94216 14.9236 7.07645C15.1921 7.34503 15.1921 7.78003 14.9236 8.04861L8.04856 14.9236C7.91427 15.0579 7.73847 15.125 7.56247 15.125C7.38647 15.125 7.21022 15.0579 7.07639 14.9236C6.80781 14.655 6.80781 14.22 7.07639 13.9514L13.9514 7.07645C14.0857 6.94216 14.2616 6.87503 14.4375 6.87503ZM13.5208 11.9167C14.4068 11.9167 15.125 12.6349 15.125 13.5209C15.125 14.4068 14.4068 15.125 13.5208 15.125C12.6348 15.125 11.9166 14.4068 11.9166 13.5209C11.9166 12.6349 12.6348 11.9167 13.5208 11.9167Z" fill="#3E2ABB"/>
</g>
</svg>
