<svg width="20" height="20" viewBox="0 0 20 20" fill="none" xmlns="http://www.w3.org/2000/svg">
<g id="icons8-company 1">
<path id="Vector" d="M2.69873 2.0745C2.66844 2.07529 2.63825 2.07828 2.6084 2.08345H1.87516C1.79234 2.08228 1.71012 2.09758 1.63326 2.12846C1.55641 2.15935 1.48646 2.2052 1.42747 2.26335C1.36849 2.3215 1.32166 2.3908 1.28969 2.46721C1.25772 2.54362 1.24126 2.62562 1.24126 2.70845C1.24126 2.79128 1.25772 2.87328 1.28969 2.94969C1.32166 3.0261 1.36849 3.0954 1.42747 3.15355C1.48646 3.2117 1.55641 3.25755 1.63326 3.28844C1.71012 3.31932 1.79234 3.33462 1.87516 3.33345H2.0835V11.2924C1.3862 11.3989 0.833496 11.9841 0.833496 12.7085V17.2918C0.833513 17.4575 0.899366 17.6165 1.01657 17.7337C1.13378 17.8509 1.29274 17.9168 1.4585 17.9168H13.1252C13.2909 17.9168 13.4499 17.8509 13.5671 17.7337C13.6843 17.6165 13.7501 17.4575 13.7502 17.2918V12.7085C13.7502 11.9841 13.1975 11.3989 12.5002 11.2924V3.33345H12.7085C12.7913 3.33462 12.8735 3.31932 12.9504 3.28844C13.0273 3.25755 13.0972 3.2117 13.1562 3.15355C13.2152 3.0954 13.262 3.0261 13.294 2.94969C13.3259 2.87328 13.3424 2.79128 13.3424 2.70845C13.3424 2.62562 13.3259 2.54362 13.294 2.46721C13.262 2.3908 13.2152 2.3215 13.1562 2.26335C13.0972 2.2052 13.0273 2.15935 12.9504 2.12846C12.8735 2.09758 12.7913 2.08228 12.7085 2.08345H11.9777C11.9106 2.07243 11.8422 2.07243 11.7751 2.08345H2.81104C2.77395 2.07709 2.73636 2.0741 2.69873 2.0745ZM3.3335 3.33345H11.2502V11.8751C11.2502 12.0409 11.316 12.1998 11.4332 12.317C11.5504 12.4342 11.7094 12.5001 11.8752 12.5001H12.2918C12.4148 12.5001 12.5002 12.5855 12.5002 12.7085V16.6668H8.3335V14.1668C8.3335 13.9368 8.14683 13.7501 7.91683 13.7501H6.66683C6.43683 13.7501 6.25016 13.9368 6.25016 14.1668V16.6668H2.0835V12.7085C2.0835 12.5855 2.16889 12.5001 2.29183 12.5001H2.7085C2.87425 12.5001 3.03321 12.4342 3.15042 12.317C3.26763 12.1998 3.33348 12.0409 3.3335 11.8751V3.33345ZM5.41683 5.00012C5.18683 5.00012 5.00016 5.18678 5.00016 5.41678V6.25012C5.00016 6.48012 5.18683 6.66678 5.41683 6.66678H6.25016C6.48016 6.66678 6.66683 6.48012 6.66683 6.25012V5.41678C6.66683 5.18678 6.48016 5.00012 6.25016 5.00012H5.41683ZM8.3335 5.00012C8.1035 5.00012 7.91683 5.18678 7.91683 5.41678V6.25012C7.91683 6.48012 8.1035 6.66678 8.3335 6.66678H9.16683C9.39683 6.66678 9.5835 6.48012 9.5835 6.25012V5.41678C9.5835 5.18678 9.39683 5.00012 9.16683 5.00012H8.3335ZM13.3335 5.00012V6.25012H16.8752C17.4502 6.25012 17.9168 6.71678 17.9168 7.29178V16.6668H14.5835V17.5001C14.5835 17.6472 14.5537 17.786 14.507 17.9168H18.5418C18.8877 17.9168 19.1668 17.6376 19.1668 17.2918V7.29178C19.1668 6.02928 18.1377 5.00012 16.8752 5.00012H13.3335ZM5.41683 7.91678C5.18683 7.91678 5.00016 8.10345 5.00016 8.33345V9.16678C5.00016 9.39678 5.18683 9.58345 5.41683 9.58345H6.25016C6.48016 9.58345 6.66683 9.39678 6.66683 9.16678V8.33345C6.66683 8.10345 6.48016 7.91678 6.25016 7.91678H5.41683ZM8.3335 7.91678C8.1035 7.91678 7.91683 8.10345 7.91683 8.33345V9.16678C7.91683 9.39678 8.1035 9.58345 8.3335 9.58345H9.16683C9.39683 9.58345 9.5835 9.39678 9.5835 9.16678V8.33345C9.5835 8.10345 9.39683 7.91678 9.16683 7.91678H8.3335ZM15.4168 7.91678C15.1868 7.91678 15.0002 8.10345 15.0002 8.33345V9.16678C15.0002 9.39678 15.1868 9.58345 15.4168 9.58345H16.2502C16.4802 9.58345 16.6668 9.39678 16.6668 9.16678V8.33345C16.6668 8.10345 16.4802 7.91678 16.2502 7.91678H15.4168ZM5.41683 10.8335C5.18683 10.8335 5.00016 11.0201 5.00016 11.2501V12.0835C5.00016 12.3134 5.18683 12.5001 5.41683 12.5001H6.25016C6.48016 12.5001 6.66683 12.3134 6.66683 12.0835V11.2501C6.66683 11.0201 6.48016 10.8335 6.25016 10.8335H5.41683ZM8.3335 10.8335C8.1035 10.8335 7.91683 11.0201 7.91683 11.2501V12.0835C7.91683 12.3134 8.1035 12.5001 8.3335 12.5001H9.16683C9.39683 12.5001 9.5835 12.3134 9.5835 12.0835V11.2501C9.5835 11.0201 9.39683 10.8335 9.16683 10.8335H8.3335ZM15.4168 10.8335C15.1868 10.8335 15.0002 11.0201 15.0002 11.2501V12.0835C15.0002 12.3134 15.1868 12.5001 15.4168 12.5001H16.2502C16.4802 12.5001 16.6668 12.3134 16.6668 12.0835V11.2501C16.6668 11.0201 16.4802 10.8335 16.2502 10.8335H15.4168ZM3.75016 13.7501C3.52016 13.7501 3.3335 13.9368 3.3335 14.1668V15.0001C3.3335 15.2301 3.52016 15.4168 3.75016 15.4168H4.5835C4.8135 15.4168 5.00016 15.2301 5.00016 15.0001V14.1668C5.00016 13.9368 4.8135 13.7501 4.5835 13.7501H3.75016ZM10.0002 13.7501C9.77016 13.7501 9.5835 13.9368 9.5835 14.1668V15.0001C9.5835 15.2301 9.77016 15.4168 10.0002 15.4168H10.8335C11.0635 15.4168 11.2502 15.2301 11.2502 15.0001V14.1668C11.2502 13.9368 11.0635 13.7501 10.8335 13.7501H10.0002ZM15.4168 13.7501C15.1868 13.7501 15.0002 13.9368 15.0002 14.1668V15.0001C15.0002 15.2301 15.1868 15.4168 15.4168 15.4168H16.2502C16.4802 15.4168 16.6668 15.2301 16.6668 15.0001V14.1668C16.6668 13.9368 16.4802 13.7501 16.2502 13.7501H15.4168Z" fill="#1F1926"/>
</g>
</svg>
