<svg width="24" height="24" viewBox="0 0 24 24" fill="none" xmlns="http://www.w3.org/2000/svg">
<g id="icons8-price_tag 1">
<path id="Vector" d="M13.9997 2C13.204 2 12.4413 2.31623 11.8786 2.87891L2.87862 11.8789C1.71364 13.0439 1.71364 14.9561 2.87862 16.1211L7.87861 21.1211C8.44129 21.6838 9.20403 22 9.99971 22C10.7954 22 11.5581 21.6838 12.1208 21.1211L21.1208 12.1211C21.6837 11.5582 21.9997 10.7947 21.9997 9.99902V4.5C21.9997 3.12826 20.8714 2 19.4997 2H13.9997ZM13.9997 3.5H19.4997C20.058 3.5 20.4997 3.94174 20.4997 4.5V9.99902C20.4997 10.4053 20.3474 10.7734 20.0603 11.0605L11.0603 20.0605C10.7729 20.3479 10.406 20.5 9.99971 20.5C9.59338 20.5 9.22648 20.3479 8.93916 20.0605L3.93916 15.0605C3.34914 14.4705 3.34914 13.5295 3.93916 12.9395L12.9392 3.93945C13.2265 3.65213 13.5934 3.5 13.9997 3.5ZM16.9997 5.5C16.1712 5.5 15.4997 6.1715 15.4997 7C15.4997 7.8285 16.1712 8.5 16.9997 8.5C17.8282 8.5 18.4997 7.8285 18.4997 7C18.4997 6.1715 17.8282 5.5 16.9997 5.5Z" fill="#28C7FF"/>
</g>
</svg>
