<svg width="80" height="80" viewBox="0 0 80 80" fill="none" xmlns="http://www.w3.org/2000/svg">
<path d="M17.5 10C13.3875 10 10 13.3875 10 17.5V29.1667C10 33.2792 13.3875 36.6667 17.5 36.6667H29.1667C33.2792 36.6667 36.6667 33.2792 36.6667 29.1667V17.5C36.6667 13.3875 33.2792 10 29.1667 10H17.5ZM50.8333 10C46.7208 10 43.3333 13.3875 43.3333 17.5V29.1667C43.3333 33.2792 46.7208 36.6667 50.8333 36.6667H62.5C66.6125 36.6667 70 33.2792 70 29.1667V17.5C70 13.3875 66.6125 10 62.5 10H50.8333ZM17.5 15H29.1667C30.5775 15 31.6667 16.0892 31.6667 17.5V29.1667C31.6667 30.5775 30.5775 31.6667 29.1667 31.6667H17.5C16.0892 31.6667 15 30.5775 15 29.1667V17.5C15 16.0892 16.0892 15 17.5 15ZM50.8333 15H62.5C63.9108 15 65 16.0892 65 17.5V29.1667C65 30.5775 63.9108 31.6667 62.5 31.6667H50.8333C49.4225 31.6667 48.3333 30.5775 48.3333 29.1667V17.5C48.3333 16.0892 49.4225 15 50.8333 15ZM20 20V26.6667H26.6667V20H20ZM53.3333 20V26.6667H60V20H53.3333ZM17.5 43.3333C13.3875 43.3333 10 46.7208 10 50.8333V62.5C10 66.6125 13.3875 70 17.5 70H29.1667C33.2792 70 36.6667 66.6125 36.6667 62.5V50.8333C36.6667 46.7208 33.2792 43.3333 29.1667 43.3333H17.5ZM43.3333 43.3333V52.5H52.5V43.3333H43.3333ZM52.5 52.5V60.8333H60.8333V52.5H52.5ZM60.8333 52.5H70V43.3333H60.8333V52.5ZM60.8333 60.8333V70H70V60.8333H60.8333ZM52.5 60.8333H43.3333V70H52.5V60.8333ZM17.5 48.3333H29.1667C30.5775 48.3333 31.6667 49.4225 31.6667 50.8333V62.5C31.6667 63.9108 30.5775 65 29.1667 65H17.5C16.0892 65 15 63.9108 15 62.5V50.8333C15 49.4225 16.0892 48.3333 17.5 48.3333ZM20 53.3333V60H26.6667V53.3333H20Z" fill="#28C7FF"/>
</svg>
