<svg width="16" height="16" viewBox="0 0 16 16" fill="none" xmlns="http://www.w3.org/2000/svg">
<g id="icons8-unavailable 1">
<path id="Vector" d="M7.99992 1.33325C4.32394 1.33325 1.33325 4.32394 1.33325 7.99992C1.33325 11.6759 4.32394 14.6666 7.99992 14.6666C11.6759 14.6666 14.6666 11.6759 14.6666 7.99992C14.6666 4.32394 11.6759 1.33325 7.99992 1.33325ZM7.99992 2.33325C9.38657 2.33325 10.6381 2.84774 11.6217 3.67114L3.67114 11.621C2.84794 10.6375 2.33325 9.38638 2.33325 7.99992C2.33325 4.86438 4.86438 2.33325 7.99992 2.33325ZM12.3287 4.37817C13.1521 5.36177 13.6666 6.61327 13.6666 7.99992C13.6666 11.1355 11.1355 13.6666 7.99992 13.6666C6.61345 13.6666 5.36237 13.1519 4.37882 12.3287L12.3287 4.37817Z" fill="white"/>
</g>
</svg>
