<svg width="16" height="16" viewBox="0 0 16 16" fill="none" xmlns="http://www.w3.org/2000/svg">
<g id="icons8-time 1">
<path id="Vector" d="M7.16667 1.00005C7.10041 0.999113 7.03463 1.01135 6.97315 1.03606C6.91166 1.06077 6.8557 1.09745 6.80852 1.14397C6.76133 1.19049 6.72386 1.24593 6.69829 1.30706C6.67271 1.36819 6.65955 1.43379 6.65955 1.50005C6.65955 1.56631 6.67271 1.63191 6.69829 1.69304C6.72386 1.75417 6.76133 1.80961 6.80852 1.85613C6.8557 1.90265 6.91166 1.93933 6.97315 1.96404C7.03463 1.98875 7.10041 2.00099 7.16667 2.00005H7.5V2.69211C4.42566 2.94762 2 5.52766 2 8.66672C2 11.9745 4.69221 14.6667 8 14.6667C11.3078 14.6667 14 11.9745 14 8.66672C14 7.19246 13.4632 5.84277 12.5775 4.79693L13.1855 4.1882C13.2577 4.11795 13.3069 4.02756 13.3268 3.92886C13.3467 3.83015 13.3364 3.72774 13.2971 3.63502C13.2579 3.54229 13.1916 3.46358 13.1068 3.40918C13.0221 3.35478 12.9229 3.32723 12.8223 3.33013C12.6924 3.33391 12.5691 3.38808 12.4785 3.48117L11.8698 4.08924C10.9436 3.30489 9.77862 2.79838 8.5 2.69211V2.00005H8.83333C8.89959 2.00099 8.96537 1.98875 9.02685 1.96404C9.08834 1.93933 9.1443 1.90265 9.19148 1.85613C9.23867 1.80961 9.27614 1.75417 9.30171 1.69304C9.32729 1.63191 9.34046 1.56631 9.34046 1.50005C9.34046 1.43379 9.32729 1.36819 9.30171 1.30706C9.27614 1.24593 9.23867 1.19049 9.19148 1.14397C9.1443 1.09745 9.08834 1.06077 9.02685 1.03606C8.96537 1.01135 8.89959 0.999113 8.83333 1.00005H7.16667ZM7.94076 3.66997C7.98097 3.67488 8.02163 3.67488 8.06185 3.66997C9.40669 3.68635 10.621 4.22843 11.5091 5.10291C11.5254 5.12178 11.543 5.13941 11.5618 5.15565C12.451 6.05766 13 7.29602 13 8.66672C13 11.4341 10.7673 13.6667 8 13.6667C5.23265 13.6667 3 11.4341 3 8.66672C3 5.91937 5.20117 3.70193 7.94076 3.66997ZM10.1569 5.99549C10.027 5.99928 9.90377 6.05345 9.81315 6.14653L8.25781 7.70187C8.17377 7.67898 8.0871 7.66716 8 7.66672C7.73478 7.66672 7.48043 7.77207 7.29289 7.95961C7.10536 8.14715 7 8.4015 7 8.66672C7 8.93193 7.10536 9.18629 7.29289 9.37382C7.48043 9.56136 7.73478 9.66672 8 9.66672C8.15331 9.66664 8.30455 9.63131 8.44203 9.56346C8.57951 9.49561 8.69955 9.39705 8.79288 9.27542C8.8862 9.15378 8.9503 9.01231 8.98023 8.86195C9.01016 8.71159 9.00512 8.55636 8.9655 8.40825L10.5202 6.85357C10.5923 6.78331 10.6416 6.69292 10.6615 6.59422C10.6814 6.49552 10.671 6.3931 10.6318 6.30038C10.5925 6.20766 10.5262 6.12895 10.4415 6.07455C10.3567 6.02015 10.2576 5.99259 10.1569 5.99549Z" fill="white"/>
</g>
</svg>
