<svg width="80" height="80" viewBox="0 0 80 80" fill="none" xmlns="http://www.w3.org/2000/svg">
<g id="icons8-calendar 4">
<path id="Vector" d="M70 23.3333V20.8333C70 14.86 65.14 10 59.1667 10H20.8333C14.86 10 10 14.86 10 20.8333V23.3333H70ZM10 28.3333V59.1667C10 65.14 14.86 70 20.8333 70H59.1667C65.14 70 70 65.14 70 59.1667V28.3333H10ZM25.8333 60C23.5317 60 21.6667 58.135 21.6667 55.8333C21.6667 53.5317 23.5317 51.6667 25.8333 51.6667C28.135 51.6667 30 53.5317 30 55.8333C30 58.135 28.135 60 25.8333 60ZM25.8333 45C23.5317 45 21.6667 43.135 21.6667 40.8333C21.6667 38.5317 23.5317 36.6667 25.8333 36.6667C28.135 36.6667 30 38.5317 30 40.8333C30 43.135 28.135 45 25.8333 45ZM40 60C37.6983 60 35.8333 58.135 35.8333 55.8333C35.8333 53.5317 37.6983 51.6667 40 51.6667C42.3017 51.6667 44.1667 53.5317 44.1667 55.8333C44.1667 58.135 42.3017 60 40 60ZM40 45C37.6983 45 35.8333 43.135 35.8333 40.8333C35.8333 38.5317 37.6983 36.6667 40 36.6667C42.3017 36.6667 44.1667 38.5317 44.1667 40.8333C44.1667 43.135 42.3017 45 40 45ZM54.1667 45C51.865 45 50 43.135 50 40.8333C50 38.5317 51.865 36.6667 54.1667 36.6667C56.4683 36.6667 58.3333 38.5317 58.3333 40.8333C58.3333 43.135 56.4683 45 54.1667 45Z" fill="#28C7FF"/>
</g>
</svg>
