<svg width="120" height="120" viewBox="0 0 120 120" fill="none" xmlns="http://www.w3.org/2000/svg">
<g id="icons8-planner 1">
<path id="Vector" d="M28.125 91.875H91.875V99.375H28.125V91.875Z" fill="url(#paint0_linear_0_4344)"/>
<path id="Vector_2" d="M93.75 18.75H86.25V16.875C86.25 13.7737 83.7262 11.25 80.625 11.25H76.875C73.7738 11.25 71.25 13.7737 71.25 16.875V18.75H48.75V16.875C48.75 13.7737 46.2262 11.25 43.125 11.25H39.375C36.2738 11.25 33.75 13.7737 33.75 16.875V18.75H26.25C21.0806 18.75 16.875 22.9556 16.875 28.125V99.375C16.875 104.544 21.0806 108.75 26.25 108.75H93.75C98.9194 108.75 103.125 104.544 103.125 99.375V28.125C103.125 22.9556 98.9194 18.75 93.75 18.75ZM82.5 26.25C82.5 27.285 81.66 28.125 80.625 28.125H76.875C75.84 28.125 75 27.285 75 26.25V16.875C75 15.84 75.84 15 76.875 15H80.625C81.66 15 82.5 15.84 82.5 16.875V26.25ZM45 26.25C45 27.285 44.16 28.125 43.125 28.125H39.375C38.34 28.125 37.5 27.285 37.5 26.25V16.875C37.5 15.84 38.34 15 39.375 15H43.125C44.16 15 45 15.84 45 16.875V26.25ZM26.25 22.5H33.75V26.25C33.75 29.3512 36.2719 31.875 39.375 31.875H43.125C46.2262 31.875 48.75 29.3512 48.75 26.25V22.5H71.25V26.25C71.25 29.3512 73.7719 31.875 76.875 31.875H80.625C83.7262 31.875 86.25 29.3512 86.25 26.25V22.5H93.75C96.8512 22.5 99.375 25.0238 99.375 28.125V41.25H20.625V28.125C20.625 25.0238 23.1469 22.5 26.25 22.5ZM28.125 93.4031C28.125 93.615 29.3381 93.75 30 93.75H90C90.66 93.75 91.875 93.615 91.875 93.405V95.625C91.875 96.66 91.0331 97.5 90 97.5H30C28.965 97.5 28.125 96.66 28.125 95.625V93.4031ZM91.875 88.125C91.875 89.16 91.0331 90 90 90H30C28.965 90 28.125 89.16 28.125 88.125V86.25V45H91.875V86.25V88.125ZM93.75 105H26.25C23.1487 105 20.625 102.476 20.625 99.375V45H24.375V86.25V88.125V95.625C24.375 98.7262 26.8969 101.25 30 101.25H90C93.1012 101.25 95.625 98.7262 95.625 95.625V88.125V86.25V45H99.375V99.375C99.375 102.476 96.8512 105 93.75 105Z" fill="url(#paint1_linear_0_4344)"/>
<path id="Vector_3" d="M80.625 69.375C80.625 70.41 79.7831 71.25 78.75 71.25H67.5C66.465 71.25 65.625 70.41 65.625 69.375V58.125C65.625 57.09 66.465 56.25 67.5 56.25H73.125V52.5H67.5C64.3987 52.5 61.875 55.0237 61.875 58.125V69.375C61.875 72.4762 64.3969 75 67.5 75H78.75C81.8512 75 84.375 72.4762 84.375 69.375V65.625H80.625V69.375Z" fill="url(#paint2_linear_0_4344)"/>
<path id="Vector_4" d="M73.1249 62.9742L70.7006 60.5498L68.0493 63.2011L73.1249 68.2767L85.7006 55.7011L83.0493 53.0498L73.1249 62.9742Z" fill="url(#paint3_linear_0_4344)"/>
</g>
<defs>
<linearGradient id="paint0_linear_0_4344" x1="60" y1="87.6563" x2="60" y2="102.255" gradientUnits="userSpaceOnUse">
<stop stop-color="#6DC7FF"/>
<stop offset="1" stop-color="#E6ABFF"/>
</linearGradient>
<linearGradient id="paint1_linear_0_4344" x1="60" y1="9.375" x2="60" y2="111.302" gradientUnits="userSpaceOnUse">
<stop stop-color="#1A6DFF"/>
<stop offset="1" stop-color="#C822FF"/>
</linearGradient>
<linearGradient id="paint2_linear_0_4344" x1="73.125" y1="9.375" x2="73.125" y2="111.302" gradientUnits="userSpaceOnUse">
<stop stop-color="#1A6DFF"/>
<stop offset="1" stop-color="#C822FF"/>
</linearGradient>
<linearGradient id="paint3_linear_0_4344" x1="76.8749" y1="9.37542" x2="76.8749" y2="111.302" gradientUnits="userSpaceOnUse">
<stop stop-color="#1A6DFF"/>
<stop offset="1" stop-color="#C822FF"/>
</linearGradient>
</defs>
</svg>
