<svg width="24" height="24" viewBox="0 0 24 24" fill="none" xmlns="http://www.w3.org/2000/svg">
<rect width="24" height="24" rx="4" fill="#3E2ABB"/>
<path d="M16.8677 8.24674C16.7703 8.24958 16.6779 8.2902 16.6099 8.36002L10.1251 14.8449L7.3902 12.11C7.35564 12.074 7.31425 12.0453 7.26845 12.0255C7.22266 12.0057 7.17337 11.9953 7.12348 11.9947C7.07359 11.9942 7.0241 12.0037 6.97791 12.0225C6.93172 12.0414 6.88975 12.0693 6.85447 12.1046C6.8192 12.1399 6.79131 12.1818 6.77245 12.228C6.75359 12.2742 6.74414 12.3237 6.74465 12.3736C6.74516 12.4235 6.75561 12.4728 6.77541 12.5186C6.7952 12.5643 6.82393 12.6057 6.85992 12.6403L9.85992 15.6403C9.93025 15.7106 10.0256 15.7501 10.1251 15.7501C10.2245 15.7501 10.3199 15.7106 10.3902 15.6403L17.1402 8.89029C17.1943 8.8376 17.2312 8.76981 17.2462 8.69578C17.2611 8.62176 17.2533 8.54495 17.2239 8.4754C17.1945 8.40586 17.1447 8.34683 17.0812 8.30603C17.0176 8.26523 16.9432 8.24456 16.8677 8.24674Z" fill="white" stroke="white"/>
</svg>
