<svg width="24" height="24" viewBox="0 0 24 24" fill="none" xmlns="http://www.w3.org/2000/svg">
<g id="icons8-month_in_love 1">
<path id="Vector" d="M6.25 3C4.458 3 3 4.458 3 6.25V17.75C3 19.542 4.458 21 6.25 21H12.0283C11.7313 20.5365 11.4899 20.034 11.3174 19.5H6.25C5.285 19.5 4.5 18.715 4.5 17.75V8.48535H19.5V11.3174C20.034 11.4899 20.5365 11.7318 21 12.0293V6.25C21 4.458 19.542 3 17.75 3H6.25ZM6.25 4.5H17.75C18.715 4.5 19.5 5.285 19.5 6.25V6.98535H4.5V6.25C4.5 5.285 5.285 4.5 6.25 4.5ZM7.75 10.5C7.41848 10.5 7.10054 10.6317 6.86612 10.8661C6.6317 11.1005 6.5 11.4185 6.5 11.75C6.5 12.0815 6.6317 12.3995 6.86612 12.6339C7.10054 12.8683 7.41848 13 7.75 13C8.08152 13 8.39946 12.8683 8.63388 12.6339C8.8683 12.3995 9 12.0815 9 11.75C9 11.4185 8.8683 11.1005 8.63388 10.8661C8.39946 10.6317 8.08152 10.5 7.75 10.5ZM12 10.5C11.6685 10.5 11.3505 10.6317 11.1161 10.8661C10.8817 11.1005 10.75 11.4185 10.75 11.75C10.75 12.0815 10.8817 12.3995 11.1161 12.6339C11.3505 12.8683 11.6685 13 12 13C12.3315 13 12.6495 12.8683 12.8839 12.6339C13.1183 12.3995 13.25 12.0815 13.25 11.75C13.25 11.4185 13.1183 11.1005 12.8839 10.8661C12.6495 10.6317 12.3315 10.5 12 10.5ZM17.5 12C14.4625 12 12 14.4625 12 17.5C12 20.5375 14.4625 23 17.5 23C20.5375 23 23 20.5375 23 17.5C23 14.4625 20.5375 12 17.5 12ZM7.75 15C7.41848 15 7.10054 15.1317 6.86612 15.3661C6.6317 15.6005 6.5 15.9185 6.5 16.25C6.5 16.5815 6.6317 16.8995 6.86612 17.1339C7.10054 17.3683 7.41848 17.5 7.75 17.5C8.08152 17.5 8.39946 17.3683 8.63388 17.1339C8.8683 16.8995 9 16.5815 9 16.25C9 15.9185 8.8683 15.6005 8.63388 15.3661C8.39946 15.1317 8.08152 15 7.75 15ZM16 15C16.64 15 17.1945 15.3488 17.5 15.8633C17.8055 15.3488 18.36 15 19 15C19.965 15 20.75 15.785 20.75 16.75C20.75 17.187 20.5861 17.6057 20.2891 17.9297C20.2796 17.9397 20.264 17.958 17.8525 20.3555C17.757 20.45 17.6295 20.5 17.5 20.5C17.3705 20.5 17.243 20.4495 17.1475 20.3545C14.736 17.9575 14.7205 17.9393 14.709 17.9268C14.414 17.6053 14.25 17.187 14.25 16.75C14.25 15.785 15.035 15 16 15Z" fill="white"/>
</g>
</svg>
