<svg width="21" height="21" viewBox="0 0 21 21" fill="none" xmlns="http://www.w3.org/2000/svg">
<g id="icons8-compass 1">
<path id="Vector" d="M10.5 1.75C10.326 1.75 10.159 1.81914 10.036 1.94221C9.91289 2.06528 9.84375 2.2322 9.84375 2.40625C9.84375 2.5803 9.91289 2.74722 10.036 2.87029C10.159 2.99336 10.326 3.0625 10.5 3.0625C10.674 3.0625 10.841 2.99336 10.964 2.87029C11.0871 2.74722 11.1562 2.5803 11.1562 2.40625C11.1562 2.2322 11.0871 2.06528 10.964 1.94221C10.841 1.81914 10.674 1.75 10.5 1.75ZM12.908 2.1106C12.7491 2.10772 12.5945 2.1626 12.473 2.26505C12.3515 2.3675 12.2713 2.51055 12.2473 2.66765C12.2233 2.82476 12.2571 2.98524 12.3425 3.1193C12.4278 3.25336 12.5589 3.35189 12.7114 3.39661C15.0392 4.12056 16.8794 5.96084 17.6034 8.28857C17.629 8.37089 17.6705 8.44736 17.7257 8.51361C17.7808 8.57987 17.8484 8.63462 17.9247 8.67473C18.001 8.71485 18.0845 8.73954 18.1703 8.7474C18.2561 8.75526 18.3427 8.74614 18.425 8.72056C18.5073 8.69497 18.5838 8.65342 18.65 8.59828C18.7163 8.54315 18.771 8.4755 18.8111 8.3992C18.8512 8.32291 18.8759 8.23946 18.8838 8.15362C18.8917 8.06778 18.8825 7.98124 18.8569 7.89893C18.0041 5.15691 15.8431 2.99586 13.1011 2.14307C13.0387 2.12265 12.9736 2.1117 12.908 2.1106ZM8.07239 2.11145C8.01341 2.11414 7.95506 2.12477 7.89893 2.14307C5.15691 2.99587 2.99586 5.15691 2.14307 7.89893C2.11747 7.98124 2.10834 8.06779 2.11619 8.15363C2.12404 8.23947 2.14873 8.32292 2.18884 8.39922C2.22895 8.47552 2.28369 8.54318 2.34995 8.59832C2.4162 8.65346 2.49267 8.69501 2.57499 8.7206C2.6573 8.74618 2.74385 8.75531 2.82969 8.74744C2.91553 8.73958 2.99898 8.71488 3.07528 8.67476C3.15158 8.63465 3.21922 8.57989 3.27436 8.51363C3.32949 8.44737 3.37103 8.37089 3.39661 8.28857C4.12056 5.96084 5.96084 4.12056 8.28857 3.39661C8.44251 3.35125 8.57449 3.25107 8.65957 3.11501C8.74465 2.97895 8.77693 2.81642 8.75031 2.65817C8.72369 2.49992 8.64001 2.35691 8.5151 2.25617C8.39018 2.15543 8.23269 2.10394 8.07239 2.11145ZM14.2025 6.125C14.1224 6.12714 14.0433 6.14393 13.9692 6.17456C13.9692 6.17456 13.0229 6.56428 11.9355 7.09399C10.8482 7.62371 9.64382 8.24071 8.94226 8.94226C8.24071 9.64382 7.62371 10.8482 7.09399 11.9355C6.56428 13.0229 6.17456 13.9692 6.17456 13.9692C6.125 14.0898 6.11246 14.2224 6.13853 14.3501C6.16461 14.4778 6.22812 14.5948 6.32097 14.6863C6.41382 14.7778 6.53181 14.8396 6.65989 14.8637C6.78798 14.8879 6.92036 14.8734 7.04016 14.822C7.04016 14.822 8.01061 14.4063 9.10889 13.8641C10.2072 13.3219 11.3937 12.7218 12.0577 12.0577C12.7218 11.3937 13.3219 10.2072 13.8641 9.10889C14.4063 8.01061 14.822 7.04016 14.822 7.04016C14.8655 6.93905 14.8828 6.82863 14.8724 6.71907C14.862 6.60951 14.8242 6.50433 14.7625 6.4132C14.7008 6.32206 14.6172 6.2479 14.5193 6.19754C14.4215 6.14718 14.3125 6.12224 14.2025 6.125ZM12.8823 8.10486C12.7851 8.31049 12.7972 8.30392 12.6866 8.52783C12.1624 9.58971 11.4501 10.8094 11.1298 11.1298C10.8094 11.4501 9.58971 12.1624 8.52783 12.6866C8.30392 12.7972 8.31049 12.7851 8.10486 12.8823C8.19043 12.6984 8.17631 12.7086 8.27319 12.5098C8.78254 11.4643 9.47804 10.2624 9.87024 9.87024C10.2624 9.47804 11.4643 8.78254 12.5098 8.27319C12.7086 8.17631 12.6984 8.19043 12.8823 8.10486ZM2.40625 9.84375C2.2322 9.84375 2.06528 9.91289 1.94221 10.036C1.81914 10.159 1.75 10.326 1.75 10.5C1.75 10.674 1.81914 10.841 1.94221 10.964C2.06528 11.0871 2.2322 11.1562 2.40625 11.1562C2.5803 11.1562 2.74722 11.0871 2.87029 10.964C2.99336 10.841 3.0625 10.674 3.0625 10.5C3.0625 10.326 2.99336 10.159 2.87029 10.036C2.74722 9.91289 2.5803 9.84375 2.40625 9.84375ZM10.5 9.84375C10.326 9.84375 10.159 9.91289 10.036 10.036C9.91289 10.159 9.84375 10.326 9.84375 10.5C9.84375 10.674 9.91289 10.841 10.036 10.964C10.159 11.0871 10.326 11.1562 10.5 11.1562C10.674 11.1562 10.841 11.0871 10.964 10.964C11.0871 10.841 11.1562 10.674 11.1562 10.5C11.1562 10.326 11.0871 10.159 10.964 10.036C10.841 9.91289 10.674 9.84375 10.5 9.84375ZM18.5938 9.84375C18.4197 9.84375 18.2528 9.91289 18.1297 10.036C18.0066 10.159 17.9375 10.326 17.9375 10.5C17.9375 10.674 18.0066 10.841 18.1297 10.964C18.2528 11.0871 18.4197 11.1562 18.5938 11.1562C18.7678 11.1562 18.9347 11.0871 19.0578 10.964C19.1809 10.841 19.25 10.674 19.25 10.5C19.25 10.326 19.1809 10.159 19.0578 10.036C18.9347 9.91289 18.7678 9.84375 18.5938 9.84375ZM2.75659 12.2415C2.65387 12.2431 2.55296 12.2688 2.462 12.3166C2.37103 12.3643 2.29255 12.4328 2.23286 12.5164C2.17318 12.6 2.13396 12.6965 2.11836 12.7981C2.10277 12.8996 2.11123 13.0034 2.14307 13.1011C2.99586 15.8431 5.15691 18.0041 7.89893 18.8569C7.98124 18.8825 8.06778 18.8917 8.15362 18.8838C8.23946 18.8759 8.32291 18.8512 8.3992 18.8111C8.4755 18.771 8.54315 18.7163 8.59828 18.65C8.65342 18.5838 8.69497 18.5073 8.72056 18.425C8.74614 18.3427 8.75526 18.2561 8.7474 18.1703C8.73954 18.0845 8.71485 18.001 8.67473 17.9247C8.63462 17.8484 8.57987 17.7808 8.51361 17.7257C8.44736 17.6705 8.37089 17.629 8.28857 17.6034C5.96084 16.8794 4.12056 15.0392 3.39661 12.7114C3.35591 12.5739 3.27131 12.4535 3.15573 12.3687C3.04016 12.2838 2.89996 12.2391 2.75659 12.2415ZM18.2238 12.2415C18.0837 12.2434 17.948 12.29 17.8364 12.3746C17.7248 12.4591 17.6431 12.5772 17.6034 12.7114C16.8794 15.0392 15.0392 16.8794 12.7114 17.6034C12.6291 17.629 12.5526 17.6705 12.4864 17.7257C12.4201 17.7808 12.3654 17.8484 12.3253 17.9247C12.2852 18.001 12.2605 18.0845 12.2526 18.1703C12.2447 18.2561 12.2539 18.3427 12.2794 18.425C12.305 18.5073 12.3466 18.5838 12.4017 18.65C12.4569 18.7163 12.5245 18.771 12.6008 18.8111C12.6771 18.8512 12.7605 18.8759 12.8464 18.8838C12.9322 18.8917 13.0188 18.8825 13.1011 18.8569C15.8431 18.0041 18.0041 15.8431 18.8569 13.1011C18.8893 13.0018 18.8975 12.8963 18.8809 12.7932C18.8642 12.6901 18.8233 12.5925 18.7614 12.5085C18.6994 12.4244 18.6184 12.3563 18.5249 12.3099C18.4314 12.2635 18.3281 12.24 18.2238 12.2415ZM10.5 17.9375C10.326 17.9375 10.159 18.0066 10.036 18.1297C9.91289 18.2528 9.84375 18.4197 9.84375 18.5938C9.84375 18.7678 9.91289 18.9347 10.036 19.0578C10.159 19.1809 10.326 19.25 10.5 19.25C10.674 19.25 10.841 19.1809 10.964 19.0578C11.0871 18.9347 11.1562 18.7678 11.1562 18.5938C11.1562 18.4197 11.0871 18.2528 10.964 18.1297C10.841 18.0066 10.674 17.9375 10.5 17.9375Z" fill="white"/>
</g>
</svg>
