<svg width="24" height="24" viewBox="0 0 24 24" fill="none" xmlns="http://www.w3.org/2000/svg">
<g id="icons8-done 3">
<path id="Vector" d="M21.7355 4.49299C21.5407 4.49866 21.3558 4.57992 21.2198 4.71955L8.25012 17.6893L2.78039 12.2195C2.71128 12.1476 2.6285 12.0901 2.53691 12.0505C2.44531 12.0109 2.34674 11.99 2.24696 11.989C2.14718 11.988 2.0482 12.0069 1.95582 12.0446C1.86344 12.0823 1.77951 12.1381 1.70895 12.2087C1.63839 12.2792 1.58262 12.3631 1.5449 12.4555C1.50719 12.5479 1.48828 12.6469 1.4893 12.7467C1.49031 12.8464 1.51122 12.945 1.55081 13.0366C1.5904 13.1282 1.64786 13.211 1.71984 13.2801L7.71984 19.2801C7.8605 19.4207 8.05124 19.4997 8.25012 19.4997C8.449 19.4997 8.63973 19.4207 8.78039 19.2801L22.2804 5.7801C22.3886 5.67472 22.4625 5.53913 22.4923 5.39108C22.5222 5.24303 22.5067 5.0894 22.4478 4.95032C22.3889 4.81124 22.2894 4.69317 22.1623 4.61157C22.0352 4.52997 21.8864 4.48864 21.7355 4.49299Z" fill="#28C7FF"/>
</g>
</svg>
