<svg width="120" height="120" viewBox="0 0 120 120" fill="none" xmlns="http://www.w3.org/2000/svg">
<g id="icons8-todo_list 1">
<path id="Vector" d="M91.875 11.25H28.125C25.0237 11.25 22.5 13.7737 22.5 16.875V24.375V30V103.125C22.5 106.226 25.0219 108.75 28.125 108.75H91.875C94.9762 108.75 97.5 106.226 97.5 103.125V30V24.375V16.875C97.5 13.7737 94.9762 11.25 91.875 11.25ZM28.125 15H91.875C92.91 15 93.75 15.84 93.75 16.875V19.095C93.75 18.885 92.535 18.75 91.875 18.75H28.125C27.465 18.75 26.25 18.885 26.25 19.095V16.875C26.25 15.84 27.09 15 28.125 15ZM91.875 105H78.75V91.875C78.75 90.84 79.59 90 80.625 90H93.75V103.125C93.75 104.16 92.9081 105 91.875 105ZM93.75 86.25H80.625C77.5238 86.25 75 88.7738 75 91.875V105H28.125C27.09 105 26.25 104.16 26.25 103.125V30V24.375C26.25 23.34 27.09 22.5 28.125 22.5H91.875C92.91 22.5 93.75 23.34 93.75 24.375V30V86.25Z" fill="url(#paint0_linear_0_3779)"/>
<path id="Vector_2" d="M43.1268 44.2261L36.9506 38.0498L34.2993 40.7011L40.4756 46.8773C41.2049 47.6086 42.1631 47.9723 43.1231 47.9723C44.0831 47.9723 45.0431 47.6086 45.7743 46.8773L58.5131 34.1386L55.8618 31.4873L43.1268 44.2261Z" fill="url(#paint1_linear_0_3779)"/>
<path id="Vector_3" d="M63.75 33.75H86.25V37.5H63.75V33.75Z" fill="url(#paint2_linear_0_3779)"/>
<path id="Vector_4" d="M63.75 41.25H86.25V45H63.75V41.25Z" fill="url(#paint3_linear_0_3779)"/>
<path id="Vector_5" d="M43.1268 74.2261L36.9506 68.0498L34.2993 70.7011L40.4756 76.8773C41.2049 77.6086 42.1631 77.9723 43.1231 77.9723C44.0831 77.9723 45.0431 77.6086 45.7743 76.8773L58.5131 64.1386L55.8618 61.4873L43.1268 74.2261Z" fill="url(#paint4_linear_0_3779)"/>
<path id="Vector_6" d="M63.75 63.75H86.25V67.5H63.75V63.75Z" fill="url(#paint5_linear_0_3779)"/>
<path id="Vector_7" d="M63.75 71.25H86.25V75H63.75V71.25Z" fill="url(#paint6_linear_0_3779)"/>
<path id="Vector_8" d="M90 99.375C90 100.41 89.16 101.25 88.125 101.25H84.375C83.34 101.25 82.5 100.41 82.5 99.375V95.625C82.5 94.59 83.34 93.75 84.375 93.75H88.125C89.16 93.75 90 94.59 90 95.625V99.375Z" fill="url(#paint7_linear_0_3779)"/>
</g>
<defs>
<linearGradient id="paint0_linear_0_3779" x1="60" y1="8.90625" x2="60" y2="111.615" gradientUnits="userSpaceOnUse">
<stop stop-color="#1A6DFF"/>
<stop offset="1" stop-color="#C822FF"/>
</linearGradient>
<linearGradient id="paint1_linear_0_3779" x1="46.4062" y1="8.90668" x2="46.4062" y2="111.615" gradientUnits="userSpaceOnUse">
<stop stop-color="#1A6DFF"/>
<stop offset="1" stop-color="#C822FF"/>
</linearGradient>
<linearGradient id="paint2_linear_0_3779" x1="75" y1="8.90625" x2="75" y2="111.615" gradientUnits="userSpaceOnUse">
<stop stop-color="#1A6DFF"/>
<stop offset="1" stop-color="#C822FF"/>
</linearGradient>
<linearGradient id="paint3_linear_0_3779" x1="75" y1="8.90625" x2="75" y2="111.615" gradientUnits="userSpaceOnUse">
<stop stop-color="#1A6DFF"/>
<stop offset="1" stop-color="#C822FF"/>
</linearGradient>
<linearGradient id="paint4_linear_0_3779" x1="46.4062" y1="8.90668" x2="46.4062" y2="111.615" gradientUnits="userSpaceOnUse">
<stop stop-color="#1A6DFF"/>
<stop offset="1" stop-color="#C822FF"/>
</linearGradient>
<linearGradient id="paint5_linear_0_3779" x1="75" y1="8.90625" x2="75" y2="111.615" gradientUnits="userSpaceOnUse">
<stop stop-color="#1A6DFF"/>
<stop offset="1" stop-color="#C822FF"/>
</linearGradient>
<linearGradient id="paint6_linear_0_3779" x1="75" y1="8.90625" x2="75" y2="111.615" gradientUnits="userSpaceOnUse">
<stop stop-color="#1A6DFF"/>
<stop offset="1" stop-color="#C822FF"/>
</linearGradient>
<linearGradient id="paint7_linear_0_3779" x1="86.25" y1="93.2812" x2="86.25" y2="102.533" gradientUnits="userSpaceOnUse">
<stop stop-color="#6DC7FF"/>
<stop offset="1" stop-color="#E6ABFF"/>
</linearGradient>
</defs>
</svg>
