<svg width="40" height="40" viewBox="0 0 40 40" fill="none" xmlns="http://www.w3.org/2000/svg">
<circle cx="20" cy="20" r="20" fill="white"/>
<circle cx="20" cy="20" r="19.5" stroke="#1F1926" stroke-opacity="0.1"/>
<path d="M20.0009 10C19.2125 10 18.4523 10.0997 17.7265 10.2686C17.5752 10.3039 17.4385 10.3853 17.3355 10.5017C17.2325 10.618 17.1681 10.7635 17.1513 10.918L16.9921 12.3691C16.9401 12.8447 16.6654 13.2654 16.2509 13.5049C15.8373 13.7439 15.3352 13.7703 14.8974 13.5781H14.8964L13.5634 12.9912C13.4212 12.9286 13.2631 12.9118 13.111 12.9429C12.9588 12.974 12.82 13.0517 12.7138 13.165C11.6776 14.2698 10.8823 15.6075 10.4306 17.1006C10.3856 17.2492 10.3879 17.4081 10.437 17.5554C10.4862 17.7027 10.5798 17.8311 10.705 17.9229L11.8876 18.79C12.2738 19.074 12.5009 19.5214 12.5009 20C12.5009 20.4789 12.2738 20.9267 11.8876 21.21L10.705 22.0762C10.5798 22.168 10.4862 22.2964 10.437 22.4437C10.3879 22.5909 10.3856 22.7498 10.4306 22.8984C10.8822 24.3913 11.6769 25.7301 12.7138 26.835C12.8201 26.9482 12.9589 27.0256 13.1111 27.0566C13.2633 27.0875 13.4213 27.0705 13.5634 27.0078L14.8964 26.4209C15.3345 26.2283 15.837 26.256 16.2509 26.4951C16.6654 26.7346 16.9401 27.1553 16.9921 27.6309L17.1513 29.082C17.1682 29.2362 17.2325 29.3814 17.3354 29.4975C17.4382 29.6136 17.5745 29.695 17.7255 29.7305C18.4516 29.8999 19.2125 30 20.0009 30C20.7894 30 21.5496 29.9003 22.2753 29.7314C22.4267 29.6961 22.5633 29.6147 22.6663 29.4983C22.7694 29.382 22.8337 29.2365 22.8505 29.082L23.0097 27.6309C23.0618 27.1553 23.3365 26.7346 23.7509 26.4951C24.1646 26.2561 24.6666 26.2287 25.1044 26.4209L26.4384 27.0078C26.5805 27.0705 26.7386 27.0875 26.8907 27.0566C27.0429 27.0256 27.1817 26.9482 27.288 26.835C28.3243 25.7302 29.1196 24.3915 29.5712 22.8984C29.6162 22.7498 29.614 22.5909 29.5648 22.4437C29.5157 22.2964 29.422 22.168 29.2968 22.0762L28.1142 21.21C27.728 20.9267 27.5009 20.4789 27.5009 20C27.5009 19.5211 27.728 19.0733 28.1142 18.79L29.2968 17.9238C29.422 17.832 29.5157 17.7036 29.5648 17.5563C29.614 17.4091 29.6162 17.2502 29.5712 17.1016C29.1196 15.6085 28.3243 14.2698 27.288 13.165C27.1817 13.0518 27.0429 12.9744 26.8907 12.9434C26.7386 12.9125 26.5805 12.9295 26.4384 12.9922L25.1044 13.5791C24.6666 13.7713 24.1646 13.7439 23.7509 13.5049C23.3365 13.2654 23.0618 12.8447 23.0097 12.3691L22.8505 10.918C22.8336 10.7638 22.7693 10.6186 22.6665 10.5025C22.5636 10.3864 22.4273 10.305 22.2763 10.2695C21.5502 10.1001 20.7894 10 20.0009 10ZM20.0009 11.5C20.4881 11.5 20.9559 11.5874 21.4248 11.6699L21.5185 12.5322C21.6224 13.4817 22.1744 14.3262 23.0009 14.8037C23.828 15.2816 24.835 15.3365 25.7089 14.9521L26.5019 14.6035C27.1108 15.3347 27.5929 16.1606 27.9296 17.0654L27.2265 17.5811C26.4567 18.1458 26.0009 19.0449 26.0009 20C26.0009 20.9551 26.4567 21.8542 27.2265 22.4189L27.9296 22.9346C27.5929 23.8394 27.1108 24.6653 26.5019 25.3965L25.7089 25.0479C24.835 24.6635 23.828 24.7184 23.0009 25.1963C22.1744 25.6738 21.6224 26.5183 21.5185 27.4678L21.4248 28.3301C20.9559 28.4123 20.4878 28.5 20.0009 28.5C19.5138 28.5 19.046 28.4126 18.5771 28.3301L18.4833 27.4678C18.3794 26.5183 17.8275 25.6738 17.0009 25.1963C16.1738 24.7184 15.1669 24.6635 14.2929 25.0479L13.5 25.3965C12.8909 24.6654 12.4089 23.8395 12.0722 22.9346L12.7753 22.4189C13.5452 21.8542 14.0009 20.9551 14.0009 20C14.0009 19.0449 13.5448 18.1452 12.7753 17.5801L12.0722 17.0645C12.4091 16.1593 12.8917 15.3339 13.5009 14.6025L14.2929 14.9512C15.1669 15.3355 16.1738 15.2816 17.0009 14.8037C17.8275 14.3262 18.3794 13.4817 18.4833 12.5322L18.5771 11.6699C19.0459 11.5877 19.514 11.5 20.0009 11.5ZM20.0009 16C17.8007 16 16.0009 17.7997 16.0009 20C16.0009 22.2003 17.8007 24 20.0009 24C22.2012 24 24.0009 22.2003 24.0009 20C24.0009 17.7997 22.2012 16 20.0009 16ZM20.0009 17.5C21.3905 17.5 22.5009 18.6104 22.5009 20C22.5009 21.3896 21.3905 22.5 20.0009 22.5C18.6113 22.5 17.5009 21.3896 17.5009 20C17.5009 18.6104 18.6113 17.5 20.0009 17.5Z" fill="#3E2ABB"/>
</svg>
