<svg width="24" height="24" viewBox="0 0 24 24" fill="none" xmlns="http://www.w3.org/2000/svg">
<g id="icons8-star_half_empty 1">
<path id="Vector" d="M12.0047 2.50001C11.8645 2.49914 11.7269 2.53756 11.6074 2.61092C11.488 2.68428 11.3915 2.78964 11.3289 2.91505L8.75272 8.0674L2.63553 9.0088C2.49861 9.02996 2.37022 9.08863 2.2646 9.1783C2.15899 9.26798 2.08027 9.38515 2.03719 9.51683C1.9941 9.64851 1.98833 9.78955 2.02052 9.92431C2.0527 10.0591 2.12158 10.1823 2.21952 10.2803L6.45096 14.5117L5.50858 20.6358C5.4875 20.7728 5.5048 20.9129 5.55856 21.0407C5.61232 21.1685 5.70043 21.2789 5.81313 21.3596C5.92582 21.4403 6.05868 21.4882 6.19696 21.498C6.33524 21.5078 6.47353 21.4791 6.59647 21.4151L11.9998 18.5957L17.4031 21.4151C17.5261 21.4791 17.6643 21.5078 17.8026 21.498C17.9409 21.4882 18.0738 21.4403 18.1865 21.3596C18.2991 21.2789 18.3873 21.1685 18.441 21.0407C18.4948 20.9129 18.5121 20.7728 18.491 20.6358L17.5486 14.5117L21.7801 10.2803C21.878 10.1823 21.9469 10.0591 21.9791 9.92431C22.0112 9.78955 22.0055 9.64851 21.9624 9.51683C21.9193 9.38515 21.8406 9.26798 21.735 9.1783C21.6294 9.08863 21.501 9.02996 21.364 9.0088L15.2469 8.0674L12.6707 2.91505C12.6088 2.79112 12.5138 2.68674 12.3963 2.61349C12.2787 2.54023 12.1432 2.50095 12.0047 2.50001ZM11.9998 4.92677L14.0789 9.08498C14.1324 9.19225 14.2109 9.28512 14.3078 9.35581C14.4046 9.42649 14.517 9.47293 14.6355 9.49123L19.6726 10.2666L16.2195 13.7197C16.1362 13.8031 16.0737 13.9048 16.037 14.0168C16.0004 14.1288 15.9906 14.2478 16.0086 14.3643L16.783 19.3994L12.3465 17.085C12.2394 17.0292 12.1205 17.0001 11.9998 17.0001C11.8791 17.0001 11.7602 17.0292 11.6531 17.085L10.4969 17.6885C10.4814 17.5009 10.396 17.326 10.2576 17.1985C10.1193 17.071 9.93798 17.0001 9.74979 17C9.59565 17.0003 9.44534 17.0481 9.31932 17.1368C9.1933 17.2256 9.09769 17.351 9.0455 17.4961C8.99331 17.6411 8.98708 17.7987 9.02765 17.9474C9.06823 18.0961 9.15363 18.2287 9.27225 18.3272L7.21659 19.3994L7.66385 16.4942C7.69236 16.4978 7.72106 16.4997 7.74979 16.5C7.93537 16.4986 8.11384 16.4284 8.25067 16.303C8.38751 16.1776 8.473 16.006 8.49061 15.8212C8.50822 15.6365 8.45671 15.4517 8.34603 15.3028C8.23535 15.1538 8.07336 15.0511 7.89139 15.0147L7.991 14.3643C8.00893 14.2478 7.99918 14.1288 7.96253 14.0168C7.92589 13.9048 7.86337 13.8031 7.78006 13.7197L4.32694 10.2666L5.11307 10.1455C5.18031 10.2539 5.27407 10.3433 5.38548 10.4053C5.49689 10.4673 5.62228 10.4999 5.74979 10.5C5.91622 10.4998 6.07784 10.4442 6.2092 10.342C6.34056 10.2398 6.4342 10.0968 6.47538 9.93556L9.02909 9.54298C8.99702 9.65463 8.99133 9.7722 9.01245 9.88642C9.03358 10.0006 9.08095 10.1084 9.15083 10.2012C9.22071 10.294 9.31118 10.3693 9.41512 10.4211C9.51906 10.473 9.63363 10.5 9.74979 10.5C9.93104 10.4997 10.106 10.4337 10.2424 10.3143C10.3788 10.1949 10.4673 10.0302 10.4916 9.85056C10.5159 9.67095 10.4743 9.48861 10.3746 9.33728C10.2748 9.18595 10.1236 9.07585 9.94901 9.02736L11.9998 4.92677ZM11.7498 7.00001C11.5509 7.00001 11.3601 7.07903 11.2195 7.21968C11.0788 7.36034 10.9998 7.5511 10.9998 7.75001C10.9998 7.94893 11.0788 8.13969 11.2195 8.28034C11.3601 8.421 11.5509 8.50001 11.7498 8.50001C11.9487 8.50001 12.1395 8.421 12.2801 8.28034C12.4208 8.13969 12.4998 7.94893 12.4998 7.75001C12.4998 7.5511 12.4208 7.36034 12.2801 7.21968C12.1395 7.07903 11.9487 7.00001 11.7498 7.00001ZM7.74979 11C7.55088 11 7.36011 11.079 7.21946 11.2197C7.07881 11.3603 6.99979 11.5511 6.99979 11.75C6.99979 11.9489 7.07881 12.1397 7.21946 12.2803C7.36011 12.421 7.55088 12.5 7.74979 12.5C7.9487 12.5 8.13947 12.421 8.28012 12.2803C8.42077 12.1397 8.49979 11.9489 8.49979 11.75C8.49979 11.5511 8.42077 11.3603 8.28012 11.2197C8.13947 11.079 7.9487 11 7.74979 11ZM11.7498 11C11.5509 11 11.3601 11.079 11.2195 11.2197C11.0788 11.3603 10.9998 11.5511 10.9998 11.75C10.9998 11.9489 11.0788 12.1397 11.2195 12.2803C11.3601 12.421 11.5509 12.5 11.7498 12.5C11.9487 12.5 12.1395 12.421 12.2801 12.2803C12.4208 12.1397 12.4998 11.9489 12.4998 11.75C12.4998 11.5511 12.4208 11.3603 12.2801 11.2197C12.1395 11.079 11.9487 11 11.7498 11ZM9.74979 13C9.55088 13 9.36011 13.079 9.21946 13.2197C9.07881 13.3603 8.99979 13.5511 8.99979 13.75C8.99979 13.9489 9.07881 14.1397 9.21946 14.2803C9.36011 14.421 9.55088 14.5 9.74979 14.5C9.9487 14.5 10.1395 14.421 10.2801 14.2803C10.4208 14.1397 10.4998 13.9489 10.4998 13.75C10.4998 13.5511 10.4208 13.3603 10.2801 13.2197C10.1395 13.079 9.9487 13 9.74979 13ZM11.7498 15C11.5509 15 11.3601 15.079 11.2195 15.2197C11.0788 15.3603 10.9998 15.5511 10.9998 15.75C10.9998 15.9489 11.0788 16.1397 11.2195 16.2803C11.3601 16.421 11.5509 16.5 11.7498 16.5C11.9487 16.5 12.1395 16.421 12.2801 16.2803C12.4208 16.1397 12.4998 15.9489 12.4998 15.75C12.4998 15.5511 12.4208 15.3603 12.2801 15.2197C12.1395 15.079 11.9487 15 11.7498 15Z" fill="white"/>
</g>
</svg>
