<svg width="16" height="16" viewBox="0 0 16 16" fill="none" xmlns="http://www.w3.org/2000/svg">
<g id="icons8-location 1">
<path id="Vector" d="M8.00016 1.33398C4.8755 1.33398 2.3335 3.87598 2.3335 7.00065C2.3335 8.34598 2.8165 9.65165 3.69783 10.6833C3.7985 10.7977 6.1735 13.4963 6.96683 14.2527C7.2565 14.529 7.62816 14.6673 8.00016 14.6673C8.37216 14.6673 8.74383 14.529 9.03383 14.2527C9.95616 13.373 12.2085 10.791 12.3072 10.6776C13.1838 9.65165 13.6668 8.34598 13.6668 7.00065C13.6668 3.87598 11.1248 1.33398 8.00016 1.33398ZM8.00016 8.66732C7.07983 8.66732 6.3335 7.92098 6.3335 7.00065C6.3335 6.08032 7.07983 5.33398 8.00016 5.33398C8.9205 5.33398 9.66683 6.08032 9.66683 7.00065C9.66683 7.92098 8.9205 8.66732 8.00016 8.66732Z" fill="white"/>
</g>
</svg>
