<svg width="16" height="16" viewBox="0 0 16 16" fill="none" xmlns="http://www.w3.org/2000/svg">
<g id="icons8-alarm 1" clip-path="url(#clip0_588_8183)">
<path id="Vector" d="M1.15588 1.32823C1.05205 1.32926 0.951118 1.3626 0.867092 1.42361C0.783067 1.48461 0.720117 1.57027 0.68698 1.66868C0.653843 1.76708 0.652163 1.87337 0.682174 1.97277C0.712184 2.07218 0.772396 2.15978 0.854452 2.22341L2.52112 3.55674C2.62472 3.63962 2.757 3.67795 2.88886 3.6633C3.02072 3.64865 3.14136 3.58222 3.22424 3.47862C3.30712 3.37502 3.34545 3.24274 3.3308 3.11087C3.31615 2.97901 3.24972 2.85837 3.14612 2.77549L1.47945 1.44216C1.3884 1.36722 1.2738 1.32686 1.15588 1.32823ZM14.8297 1.32823C14.7169 1.33031 14.6082 1.37047 14.5211 1.44216L12.8545 2.77549C12.7509 2.85837 12.6844 2.97901 12.6698 3.11087C12.6551 3.24274 12.6934 3.37502 12.7763 3.47862C12.8592 3.58222 12.9798 3.64865 13.1117 3.6633C13.2436 3.67795 13.3759 3.63962 13.4795 3.55674L15.1461 2.22341C15.2292 2.159 15.2899 2.07004 15.3195 1.96917C15.3492 1.86831 15.3463 1.76066 15.3113 1.66153C15.2762 1.56241 15.2108 1.47685 15.1244 1.41701C15.0379 1.35718 14.9348 1.32611 14.8297 1.32823ZM8.00029 1.33278C5.24475 1.33278 3.00029 3.57724 3.00029 6.33278V9.0613L2.07971 11.1655C1.84642 11.699 2.26093 12.3328 2.84338 12.3328H6.00029C6.00029 13.4314 6.90166 14.3328 8.00029 14.3328C9.09891 14.3328 10.0003 13.4314 10.0003 12.3328H13.1572C13.7396 12.3328 14.1541 11.699 13.9209 11.1655L13.0003 9.0613V6.33278C13.0003 3.57724 10.7558 1.33278 8.00029 1.33278ZM8.00029 2.33278C10.2154 2.33278 12.0003 4.11766 12.0003 6.33278V9.16612C12.0002 9.23512 12.0144 9.30339 12.042 9.36664L12.9026 11.3328H8.00029H3.09794L3.95862 9.36664C3.98619 9.30339 4.00038 9.23512 4.00029 9.16612V6.33278C4.00029 4.11766 5.78516 2.33278 8.00029 2.33278ZM0.500285 5.33278C0.434029 5.33185 0.368248 5.34409 0.306764 5.36879C0.24528 5.3935 0.189319 5.43018 0.142134 5.4767C0.0949495 5.52323 0.0574814 5.57866 0.0319075 5.63979C0.00633367 5.70092 -0.00683594 5.76652 -0.00683594 5.83278C-0.00683594 5.89905 0.00633367 5.96465 0.0319075 6.02578C0.0574814 6.08691 0.0949495 6.14234 0.142134 6.18886C0.189319 6.23539 0.24528 6.27207 0.306764 6.29677C0.368248 6.32148 0.434029 6.33372 0.500285 6.33278H1.83362C1.89987 6.33372 1.96566 6.32148 2.02714 6.29677C2.08862 6.27207 2.14458 6.23539 2.19177 6.18886C2.23895 6.14234 2.27642 6.08691 2.302 6.02578C2.32757 5.96465 2.34074 5.89905 2.34074 5.83278C2.34074 5.76652 2.32757 5.70092 2.302 5.63979C2.27642 5.57866 2.23895 5.52323 2.19177 5.4767C2.14458 5.43018 2.08862 5.3935 2.02714 5.36879C1.96566 5.34409 1.89987 5.33185 1.83362 5.33278H0.500285ZM14.167 5.33278C14.1007 5.33185 14.0349 5.34409 13.9734 5.36879C13.9119 5.3935 13.856 5.43018 13.8088 5.4767C13.7616 5.52323 13.7241 5.57866 13.6986 5.63979C13.673 5.70092 13.6598 5.76652 13.6598 5.83278C13.6598 5.89905 13.673 5.96465 13.6986 6.02578C13.7241 6.08691 13.7616 6.14234 13.8088 6.18886C13.856 6.23539 13.9119 6.27207 13.9734 6.29677C14.0349 6.32148 14.1007 6.33372 14.167 6.33278H15.5003C15.5665 6.33372 15.6323 6.32148 15.6938 6.29677C15.7553 6.27207 15.8113 6.23539 15.8584 6.18886C15.9056 6.14234 15.9431 6.08691 15.9687 6.02578C15.9942 5.96465 16.0074 5.89905 16.0074 5.83278C16.0074 5.76652 15.9942 5.70092 15.9687 5.63979C15.9431 5.57866 15.9056 5.52323 15.8584 5.4767C15.8113 5.43018 15.7553 5.3935 15.6938 5.36879C15.6323 5.34409 15.5665 5.33185 15.5003 5.33278H14.167ZM7.00029 12.3328H8.00029H9.00029C9.00029 12.8908 8.55833 13.3328 8.00029 13.3328C7.44224 13.3328 7.00029 12.8908 7.00029 12.3328Z" fill="white"/>
</g>
<defs>
<clipPath id="clip0_588_8183">
<rect width="16" height="16" fill="white"/>
</clipPath>
</defs>
</svg>
