<svg width="20" height="20" viewBox="0 0 20 20" fill="none" xmlns="http://www.w3.org/2000/svg">
<g id="icons8-building 1">
<path id="Vector" d="M6.04167 1.66675C4.78343 1.66675 3.75 2.70018 3.75 3.95841V17.2917C3.75 17.8599 4.2235 18.3334 4.79167 18.3334H8.125C8.69316 18.3334 9.16667 17.8599 9.16667 17.2917V15.6251C9.16667 15.5021 9.25206 15.4167 9.375 15.4167H10.625C10.7479 15.4167 10.8333 15.5021 10.8333 15.6251V17.2917C10.8333 17.8599 11.3068 18.3334 11.875 18.3334H15.2083C15.7765 18.3334 16.25 17.8599 16.25 17.2917V3.95841C16.25 2.70018 15.2166 1.66675 13.9583 1.66675H6.04167ZM6.04167 2.91675H13.9583C14.5409 2.91675 15 3.37582 15 3.95841V17.0834H12.0833V15.6251C12.0833 14.8272 11.4229 14.1667 10.625 14.1667H9.375C8.5771 14.1667 7.91667 14.8272 7.91667 15.6251V17.0834H5V3.95841C5 3.37582 5.45907 2.91675 6.04167 2.91675ZM6.875 4.16675C6.79218 4.16558 6.70995 4.18088 6.6331 4.21176C6.55624 4.24264 6.48629 4.2885 6.42731 4.34665C6.36833 4.4048 6.3215 4.4741 6.28953 4.55051C6.25756 4.62692 6.2411 4.70892 6.2411 4.79175C6.2411 4.87458 6.25756 4.95658 6.28953 5.03299C6.3215 5.1094 6.36833 5.1787 6.42731 5.23685C6.48629 5.295 6.55624 5.34085 6.6331 5.37173C6.70995 5.40262 6.79218 5.41792 6.875 5.41675H7.29167C7.37449 5.41792 7.45671 5.40262 7.53357 5.37173C7.61042 5.34085 7.68037 5.295 7.73936 5.23685C7.79834 5.1787 7.84517 5.1094 7.87714 5.03299C7.90911 4.95658 7.92557 4.87458 7.92557 4.79175C7.92557 4.70892 7.90911 4.62692 7.87714 4.55051C7.84517 4.4741 7.79834 4.4048 7.73936 4.34665C7.68037 4.2885 7.61042 4.24264 7.53357 4.21176C7.45671 4.18088 7.37449 4.16558 7.29167 4.16675H6.875ZM9.79167 4.16675C9.70885 4.16558 9.62662 4.18088 9.54976 4.21176C9.47291 4.24264 9.40296 4.2885 9.34398 4.34665C9.285 4.4048 9.23816 4.4741 9.20619 4.55051C9.17423 4.62692 9.15776 4.70892 9.15776 4.79175C9.15776 4.87458 9.17423 4.95658 9.20619 5.03299C9.23816 5.1094 9.285 5.1787 9.34398 5.23685C9.40296 5.295 9.47291 5.34085 9.54976 5.37173C9.62662 5.40262 9.70885 5.41792 9.79167 5.41675H10.2083C10.2912 5.41792 10.3734 5.40262 10.4502 5.37173C10.5271 5.34085 10.597 5.295 10.656 5.23685C10.715 5.1787 10.7618 5.1094 10.7938 5.03299C10.8258 4.95658 10.8422 4.87458 10.8422 4.79175C10.8422 4.70892 10.8258 4.62692 10.7938 4.55051C10.7618 4.4741 10.715 4.4048 10.656 4.34665C10.597 4.2885 10.5271 4.24264 10.4502 4.21176C10.3734 4.18088 10.2912 4.16558 10.2083 4.16675H9.79167ZM12.7083 4.16675C12.6255 4.16558 12.5433 4.18088 12.4664 4.21176C12.3896 4.24264 12.3196 4.2885 12.2606 4.34665C12.2017 4.4048 12.1548 4.4741 12.1229 4.55051C12.0909 4.62692 12.0744 4.70892 12.0744 4.79175C12.0744 4.87458 12.0909 4.95658 12.1229 5.03299C12.1548 5.1094 12.2017 5.1787 12.2606 5.23685C12.3196 5.295 12.3896 5.34085 12.4664 5.37173C12.5433 5.40262 12.6255 5.41792 12.7083 5.41675H13.125C13.2078 5.41792 13.29 5.40262 13.3669 5.37173C13.4438 5.34085 13.5137 5.295 13.5727 5.23685C13.6317 5.1787 13.6785 5.1094 13.7105 5.03299C13.7424 4.95658 13.7589 4.87458 13.7589 4.79175C13.7589 4.70892 13.7424 4.62692 13.7105 4.55051C13.6785 4.4741 13.6317 4.4048 13.5727 4.34665C13.5137 4.2885 13.4438 4.24264 13.3669 4.21176C13.29 4.18088 13.2078 4.16558 13.125 4.16675H12.7083ZM6.875 6.66675C6.79218 6.66558 6.70995 6.68088 6.6331 6.71176C6.55624 6.74264 6.48629 6.7885 6.42731 6.84665C6.36833 6.9048 6.3215 6.9741 6.28953 7.05051C6.25756 7.12692 6.2411 7.20892 6.2411 7.29175C6.2411 7.37458 6.25756 7.45658 6.28953 7.53299C6.3215 7.6094 6.36833 7.67869 6.42731 7.73685C6.48629 7.795 6.55624 7.84085 6.6331 7.87173C6.70995 7.90262 6.79218 7.91792 6.875 7.91675H7.29167C7.37449 7.91792 7.45671 7.90262 7.53357 7.87173C7.61042 7.84085 7.68037 7.795 7.73936 7.73685C7.79834 7.67869 7.84517 7.6094 7.87714 7.53299C7.90911 7.45658 7.92557 7.37458 7.92557 7.29175C7.92557 7.20892 7.90911 7.12692 7.87714 7.05051C7.84517 6.9741 7.79834 6.9048 7.73936 6.84665C7.68037 6.7885 7.61042 6.74264 7.53357 6.71176C7.45671 6.68088 7.37449 6.66558 7.29167 6.66675H6.875ZM9.79167 6.66675C9.70885 6.66558 9.62662 6.68088 9.54976 6.71176C9.47291 6.74264 9.40296 6.7885 9.34398 6.84665C9.285 6.9048 9.23816 6.9741 9.20619 7.05051C9.17423 7.12692 9.15776 7.20892 9.15776 7.29175C9.15776 7.37458 9.17423 7.45658 9.20619 7.53299C9.23816 7.6094 9.285 7.67869 9.34398 7.73685C9.40296 7.795 9.47291 7.84085 9.54976 7.87173C9.62662 7.90262 9.70885 7.91792 9.79167 7.91675H10.2083C10.2912 7.91792 10.3734 7.90262 10.4502 7.87173C10.5271 7.84085 10.597 7.795 10.656 7.73685C10.715 7.67869 10.7618 7.6094 10.7938 7.53299C10.8258 7.45658 10.8422 7.37458 10.8422 7.29175C10.8422 7.20892 10.8258 7.12692 10.7938 7.05051C10.7618 6.9741 10.715 6.9048 10.656 6.84665C10.597 6.7885 10.5271 6.74264 10.4502 6.71176C10.3734 6.68088 10.2912 6.66558 10.2083 6.66675H9.79167ZM12.7083 6.66675C12.6255 6.66558 12.5433 6.68088 12.4664 6.71176C12.3896 6.74264 12.3196 6.7885 12.2606 6.84665C12.2017 6.9048 12.1548 6.9741 12.1229 7.05051C12.0909 7.12692 12.0744 7.20892 12.0744 7.29175C12.0744 7.37458 12.0909 7.45658 12.1229 7.53299C12.1548 7.6094 12.2017 7.67869 12.2606 7.73685C12.3196 7.795 12.3896 7.84085 12.4664 7.87173C12.5433 7.90262 12.6255 7.91792 12.7083 7.91675H13.125C13.2078 7.91792 13.29 7.90262 13.3669 7.87173C13.4438 7.84085 13.5137 7.795 13.5727 7.73685C13.6317 7.67869 13.6785 7.6094 13.7105 7.53299C13.7424 7.45658 13.7589 7.37458 13.7589 7.29175C13.7589 7.20892 13.7424 7.12692 13.7105 7.05051C13.6785 6.9741 13.6317 6.9048 13.5727 6.84665C13.5137 6.7885 13.4438 6.74264 13.3669 6.71176C13.29 6.68088 13.2078 6.66558 13.125 6.66675H12.7083ZM6.875 9.16675C6.79218 9.16558 6.70995 9.18088 6.6331 9.21176C6.55624 9.24264 6.48629 9.2885 6.42731 9.34665C6.36833 9.4048 6.3215 9.4741 6.28953 9.55051C6.25756 9.62692 6.2411 9.70892 6.2411 9.79175C6.2411 9.87458 6.25756 9.95658 6.28953 10.033C6.3215 10.1094 6.36833 10.1787 6.42731 10.2368C6.48629 10.295 6.55624 10.3409 6.6331 10.3717C6.70995 10.4026 6.79218 10.4179 6.875 10.4167H7.29167C7.37449 10.4179 7.45671 10.4026 7.53357 10.3717C7.61042 10.3409 7.68037 10.295 7.73936 10.2368C7.79834 10.1787 7.84517 10.1094 7.87714 10.033C7.90911 9.95658 7.92557 9.87458 7.92557 9.79175C7.92557 9.70892 7.90911 9.62692 7.87714 9.55051C7.84517 9.4741 7.79834 9.4048 7.73936 9.34665C7.68037 9.2885 7.61042 9.24264 7.53357 9.21176C7.45671 9.18088 7.37449 9.16558 7.29167 9.16675H6.875ZM9.79167 9.16675C9.70885 9.16558 9.62662 9.18088 9.54976 9.21176C9.47291 9.24264 9.40296 9.2885 9.34398 9.34665C9.285 9.4048 9.23816 9.4741 9.20619 9.55051C9.17423 9.62692 9.15776 9.70892 9.15776 9.79175C9.15776 9.87458 9.17423 9.95658 9.20619 10.033C9.23816 10.1094 9.285 10.1787 9.34398 10.2368C9.40296 10.295 9.47291 10.3409 9.54976 10.3717C9.62662 10.4026 9.70885 10.4179 9.79167 10.4167H10.2083C10.2912 10.4179 10.3734 10.4026 10.4502 10.3717C10.5271 10.3409 10.597 10.295 10.656 10.2368C10.715 10.1787 10.7618 10.1094 10.7938 10.033C10.8258 9.95658 10.8422 9.87458 10.8422 9.79175C10.8422 9.70892 10.8258 9.62692 10.7938 9.55051C10.7618 9.4741 10.715 9.4048 10.656 9.34665C10.597 9.2885 10.5271 9.24264 10.4502 9.21176C10.3734 9.18088 10.2912 9.16558 10.2083 9.16675H9.79167ZM12.7083 9.16675C12.6255 9.16558 12.5433 9.18088 12.4664 9.21176C12.3896 9.24264 12.3196 9.2885 12.2606 9.34665C12.2017 9.4048 12.1548 9.4741 12.1229 9.55051C12.0909 9.62692 12.0744 9.70892 12.0744 9.79175C12.0744 9.87458 12.0909 9.95658 12.1229 10.033C12.1548 10.1094 12.2017 10.1787 12.2606 10.2368C12.3196 10.295 12.3896 10.3409 12.4664 10.3717C12.5433 10.4026 12.6255 10.4179 12.7083 10.4167H13.125C13.2078 10.4179 13.29 10.4026 13.3669 10.3717C13.4438 10.3409 13.5137 10.295 13.5727 10.2368C13.6317 10.1787 13.6785 10.1094 13.7105 10.033C13.7424 9.95658 13.7589 9.87458 13.7589 9.79175C13.7589 9.70892 13.7424 9.62692 13.7105 9.55051C13.6785 9.4741 13.6317 9.4048 13.5727 9.34665C13.5137 9.2885 13.4438 9.24264 13.3669 9.21176C13.29 9.18088 13.2078 9.16558 13.125 9.16675H12.7083ZM6.875 11.6667C6.79218 11.6656 6.70995 11.6809 6.6331 11.7118C6.55624 11.7426 6.48629 11.7885 6.42731 11.8466C6.36833 11.9048 6.3215 11.9741 6.28953 12.0505C6.25756 12.1269 6.2411 12.2089 6.2411 12.2917C6.2411 12.3746 6.25756 12.4566 6.28953 12.533C6.3215 12.6094 6.36833 12.6787 6.42731 12.7368C6.48629 12.795 6.55624 12.8409 6.6331 12.8717C6.70995 12.9026 6.79218 12.9179 6.875 12.9167H7.29167C7.37449 12.9179 7.45671 12.9026 7.53357 12.8717C7.61042 12.8409 7.68037 12.795 7.73936 12.7368C7.79834 12.6787 7.84517 12.6094 7.87714 12.533C7.90911 12.4566 7.92557 12.3746 7.92557 12.2917C7.92557 12.2089 7.90911 12.1269 7.87714 12.0505C7.84517 11.9741 7.79834 11.9048 7.73936 11.8466C7.68037 11.7885 7.61042 11.7426 7.53357 11.7118C7.45671 11.6809 7.37449 11.6656 7.29167 11.6667H6.875ZM9.79167 11.6667C9.70885 11.6656 9.62662 11.6809 9.54976 11.7118C9.47291 11.7426 9.40296 11.7885 9.34398 11.8466C9.285 11.9048 9.23816 11.9741 9.20619 12.0505C9.17423 12.1269 9.15776 12.2089 9.15776 12.2917C9.15776 12.3746 9.17423 12.4566 9.20619 12.533C9.23816 12.6094 9.285 12.6787 9.34398 12.7368C9.40296 12.795 9.47291 12.8409 9.54976 12.8717C9.62662 12.9026 9.70885 12.9179 9.79167 12.9167H10.2083C10.2912 12.9179 10.3734 12.9026 10.4502 12.8717C10.5271 12.8409 10.597 12.795 10.656 12.7368C10.715 12.6787 10.7618 12.6094 10.7938 12.533C10.8258 12.4566 10.8422 12.3746 10.8422 12.2917C10.8422 12.2089 10.8258 12.1269 10.7938 12.0505C10.7618 11.9741 10.715 11.9048 10.656 11.8466C10.597 11.7885 10.5271 11.7426 10.4502 11.7118C10.3734 11.6809 10.2912 11.6656 10.2083 11.6667H9.79167ZM12.7083 11.6667C12.6255 11.6656 12.5433 11.6809 12.4664 11.7118C12.3896 11.7426 12.3196 11.7885 12.2606 11.8466C12.2017 11.9048 12.1548 11.9741 12.1229 12.0505C12.0909 12.1269 12.0744 12.2089 12.0744 12.2917C12.0744 12.3746 12.0909 12.4566 12.1229 12.533C12.1548 12.6094 12.2017 12.6787 12.2606 12.7368C12.3196 12.795 12.3896 12.8409 12.4664 12.8717C12.5433 12.9026 12.6255 12.9179 12.7083 12.9167H13.125C13.2078 12.9179 13.29 12.9026 13.3669 12.8717C13.4438 12.8409 13.5137 12.795 13.5727 12.7368C13.6317 12.6787 13.6785 12.6094 13.7105 12.533C13.7424 12.4566 13.7589 12.3746 13.7589 12.2917C13.7589 12.2089 13.7424 12.1269 13.7105 12.0505C13.6785 11.9741 13.6317 11.9048 13.5727 11.8466C13.5137 11.7885 13.4438 11.7426 13.3669 11.7118C13.29 11.6809 13.2078 11.6656 13.125 11.6667H12.7083Z" fill="#1F1926"/>
</g>
</svg>
