<svg width="24" height="24" viewBox="0 0 24 24" fill="none" xmlns="http://www.w3.org/2000/svg">
<g id="icons8-navigation 3">
<path id="Vector" d="M12 2C6.486 2 2 6.486 2 12C2 17.514 6.486 22 12 22C17.514 22 22 17.514 22 12C22 6.486 17.514 2 12 2ZM15.6875 9.553L13.193 16.129C13.0505 16.505 12.69 16.752 12.2885 16.75C12.0295 16.7485 11.7885 16.6435 11.613 16.468C11.5165 16.3715 11.4395 16.2535 11.39 16.1195L10.448 13.552L7.8805 12.61C7.503 12.4705 7.2525 12.113 7.25 11.712C7.248 11.3105 7.4955 10.95 7.871 10.8075L14.447 8.313C14.801 8.179 15.2005 8.2645 15.4685 8.532C15.736 8.7995 15.8215 9.199 15.6875 9.553Z" fill="#3E2ABB"/>
</g>
</svg>
