<svg width="48" height="48" viewBox="0 0 48 48" fill="none" xmlns="http://www.w3.org/2000/svg">
<rect x="0.5" y="0.5" width="47" height="47" rx="23.5" fill="white" stroke="#3E2ABB"/>
<path d="M20.2503 16.917C17.7263 16.917 15.667 18.9763 15.667 21.5003C15.667 23.2071 16.9535 24.814 18.5218 26.4621C20.0901 28.1101 22.0205 29.7793 23.5584 31.3172C23.6756 31.4344 23.8346 31.5002 24.0003 31.5002C24.1661 31.5002 24.325 31.4344 24.4422 31.3172C25.9802 29.7793 27.9105 28.1101 29.4788 26.4621C31.0471 24.814 32.3337 23.2071 32.3337 21.5003C32.3337 18.9763 30.2743 16.917 27.7503 16.917C26.3018 16.917 25.0407 17.6947 24.0003 19.0158C22.96 17.6947 21.6988 16.917 20.2503 16.917Z" fill="#3E2ABB"/>
</svg>
