<svg width="377" height="627" viewBox="0 0 377 627" fill="none" xmlns="http://www.w3.org/2000/svg">
<g opacity="0.25" clip-path="url(#clip0_1_15863)">
<path d="M42.4625 64.8225H41.8887L42.4625 65.3962V64.8225Z" fill="#1F1926"/>
<path d="M75.1705 64.8225H74.5967V65.3962L75.1705 64.8225Z" fill="#1F1926"/>
<path d="M140.012 64.8225H139.438L140.012 65.3962V64.8225Z" fill="#1F1926"/>
<path d="M204.854 64.8225H204.28L204.854 65.3962V64.8225Z" fill="#1F1926"/>
<path d="M237.562 64.8225H236.988V65.3962L237.562 64.8225Z" fill="#1F1926"/>
<path d="M302.403 64.8225H301.829L302.403 65.3962V64.8225Z" fill="#1F1926"/>
<path d="M367.245 64.8225H366.671L367.245 65.3962V64.8225Z" fill="#1F1926"/>
<path d="M10.3283 97.5205L9.75448 96.9469L9.18066 97.5205L9.75448 98.0942L10.3283 97.5205Z" fill="#1F1926"/>
<path d="M42.4625 97.5205V96.9469L41.8887 97.5205L42.4625 98.0942V97.5205Z" fill="#1F1926"/>
<path d="M75.1705 97.5205L74.5967 96.9469V97.5205V98.0942L75.1705 97.5205Z" fill="#1F1926"/>
<path d="M107.878 97.5205L107.304 96.9469L106.73 97.5205L107.304 98.0942L107.878 97.5205Z" fill="#1F1926"/>
<path d="M140.012 97.5205V96.9469L139.438 97.5205L140.012 98.0942V97.5205Z" fill="#1F1926"/>
<path d="M172.72 97.5205L172.146 96.9469L171.572 97.5205L172.146 98.0942L172.72 97.5205Z" fill="#1F1926"/>
<path d="M204.854 97.5205V96.9469L204.28 97.5205L204.854 98.0942V97.5205Z" fill="#1F1926"/>
<path d="M237.562 97.5205L236.988 96.9469V97.5205V98.0942L237.562 97.5205Z" fill="#1F1926"/>
<path d="M270.27 97.5205L269.696 96.9469L269.122 97.5205L269.696 98.0942L270.27 97.5205Z" fill="#1F1926"/>
<path d="M302.403 97.5205V96.9469L301.829 97.5205L302.403 98.0942V97.5205Z" fill="#1F1926"/>
<path d="M335.112 97.5205L334.538 96.9469L333.964 97.5205L334.538 98.0942L335.112 97.5205Z" fill="#1F1926"/>
<path d="M367.245 97.5205V96.9469L366.671 97.5205L367.245 98.0942V97.5205Z" fill="#1F1926"/>
<path d="M9.75448 162.917C10.0714 162.917 10.3283 162.66 10.3283 162.343C10.3283 162.026 10.0714 161.769 9.75448 161.769C9.43757 161.769 9.18066 162.026 9.18066 162.343C9.18066 162.66 9.43757 162.917 9.75448 162.917Z" fill="#1F1926"/>
<path d="M43.0363 162.343C43.0363 162.343 43.0363 161.769 42.4625 161.769C41.8887 161.769 41.8887 161.769 41.8887 162.343C41.8887 162.917 41.8887 162.917 42.4625 162.917C43.0363 162.917 43.0363 162.917 43.0363 162.343Z" fill="#1F1926"/>
<path d="M74.5963 162.917C74.9132 162.917 75.1701 162.66 75.1701 162.343C75.1701 162.026 74.9132 161.769 74.5963 161.769C74.2794 161.769 74.0225 162.026 74.0225 162.343C74.0225 162.66 74.2794 162.917 74.5963 162.917Z" fill="#1F1926"/>
<path d="M107.304 162.917C107.621 162.917 107.878 162.66 107.878 162.343C107.878 162.026 107.621 161.769 107.304 161.769C106.987 161.769 106.73 162.026 106.73 162.343C106.73 162.66 106.987 162.917 107.304 162.917Z" fill="#1F1926"/>
<path d="M140.586 162.343C140.586 162.343 140.586 161.769 140.012 161.769C139.438 161.769 139.438 161.769 139.438 162.343C139.438 162.917 139.438 162.917 140.012 162.917C140.586 162.917 140.586 162.917 140.586 162.343Z" fill="#1F1926"/>
<path d="M172.146 162.917C172.463 162.917 172.72 162.66 172.72 162.343C172.72 162.026 172.463 161.769 172.146 161.769C171.829 161.769 171.572 162.026 171.572 162.343C171.572 162.66 171.829 162.917 172.146 162.917Z" fill="#1F1926"/>
<path d="M204.854 162.917C205.171 162.917 205.428 162.66 205.428 162.343C205.428 162.026 205.171 161.769 204.854 161.769C204.537 161.769 204.28 162.026 204.28 162.343C204.28 162.66 204.537 162.917 204.854 162.917Z" fill="#1F1926"/>
<path d="M237.562 162.343C237.562 162.343 237.562 161.769 236.988 161.769C236.414 161.769 236.414 161.769 236.414 162.343C236.414 162.917 236.414 162.917 236.988 162.917C237.562 162.917 237.562 162.917 237.562 162.343Z" fill="#1F1926"/>
<path d="M269.696 162.917C270.013 162.917 270.27 162.66 270.27 162.343C270.27 162.026 270.013 161.769 269.696 161.769C269.379 161.769 269.122 162.026 269.122 162.343C269.122 162.66 269.379 162.917 269.696 162.917Z" fill="#1F1926"/>
<path d="M302.403 162.917C302.72 162.917 302.977 162.66 302.977 162.343C302.977 162.026 302.72 161.769 302.403 161.769C302.086 161.769 301.829 162.026 301.829 162.343C301.829 162.66 302.086 162.917 302.403 162.917Z" fill="#1F1926"/>
<path d="M334.538 162.917C334.855 162.917 335.112 162.66 335.112 162.343C335.112 162.026 334.855 161.769 334.538 161.769C334.221 161.769 333.964 162.026 333.964 162.343C333.964 162.66 334.221 162.917 334.538 162.917Z" fill="#1F1926"/>
<path d="M367.245 162.917C367.562 162.917 367.819 162.66 367.819 162.343C367.819 162.026 367.562 161.769 367.245 161.769C366.928 161.769 366.671 162.026 366.671 162.343C366.671 162.66 366.928 162.917 367.245 162.917Z" fill="#1F1926"/>
<path d="M10.9027 195.041C10.9027 195.041 10.9027 193.894 9.75506 193.894C8.60742 193.894 8.60742 193.894 8.60742 195.041C8.60742 196.189 8.60742 196.189 9.75506 196.189C10.9027 196.189 10.9027 196.189 10.9027 195.041Z" fill="#1F1926"/>
<path d="M43.0365 195.041C43.0365 195.041 43.0365 193.894 41.8889 193.894C40.7412 193.894 40.7412 193.894 40.7412 195.041C40.7412 196.189 40.7412 196.189 41.8889 196.189C43.0365 196.189 43.0365 196.189 43.0365 195.041Z" fill="#1F1926"/>
<path d="M75.7445 195.041C75.7445 195.041 75.7445 193.894 74.5969 193.894C73.4492 193.894 73.4492 193.894 73.4492 195.041C73.4492 196.189 73.4492 196.189 74.5969 196.189C75.7445 196.189 75.7445 196.189 75.7445 195.041Z" fill="#1F1926"/>
<path d="M107.878 195.041C107.878 195.041 107.878 193.894 106.731 193.894C105.583 193.894 105.583 193.894 105.583 195.041C105.583 196.189 105.583 196.189 106.731 196.189C107.878 196.189 107.878 196.189 107.878 195.041Z" fill="#1F1926"/>
<path d="M140.586 195.041C140.586 195.041 140.586 193.894 139.439 193.894C138.291 193.894 138.291 193.894 138.291 195.041C138.291 196.189 138.291 196.189 139.439 196.189C140.586 196.189 140.586 196.189 140.586 195.041Z" fill="#1F1926"/>
<path d="M173.293 195.041C173.293 195.041 173.293 193.894 172.146 193.894C170.998 193.894 170.998 193.894 170.998 195.041C170.998 196.189 170.998 196.189 172.146 196.189C173.293 196.189 173.293 196.189 173.293 195.041Z" fill="#1F1926"/>
<path d="M205.428 195.041C205.428 195.041 205.428 193.894 204.28 193.894C203.133 193.894 203.133 193.894 203.133 195.041C203.133 196.189 203.133 196.189 204.28 196.189C205.428 196.189 205.428 196.189 205.428 195.041Z" fill="#1F1926"/>
<path d="M238.135 195.041C238.135 195.041 238.135 193.894 236.987 193.894C235.84 193.894 235.84 193.894 235.84 195.041C235.84 196.189 235.84 196.189 236.987 196.189C238.135 196.189 238.135 196.189 238.135 195.041Z" fill="#1F1926"/>
<path d="M270.27 195.041C270.27 195.041 270.27 193.894 269.122 193.894C267.975 193.894 267.975 193.894 267.975 195.041C267.975 196.189 267.975 196.189 269.122 196.189C270.27 196.189 270.27 196.189 270.27 195.041Z" fill="#1F1926"/>
<path d="M302.977 195.041C302.977 195.041 302.977 193.894 301.829 193.894C300.682 193.894 300.682 193.894 300.682 195.041C300.682 196.189 300.682 196.189 301.829 196.189C302.977 196.189 302.977 196.189 302.977 195.041Z" fill="#1F1926"/>
<path d="M335.685 195.041C335.685 195.041 335.685 193.894 334.537 193.894C333.39 193.894 333.39 193.894 333.39 195.041C333.39 196.189 333.39 196.189 334.537 196.189C335.685 196.189 335.685 196.189 335.685 195.041Z" fill="#1F1926"/>
<path d="M367.819 195.041C367.819 195.041 367.819 193.894 366.671 193.894C365.523 193.894 365.523 193.894 365.523 195.041C365.523 196.189 365.523 196.189 366.671 196.189C367.819 196.189 367.819 196.189 367.819 195.041Z" fill="#1F1926"/>
<path d="M10.9027 227.166C10.9027 227.166 10.9027 226.018 9.75506 226.018C8.60742 226.018 8.60742 226.018 8.60742 227.166C8.60742 228.313 8.60742 228.313 9.75506 228.313C10.9027 228.313 10.9027 228.313 10.9027 227.166Z" fill="#1F1926"/>
<path d="M43.6107 227.166C43.6107 227.166 43.6107 226.018 42.4631 226.018C41.3154 226.018 41.3154 226.018 41.3154 227.166C41.3154 228.313 41.3154 228.313 42.4631 228.313C43.6107 228.313 43.6107 228.313 43.6107 227.166Z" fill="#1F1926"/>
<path d="M75.7445 227.166C75.7445 227.166 75.7445 226.018 74.5969 226.018C73.4492 226.018 73.4492 226.018 73.4492 227.166C73.4492 228.313 73.4492 228.313 74.5969 228.313C75.7445 228.313 75.7445 228.313 75.7445 227.166Z" fill="#1F1926"/>
<path d="M108.453 227.166C108.453 227.166 108.453 226.018 107.305 226.018C106.157 226.018 106.157 226.018 106.157 227.166C106.157 228.313 106.157 228.313 107.305 228.313C108.453 228.313 108.453 228.313 108.453 227.166Z" fill="#1F1926"/>
<path d="M141.16 227.166C141.16 227.166 141.16 226.018 140.012 226.018C138.864 226.018 138.864 226.018 138.864 227.166C138.864 228.313 138.864 228.313 140.012 228.313C141.16 228.313 141.16 228.313 141.16 227.166Z" fill="#1F1926"/>
<path d="M173.293 227.166C173.293 227.166 173.293 226.018 172.146 226.018C170.998 226.018 170.998 226.018 170.998 227.166C170.998 228.313 170.998 228.313 172.146 228.313C173.293 228.313 173.293 228.313 173.293 227.166Z" fill="#1F1926"/>
<path d="M206.001 227.166C206.001 227.166 206.001 226.018 204.854 226.018C203.706 226.018 203.706 226.018 203.706 227.166C203.706 228.313 203.706 228.313 204.854 228.313C206.001 228.313 206.001 228.313 206.001 227.166Z" fill="#1F1926"/>
<path d="M238.135 227.166C238.135 227.166 238.135 226.018 236.987 226.018C235.84 226.018 235.84 226.018 235.84 227.166C235.84 228.313 235.84 228.313 236.987 228.313C238.135 228.313 238.135 228.313 238.135 227.166Z" fill="#1F1926"/>
<path d="M270.843 227.166C270.843 227.166 270.843 226.018 269.695 226.018C268.548 226.018 268.548 226.018 268.548 227.166C268.548 228.313 268.548 228.313 269.695 228.313C270.843 228.313 270.843 228.313 270.843 227.166Z" fill="#1F1926"/>
<path d="M303.551 227.166C303.551 227.166 303.551 226.018 302.403 226.018C301.256 226.018 301.256 226.018 301.256 227.166C301.256 228.313 301.256 228.313 302.403 228.313C303.551 228.313 303.551 228.313 303.551 227.166Z" fill="#1F1926"/>
<path d="M335.685 227.166C335.685 227.166 335.685 226.018 334.537 226.018C333.39 226.018 333.39 226.018 333.39 227.166C333.39 228.313 333.39 228.313 334.537 228.313C335.685 228.313 335.685 228.313 335.685 227.166Z" fill="#1F1926"/>
<path d="M368.393 227.166C368.393 227.166 368.393 226.018 367.245 226.018C366.098 226.018 366.098 226.018 366.098 227.166C366.098 228.313 366.098 228.313 367.245 228.313C368.393 228.313 368.393 228.313 368.393 227.166Z" fill="#1F1926"/>
<path d="M11.4761 259.864C11.4761 259.864 10.9023 258.143 9.75466 258.143C8.60702 258.143 8.0332 258.716 8.0332 259.864C8.0332 261.011 8.60702 261.585 9.75466 261.585C10.9023 261.585 11.4761 261.011 11.4761 259.864Z" fill="#1F1926"/>
<path d="M43.6099 259.864C43.6099 259.864 43.0361 258.143 41.8885 258.143C40.7408 258.143 40.167 258.716 40.167 259.864C40.167 261.011 40.7408 261.585 41.8885 261.585C43.0361 261.585 43.6099 261.011 43.6099 259.864Z" fill="#1F1926"/>
<path d="M76.3179 259.864C76.3179 259.864 75.7441 258.143 74.5965 258.143C73.4488 258.143 72.875 258.716 72.875 259.864C72.875 261.011 73.4488 261.585 74.5965 261.585C75.7441 261.585 76.3179 261.011 76.3179 259.864Z" fill="#1F1926"/>
<path d="M109.026 259.864C109.026 259.864 108.452 258.143 107.304 258.143C106.157 258.143 105.583 258.716 105.583 259.864C105.583 261.011 106.157 261.585 107.304 261.585C108.452 261.585 109.026 261.011 109.026 259.864Z" fill="#1F1926"/>
<path d="M141.16 259.864C141.16 259.864 140.586 258.143 139.438 258.143C138.291 258.143 137.717 258.716 137.717 259.864C137.717 261.011 138.291 261.585 139.438 261.585C140.586 261.585 141.16 261.011 141.16 259.864Z" fill="#1F1926"/>
<path d="M173.868 259.864C173.868 259.864 173.294 258.143 172.146 258.143C170.999 258.143 170.425 258.716 170.425 259.864C170.425 261.011 170.999 261.585 172.146 261.585C173.294 261.585 173.868 261.011 173.868 259.864Z" fill="#1F1926"/>
<path d="M206.002 259.864C206.002 259.864 205.428 258.143 204.28 258.143C203.132 258.143 202.559 258.716 202.559 259.864C202.559 261.011 203.132 261.585 204.28 261.585C205.428 261.585 206.002 261.011 206.002 259.864Z" fill="#1F1926"/>
<path d="M238.71 259.864C238.71 259.864 238.136 258.143 236.988 258.143C235.84 258.143 235.267 258.716 235.267 259.864C235.267 261.011 235.84 261.585 236.988 261.585C238.136 261.585 238.71 261.011 238.71 259.864Z" fill="#1F1926"/>
<path d="M271.418 259.864C271.418 259.864 270.844 258.143 269.696 258.143C268.548 258.143 267.975 258.716 267.975 259.864C267.975 261.011 268.548 261.585 269.696 261.585C270.844 261.585 271.418 261.011 271.418 259.864Z" fill="#1F1926"/>
<path d="M303.551 259.864C303.551 259.864 302.978 258.143 301.83 258.143C300.682 258.143 300.108 258.716 300.108 259.864C300.108 261.011 300.682 261.585 301.83 261.585C302.978 261.585 303.551 261.011 303.551 259.864Z" fill="#1F1926"/>
<path d="M336.258 259.864C336.258 259.864 335.685 258.143 334.537 258.143C333.389 258.143 332.815 258.716 332.815 259.864C332.815 261.011 333.389 261.585 334.537 261.585C335.685 261.585 336.258 261.011 336.258 259.864Z" fill="#1F1926"/>
<path d="M368.393 259.864C368.393 259.864 367.819 258.143 366.672 258.143C365.524 258.143 364.95 258.716 364.95 259.864C364.95 261.011 365.524 261.585 366.672 261.585C367.819 261.585 368.393 261.011 368.393 259.864Z" fill="#1F1926"/>
<path d="M11.4761 292.562C11.4761 292.562 10.9023 290.841 9.75466 290.841C8.60702 290.841 8.0332 291.414 8.0332 292.562C8.0332 293.709 8.60702 294.283 9.75466 294.283C10.9023 294.283 11.4761 293.709 11.4761 292.562Z" fill="#1F1926"/>
<path d="M44.1841 292.562C44.1841 292.562 43.6103 290.841 42.4627 290.841C41.315 290.841 40.7412 291.414 40.7412 292.562C40.7412 293.709 41.315 294.283 42.4627 294.283C43.6103 294.283 44.1841 293.709 44.1841 292.562Z" fill="#1F1926"/>
<path d="M76.8921 292.562C76.8921 292.562 76.3183 290.841 75.1707 290.841C74.023 290.841 73.4492 291.414 73.4492 292.562C73.4492 293.709 74.023 294.283 75.1707 294.283C76.3183 294.283 76.8921 293.709 76.8921 292.562Z" fill="#1F1926"/>
<path d="M109.026 292.562C109.026 292.562 108.452 290.841 107.304 290.841C106.157 290.841 105.583 291.414 105.583 292.562C105.583 293.709 106.157 294.283 107.304 294.283C108.452 294.283 109.026 293.709 109.026 292.562Z" fill="#1F1926"/>
<path d="M141.734 292.562C141.734 292.562 141.16 290.841 140.012 290.841C138.865 290.841 138.291 291.414 138.291 292.562C138.291 293.709 138.865 294.283 140.012 294.283C141.16 294.283 141.734 293.709 141.734 292.562Z" fill="#1F1926"/>
<path d="M173.868 292.562C173.868 292.562 173.294 290.841 172.146 290.841C170.999 290.841 170.425 291.414 170.425 292.562C170.425 293.709 170.999 294.283 172.146 294.283C173.294 294.283 173.868 293.709 173.868 292.562Z" fill="#1F1926"/>
<path d="M206.576 292.562C206.576 292.562 206.002 290.841 204.854 290.841C203.707 290.841 203.133 291.414 203.133 292.562C203.133 293.709 203.707 294.283 204.854 294.283C206.002 294.283 206.576 293.709 206.576 292.562Z" fill="#1F1926"/>
<path d="M239.283 292.562C239.283 292.562 238.709 290.841 237.561 290.841C236.414 290.841 235.84 291.414 235.84 292.562C235.84 293.709 236.414 294.283 237.561 294.283C238.709 294.283 239.283 293.709 239.283 292.562Z" fill="#1F1926"/>
<path d="M271.418 292.562C271.418 292.562 270.844 290.841 269.696 290.841C268.548 290.841 267.975 291.414 267.975 292.562C267.975 293.709 268.548 294.283 269.696 294.283C270.844 294.283 271.418 293.709 271.418 292.562Z" fill="#1F1926"/>
<path d="M304.125 292.562C304.125 292.562 303.551 290.841 302.403 290.841C301.255 290.841 300.682 291.414 300.682 292.562C300.682 293.709 301.255 294.283 302.403 294.283C303.551 294.283 304.125 293.709 304.125 292.562Z" fill="#1F1926"/>
<path d="M336.258 292.562C336.258 292.562 335.685 290.841 334.537 290.841C333.389 290.841 332.815 291.414 332.815 292.562C332.815 293.709 333.389 294.283 334.537 294.283C335.685 294.283 336.258 293.709 336.258 292.562Z" fill="#1F1926"/>
<path d="M368.966 292.562C368.966 292.562 368.393 290.841 367.245 290.841C366.097 290.841 365.523 291.414 365.523 292.562C365.523 293.709 366.097 294.283 367.245 294.283C368.393 294.283 368.966 293.709 368.966 292.562Z" fill="#1F1926"/>
<path d="M9.75524 326.981C11.0229 326.981 12.0505 325.953 12.0505 324.686C12.0505 323.419 11.0229 322.392 9.75524 322.392C8.48759 322.392 7.45996 323.419 7.45996 324.686C7.45996 325.953 8.48759 326.981 9.75524 326.981Z" fill="#1F1926"/>
<path d="M42.4623 326.981C43.7299 326.981 44.7576 325.953 44.7576 324.686C44.7576 323.419 43.7299 322.392 42.4623 322.392C41.1946 322.392 40.167 323.419 40.167 324.686C40.167 325.953 41.1946 326.981 42.4623 326.981Z" fill="#1F1926"/>
<path d="M76.8923 324.686C76.8923 324.686 75.7447 322.392 74.597 322.392C73.4494 322.392 72.3018 323.539 72.3018 324.686C72.3018 325.834 73.4494 326.981 74.597 326.981C75.7447 326.981 76.8923 325.834 76.8923 324.686Z" fill="#1F1926"/>
<path d="M109.599 324.686C109.599 324.686 108.452 322.392 107.304 322.392C106.156 322.392 105.009 323.539 105.009 324.686C105.009 325.834 106.156 326.981 107.304 326.981C108.452 326.981 109.599 325.834 109.599 324.686Z" fill="#1F1926"/>
<path d="M142.307 324.686C142.307 324.686 141.16 322.392 140.012 322.392C138.864 322.392 137.717 323.539 137.717 324.686C137.717 325.834 138.864 326.981 140.012 326.981C141.16 326.981 142.307 325.834 142.307 324.686Z" fill="#1F1926"/>
<path d="M174.441 324.686C174.441 324.686 173.294 322.392 172.146 322.392C170.998 322.392 169.851 323.539 169.851 324.686C169.851 325.834 170.998 326.981 172.146 326.981C173.294 326.981 174.441 325.834 174.441 324.686Z" fill="#1F1926"/>
<path d="M207.149 324.686C207.149 324.686 206.002 322.392 204.854 322.392C203.706 322.392 202.559 323.539 202.559 324.686C202.559 325.834 203.706 326.981 204.854 326.981C206.002 326.981 207.149 325.834 207.149 324.686Z" fill="#1F1926"/>
<path d="M239.283 324.686C239.283 324.686 238.135 322.392 236.988 322.392C235.84 322.392 234.692 323.539 234.692 324.686C234.692 325.834 235.84 326.981 236.988 326.981C238.135 326.981 239.283 325.834 239.283 324.686Z" fill="#1F1926"/>
<path d="M269.696 326.981C270.963 326.981 271.991 325.953 271.991 324.686C271.991 323.419 270.963 322.392 269.696 322.392C268.428 322.392 267.4 323.419 267.4 324.686C267.4 325.953 268.428 326.981 269.696 326.981Z" fill="#1F1926"/>
<path d="M302.404 326.981C303.671 326.981 304.699 325.953 304.699 324.686C304.699 323.419 303.671 322.392 302.404 322.392C301.136 322.392 300.108 323.419 300.108 324.686C300.108 325.953 301.136 326.981 302.404 326.981Z" fill="#1F1926"/>
<path d="M334.537 326.981C335.805 326.981 336.833 325.953 336.833 324.686C336.833 323.419 335.805 322.392 334.537 322.392C333.27 322.392 332.242 323.419 332.242 324.686C332.242 325.953 333.27 326.981 334.537 326.981Z" fill="#1F1926"/>
<path d="M367.245 326.981C368.513 326.981 369.541 325.953 369.541 324.686C369.541 323.419 368.513 322.392 367.245 322.392C365.978 322.392 364.95 323.419 364.95 324.686C364.95 325.953 365.978 326.981 367.245 326.981Z" fill="#1F1926"/>
<path d="M12.6239 357.384C12.6239 357.384 11.4763 354.516 9.75484 354.516C8.03338 354.516 6.88574 355.663 6.88574 357.384C6.88574 359.105 8.03338 360.253 9.75484 360.253C11.4763 360.253 12.6239 359.105 12.6239 357.384Z" fill="#1F1926"/>
<path d="M45.332 357.384C45.332 357.384 44.1843 354.516 42.4629 354.516C40.7414 354.516 39.5938 355.663 39.5938 357.384C39.5938 359.105 40.7414 360.253 42.4629 360.253C44.1843 360.253 45.332 359.105 45.332 357.384Z" fill="#1F1926"/>
<path d="M77.4657 357.384C77.4657 357.384 76.3181 354.516 74.5966 354.516C72.8752 354.516 71.7275 355.663 71.7275 357.384C71.7275 359.105 72.8752 360.253 74.5966 360.253C76.3181 360.253 77.4657 359.105 77.4657 357.384Z" fill="#1F1926"/>
<path d="M110.174 357.384C110.174 357.384 109.026 354.516 107.305 354.516C105.583 354.516 104.436 355.663 104.436 357.384C104.436 359.105 105.583 360.253 107.305 360.253C109.026 360.253 110.174 359.105 110.174 357.384Z" fill="#1F1926"/>
<path d="M142.308 357.384C142.308 357.384 141.16 354.516 139.438 354.516C137.717 354.516 136.569 355.663 136.569 357.384C136.569 359.105 137.717 360.253 139.438 360.253C141.16 360.253 142.308 359.105 142.308 357.384Z" fill="#1F1926"/>
<path d="M175.016 357.384C175.016 357.384 173.868 354.516 172.146 354.516C170.425 354.516 169.277 355.663 169.277 357.384C169.277 359.105 170.425 360.253 172.146 360.253C173.868 360.253 175.016 359.105 175.016 357.384Z" fill="#1F1926"/>
<path d="M207.723 357.384C207.723 357.384 206.575 354.516 204.853 354.516C203.132 354.516 201.984 355.663 201.984 357.384C201.984 359.105 203.132 360.253 204.853 360.253C206.575 360.253 207.723 359.105 207.723 357.384Z" fill="#1F1926"/>
<path d="M239.857 357.384C239.857 357.384 238.71 354.516 236.988 354.516C235.267 354.516 234.119 355.663 234.119 357.384C234.119 359.105 235.267 360.253 236.988 360.253C238.71 360.253 239.857 359.105 239.857 357.384Z" fill="#1F1926"/>
<path d="M272.564 357.384C272.564 357.384 271.417 354.516 269.695 354.516C267.974 354.516 266.826 355.663 266.826 357.384C266.826 359.105 267.974 360.253 269.695 360.253C271.417 360.253 272.564 359.105 272.564 357.384Z" fill="#1F1926"/>
<path d="M304.698 357.384C304.698 357.384 303.551 354.516 301.829 354.516C300.108 354.516 298.96 355.663 298.96 357.384C298.96 359.105 300.108 360.253 301.829 360.253C303.551 360.253 304.698 359.105 304.698 357.384Z" fill="#1F1926"/>
<path d="M337.406 357.384C337.406 357.384 336.259 354.516 334.537 354.516C332.816 354.516 331.668 355.663 331.668 357.384C331.668 359.105 332.816 360.253 334.537 360.253C336.259 360.253 337.406 359.105 337.406 357.384Z" fill="#1F1926"/>
<path d="M370.114 357.384C370.114 357.384 368.967 354.516 367.245 354.516C365.524 354.516 364.376 355.663 364.376 357.384C364.376 359.105 365.524 360.253 367.245 360.253C368.967 360.253 370.114 359.105 370.114 357.384Z" fill="#1F1926"/>
<path d="M13.1983 389.509C13.1983 389.509 11.4769 386.067 9.75542 386.067C8.03396 386.067 6.3125 387.788 6.3125 389.509C6.3125 391.23 8.03396 392.951 9.75542 392.951C11.4769 392.951 13.1983 391.23 13.1983 389.509Z" fill="#1F1926"/>
<path d="M45.9054 389.509C45.9054 389.509 44.1839 386.067 42.4625 386.067C40.741 386.067 39.0195 387.788 39.0195 389.509C39.0195 391.23 40.741 392.951 42.4625 392.951C44.1839 392.951 45.9054 391.23 45.9054 389.509Z" fill="#1F1926"/>
<path d="M78.0392 389.509C78.0392 389.509 76.3177 386.067 74.5962 386.067C72.8748 386.067 71.1533 387.788 71.1533 389.509C71.1533 391.23 72.8748 392.951 74.5962 392.951C76.3177 392.951 78.0392 391.23 78.0392 389.509Z" fill="#1F1926"/>
<path d="M110.747 389.509C110.747 389.509 109.026 386.067 107.304 386.067C105.583 386.067 103.861 387.788 103.861 389.509C103.861 391.23 105.583 392.951 107.304 392.951C109.026 392.951 110.747 391.23 110.747 389.509Z" fill="#1F1926"/>
<path d="M142.881 389.509C142.881 389.509 141.16 386.067 139.438 386.067C137.717 386.067 135.995 387.788 135.995 389.509C135.995 391.23 137.717 392.951 139.438 392.951C141.16 392.951 142.881 391.23 142.881 389.509Z" fill="#1F1926"/>
<path d="M175.589 389.509C175.589 389.509 173.868 386.067 172.146 386.067C170.425 386.067 168.703 387.788 168.703 389.509C168.703 391.23 170.425 392.951 172.146 392.951C173.868 392.951 175.589 391.23 175.589 389.509Z" fill="#1F1926"/>
<path d="M208.297 389.509C208.297 389.509 206.576 386.067 204.854 386.067C203.133 386.067 201.411 387.788 201.411 389.509C201.411 391.23 203.133 392.951 204.854 392.951C206.576 392.951 208.297 391.23 208.297 389.509Z" fill="#1F1926"/>
<path d="M240.431 389.509C240.431 389.509 238.709 386.067 236.988 386.067C235.266 386.067 233.545 387.788 233.545 389.509C233.545 391.23 235.266 392.951 236.988 392.951C238.709 392.951 240.431 391.23 240.431 389.509Z" fill="#1F1926"/>
<path d="M273.139 389.509C273.139 389.509 271.417 386.067 269.696 386.067C267.974 386.067 266.253 387.788 266.253 389.509C266.253 391.23 267.974 392.951 269.696 392.951C271.417 392.951 273.139 391.23 273.139 389.509Z" fill="#1F1926"/>
<path d="M305.273 389.509C305.273 389.509 303.551 386.067 301.83 386.067C300.108 386.067 298.387 387.788 298.387 389.509C298.387 391.23 300.108 392.951 301.83 392.951C303.551 392.951 305.273 391.23 305.273 389.509Z" fill="#1F1926"/>
<path d="M337.981 389.509C337.981 389.509 336.259 386.067 334.538 386.067C332.816 386.067 331.095 387.788 331.095 389.509C331.095 391.23 332.816 392.951 334.538 392.951C336.259 392.951 337.981 391.23 337.981 389.509Z" fill="#1F1926"/>
<path d="M370.688 389.509C370.688 389.509 368.966 386.067 367.245 386.067C365.523 386.067 363.802 387.788 363.802 389.509C363.802 391.23 365.523 392.951 367.245 392.951C368.966 392.951 370.688 391.23 370.688 389.509Z" fill="#1F1926"/>
<path d="M9.75502 426.222C11.9734 426.222 13.7718 424.424 13.7718 422.207C13.7718 419.989 11.9734 418.191 9.75502 418.191C7.53664 418.191 5.73828 419.989 5.73828 422.207C5.73828 424.424 7.53664 426.222 9.75502 426.222Z" fill="#1F1926"/>
<path d="M46.4798 422.207C46.4798 422.207 44.7583 418.191 42.463 418.191C40.1677 418.191 38.4463 419.912 38.4463 422.207C38.4463 424.501 40.1677 426.222 42.463 426.222C44.7583 426.222 46.4798 424.501 46.4798 422.207Z" fill="#1F1926"/>
<path d="M74.5968 426.222C76.8152 426.222 78.6136 424.424 78.6136 422.207C78.6136 419.989 76.8152 418.191 74.5968 418.191C72.3784 418.191 70.5801 419.989 70.5801 422.207C70.5801 424.424 72.3784 426.222 74.5968 426.222Z" fill="#1F1926"/>
<path d="M111.322 422.207C111.322 422.207 109.6 418.191 107.305 418.191C105.01 418.191 103.288 419.912 103.288 422.207C103.288 424.501 105.01 426.222 107.305 426.222C109.6 426.222 111.322 424.501 111.322 422.207Z" fill="#1F1926"/>
<path d="M144.029 422.207C144.029 422.207 142.307 418.191 140.012 418.191C137.717 418.191 135.995 419.912 135.995 422.207C135.995 424.501 137.717 426.222 140.012 426.222C142.307 426.222 144.029 424.501 144.029 422.207Z" fill="#1F1926"/>
<path d="M176.162 422.207C176.162 422.207 174.441 418.191 172.146 418.191C169.85 418.191 168.129 419.912 168.129 422.207C168.129 424.501 169.85 426.222 172.146 426.222C174.441 426.222 176.162 424.501 176.162 422.207Z" fill="#1F1926"/>
<path d="M208.87 422.207C208.87 422.207 207.149 418.191 204.854 418.191C202.558 418.191 200.837 419.912 200.837 422.207C200.837 424.501 202.558 426.222 204.854 426.222C207.149 426.222 208.87 424.501 208.87 422.207Z" fill="#1F1926"/>
<path d="M241.004 422.207C241.004 422.207 239.283 418.191 236.987 418.191C234.692 418.191 232.971 419.912 232.971 422.207C232.971 424.501 234.692 426.222 236.987 426.222C239.283 426.222 241.004 424.501 241.004 422.207Z" fill="#1F1926"/>
<path d="M269.695 426.222C271.914 426.222 273.712 424.424 273.712 422.207C273.712 419.989 271.914 418.191 269.695 418.191C267.477 418.191 265.679 419.989 265.679 422.207C265.679 424.424 267.477 426.222 269.695 426.222Z" fill="#1F1926"/>
<path d="M306.42 422.207C306.42 422.207 304.699 418.191 302.403 418.191C300.108 418.191 298.387 419.912 298.387 422.207C298.387 424.501 300.108 426.222 302.403 426.222C304.699 426.222 306.42 424.501 306.42 422.207Z" fill="#1F1926"/>
<path d="M338.554 422.207C338.554 422.207 336.833 418.191 334.537 418.191C332.242 418.191 330.521 419.912 330.521 422.207C330.521 424.501 332.242 426.222 334.537 426.222C336.833 426.222 338.554 424.501 338.554 422.207Z" fill="#1F1926"/>
<path d="M367.245 426.222C369.464 426.222 371.262 424.424 371.262 422.207C371.262 419.989 369.464 418.191 367.245 418.191C365.027 418.191 363.229 419.989 363.229 422.207C363.229 424.424 365.027 426.222 367.245 426.222Z" fill="#1F1926"/>
<path d="M9.75463 459.494C12.2899 459.494 14.3452 457.439 14.3452 454.905C14.3452 452.37 12.2899 450.316 9.75463 450.316C7.21933 450.316 5.16406 452.37 5.16406 454.905C5.16406 457.439 7.21933 459.494 9.75463 459.494Z" fill="#1F1926"/>
<path d="M47.0532 454.905C47.0532 454.905 44.7579 450.316 42.4626 450.316C40.1674 450.316 37.8721 452.61 37.8721 454.905C37.8721 457.199 40.1674 459.494 42.4626 459.494C44.7579 459.494 47.0532 457.199 47.0532 454.905Z" fill="#1F1926"/>
<path d="M74.5964 459.494C77.1317 459.494 79.187 457.439 79.187 454.905C79.187 452.37 77.1317 450.316 74.5964 450.316C72.0611 450.316 70.0059 452.37 70.0059 454.905C70.0059 457.439 72.0611 459.494 74.5964 459.494Z" fill="#1F1926"/>
<path d="M107.304 459.494C109.84 459.494 111.895 457.439 111.895 454.905C111.895 452.37 109.84 450.316 107.304 450.316C104.769 450.316 102.714 452.37 102.714 454.905C102.714 457.439 104.769 459.494 107.304 459.494Z" fill="#1F1926"/>
<path d="M144.603 454.905C144.603 454.905 142.308 450.316 140.012 450.316C137.717 450.316 135.422 452.61 135.422 454.905C135.422 457.199 137.717 459.494 140.012 459.494C142.308 459.494 144.603 457.199 144.603 454.905Z" fill="#1F1926"/>
<path d="M176.737 454.905C176.737 454.905 174.442 450.316 172.146 450.316C169.851 450.316 167.556 452.61 167.556 454.905C167.556 457.199 169.851 459.494 172.146 459.494C174.442 459.494 176.737 457.199 176.737 454.905Z" fill="#1F1926"/>
<path d="M204.854 459.494C207.39 459.494 209.445 457.439 209.445 454.905C209.445 452.37 207.39 450.316 204.854 450.316C202.319 450.316 200.264 452.37 200.264 454.905C200.264 457.439 202.319 459.494 204.854 459.494Z" fill="#1F1926"/>
<path d="M242.152 454.905C242.152 454.905 239.857 450.316 237.561 450.316C235.266 450.316 232.971 452.61 232.971 454.905C232.971 457.199 235.266 459.494 237.561 459.494C239.857 459.494 242.152 457.199 242.152 454.905Z" fill="#1F1926"/>
<path d="M269.696 459.494C272.231 459.494 274.287 457.439 274.287 454.905C274.287 452.37 272.231 450.316 269.696 450.316C267.161 450.316 265.105 452.37 265.105 454.905C265.105 457.439 267.161 459.494 269.696 459.494Z" fill="#1F1926"/>
<path d="M302.403 459.494C304.938 459.494 306.994 457.439 306.994 454.905C306.994 452.37 304.938 450.316 302.403 450.316C299.868 450.316 297.812 452.37 297.812 454.905C297.812 457.439 299.868 459.494 302.403 459.494Z" fill="#1F1926"/>
<path d="M334.537 459.494C337.072 459.494 339.127 457.439 339.127 454.905C339.127 452.37 337.072 450.316 334.537 450.316C332.002 450.316 329.946 452.37 329.946 454.905C329.946 457.439 332.002 459.494 334.537 459.494Z" fill="#1F1926"/>
<path d="M367.245 459.494C369.78 459.494 371.835 457.439 371.835 454.905C371.835 452.37 369.78 450.316 367.245 450.316C364.71 450.316 362.654 452.37 362.654 454.905C362.654 457.439 364.71 459.494 367.245 459.494Z" fill="#1F1926"/>
<path d="M9.75481 492.766C12.9239 492.766 15.493 490.197 15.493 487.029C15.493 483.861 12.9239 481.293 9.75481 481.293C6.58568 481.293 4.0166 483.861 4.0166 487.029C4.0166 490.197 6.58568 492.766 9.75481 492.766Z" fill="#1F1926"/>
<path d="M42.4628 492.766C45.3319 492.766 48.201 490.471 48.201 487.029C48.201 483.587 45.9057 481.293 42.4628 481.293C39.0199 481.293 36.7246 483.587 36.7246 487.029C36.7246 490.471 39.0199 492.766 42.4628 492.766Z" fill="#1F1926"/>
<path d="M74.5966 492.766C77.4657 492.766 80.3348 490.471 80.3348 487.029C80.3348 483.587 78.0395 481.293 74.5966 481.293C71.1537 481.293 68.8584 483.587 68.8584 487.029C68.8584 490.471 71.1537 492.766 74.5966 492.766Z" fill="#1F1926"/>
<path d="M107.305 492.766C110.174 492.766 113.043 490.471 113.043 487.029C113.043 483.587 110.748 481.293 107.305 481.293C103.862 481.293 101.566 483.587 101.566 487.029C101.566 490.471 103.862 492.766 107.305 492.766Z" fill="#1F1926"/>
<path d="M140.013 492.766C142.882 492.766 145.751 490.471 145.751 487.029C145.751 483.587 143.456 481.293 140.013 481.293C136.57 481.293 134.274 483.587 134.274 487.029C134.274 490.471 136.57 492.766 140.013 492.766Z" fill="#1F1926"/>
<path d="M172.146 492.766C175.016 492.766 177.885 490.471 177.885 487.029C177.885 483.587 175.589 481.293 172.146 481.293C168.703 481.293 166.408 483.587 166.408 487.029C166.408 490.471 168.703 492.766 172.146 492.766Z" fill="#1F1926"/>
<path d="M204.853 492.766C207.723 492.766 210.592 490.471 210.592 487.029C210.592 483.587 208.296 481.293 204.853 481.293C201.411 481.293 199.115 483.587 199.115 487.029C199.115 490.471 201.411 492.766 204.853 492.766Z" fill="#1F1926"/>
<path d="M236.988 492.766C239.857 492.766 242.726 490.471 242.726 487.029C242.726 483.587 240.431 481.293 236.988 481.293C233.545 481.293 231.25 483.587 231.25 487.029C231.25 490.471 233.545 492.766 236.988 492.766Z" fill="#1F1926"/>
<path d="M269.695 492.766C272.864 492.766 275.433 490.197 275.433 487.029C275.433 483.861 272.864 481.293 269.695 481.293C266.526 481.293 263.957 483.861 263.957 487.029C263.957 490.197 266.526 492.766 269.695 492.766Z" fill="#1F1926"/>
<path d="M302.403 492.766C305.272 492.766 308.141 490.471 308.141 487.029C308.141 483.587 305.846 481.293 302.403 481.293C298.96 481.293 296.665 483.587 296.665 487.029C296.665 490.471 298.96 492.766 302.403 492.766Z" fill="#1F1926"/>
<path d="M334.537 492.766C337.706 492.766 340.275 490.197 340.275 487.029C340.275 483.861 337.706 481.293 334.537 481.293C331.368 481.293 328.799 483.861 328.799 487.029C328.799 490.197 331.368 492.766 334.537 492.766Z" fill="#1F1926"/>
<path d="M367.245 492.766C370.414 492.766 372.983 490.197 372.983 487.029C372.983 483.861 370.414 481.293 367.245 481.293C364.076 481.293 361.507 483.861 361.507 487.029C361.507 490.197 364.076 492.766 367.245 492.766Z" fill="#1F1926"/>
<path d="M9.75538 526.038C13.2414 526.038 16.0674 523.212 16.0674 519.727C16.0674 516.242 13.2414 513.417 9.75538 513.417C6.26935 513.417 3.44336 516.242 3.44336 519.727C3.44336 523.212 6.26935 526.038 9.75538 526.038Z" fill="#1F1926"/>
<path d="M42.4624 526.038C45.9053 526.038 48.7744 523.169 48.7744 519.727C48.7744 516.286 45.9053 513.417 42.4624 513.417C39.0195 513.417 36.1504 516.286 36.1504 519.727C36.1504 523.169 39.0195 526.038 42.4624 526.038Z" fill="#1F1926"/>
<path d="M74.5962 526.038C78.0391 526.038 80.9082 523.169 80.9082 519.727C80.9082 516.286 78.0391 513.417 74.5962 513.417C71.1533 513.417 68.2842 516.286 68.2842 519.727C68.2842 523.169 71.1533 526.038 74.5962 526.038Z" fill="#1F1926"/>
<path d="M107.304 526.038C110.747 526.038 113.616 523.169 113.616 519.727C113.616 516.286 110.747 513.417 107.304 513.417C103.861 513.417 100.992 516.286 100.992 519.727C100.992 523.169 103.861 526.038 107.304 526.038Z" fill="#1F1926"/>
<path d="M140.012 526.038C143.455 526.038 146.324 523.169 146.324 519.727C146.324 516.286 143.455 513.417 140.012 513.417C136.569 513.417 133.7 516.286 133.7 519.727C133.7 523.169 136.569 526.038 140.012 526.038Z" fill="#1F1926"/>
<path d="M172.146 526.038C175.589 526.038 178.458 523.169 178.458 519.727C178.458 516.286 175.589 513.417 172.146 513.417C168.703 513.417 165.834 516.286 165.834 519.727C165.834 523.169 168.703 526.038 172.146 526.038Z" fill="#1F1926"/>
<path d="M204.854 526.038C208.297 526.038 211.166 523.169 211.166 519.727C211.166 516.286 208.297 513.417 204.854 513.417C201.411 513.417 198.542 516.286 198.542 519.727C198.542 523.169 201.411 526.038 204.854 526.038Z" fill="#1F1926"/>
<path d="M236.988 526.038C240.431 526.038 243.3 523.169 243.3 519.727C243.3 516.286 240.431 513.417 236.988 513.417C233.545 513.417 230.676 516.286 230.676 519.727C230.676 523.169 233.545 526.038 236.988 526.038Z" fill="#1F1926"/>
<path d="M269.696 526.038C273.139 526.038 276.008 523.169 276.008 519.727C276.008 516.286 273.139 513.417 269.696 513.417C266.253 513.417 263.384 516.286 263.384 519.727C263.384 523.169 266.253 526.038 269.696 526.038Z" fill="#1F1926"/>
<path d="M302.404 526.038C305.847 526.038 308.716 523.169 308.716 519.727C308.716 516.286 305.847 513.417 302.404 513.417C298.961 513.417 296.092 516.286 296.092 519.727C296.092 523.169 298.961 526.038 302.404 526.038Z" fill="#1F1926"/>
<path d="M334.538 526.038C338.024 526.038 340.85 523.212 340.85 519.727C340.85 516.242 338.024 513.417 334.538 513.417C331.052 513.417 328.226 516.242 328.226 519.727C328.226 523.212 331.052 526.038 334.538 526.038Z" fill="#1F1926"/>
<path d="M367.245 526.038C370.688 526.038 373.557 523.169 373.557 519.727C373.557 516.286 370.688 513.417 367.245 513.417C363.802 513.417 360.933 516.286 360.933 519.727C360.933 523.169 363.802 526.038 367.245 526.038Z" fill="#1F1926"/>
<path d="M9.75459 559.883C13.7713 559.883 17.2143 556.441 17.2143 552.425C17.2143 548.41 13.7713 544.968 9.75459 544.968C5.73784 544.968 2.29492 548.41 2.29492 552.425C2.29492 556.441 5.73784 559.883 9.75459 559.883Z" fill="#1F1926"/>
<path d="M42.4626 559.883C46.4793 559.883 49.9223 556.441 49.9223 552.425C49.9223 548.41 46.4793 544.968 42.4626 544.968C38.4459 544.968 35.0029 548.41 35.0029 552.425C35.0029 556.441 38.4459 559.883 42.4626 559.883Z" fill="#1F1926"/>
<path d="M74.5964 559.883C78.6131 559.883 82.056 556.441 82.056 552.425C82.056 548.41 78.6131 544.968 74.5964 544.968C70.5796 544.968 67.1367 548.41 67.1367 552.425C67.1367 556.441 70.5796 559.883 74.5964 559.883Z" fill="#1F1926"/>
<path d="M107.304 559.883C111.321 559.883 114.764 556.441 114.764 552.425C114.764 548.41 111.321 544.968 107.304 544.968C103.288 544.968 99.8447 548.41 99.8447 552.425C99.8447 556.441 103.288 559.883 107.304 559.883Z" fill="#1F1926"/>
<path d="M140.012 559.883C144.029 559.883 147.472 556.441 147.472 552.425C147.472 548.41 144.029 544.968 140.012 544.968C135.996 544.968 132.553 548.41 132.553 552.425C132.553 556.441 135.996 559.883 140.012 559.883Z" fill="#1F1926"/>
<path d="M172.146 559.883C176.163 559.883 179.606 556.441 179.606 552.425C179.606 548.41 176.163 544.968 172.146 544.968C168.129 544.968 164.687 548.41 164.687 552.425C164.687 556.441 168.129 559.883 172.146 559.883Z" fill="#1F1926"/>
<path d="M204.854 559.883C208.871 559.883 212.314 556.441 212.314 552.425C212.314 548.41 208.871 544.968 204.854 544.968C200.837 544.968 197.395 548.41 197.395 552.425C197.395 556.441 200.837 559.883 204.854 559.883Z" fill="#1F1926"/>
<path d="M236.988 559.883C241.005 559.883 244.448 556.441 244.448 552.425C244.448 548.41 241.005 544.968 236.988 544.968C232.971 544.968 229.528 548.41 229.528 552.425C229.528 556.441 232.971 559.883 236.988 559.883Z" fill="#1F1926"/>
<path d="M269.696 559.883C273.713 559.883 277.156 556.441 277.156 552.425C277.156 548.41 273.713 544.968 269.696 544.968C265.679 544.968 262.236 548.41 262.236 552.425C262.236 556.441 265.679 559.883 269.696 559.883Z" fill="#1F1926"/>
<path d="M302.403 559.883C306.42 559.883 309.863 556.441 309.863 552.425C309.863 548.41 306.42 544.968 302.403 544.968C298.386 544.968 294.943 548.41 294.943 552.425C294.943 556.441 298.386 559.883 302.403 559.883Z" fill="#1F1926"/>
<path d="M334.537 559.883C338.554 559.883 341.996 556.441 341.996 552.425C341.996 548.41 338.554 544.968 334.537 544.968C330.52 544.968 327.077 548.41 327.077 552.425C327.077 556.441 330.52 559.883 334.537 559.883Z" fill="#1F1926"/>
<path d="M367.245 559.883C371.262 559.883 374.704 556.441 374.704 552.425C374.704 548.41 371.262 544.968 367.245 544.968C363.228 544.968 359.785 548.41 359.785 552.425C359.785 556.441 363.228 559.883 367.245 559.883Z" fill="#1F1926"/>
<path d="M9.75477 593.155C14.3453 593.155 18.3621 589.139 18.3621 584.55C18.3621 579.961 14.3453 575.945 9.75477 575.945C5.1642 575.945 1.14746 579.961 1.14746 584.55C1.14746 589.139 5.1642 593.155 9.75477 593.155Z" fill="#1F1926"/>
<path d="M42.4628 593.155C47.0533 593.155 51.0701 589.139 51.0701 584.55C51.0701 579.961 47.0533 575.945 42.4628 575.945C37.8722 575.945 33.8555 579.961 33.8555 584.55C33.8555 589.139 37.8722 593.155 42.4628 593.155Z" fill="#1F1926"/>
<path d="M74.5966 593.155C79.1871 593.155 83.2039 589.139 83.2039 584.55C83.2039 579.961 79.1871 575.945 74.5966 575.945C70.006 575.945 65.9893 579.961 65.9893 584.55C65.9893 589.139 70.006 593.155 74.5966 593.155Z" fill="#1F1926"/>
<path d="M107.305 593.155C111.895 593.155 115.912 589.139 115.912 584.55C115.912 579.961 111.895 575.945 107.305 575.945C102.714 575.945 98.6973 579.961 98.6973 584.55C98.6973 589.139 102.714 593.155 107.305 593.155Z" fill="#1F1926"/>
<path d="M140.013 593.155C144.603 593.155 148.62 589.139 148.62 584.55C148.62 579.961 144.603 575.945 140.013 575.945C135.422 575.945 131.405 579.961 131.405 584.55C131.405 589.139 135.422 593.155 140.013 593.155Z" fill="#1F1926"/>
<path d="M172.146 593.155C176.737 593.155 180.754 589.139 180.754 584.55C180.754 579.961 176.737 575.945 172.146 575.945C167.556 575.945 163.539 579.961 163.539 584.55C163.539 589.139 167.556 593.155 172.146 593.155Z" fill="#1F1926"/>
<path d="M204.853 593.155C209.444 593.155 213.461 589.139 213.461 584.55C213.461 579.961 209.444 575.945 204.853 575.945C200.263 575.945 196.246 579.961 196.246 584.55C196.246 589.139 200.263 593.155 204.853 593.155Z" fill="#1F1926"/>
<path d="M236.988 593.155C241.579 593.155 245.595 589.139 245.595 584.55C245.595 579.961 241.579 575.945 236.988 575.945C232.398 575.945 228.381 579.961 228.381 584.55C228.381 589.139 232.398 593.155 236.988 593.155Z" fill="#1F1926"/>
<path d="M269.695 593.155C274.286 593.155 278.302 589.139 278.302 584.55C278.302 579.961 274.286 575.945 269.695 575.945C265.105 575.945 261.088 579.961 261.088 584.55C261.088 589.139 265.105 593.155 269.695 593.155Z" fill="#1F1926"/>
<path d="M302.403 593.155C306.994 593.155 311.011 589.139 311.011 584.55C311.011 579.961 306.994 575.945 302.403 575.945C297.813 575.945 293.796 579.961 293.796 584.55C293.796 589.139 297.813 593.155 302.403 593.155Z" fill="#1F1926"/>
<path d="M334.537 593.155C339.128 593.155 343.144 589.139 343.144 584.55C343.144 579.961 339.128 575.945 334.537 575.945C329.946 575.945 325.93 579.961 325.93 584.55C325.93 589.139 329.946 593.155 334.537 593.155Z" fill="#1F1926"/>
<path d="M367.245 593.155C371.836 593.155 375.852 589.139 375.852 584.55C375.852 579.961 371.836 575.945 367.245 575.945C362.654 575.945 358.638 579.961 358.638 584.55C358.638 589.139 362.654 593.155 367.245 593.155Z" fill="#1F1926"/>
<path d="M9.75495 627C14.9193 627 19.5099 622.411 19.5099 617.248C19.5099 612.085 14.9193 607.496 9.75495 607.496C4.59056 607.496 0 612.085 0 617.248C0 622.411 4.59056 627 9.75495 627Z" fill="#1F1926"/>
<path d="M42.463 627C47.6273 627 52.2179 622.411 52.2179 617.248C52.2179 612.085 47.6273 607.496 42.463 607.496C37.2986 607.496 32.708 612.085 32.708 617.248C32.708 622.411 37.2986 627 42.463 627Z" fill="#1F1926"/>
<path d="M74.5967 627C79.7611 627 84.3517 622.411 84.3517 617.248C84.3517 612.085 79.7611 607.496 74.5967 607.496C69.4324 607.496 64.8418 612.085 64.8418 617.248C64.8418 622.411 69.4324 627 74.5967 627Z" fill="#1F1926"/>
<path d="M107.305 627C112.469 627 117.06 622.411 117.06 617.248C117.06 612.085 112.469 607.496 107.305 607.496C102.14 607.496 97.5498 612.085 97.5498 617.248C97.5498 622.411 102.14 627 107.305 627Z" fill="#1F1926"/>
<path d="M140.012 627C145.176 627 149.767 622.411 149.767 617.248C149.767 612.085 145.176 607.496 140.012 607.496C134.847 607.496 130.257 612.085 130.257 617.248C130.257 622.411 134.847 627 140.012 627Z" fill="#1F1926"/>
<path d="M172.147 627C177.311 627 181.902 622.411 181.902 617.248C181.902 612.085 177.311 607.496 172.147 607.496C166.982 607.496 162.392 612.085 162.392 617.248C162.392 622.411 166.982 627 172.147 627Z" fill="#1F1926"/>
<path d="M204.854 627C210.018 627 214.609 622.411 214.609 617.248C214.609 612.085 210.018 607.496 204.854 607.496C199.689 607.496 195.099 612.085 195.099 617.248C195.099 622.411 199.689 627 204.854 627Z" fill="#1F1926"/>
<path d="M236.987 627C242.152 627 246.742 622.411 246.742 617.248C246.742 612.085 242.152 607.496 236.987 607.496C231.823 607.496 227.232 612.085 227.232 617.248C227.232 622.411 231.823 627 236.987 627Z" fill="#1F1926"/>
<path d="M269.695 627C274.86 627 279.45 622.411 279.45 617.248C279.45 612.085 274.86 607.496 269.695 607.496C264.531 607.496 259.94 612.085 259.94 617.248C259.94 622.411 264.531 627 269.695 627Z" fill="#1F1926"/>
<path d="M302.403 627C307.568 627 312.158 622.411 312.158 617.248C312.158 612.085 307.568 607.496 302.403 607.496C297.239 607.496 292.648 612.085 292.648 617.248C292.648 622.411 297.239 627 302.403 627Z" fill="#1F1926"/>
<path d="M334.537 627C339.702 627 344.292 622.411 344.292 617.248C344.292 612.085 339.702 607.496 334.537 607.496C329.373 607.496 324.782 612.085 324.782 617.248C324.782 622.411 329.373 627 334.537 627Z" fill="#1F1926"/>
<path d="M367.245 627C372.41 627 377 622.411 377 617.248C377 612.085 372.41 607.496 367.245 607.496C362.081 607.496 357.49 612.085 357.49 617.248C357.49 622.411 362.081 627 367.245 627Z" fill="#1F1926"/>
</g>
<defs>
<clipPath id="clip0_1_15863">
<rect width="377" height="627" fill="white"/>
</clipPath>
</defs>
</svg>
