<svg width="20" height="20" viewBox="0 0 20 20" fill="none" xmlns="http://www.w3.org/2000/svg">
<g id="icons8-instagram_check_mark 1">
<path id="Vector" d="M17.0346 10.2567C17.0154 10.2275 17.0154 10.1892 17.0346 10.1596L17.7038 9.11459C17.9071 8.79792 17.9684 8.40792 17.8709 8.04417C17.7734 7.68042 17.5259 7.37292 17.1909 7.2L16.0884 6.63C16.0571 6.61375 16.0375 6.58042 16.0392 6.545L16.0967 5.30459C16.1142 4.92875 15.9717 4.56042 15.7059 4.29417C15.44 4.02792 15.0713 3.88417 14.6954 3.90334L13.4546 3.96084C13.4284 3.95875 13.3867 3.94334 13.37 3.91209L12.8004 2.80959C12.6271 2.47459 12.3196 2.22709 11.9559 2.12959C11.5917 2.03167 11.2017 2.09334 10.8859 2.29625L9.84045 2.96584H9.84003C9.81128 2.98542 9.77337 2.98459 9.74295 2.96584L8.69795 2.29667C8.38128 2.09334 7.99128 2.03167 7.62753 2.12959C7.26378 2.22667 6.95628 2.47459 6.78337 2.80959L6.21337 3.91209C6.19712 3.94334 6.16545 3.96292 6.12837 3.96125L4.88753 3.90292C4.51962 3.88084 4.14337 4.02792 3.87712 4.29375C3.61087 4.55959 3.46878 4.92792 3.48628 5.30417L3.54378 6.545C3.54545 6.58 3.52587 6.61334 3.49503 6.62959L2.39253 7.19917C2.05753 7.3725 1.81003 7.68 1.71253 8.04375C1.61503 8.4075 1.67628 8.79792 1.8792 9.11375L2.54878 10.1596C2.56795 10.1888 2.56795 10.2271 2.54878 10.2567L1.87962 11.3017C1.67628 11.6183 1.61503 12.0083 1.71253 12.3721C1.81003 12.7358 2.05753 13.0433 2.39253 13.2163L3.49503 13.7863C3.52628 13.8025 3.54587 13.8358 3.5442 13.8713L3.48628 15.1125C3.46878 15.4883 3.61128 15.8567 3.87712 16.1229C4.14378 16.3896 4.51545 16.5379 4.88753 16.5138L6.12837 16.4563C6.1542 16.4546 6.19628 16.4742 6.21295 16.505L6.78253 17.6075C6.95587 17.9425 7.26337 18.19 7.62712 18.2875C7.74045 18.3179 7.85712 18.3325 7.97253 18.3325C8.22712 18.3325 8.47962 18.26 8.69712 18.1204L9.74295 17.4508C9.7717 17.4313 9.80962 17.4317 9.84003 17.4508L10.885 18.12C11.2017 18.3233 11.5917 18.385 11.9554 18.2871C12.3192 18.19 12.6267 17.9421 12.7996 17.6071L13.3696 16.5046C13.3859 16.4738 13.4213 16.4575 13.4546 16.4554L14.695 16.5129C15.0604 16.5338 15.4388 16.3879 15.7054 16.1221C15.9717 15.8558 16.1138 15.4879 16.0963 15.1117L16.0388 13.8708C16.0371 13.8358 16.0567 13.8025 16.0875 13.7863L17.19 13.2167C17.525 13.0433 17.7725 12.7358 17.87 12.3721C17.9675 12.0083 17.9063 11.6179 17.7034 11.3021L17.0346 10.2567ZM13.3821 8.62917C11.9213 9.69917 10.5625 11.0583 9.34462 12.6688C9.2267 12.825 9.0417 12.9167 8.84587 12.9167C8.84503 12.9167 8.8442 12.9167 8.84337 12.9167C8.6467 12.9158 8.4617 12.8225 8.34462 12.665C7.69628 11.7942 7.06587 11.1613 6.41628 10.7292C6.1292 10.5379 6.05087 10.15 6.24212 9.8625C6.43378 9.57542 6.82212 9.49792 7.10878 9.68834C7.70378 10.0842 8.27545 10.6088 8.84337 11.2817C10.0054 9.84834 11.2813 8.61875 12.6429 7.62125C12.9217 7.41667 13.3121 7.47834 13.5167 7.75584C13.7209 8.03417 13.6604 8.42542 13.3821 8.62917Z" fill="#21D2FF"/>
</g>
</svg>
