<svg width="32" height="32" viewBox="0 0 32 32" fill="none" xmlns="http://www.w3.org/2000/svg">
<g id="icons8-edit_calendar 1">
<path id="Vector" d="M8.33333 4C5.944 4 4 5.944 4 8.33333V23.6667C4 26.056 5.944 28 8.33333 28H15.0482C15.1702 27.5213 15.351 26.8789 15.5964 26.0182L8.33333 26C7.04667 26 6 24.9533 6 23.6667V11.3138H26V15.0625C26.3033 14.9278 26.6148 14.8171 26.9375 14.7591C27.1955 14.7131 27.4531 14.6762 27.7305 14.6875C27.8211 14.6875 27.91 14.6945 28 14.7005V8.33333C28 5.944 26.056 4 23.6667 4H8.33333ZM8.33333 6H23.6667C24.9533 6 26 7.04667 26 8.33333V9.3138H6V8.33333C6 7.04667 7.04667 6 8.33333 6ZM10.3333 14C9.89131 14 9.46738 14.1756 9.15482 14.4882C8.84226 14.8007 8.66667 15.2246 8.66667 15.6667C8.66667 16.1087 8.84226 16.5326 9.15482 16.8452C9.46738 17.1577 9.89131 17.3333 10.3333 17.3333C10.7754 17.3333 11.1993 17.1577 11.5118 16.8452C11.8244 16.5326 12 16.1087 12 15.6667C12 15.2246 11.8244 14.8007 11.5118 14.4882C11.1993 14.1756 10.7754 14 10.3333 14ZM16 14C15.558 14 15.134 14.1756 14.8215 14.4882C14.5089 14.8007 14.3333 15.2246 14.3333 15.6667C14.3333 16.1087 14.5089 16.5326 14.8215 16.8452C15.134 17.1577 15.558 17.3333 16 17.3333C16.442 17.3333 16.866 17.1577 17.1785 16.8452C17.4911 16.5326 17.6667 16.1087 17.6667 15.6667C17.6667 15.2246 17.4911 14.8007 17.1785 14.4882C16.866 14.1756 16.442 14 16 14ZM21.6667 14C21.2246 14 20.8007 14.1756 20.4882 14.4882C20.1756 14.8007 20 15.2246 20 15.6667C20 16.1087 20.1756 16.5326 20.4882 16.8452C20.8007 17.1577 21.2246 17.3333 21.6667 17.3333C22.1087 17.3333 22.5326 17.1577 22.8452 16.8452C23.1577 16.5326 23.3333 16.1087 23.3333 15.6667C23.3333 15.2246 23.1577 14.8007 22.8452 14.4882C22.5326 14.1756 22.1087 14 21.6667 14ZM27.6654 16C27.4827 16.0007 27.298 16.0168 27.112 16.0508C26.5226 16.1568 25.9597 16.4641 25.4844 16.9401L17.6185 24.806C17.3805 25.044 17.2053 25.3408 17.112 25.6628L16.0651 29.3164C16.0171 29.4431 15.9953 29.5769 16 29.7109C16.0087 29.9529 16.1037 30.1923 16.2891 30.3776C16.4737 30.5623 16.7118 30.6573 16.9531 30.6667C17.0871 30.6713 17.2229 30.6502 17.3503 30.6016L21.0039 29.5547C21.3259 29.4614 21.6207 29.2868 21.8594 29.0482L29.7266 21.1823C30.2026 20.707 30.5099 20.144 30.6159 19.5547C30.6492 19.3687 30.6647 19.184 30.6654 19.0013C30.6674 18.2053 30.3605 17.4529 29.7865 16.8802C29.2138 16.3069 28.4614 15.9987 27.6654 16ZM10.3333 20C9.89131 20 9.46738 20.1756 9.15482 20.4882C8.84226 20.8007 8.66667 21.2246 8.66667 21.6667C8.66667 22.1087 8.84226 22.5326 9.15482 22.8452C9.46738 23.1577 9.89131 23.3333 10.3333 23.3333C10.7754 23.3333 11.1993 23.1577 11.5118 22.8452C11.8244 22.5326 12 22.1087 12 21.6667C12 21.2246 11.8244 20.8007 11.5118 20.4882C11.1993 20.1756 10.7754 20 10.3333 20ZM16 20.0195C15.558 20.0195 15.134 20.1951 14.8215 20.5077C14.5089 20.8202 14.3333 21.2442 14.3333 21.6862C14.3333 22.1282 14.5089 22.5521 14.8215 22.8647C15.134 23.1773 15.558 23.3529 16 23.3529C16.442 23.3529 16.866 23.1773 17.1785 22.8647C17.4911 22.5521 17.6667 22.1282 17.6667 21.6862C17.6667 21.2442 17.4911 20.8202 17.1785 20.5077C16.866 20.1951 16.442 20.0195 16 20.0195Z" fill="#3E2ABB"/>
</g>
</svg>
