<svg width="80" height="80" viewBox="0 0 80 80" fill="none" xmlns="http://www.w3.org/2000/svg">
<g id="icons8-cash 2">
<path id="Vector" d="M9.16668 15C5.97509 15 3.33334 17.6417 3.33334 20.8333V49.1667C3.33334 52.3583 5.97509 55 9.16668 55H10H44.6094C43.7965 56.7828 43.3333 58.7542 43.3333 60.8333C43.3333 68.6278 49.7056 75 57.5 75C64.5914 75 70.4883 69.7185 71.4974 62.8971C76.3976 61.5113 80 56.9875 80 51.6667C80 48.5099 78.7236 45.6383 76.6667 43.5319V20.8333C76.6667 17.6417 74.0249 15 70.8333 15H70H10H9.16668ZM16.4486 20H63.5514C63.2972 20.9846 63.2716 22.0143 63.4766 23.0104C63.6815 24.0064 64.1116 24.9424 64.734 25.7466C65.3563 26.5509 66.1544 27.2021 67.0672 27.6504C67.9799 28.0988 68.9831 28.3324 70 28.3333C70.5627 28.3302 71.1227 28.2558 71.6667 28.112V40.4948C70.6084 40.1764 69.4914 40 68.3333 40C63.6964 40 59.6754 42.7328 57.7995 46.6829C57.6988 46.6808 57.6012 46.6667 57.5 46.6667C54.043 46.6667 50.8706 47.9248 48.405 50H16.4486C16.7028 49.0154 16.7284 47.9856 16.5235 46.9896C16.3185 45.9936 15.8884 45.0576 15.266 44.2534C14.6437 43.4491 13.8456 42.7979 12.9329 42.3496C12.0201 41.9012 11.0169 41.6676 10 41.6667C9.43734 41.6698 8.87733 41.7442 8.33334 41.888V28.1185C8.87761 28.2601 9.43762 28.3323 10 28.3333C11.0169 28.3324 12.0201 28.0988 12.9329 27.6504C13.8456 27.2021 14.6437 26.5509 15.266 25.7466C15.8884 24.9424 16.3185 24.0064 16.5235 23.0104C16.7284 22.0143 16.7028 20.9846 16.4486 20ZM40 25C35.3983 25 31.6667 29.4767 31.6667 35C31.6667 40.5233 35.3983 45 40 45C44.6017 45 48.3333 40.5233 48.3333 35C48.3333 29.4767 44.6017 25 40 25ZM40 30C41.5767 30 43.3333 32.0533 43.3333 35C43.3333 37.9467 41.5767 40 40 40C38.4233 40 36.6667 37.9467 36.6667 35C36.6667 32.0533 38.4233 30 40 30ZM21.6667 31.6667C20.7826 31.6667 19.9348 32.0179 19.3097 32.643C18.6845 33.2681 18.3333 34.1159 18.3333 35C18.3333 35.8841 18.6845 36.7319 19.3097 37.357C19.9348 37.9821 20.7826 38.3333 21.6667 38.3333C22.5507 38.3333 23.3986 37.9821 24.0237 37.357C24.6488 36.7319 25 35.8841 25 35C25 34.1159 24.6488 33.2681 24.0237 32.643C23.3986 32.0179 22.5507 31.6667 21.6667 31.6667ZM58.3333 31.6667C57.4493 31.6667 56.6014 32.0179 55.9763 32.643C55.3512 33.2681 55 34.1159 55 35C55 35.8841 55.3512 36.7319 55.9763 37.357C56.6014 37.9821 57.4493 38.3333 58.3333 38.3333C59.2174 38.3333 60.0652 37.9821 60.6904 37.357C61.3155 36.7319 61.6667 35.8841 61.6667 35C61.6667 34.1159 61.3155 33.2681 60.6904 32.643C60.0652 32.0179 59.2174 31.6667 58.3333 31.6667ZM68.3333 45C72.046 45 75 47.954 75 51.6667C75 54.3093 73.4897 56.5636 71.2891 57.6465C70.2515 53.182 67.0996 49.5073 62.946 47.7637C64.1517 46.0977 66.0965 45 68.3333 45ZM57.5 51.6667C62.5922 51.6667 66.6667 55.7411 66.6667 60.8333C66.6667 65.9256 62.5922 70 57.5 70C52.4078 70 48.3333 65.9256 48.3333 60.8333C48.3333 55.7411 52.4078 51.6667 57.5 51.6667Z" fill="#3E2ABB"/>
</g>
</svg>
