<svg width="20" height="20" viewBox="0 0 20 20" fill="none" xmlns="http://www.w3.org/2000/svg">
<g id="icons8-heart 3">
<path id="Vector" d="M6.25033 2.91699C3.72634 2.91699 1.66699 4.97634 1.66699 7.50033C1.66699 9.20706 2.95351 10.814 4.52181 12.4621C6.09011 14.1101 8.02048 15.7793 9.55843 17.3172C9.67564 17.4344 9.83459 17.5002 10.0003 17.5002C10.1661 17.5002 10.325 17.4344 10.4422 17.3172C11.9802 15.7793 13.9105 14.1101 15.4788 12.4621C17.0471 10.814 18.3337 9.20706 18.3337 7.50033C18.3337 4.97634 16.2743 2.91699 13.7503 2.91699C12.3018 2.91699 11.0407 3.6947 10.0003 5.01579C8.95998 3.6947 7.69884 2.91699 6.25033 2.91699Z" fill="#3E2ABB"/>
</g>
</svg>
