<svg width="24" height="25" viewBox="0 0 24 25" fill="none" xmlns="http://www.w3.org/2000/svg">
<g id="mdi:terrace">
<path id="Vector" d="M14 10.9473V12.9473H16V10.9473H14ZM8 12.9473V10.9473H10V12.9473H8ZM3 14.9473V22.9473H21V14.9473H20V10.9473C20 6.52727 16.42 2.94727 12 2.94727C7.58 2.94727 4 6.52727 4 10.9473V14.9473H3ZM17 16.9473H19V20.9473H17V16.9473ZM13 16.9473H15V20.9473H13V16.9473ZM13 5.02727C15.84 5.50727 18 7.97727 18 10.9473V14.9473H13V5.02727ZM11 14.9473H6V10.9473C6 7.97727 8.16 5.50727 11 5.02727V14.9473ZM9 16.9473H11V20.9473H9V16.9473ZM5 16.9473H7V20.9473H5V16.9473Z" fill="#35CBFF"/>
</g>
</svg>
