<svg width="16" height="16" viewBox="0 0 16 16" fill="none" xmlns="http://www.w3.org/2000/svg">
<g id="icons8-sports 1" clip-path="url(#clip0_1856_1501)">
<path id="Vector" d="M11.3326 0.666016C11.2539 0.666209 11.1754 0.672099 11.0983 0.683594C9.00765 0.807995 7.33785 2.54812 7.33785 4.66862C7.33785 6.8696 9.13492 8.66602 11.3359 8.66602C13.5369 8.66602 15.3326 6.86955 15.3326 4.66862C15.3326 2.54224 13.6547 0.797929 11.556 0.682292C11.4824 0.671752 11.4076 0.666302 11.3326 0.666016ZM12.3828 1.86198C12.8625 2.04031 13.2833 2.33597 13.61 2.7168C13.1953 2.89439 13.0437 3.50648 13.2747 4.09766C13.4815 4.62676 13.9246 4.96127 14.3203 4.91797C14.2832 5.3704 14.1468 5.79283 13.9323 6.16536C13.6297 5.92389 13.0945 5.94491 12.6328 6.24675C12.1023 6.59349 11.8703 7.17835 12.1028 7.5638C11.8577 7.62826 11.6017 7.66602 11.3359 7.66602C11.1393 7.66602 10.9476 7.64588 10.7617 7.61003C10.7683 7.59963 10.7778 7.5916 10.7838 7.58073C11.0071 7.1784 10.7316 6.59847 10.1686 6.28581C9.6692 6.00847 9.11205 6.03555 8.83655 6.32552C8.55781 5.90524 8.38461 5.40998 8.34827 4.87565C8.35156 4.877 8.35406 4.87956 8.35738 4.88086C8.78572 5.04819 9.32357 4.69732 9.5579 4.09766C9.79224 3.49799 9.63467 2.87502 9.20634 2.70768C9.16984 2.69343 9.13154 2.68789 9.09371 2.68099C9.41501 2.31872 9.82176 2.03604 10.2845 1.86328C10.38 2.00385 10.5289 2.12239 10.7143 2.20539C10.8996 2.28839 11.1139 2.3325 11.3326 2.33268C11.5519 2.33264 11.7667 2.28847 11.9525 2.20521C12.1382 2.12196 12.2874 2.003 12.3828 1.86198ZM3.49931 1.99935C3.43164 1.99935 3.36544 2.00342 3.29944 2.01042C3.62744 2.67508 4.28756 3.30059 5.19723 3.14193C4.92389 2.47226 4.26698 1.99935 3.49931 1.99935ZM2.66402 2.20247C2.07202 2.50681 1.66598 3.12202 1.66598 3.83268C1.66598 3.88902 1.66944 3.94467 1.67444 4C2.91777 3.91467 3.94115 4.48678 4.32548 5.46745C4.92248 5.16511 5.33264 4.54735 5.33264 3.83268C5.33264 3.82002 5.33102 3.80759 5.33069 3.79492C5.19436 3.81992 5.05844 3.83464 4.92444 3.83464C3.99944 3.83464 3.14901 3.25277 2.67835 2.25977C2.66935 2.2411 2.66902 2.22181 2.66402 2.20247ZM11.416 3.49935C11.1066 3.49935 10.8098 3.62227 10.591 3.84106C10.3722 4.05985 10.2493 4.3566 10.2493 4.66602C10.2493 4.97543 10.3722 5.27218 10.591 5.49097C10.8098 5.70977 11.1066 5.83268 11.416 5.83268C11.7254 5.83268 12.0221 5.70977 12.2409 5.49097C12.4597 5.27218 12.5826 4.97543 12.5826 4.66602C12.5826 4.3566 12.4597 4.05985 12.2409 3.84106C12.0221 3.62227 11.7254 3.49935 11.416 3.49935ZM1.86585 4.66081C2.16885 5.25681 2.78564 5.66602 3.49931 5.66602C3.56064 5.66602 3.62128 5.6629 3.68095 5.6569C3.35662 4.90823 2.57318 4.64881 1.86585 4.66081ZM4.40491 6.46875C4.1208 6.47648 3.84299 6.50791 3.57483 6.5625C2.5022 6.78087 1.566 7.39112 1.10738 8.35807C0.648938 9.32508 0.768809 10.4362 1.27861 11.4049C1.7884 12.3737 2.68404 13.2276 3.84762 13.7793C5.01132 14.3311 6.23976 14.4847 7.31246 14.2663C7.44655 14.239 7.57849 14.2055 7.70764 14.166C7.73807 14.1629 7.76814 14.157 7.79749 14.1484C9.05897 13.8054 11.1175 13.683 12.5097 14.1751C12.5792 14.3175 12.6947 14.4382 12.8509 14.5072L14.6966 15.3242C15.0479 15.4799 15.4595 15.3207 15.6152 14.9694C15.7709 14.6177 15.6111 14.2061 15.2597 14.0508L13.414 13.2337C13.2598 13.1654 13.0953 13.1612 12.9446 13.2038C11.6871 12.513 10.4105 10.8757 9.76689 9.7513C9.76058 9.7402 9.75385 9.72934 9.74671 9.71875C9.70368 9.61924 9.65971 9.52012 9.60868 9.42318C9.09884 8.4545 8.20271 7.60064 7.03902 7.04883C6.45725 6.773 5.85939 6.59684 5.27275 6.51693C4.97943 6.47697 4.68902 6.46102 4.40491 6.46875ZM4.43095 7.4694C4.61555 7.46464 4.80653 7.47571 4.99996 7.49609C4.99953 7.56197 5.01213 7.62729 5.03702 7.68828C5.06192 7.74928 5.09862 7.80476 5.14502 7.85152C5.19142 7.89829 5.24661 7.93542 5.30741 7.96079C5.36821 7.98616 5.43343 7.99926 5.49931 7.99935C5.59684 7.99919 5.6922 7.9705 5.77364 7.91683C5.85508 7.86315 5.91904 7.78683 5.95764 7.69727C6.17572 7.76643 6.39424 7.84923 6.61064 7.95182C6.64023 7.96586 6.66743 7.98225 6.69658 7.99675C6.66945 8.07215 6.66084 8.15296 6.67148 8.23239C6.68211 8.31181 6.71168 8.38752 6.7577 8.45312C6.80371 8.51873 6.86482 8.57231 6.93587 8.60936C7.00693 8.64641 7.08584 8.66584 7.16598 8.66602C7.23324 8.66594 7.29979 8.65229 7.36165 8.62589C7.42351 8.59949 7.47941 8.56088 7.526 8.51237C7.97721 8.85752 8.34082 9.25755 8.59957 9.67643C8.56659 9.66959 8.533 9.6661 8.49931 9.66602C8.3667 9.66602 8.23952 9.71869 8.14576 9.81246C8.05199 9.90623 7.99931 10.0334 7.99931 10.166C7.99931 10.2986 8.05199 10.4258 8.14576 10.5196C8.23952 10.6133 8.3667 10.666 8.49931 10.666C8.58958 10.666 8.67816 10.6415 8.75564 10.5952C8.83313 10.5489 8.89663 10.4825 8.93941 10.403C9.12607 10.9815 9.11096 11.5466 8.87626 12.0417C8.68986 12.4348 8.38163 12.7487 7.97978 12.9727C8.00152 12.8981 8.00559 12.8195 7.99168 12.7431C7.97777 12.6667 7.94625 12.5946 7.89962 12.5325C7.853 12.4704 7.79255 12.42 7.72306 12.3853C7.65358 12.3506 7.57697 12.3326 7.49931 12.3327C7.39112 12.3331 7.28598 12.3685 7.19965 12.4337C7.11332 12.4989 7.05048 12.5904 7.02054 12.6943C6.99061 12.7983 6.9952 12.9092 7.03363 13.0103C7.07206 13.1114 7.14226 13.1974 7.23368 13.2552C7.19325 13.265 7.15472 13.2774 7.11324 13.2858C6.76161 13.3574 6.37493 13.3751 5.97327 13.3405C5.93998 13.2411 5.87631 13.1548 5.79127 13.0935C5.70622 13.0323 5.60409 12.9994 5.49931 12.9993C5.42506 12.9995 5.35178 13.0161 5.28477 13.0481C5.21777 13.0801 5.15873 13.1266 5.11194 13.1842C4.85064 13.1121 4.58826 13.0177 4.32809 12.8978C4.33735 12.8273 4.33145 12.7556 4.3108 12.6875C4.29014 12.6194 4.2552 12.5566 4.20831 12.5031C4.16141 12.4496 4.10365 12.4067 4.03886 12.3773C3.97408 12.3479 3.90378 12.3327 3.83264 12.3327C3.722 12.3331 3.61461 12.3702 3.5273 12.4382C3.06316 12.1129 2.68337 11.7288 2.401 11.3223C2.43335 11.329 2.46628 11.3325 2.49931 11.3327C2.63192 11.3327 2.75909 11.28 2.85286 11.1862C2.94663 11.0925 2.99931 10.9653 2.99931 10.8327C2.99931 10.7001 2.94663 10.5729 2.85286 10.4791C2.75909 10.3854 2.63192 10.3327 2.49931 10.3327C2.39752 10.3329 2.29823 10.3642 2.2147 10.4224C2.13117 10.4805 2.06738 10.5628 2.03186 10.6582C1.75826 9.99919 1.74484 9.34793 2.01103 8.78646C2.31507 8.14541 2.94043 7.71203 3.77405 7.54232C3.98245 7.49989 4.20254 7.4753 4.43095 7.4694ZM3.49931 7.66602C3.3667 7.66602 3.23952 7.71869 3.14576 7.81246C3.05199 7.90623 2.99931 8.03341 2.99931 8.16602C2.99931 8.29862 3.05199 8.4258 3.14576 8.51957C3.23952 8.61334 3.3667 8.66602 3.49931 8.66602C3.63192 8.66602 3.75909 8.61334 3.85286 8.51957C3.94663 8.4258 3.99931 8.29862 3.99931 8.16602C3.99931 8.03341 3.94663 7.90623 3.85286 7.81246C3.75909 7.71869 3.63192 7.66602 3.49931 7.66602ZM5.16598 8.33268C5.03337 8.33268 4.90619 8.38536 4.81242 8.47913C4.71865 8.5729 4.66598 8.70007 4.66598 8.83268C4.66598 8.96529 4.71865 9.09247 4.81242 9.18624C4.90619 9.28 5.03337 9.33268 5.16598 9.33268C5.29858 9.33268 5.42576 9.28 5.51953 9.18624C5.6133 9.09247 5.66598 8.96529 5.66598 8.83268C5.66598 8.70007 5.6133 8.5729 5.51953 8.47913C5.42576 8.38536 5.29858 8.33268 5.16598 8.33268ZM2.83264 8.99935C2.70003 8.99935 2.57286 9.05203 2.47909 9.1458C2.38532 9.23956 2.33264 9.36674 2.33264 9.49935C2.33264 9.63196 2.38532 9.75913 2.47909 9.8529C2.57286 9.94667 2.70003 9.99935 2.83264 9.99935C2.96525 9.99935 3.09243 9.94667 3.1862 9.8529C3.27996 9.75913 3.33264 9.63196 3.33264 9.49935C3.33264 9.36674 3.27996 9.23956 3.1862 9.1458C3.09243 9.05203 2.96525 8.99935 2.83264 8.99935ZM6.83264 8.99935C6.70003 8.99935 6.57286 9.05203 6.47909 9.1458C6.38532 9.23956 6.33264 9.36674 6.33264 9.49935C6.33264 9.63196 6.38532 9.75913 6.47909 9.8529C6.57286 9.94667 6.70003 9.99935 6.83264 9.99935C6.96525 9.99935 7.09243 9.94667 7.1862 9.8529C7.27996 9.75913 7.33264 9.63196 7.33264 9.49935C7.33264 9.36674 7.27996 9.23956 7.1862 9.1458C7.09243 9.05203 6.96525 8.99935 6.83264 8.99935ZM4.49931 9.57747C4.3667 9.57747 4.23952 9.63015 4.14576 9.72392C4.05199 9.81769 3.99931 9.94487 3.99931 10.0775C3.99931 10.2101 4.05199 10.3373 4.14576 10.431C4.23952 10.5248 4.3667 10.5775 4.49931 10.5775C4.63192 10.5775 4.75909 10.5248 4.85286 10.431C4.94663 10.3373 4.99931 10.2101 4.99931 10.0775C4.99931 9.94487 4.94663 9.81769 4.85286 9.72392C4.75909 9.63015 4.63192 9.57747 4.49931 9.57747ZM6.16598 10.3327C6.03337 10.3327 5.90619 10.3854 5.81242 10.4791C5.71866 10.5729 5.66598 10.7001 5.66598 10.8327C5.66598 10.9653 5.71866 11.0925 5.81242 11.1862C5.90619 11.28 6.03337 11.3327 6.16598 11.3327C6.29858 11.3327 6.42576 11.28 6.51953 11.1862C6.6133 11.0925 6.66598 10.9653 6.66598 10.8327C6.66598 10.7001 6.6133 10.5729 6.51953 10.4791C6.42576 10.3854 6.29858 10.3327 6.16598 10.3327ZM7.83264 10.9108C7.70003 10.9108 7.57286 10.9635 7.47909 11.0573C7.38532 11.151 7.33264 11.2782 7.33264 11.4108C7.33264 11.5434 7.38532 11.6706 7.47909 11.7644C7.57286 11.8581 7.70003 11.9108 7.83264 11.9108C7.96525 11.9108 8.09243 11.8581 8.1862 11.7644C8.27996 11.6706 8.33264 11.5434 8.33264 11.4108C8.33264 11.2782 8.27996 11.151 8.1862 11.0573C8.09243 10.9635 7.96525 10.9108 7.83264 10.9108ZM4.16598 10.9993C4.03337 10.9993 3.90619 11.052 3.81242 11.1458C3.71865 11.2396 3.66598 11.3667 3.66598 11.4993C3.66598 11.632 3.71865 11.7591 3.81242 11.8529C3.90619 11.9467 4.03337 11.9993 4.16598 11.9993C4.29858 11.9993 4.42576 11.9467 4.51953 11.8529C4.6133 11.7591 4.66598 11.632 4.66598 11.4993C4.66598 11.3667 4.6133 11.2396 4.51953 11.1458C4.42576 11.052 4.29858 10.9993 4.16598 10.9993ZM5.83264 11.666C5.70003 11.666 5.57286 11.7187 5.47909 11.8125C5.38532 11.9062 5.33264 12.0334 5.33264 12.166C5.33264 12.2986 5.38532 12.4258 5.47909 12.5196C5.57286 12.6133 5.70003 12.666 5.83264 12.666C5.96525 12.666 6.09243 12.6133 6.1862 12.5196C6.27996 12.4258 6.33264 12.2986 6.33264 12.166C6.33264 12.0334 6.27996 11.9062 6.1862 11.8125C6.09243 11.7187 5.96525 11.666 5.83264 11.666ZM9.9902 11.8346C10.2733 12.1905 10.5771 12.5454 10.9127 12.8776C10.4524 12.8462 9.99072 12.8467 9.54358 12.8724C9.631 12.7453 9.71221 12.6128 9.77991 12.4701C9.87747 12.2643 9.9432 12.0507 9.9902 11.8346Z" fill="#28C7FF"/>
</g>
<defs>
<clipPath id="clip0_1856_1501">
<rect width="16" height="16" fill="white"/>
</clipPath>
</defs>
</svg>
