<svg width="168" height="48" viewBox="0 0 168 48" fill="none" xmlns="http://www.w3.org/2000/svg">
<circle opacity="0.25" cx="24" cy="24" r="23.5" fill="white" stroke="#1F1926" stroke-dasharray="2 2"/>
<path d="M24 14C18.486 14 14 18.486 14 24C14 29.514 18.486 34 24 34C29.514 34 34 29.514 34 24C34 18.486 29.514 14 24 14ZM24 15.5C28.7033 15.5 32.5 19.2967 32.5 24C32.5 28.7033 28.7033 32.5 24 32.5C19.2967 32.5 15.5 28.7033 15.5 24C15.5 19.2967 19.2967 15.5 24 15.5ZM21 20.25C20.6685 20.25 20.3505 20.3817 20.1161 20.6161C19.8817 20.8505 19.75 21.1685 19.75 21.5C19.75 21.8315 19.8817 22.1495 20.1161 22.3839C20.3505 22.6183 20.6685 22.75 21 22.75C21.3315 22.75 21.6495 22.6183 21.8839 22.3839C22.1183 22.1495 22.25 21.8315 22.25 21.5C22.25 21.1685 22.1183 20.8505 21.8839 20.6161C21.6495 20.3817 21.3315 20.25 21 20.25ZM27 20.25C26.6685 20.25 26.3505 20.3817 26.1161 20.6161C25.8817 20.8505 25.75 21.1685 25.75 21.5C25.75 21.8315 25.8817 22.1495 26.1161 22.3839C26.3505 22.6183 26.6685 22.75 27 22.75C27.3315 22.75 27.6495 22.6183 27.8839 22.3839C28.1183 22.1495 28.25 21.8315 28.25 21.5C28.25 21.1685 28.1183 20.8505 27.8839 20.6161C27.6495 20.3817 27.3315 20.25 27 20.25ZM19.8867 25.9922C19.744 25.9898 19.6036 26.0282 19.482 26.1028C19.3604 26.1774 19.2625 26.2852 19.2 26.4134C19.1375 26.5417 19.1128 26.6851 19.1289 26.8269C19.145 26.9687 19.2013 27.1029 19.291 27.2139C20.3882 28.6082 22.0965 29.5 24 29.5C25.9035 29.5 27.6118 28.6082 28.709 27.2139C28.7715 27.1366 28.818 27.0478 28.8458 26.9524C28.8737 26.857 28.8823 26.7571 28.8712 26.6584C28.8601 26.5596 28.8295 26.4641 28.7812 26.3773C28.7329 26.2905 28.6678 26.2142 28.5897 26.1527C28.5117 26.0913 28.4222 26.046 28.3264 26.0194C28.2307 25.9928 28.1307 25.9855 28.0321 25.9979C27.9335 26.0104 27.8384 26.0422 27.7523 26.0917C27.6661 26.1412 27.5907 26.2073 27.5303 26.2861C26.7074 27.3318 25.4365 28 24 28C22.5635 28 21.2926 27.3318 20.4697 26.2861C20.401 26.1964 20.3128 26.1233 20.2119 26.0724C20.1109 26.0215 19.9998 25.9941 19.8867 25.9922Z" fill="#3E2ABB"/>
<circle cx="144" cy="24" r="24" fill="#3E2ABB"/>
<path d="M144 14C138.486 14 134 18.486 134 24C134 29.514 138.486 34 144 34C149.514 34 154 29.514 154 24C154 18.486 149.514 14 144 14ZM144 15.5C148.703 15.5 152.5 19.2967 152.5 24C152.5 28.7033 148.703 32.5 144 32.5C139.297 32.5 135.5 28.7033 135.5 24C135.5 19.2967 139.297 15.5 144 15.5ZM141 20.5C139.917 20.5 139.22 21.2197 139.22 21.2197C139.148 21.2888 139.09 21.3716 139.051 21.4632C139.011 21.5548 138.99 21.6534 138.989 21.7532C138.988 21.8529 139.007 21.9519 139.045 22.0443C139.083 22.1367 139.138 22.2206 139.209 22.2912C139.279 22.3617 139.363 22.4175 139.456 22.4552C139.548 22.4929 139.647 22.5118 139.747 22.5108C139.847 22.5098 139.945 22.4889 140.037 22.4493C140.128 22.4097 140.211 22.3523 140.28 22.2803C140.28 22.2803 140.583 22 141 22C141.417 22 141.72 22.2803 141.72 22.2803C141.789 22.3523 141.872 22.4097 141.963 22.4493C142.055 22.4889 142.153 22.5098 142.253 22.5108C142.353 22.5118 142.452 22.4929 142.544 22.4552C142.637 22.4175 142.721 22.3617 142.791 22.2912C142.862 22.2206 142.917 22.1367 142.955 22.0443C142.993 21.9519 143.012 21.8529 143.011 21.7532C143.01 21.6534 142.989 21.5548 142.949 21.4632C142.91 21.3716 142.852 21.2888 142.78 21.2197C142.78 21.2197 142.083 20.5 141 20.5ZM147 20.5C145.917 20.5 145.22 21.2197 145.22 21.2197C145.148 21.2888 145.09 21.3716 145.051 21.4632C145.011 21.5548 144.99 21.6534 144.989 21.7532C144.988 21.8529 145.007 21.9519 145.045 22.0443C145.083 22.1367 145.138 22.2206 145.209 22.2912C145.279 22.3617 145.363 22.4175 145.456 22.4552C145.548 22.4929 145.647 22.5118 145.747 22.5108C145.847 22.5098 145.945 22.4889 146.037 22.4493C146.128 22.4097 146.211 22.3523 146.28 22.2803C146.28 22.2803 146.583 22 147 22C147.417 22 147.72 22.2803 147.72 22.2803C147.789 22.3523 147.872 22.4097 147.963 22.4493C148.055 22.4889 148.153 22.5098 148.253 22.5108C148.353 22.5118 148.452 22.4929 148.544 22.4552C148.637 22.4175 148.721 22.3617 148.791 22.2912C148.862 22.2206 148.917 22.1367 148.955 22.0443C148.993 21.9519 149.012 21.8529 149.011 21.7532C149.01 21.6534 148.989 21.5548 148.949 21.4632C148.91 21.3716 148.852 21.2888 148.78 21.2197C148.78 21.2197 148.083 20.5 147 20.5ZM139.887 25.4922C139.744 25.4898 139.604 25.5282 139.482 25.6028C139.36 25.6774 139.263 25.7852 139.2 25.9134C139.137 26.0417 139.113 26.1851 139.129 26.3269C139.145 26.4687 139.201 26.6029 139.291 26.7139C140.388 28.1082 142.096 29 144 29C145.904 29 147.612 28.1082 148.709 26.7139C148.771 26.6366 148.818 26.5478 148.846 26.4524C148.874 26.357 148.882 26.2571 148.871 26.1584C148.86 26.0596 148.83 25.9641 148.781 25.8773C148.733 25.7905 148.668 25.7142 148.59 25.6527C148.512 25.5913 148.422 25.546 148.326 25.5194C148.231 25.4928 148.131 25.4855 148.032 25.4979C147.934 25.5104 147.838 25.5422 147.752 25.5917C147.666 25.6412 147.591 25.7073 147.53 25.7861C146.707 26.8318 145.436 27.5 144 27.5C142.564 27.5 141.293 26.8318 140.47 25.7861C140.401 25.6964 140.313 25.6233 140.212 25.5724C140.111 25.5215 140 25.4941 139.887 25.4922Z" fill="white"/>
<path d="M77.2383 14.9884C77.0395 14.9915 76.8502 15.0733 76.7117 15.216C76.5733 15.3586 76.4971 15.5504 76.5 15.7491V19.2491C76.5 19.448 76.579 19.6388 76.7197 19.7794C76.8603 19.9201 77.0511 19.9991 77.25 19.9991H80.75C80.8494 20.0005 80.9481 19.9822 81.0403 19.9451C81.1325 19.908 81.2164 19.853 81.2872 19.7832C81.358 19.7135 81.4142 19.6303 81.4526 19.5386C81.4909 19.4469 81.5107 19.3485 81.5107 19.2491C81.5107 19.1497 81.4909 19.0513 81.4526 18.9596C81.4142 18.8679 81.358 18.7848 81.2872 18.715C81.2164 18.6452 81.1325 18.5902 81.0403 18.5531C80.9481 18.5161 80.8494 18.4977 80.75 18.4991H78.918C80.2539 17.2628 82.0314 16.4991 84 16.4991C85.746 16.4991 87.3445 17.0927 88.6182 18.0899C88.6958 18.1507 88.7845 18.1955 88.8795 18.2219C88.9744 18.2483 89.0736 18.2558 89.1714 18.2439C89.2692 18.2319 89.3637 18.2009 89.4495 18.1524C89.5353 18.104 89.6107 18.0391 89.6714 17.9615C89.7321 17.8839 89.777 17.7951 89.8034 17.7002C89.8298 17.6053 89.8372 17.5061 89.8253 17.4083C89.8134 17.3105 89.7823 17.216 89.7339 17.1302C89.6854 17.0444 89.6206 16.969 89.543 16.9083C88.0157 15.7125 86.087 14.9991 84 14.9991C81.6977 14.9991 79.5936 15.8695 78 17.296V15.7491C78.0014 15.6487 77.9827 15.5491 77.9449 15.4561C77.9071 15.3631 77.8511 15.2786 77.78 15.2076C77.709 15.1367 77.6245 15.0807 77.5314 15.0431C77.4383 15.0054 77.3387 14.9868 77.2383 14.9884ZM91.25 18.9991C91.0511 18.9991 90.8603 19.0781 90.7197 19.2188C90.579 19.3594 90.5 19.5502 90.5 19.7491C90.5 19.948 90.579 20.1388 90.7197 20.2794C90.8603 20.4201 91.0511 20.4991 91.25 20.4991C91.4489 20.4991 91.6397 20.4201 91.7803 20.2794C91.921 20.1388 92 19.948 92 19.7491C92 19.5502 91.921 19.3594 91.7803 19.2188C91.6397 19.0781 91.4489 18.9991 91.25 18.9991ZM75.75 21.4991C75.5511 21.4991 75.3603 21.5781 75.2197 21.7188C75.079 21.8594 75 22.0502 75 22.2491C75 22.448 75.079 22.6388 75.2197 22.7794C75.3603 22.9201 75.5511 22.9991 75.75 22.9991C75.9489 22.9991 76.1397 22.9201 76.2803 22.7794C76.421 22.6388 76.5 22.448 76.5 22.2491C76.5 22.0502 76.421 21.8594 76.2803 21.7188C76.1397 21.5781 75.9489 21.4991 75.75 21.4991ZM92.25 21.9991C92.0511 21.9991 91.8603 22.0781 91.7197 22.2188C91.579 22.3594 91.5 22.5502 91.5 22.7491C91.5 22.948 91.579 23.1388 91.7197 23.2794C91.8603 23.4201 92.0511 23.4991 92.25 23.4991C92.4489 23.4991 92.6397 23.4201 92.7803 23.2794C92.921 23.1388 93 22.948 93 22.7491C93 22.5502 92.921 22.3594 92.7803 22.2188C92.6397 22.0781 92.4489 21.9991 92.25 21.9991ZM75.75 24.4991C75.5511 24.4991 75.3603 24.5781 75.2197 24.7188C75.079 24.8594 75 25.0502 75 25.2491C75 25.448 75.079 25.6388 75.2197 25.7794C75.3603 25.9201 75.5511 25.9991 75.75 25.9991C75.9489 25.9991 76.1397 25.9201 76.2803 25.7794C76.421 25.6388 76.5 25.448 76.5 25.2491C76.5 25.0502 76.421 24.8594 76.2803 24.7188C76.1397 24.5781 75.9489 24.4991 75.75 24.4991ZM92.25 24.9991C92.0511 24.9991 91.8603 25.0781 91.7197 25.2188C91.579 25.3594 91.5 25.5502 91.5 25.7491C91.5 25.948 91.579 26.1388 91.7197 26.2794C91.8603 26.4201 92.0511 26.4991 92.25 26.4991C92.4489 26.4991 92.6397 26.4201 92.7803 26.2794C92.921 26.1388 93 25.948 93 25.7491C93 25.5502 92.921 25.3594 92.7803 25.2188C92.6397 25.0781 92.4489 24.9991 92.25 24.9991ZM76.75 27.4991C76.5511 27.4991 76.3603 27.5781 76.2197 27.7188C76.079 27.8594 76 28.0502 76 28.2491C76 28.448 76.079 28.6388 76.2197 28.7794C76.3603 28.9201 76.5511 28.9991 76.75 28.9991C76.9489 28.9991 77.1397 28.9201 77.2803 28.7794C77.421 28.6388 77.5 28.448 77.5 28.2491C77.5 28.0502 77.421 27.8594 77.2803 27.7188C77.1397 27.5781 76.9489 27.4991 76.75 27.4991ZM87.25 27.9991C87.1506 27.9977 87.0519 28.0161 86.9597 28.0531C86.8675 28.0902 86.7836 28.1452 86.7128 28.215C86.642 28.2848 86.5858 28.3679 86.5474 28.4596C86.5091 28.5513 86.4893 28.6497 86.4893 28.7491C86.4893 28.8485 86.5091 28.9469 86.5474 29.0386C86.5858 29.1303 86.642 29.2135 86.7128 29.2832C86.7836 29.353 86.8675 29.408 86.9597 29.4451C87.0519 29.4822 87.1506 29.5005 87.25 29.4991H89.0811C87.745 30.7354 85.9685 31.4991 84 31.4991C82.254 31.4991 80.6555 30.9055 79.3818 29.9083C79.3043 29.8475 79.2155 29.8027 79.1205 29.7762C79.0256 29.7498 78.9264 29.7423 78.8286 29.7543C78.7308 29.7662 78.6362 29.7972 78.5504 29.8457C78.4646 29.8941 78.3892 29.959 78.3285 30.0366C78.2677 30.1142 78.2229 30.203 78.1965 30.2979C78.1701 30.3929 78.1626 30.4921 78.1746 30.5899C78.1865 30.6877 78.2176 30.7822 78.2661 30.868C78.3145 30.9538 78.3794 31.0292 78.457 31.0899C79.9843 32.2857 81.913 32.9991 84 32.9991C86.3023 32.9991 88.4063 32.1287 90 30.7022V32.2491C89.9986 32.3485 90.017 32.4472 90.054 32.5394C90.0911 32.6316 90.1461 32.7156 90.2159 32.7863C90.2857 32.8571 90.3688 32.9133 90.4605 32.9517C90.5522 32.99 90.6506 33.0098 90.75 33.0098C90.8494 33.0098 90.9478 32.99 91.0395 32.9517C91.1312 32.9133 91.2143 32.8571 91.2841 32.7863C91.3539 32.7156 91.4089 32.6316 91.446 32.5394C91.483 32.4472 91.5014 32.3485 91.5 32.2491V28.7491C91.5 28.5502 91.421 28.3595 91.2803 28.2188C91.1397 28.0782 90.9489 27.9991 90.75 27.9991H87.25Z" fill="#28C7FF"/>
</svg>
