<svg width="16" height="16" viewBox="0 0 16 16" fill="none" xmlns="http://www.w3.org/2000/svg">
<g id="icons8-two_hearts 1">
<path id="Vector" d="M4.66665 1.66992C3.64192 1.66992 2.6174 2.05948 1.83853 2.83854C0.280386 4.39631 0.280386 6.93768 1.83853 8.49544C3.21532 9.87257 7.65103 14.1921 7.65103 14.1921C7.74441 14.283 7.86962 14.3339 7.99999 14.3339C8.13036 14.3339 8.25557 14.283 8.34895 14.1921C8.34895 14.1921 9.00579 13.5518 9.65819 12.9154C10.3637 13.5963 10.987 14.1947 10.987 14.1947C11.0801 14.2841 11.2042 14.334 11.3333 14.334C11.4624 14.334 11.5865 14.2841 11.6797 14.1947C11.6797 14.1947 13.9185 12.0483 14.6497 11.3171C15.5568 10.41 15.5568 8.92462 14.6497 8.01758C14.6324 8.00022 14.6135 7.98544 14.5957 7.96875C15.696 6.40937 15.5556 4.2327 14.1621 2.83919C12.6041 1.28115 10.0629 1.28108 8.5052 2.83919C8.28909 3.05511 8.14765 3.29195 7.99999 3.52083C7.85232 3.29183 7.71148 3.05459 7.49543 2.83854C6.71641 2.05952 5.69139 1.66992 4.66665 1.66992ZM4.66665 2.66341C5.43342 2.6634 6.20042 2.9576 6.7884 3.54557C7.18233 3.93951 7.54296 4.70312 7.54296 4.70312C7.58222 4.79156 7.6463 4.86671 7.72742 4.91945C7.80854 4.97219 7.90323 5.00027 7.99999 5.00027C8.09675 5.00027 8.19143 4.97219 8.27255 4.91945C8.35368 4.86671 8.41776 4.79156 8.45702 4.70312C8.45702 4.70312 8.81821 3.93971 9.21223 3.54622C10.3878 2.37034 12.2791 2.37027 13.4551 3.54622C14.5261 4.61728 14.616 6.28056 13.735 7.45703C12.9236 7.19009 11.9923 7.3755 11.3502 8.01758C11.3412 8.02659 11.3422 8.02919 11.3333 8.03841C11.3244 8.02919 11.3254 8.02659 11.3164 8.01758C10.8629 7.56406 10.2648 7.33724 9.66665 7.33724C9.06847 7.33724 8.47044 7.56406 8.01692 8.01758C7.10987 8.92462 7.10987 10.41 8.01692 11.3171C8.20909 11.5092 8.60899 11.8945 8.94139 12.2174C8.55188 12.5974 8.1596 12.9799 8.00064 13.1348C7.52456 12.671 3.82071 9.06388 2.54556 7.78841C1.3697 6.61284 1.3697 4.72179 2.54556 3.54622V3.54557C3.13336 2.95763 3.89989 2.66342 4.66665 2.66341ZM9.66665 8.33073C10.0068 8.33073 10.3469 8.46213 10.6094 8.72461C10.7035 8.81872 10.9225 9.11849 10.9225 9.11849C10.9685 9.18482 11.03 9.23902 11.1015 9.27645C11.173 9.31388 11.2526 9.33343 11.3333 9.33343C11.4141 9.33343 11.4936 9.31388 11.5651 9.27645C11.6367 9.23902 11.6981 9.18482 11.7441 9.11849C11.7441 9.11849 11.9632 8.81872 12.0573 8.72461C12.5822 8.19965 13.4177 8.19965 13.9427 8.72461C14.4677 9.24957 14.4677 10.0851 13.9427 10.61C13.324 11.2287 11.7535 12.7347 11.3333 13.138C10.9131 12.7347 9.34261 11.2287 8.72395 10.61C8.19899 10.0851 8.19899 9.24957 8.72395 8.72461C8.98643 8.46213 9.3265 8.33073 9.66665 8.33073Z" fill="#3E2ABB"/>
</g>
</svg>
