<svg width="24" height="24" viewBox="0 0 24 24" fill="none" xmlns="http://www.w3.org/2000/svg">
<g id="icons8-three_people 1">
<path id="Vector" d="M12 3C11.2292 3 10.5561 3.31607 10.127 3.79883C9.69783 4.28159 9.5 4.89583 9.5 5.5C9.5 6.10417 9.69783 6.71841 10.127 7.20117C10.5561 7.68393 11.2292 8 12 8C12.7708 8 13.4439 7.68393 13.873 7.20117C14.3022 6.71841 14.5 6.10417 14.5 5.5C14.5 4.89583 14.3022 4.28159 13.873 3.79883C13.4439 3.31607 12.7708 3 12 3ZM12 4.5C12.3958 4.5 12.5977 4.62143 12.752 4.79492C12.9062 4.96841 13 5.22917 13 5.5C13 5.77083 12.9062 6.03159 12.752 6.20508C12.5977 6.37857 12.3958 6.5 12 6.5C11.6042 6.5 11.4023 6.37857 11.248 6.20508C11.0938 6.03159 11 5.77083 11 5.5C11 5.22917 11.0938 4.96841 11.248 4.79492C11.4023 4.62143 11.6042 4.5 12 4.5ZM9.02637 9C8.65237 9 8.31335 9.14073 8.04785 9.36523C8.57785 9.62773 9.03166 10.0185 9.36816 10.5H14.6318C14.9683 10.0185 15.4221 9.62773 15.9521 9.36523C15.6866 9.14073 15.3481 9 14.9736 9H9.02637ZM6.5 10C5.72917 10 5.05607 10.3161 4.62695 10.7988C4.19783 11.2816 4 11.8958 4 12.5C4 13.1042 4.19783 13.7184 4.62695 14.2012C5.05607 14.6839 5.72917 15 6.5 15C7.27083 15 7.94393 14.6839 8.37305 14.2012C8.80217 13.7184 9 13.1042 9 12.5C9 11.8958 8.80217 11.2816 8.37305 10.7988C7.94393 10.3161 7.27083 10 6.5 10ZM17.5 10C16.7292 10 16.0561 10.3161 15.627 10.7988C15.1978 11.2816 15 11.8958 15 12.5C15 13.1042 15.1978 13.7184 15.627 14.2012C16.0561 14.6839 16.7292 15 17.5 15C18.2708 15 18.9439 14.6839 19.373 14.2012C19.8022 13.7184 20 13.1042 20 12.5C20 11.8958 19.8022 11.2816 19.373 10.7988C18.9439 10.3161 18.2708 10 17.5 10ZM6.5 11.5C6.89583 11.5 7.09774 11.6214 7.25195 11.7949C7.40617 11.9684 7.5 12.2292 7.5 12.5C7.5 12.7708 7.40617 13.0316 7.25195 13.2051C7.09774 13.3786 6.89583 13.5 6.5 13.5C6.10417 13.5 5.90226 13.3786 5.74805 13.2051C5.59383 13.0316 5.5 12.7708 5.5 12.5C5.5 12.2292 5.59383 11.9684 5.74805 11.7949C5.90226 11.6214 6.10417 11.5 6.5 11.5ZM17.5 11.5C17.8958 11.5 18.0977 11.6214 18.252 11.7949C18.4062 11.9684 18.5 12.2292 18.5 12.5C18.5 12.7708 18.4062 13.0316 18.252 13.2051C18.0977 13.3786 17.8958 13.5 17.5 13.5C17.1042 13.5 16.9023 13.3786 16.748 13.2051C16.5938 13.0316 16.5 12.7708 16.5 12.5C16.5 12.2292 16.5938 11.9684 16.748 11.7949C16.9023 11.6214 17.1042 11.5 17.5 11.5ZM9.97168 12.0762C9.98868 12.2152 10 12.3555 10 12.499C10 12.899 9.92919 13.2821 9.80469 13.6406C10.4467 13.8711 11.192 14.001 12 14.001C12.808 14.001 13.5533 13.8711 14.1953 13.6406C14.0708 13.2821 14 12.899 14 12.499C14 12.3555 14.0113 12.2152 14.0283 12.0762C13.5098 12.3297 12.813 12.501 12 12.501C11.187 12.501 10.4907 12.3297 9.97168 12.0762ZM3.52637 15.999C2.69238 15.999 2 16.6914 2 17.5254V17.9736C2 18.8881 2.57745 19.6765 3.38477 20.1914C4.19208 20.7063 5.26314 21 6.5 21C7.7368 21 8.80691 20.7063 9.61426 20.1914C10.4216 19.6765 11 18.8882 11 17.9736V17.5254C11 16.6914 10.3076 15.999 9.47363 15.999H3.52637ZM14.5264 15.999C13.6924 15.999 13 16.6914 13 17.5254V17.9736C13 18.8881 13.5775 19.6765 14.3848 20.1914C15.1921 20.7063 16.2631 21 17.5 21C18.7368 21 19.8069 20.7063 20.6143 20.1914C21.4216 19.6765 22 18.8882 22 17.9736V17.5254C22 16.6914 21.3076 15.999 20.4736 15.999H14.5264ZM3.52637 17.499H9.47363C9.49665 17.499 9.5 17.5024 9.5 17.5254V17.9736C9.5 18.2506 9.31862 18.6015 8.80859 18.9268C8.29857 19.252 7.4937 19.5 6.5 19.5C5.50636 19.5 4.70147 19.2521 4.19141 18.9268C3.68134 18.6014 3.5 18.2502 3.5 17.9736V17.5254C3.5 17.5024 3.50335 17.499 3.52637 17.499ZM14.5264 17.499H20.4736C20.4966 17.499 20.5 17.5024 20.5 17.5254V17.9736C20.5 18.2506 20.3186 18.6015 19.8086 18.9268C19.2986 19.252 18.4937 19.5 17.5 19.5C16.5064 19.5 15.7015 19.2521 15.1914 18.9268C14.6813 18.6014 14.5 18.2502 14.5 17.9736V17.5254C14.5 17.5024 14.5034 17.499 14.5264 17.499Z" fill="#3E2ABB"/>
</g>
</svg>
