<svg width="80" height="80" viewBox="0 0 80 80" fill="none" xmlns="http://www.w3.org/2000/svg">
<g id="icons8-error 1">
<path id="Vector" d="M72.385 58.8233L46.5817 12.2133C45.2367 9.78492 42.7767 8.33325 40 8.33325C37.2233 8.33325 34.7633 9.78492 33.4183 12.2133L7.61501 58.8233C6.31001 61.1816 6.34668 63.9733 7.71668 66.2949C9.08334 68.6149 11.5067 69.9999 14.1983 69.9999H65.8033C68.4933 69.9999 70.9167 68.6149 72.285 66.2949C73.6517 63.9749 73.69 61.1816 72.385 58.8233ZM37.5 29.1666C37.5 27.7849 38.62 26.6666 40 26.6666C41.38 26.6666 42.5 27.7849 42.5 29.1666V45.8333C42.5 47.2149 41.38 48.3333 40 48.3333C38.62 48.3333 37.5 47.2149 37.5 45.8333V29.1666ZM40 59.9999C38.1583 59.9999 36.6667 58.5083 36.6667 56.6666C36.6667 54.8249 38.1583 53.3333 40 53.3333C41.8417 53.3333 43.3333 54.8249 43.3333 56.6666C43.3333 58.5083 41.8417 59.9999 40 59.9999Z" fill="#28C7FF"/>
</g>
</svg>
