<svg width="16" height="16" viewBox="0 0 16 16" fill="none" xmlns="http://www.w3.org/2000/svg">
<g id="icons8-location 6">
<path id="Vector" d="M7.99992 1.33398C4.87634 1.33398 2.33325 3.87707 2.33325 7.00065C2.33325 8.40291 2.84769 9.68893 3.69263 10.6777L3.69523 10.6803L3.69718 10.6829C3.69718 10.6829 6.10783 13.4337 6.96606 14.2526C7.54077 14.8005 8.45841 14.8005 9.03312 14.2526C10.0114 13.3195 12.3033 10.6816 12.3033 10.6816L12.3046 10.6797L12.3066 10.6777C13.1522 9.68892 13.6666 8.40291 13.6666 7.00065C13.6666 3.87707 11.1235 1.33398 7.99992 1.33398ZM7.99992 2.33398C10.583 2.33398 12.6666 4.41757 12.6666 7.00065C12.6666 8.15905 12.2444 9.21151 11.5461 10.028C11.5416 10.0332 9.1966 12.7152 8.34302 13.5293C8.14506 13.718 7.85412 13.718 7.65617 13.5293C6.94278 12.8486 4.46028 10.0362 4.45304 10.028L4.45239 10.0273C3.75503 9.21093 3.33325 8.15873 3.33325 7.00065C3.33325 4.41757 5.41683 2.33398 7.99992 2.33398ZM7.99992 5.00065C7.37492 5.00065 6.84286 5.25303 6.50122 5.63737C6.15958 6.02171 5.99992 6.51454 5.99992 7.00065C5.99992 7.48676 6.15958 7.97959 6.50122 8.36393C6.84286 8.74827 7.37492 9.00065 7.99992 9.00065C8.62492 9.00065 9.15698 8.74827 9.49862 8.36393C9.84025 7.97959 9.99992 7.48676 9.99992 7.00065C9.99992 6.51454 9.84025 6.02171 9.49862 5.63737C9.15698 5.25303 8.62492 5.00065 7.99992 5.00065ZM7.99992 6.00065C8.37492 6.00065 8.59286 6.12327 8.75122 6.30143C8.90958 6.47959 8.99992 6.73676 8.99992 7.00065C8.99992 7.26454 8.90958 7.52171 8.75122 7.69987C8.59286 7.87803 8.37492 8.00065 7.99992 8.00065C7.62492 8.00065 7.40698 7.87803 7.24862 7.69987C7.09025 7.52171 6.99992 7.26454 6.99992 7.00065C6.99992 6.73676 7.09025 6.47959 7.24862 6.30143C7.40698 6.12327 7.62492 6.00065 7.99992 6.00065Z" fill="#28C7FF"/>
</g>
</svg>
