<svg width="16" height="16" viewBox="0 0 16 16" fill="none" xmlns="http://www.w3.org/2000/svg">
<g id="icons8-toilet_paper 1">
<path id="Vector" d="M4.66667 2.00001C3.81889 2.00001 3.13747 2.61608 2.69466 3.43361C2.25185 4.25113 2 5.32233 2 6.50001V13.5C2.00003 13.5852 2.02182 13.669 2.06331 13.7434C2.1048 13.8178 2.1646 13.8803 2.23706 13.9251C2.30951 13.9699 2.39221 13.9955 2.47731 13.9994C2.56241 14.0032 2.64708 13.9853 2.72331 13.9473L3.79753 13.4102L4.55599 13.916C4.63812 13.9708 4.73463 14 4.83333 14C4.93204 14 5.02854 13.9708 5.11068 13.916L5.83333 13.4343L6.55599 13.916C6.63812 13.9708 6.73462 14 6.83333 14C6.93204 14 7.02854 13.9708 7.11068 13.916L7.86914 13.4102L8.94336 13.9473C9.01958 13.9853 9.10426 14.0032 9.18936 13.9994C9.27446 13.9955 9.35716 13.9699 9.42961 13.9251C9.50206 13.8803 9.56187 13.8178 9.60336 13.7434C9.64484 13.669 9.66664 13.5852 9.66667 13.5V11H11.3333C11.3974 11.0009 11.4611 10.9894 11.5208 10.9662C12.2785 10.8802 12.8969 10.3204 13.3053 9.56642C13.7482 8.74891 14 7.67777 14 6.50001C14 5.32226 13.7482 4.25112 13.3053 3.43361C12.8802 2.64874 12.2333 2.05572 11.4323 2.00913C11.3997 2.00281 11.3665 1.99976 11.3333 2.00001H4.66667ZM4.66667 3.00001H9.63867C9.53903 3.13672 9.44458 3.27991 9.36133 3.43361C8.95098 4.19118 8.70775 5.16798 8.67383 6.24416C8.66878 6.27361 8.66638 6.30346 8.66667 6.33335V6.50001V10.418C8.65785 10.4717 8.65785 10.5264 8.66667 10.5801V12.6914L8.05664 12.3861C7.97783 12.3467 7.89003 12.3289 7.80211 12.3344C7.7142 12.3399 7.62929 12.3685 7.55599 12.4173L6.83333 12.8991L6.11068 12.4173C6.02854 12.3626 5.93204 12.3334 5.83333 12.3334C5.73463 12.3334 5.63812 12.3626 5.55599 12.4173L4.83333 12.8991L4.11068 12.4173C4.03737 12.3685 3.95247 12.3399 3.86455 12.3344C3.77664 12.3289 3.68883 12.3467 3.61003 12.3861L3 12.6914V6.50001C3 5.4687 3.23286 4.53974 3.57422 3.90952C3.91558 3.27929 4.31778 3.00001 4.66667 3.00001ZM11.3333 3.00001C11.6822 3.00001 12.0844 3.27931 12.4258 3.90952C12.7671 4.53972 13 5.46863 13 6.50001C13 7.5314 12.7671 8.4603 12.4258 9.09051C12.0844 9.72071 11.6822 10 11.3333 10C10.9845 10 10.5822 9.72071 10.2409 9.09051C9.89953 8.4603 9.66667 7.5314 9.66667 6.50001C9.66667 5.46863 9.89953 4.53972 10.2409 3.90952C10.5822 3.27931 10.9845 3.00001 11.3333 3.00001ZM11.3333 5.33335C11.2449 5.33335 11.1601 5.45626 11.0976 5.67506C11.0351 5.89385 11 6.1906 11 6.50001C11 6.80943 11.0351 7.10618 11.0976 7.32497C11.1601 7.54377 11.2449 7.66668 11.3333 7.66668C11.4217 7.66668 11.5065 7.54377 11.569 7.32497C11.6315 7.10618 11.6667 6.80943 11.6667 6.50001C11.6667 6.1906 11.6315 5.89385 11.569 5.67506C11.5065 5.45626 11.4217 5.33335 11.3333 5.33335ZM4.16667 7.00001C4.03406 7.00001 3.90688 7.05269 3.81311 7.14646C3.71935 7.24023 3.66667 7.36741 3.66667 7.50001C3.66667 7.63262 3.71935 7.7598 3.81311 7.85357C3.90688 7.94734 4.03406 8.00001 4.16667 8.00001C4.29927 8.00001 4.42645 7.94734 4.52022 7.85357C4.61399 7.7598 4.66667 7.63262 4.66667 7.50001C4.66667 7.36741 4.61399 7.24023 4.52022 7.14646C4.42645 7.05269 4.29927 7.00001 4.16667 7.00001ZM5.83333 7.00001C5.70073 7.00001 5.57355 7.05269 5.47978 7.14646C5.38601 7.24023 5.33333 7.36741 5.33333 7.50001C5.33333 7.63262 5.38601 7.7598 5.47978 7.85357C5.57355 7.94734 5.70073 8.00001 5.83333 8.00001C5.96594 8.00001 6.09312 7.94734 6.18689 7.85357C6.28065 7.7598 6.33333 7.63262 6.33333 7.50001C6.33333 7.36741 6.28065 7.24023 6.18689 7.14646C6.09312 7.05269 5.96594 7.00001 5.83333 7.00001ZM7.5 7.00001C7.36739 7.00001 7.24022 7.05269 7.14645 7.14646C7.05268 7.24023 7 7.36741 7 7.50001C7 7.63262 7.05268 7.7598 7.14645 7.85357C7.24022 7.94734 7.36739 8.00001 7.5 8.00001C7.63261 8.00001 7.75979 7.94734 7.85355 7.85357C7.94732 7.7598 8 7.63262 8 7.50001C8 7.36741 7.94732 7.24023 7.85355 7.14646C7.75979 7.05269 7.63261 7.00001 7.5 7.00001ZM9.66667 9.94533C9.68254 9.96393 9.69984 9.98021 9.71484 10H9.66667V9.94533Z" fill="#28C7FF"/>
</g>
</svg>
