<svg width="16" height="16" viewBox="0 0 16 16" fill="none" xmlns="http://www.w3.org/2000/svg">
<g id="icons8-seesaw 1" clip-path="url(#clip0_1856_1510)">
<path id="Vector" d="M13.9999 2C13.6463 2 13.3071 2.14048 13.0571 2.39052C12.8071 2.64057 12.6666 2.97971 12.6666 3.33333C12.6666 3.68696 12.8071 4.02609 13.0571 4.27614C13.3071 4.52619 13.6463 4.66667 13.9999 4.66667C14.3535 4.66667 14.6927 4.52619 14.9427 4.27614C15.1928 4.02609 15.3332 3.68696 15.3332 3.33333C15.3332 2.97971 15.1928 2.64057 14.9427 2.39052C14.6927 2.14048 14.3535 2 13.9999 2ZM1.99991 4.33333C1.64629 4.33333 1.30715 4.47381 1.0571 4.72386C0.807052 4.97391 0.666576 5.31304 0.666576 5.66667C0.666576 6.02029 0.807052 6.35943 1.0571 6.60948C1.30715 6.85952 1.64629 7 1.99991 7C2.35353 7 2.69267 6.85952 2.94272 6.60948C3.19277 6.35943 3.33324 6.02029 3.33324 5.66667C3.33324 5.31304 3.19277 4.97391 2.94272 4.72386C2.69267 4.47381 2.35353 4.33333 1.99991 4.33333ZM13.9999 5.33333C13.2666 5.33333 12.6666 5.93333 12.6666 6.66667V7.88737L9.46671 8.52344C9.40693 8.40939 9.33747 8.29918 9.24861 8.19922C8.96253 7.87738 8.5138 7.66667 7.99991 7.66667C7.48602 7.66667 7.03729 7.87738 6.75121 8.19922C6.50613 8.47494 6.38034 8.81511 6.34757 9.16016L3.33324 9.75977V9.06641C3.33324 8.36641 2.83337 7.73333 2.13337 7.66667C1.33337 7.6 0.666576 8.23333 0.666576 9V10.2904L0.402253 10.3431C0.336403 10.3544 0.273479 10.3787 0.217198 10.4147C0.160917 10.4507 0.112419 10.4976 0.0745686 10.5527C0.0367184 10.6077 0.0102833 10.6698 -0.00317551 10.7352C-0.0166343 10.8007 -0.016844 10.8682 -0.0037921 10.9337C0.00925979 10.9992 0.0353086 11.0614 0.0728159 11.1167C0.110323 11.172 0.158529 11.2192 0.214585 11.2556C0.270642 11.2919 0.333413 11.3166 0.399192 11.3283C0.46497 11.34 0.532423 11.3384 0.597566 11.3236L1.13988 11.2155C1.14905 11.221 1.15722 11.2279 1.16658 11.2331L2.73298 12.1335L2.13337 12.8333C1.96671 13.0333 1.96645 13.3665 2.19978 13.5332C2.29978 13.5999 2.39978 13.6667 2.53311 13.6667C2.66645 13.6667 2.79965 13.6 2.89965 13.5L3.89965 12.3333C3.96632 12.2 4.03324 12.0664 3.99991 11.8997C3.99991 11.8331 3.96684 11.7664 3.9335 11.7331L3.33324 10.8001V10.7793L6.53311 10.1432C6.55687 10.1886 6.5836 10.232 6.61189 10.2754L5.68741 13.3561C5.66498 13.4308 5.66033 13.5097 5.67383 13.5865C5.68733 13.6633 5.71861 13.7359 5.76517 13.7985C5.81173 13.861 5.87228 13.9119 5.94198 13.9468C6.01167 13.9818 6.08859 14 6.16658 14H9.83324C9.91123 14 9.98815 13.9818 10.0578 13.9468C10.1275 13.9119 10.1881 13.861 10.2346 13.7985C10.2812 13.7359 10.3125 13.6633 10.326 13.5865C10.3395 13.5097 10.3348 13.4308 10.3124 13.3561L9.38793 10.2754C9.54136 10.0401 9.62664 9.77618 9.65225 9.50651L12.6347 8.91341L12.1002 9.69987C12.1002 9.69987 12.0332 9.86693 11.9999 9.93359C11.9999 10.0669 12.0334 10.2001 12.1334 10.3001L13.1334 11.4668C13.2334 11.5668 13.3666 11.6335 13.4999 11.6335C13.5999 11.6335 13.7332 11.6 13.8332 11.5C14.0332 11.3333 14.0663 11.0001 13.8996 10.8001L13.233 10.0332L14.9999 8.66667C15.0915 8.59033 15.1666 8.49889 15.2239 8.39779L15.5976 8.32357C15.7222 8.30087 15.8336 8.23168 15.9092 8.13001C15.9848 8.02833 16.019 7.90173 16.0049 7.77581C15.9908 7.64989 15.9294 7.53404 15.8331 7.45166C15.7368 7.36928 15.6128 7.32652 15.4862 7.33203C15.458 7.33334 15.4299 7.33704 15.4023 7.3431L15.3332 7.35677V6.66667C15.3332 5.93333 14.7332 5.33333 13.9999 5.33333ZM7.99991 8.66667C8.2638 8.66667 8.3984 8.74762 8.50121 8.86328C8.56155 8.93116 8.60592 9.02029 8.63402 9.11784C8.63569 9.16729 8.64469 9.21621 8.66072 9.26302C8.66284 9.28645 8.66658 9.30955 8.66658 9.33333C8.66658 9.50184 8.61028 9.66237 8.51944 9.77734C8.48636 9.80408 8.45683 9.83493 8.43155 9.86914C8.33625 9.94801 8.20935 10 7.99991 10C7.80356 10 7.67921 9.9547 7.58585 9.88411C7.55395 9.83643 7.51409 9.79458 7.46801 9.76042C7.42878 9.70682 7.39619 9.64571 7.37361 9.57747C7.37541 9.50814 7.36278 9.43919 7.3365 9.375C7.33575 9.36102 7.33324 9.34742 7.33324 9.33333C7.33324 9.15278 7.3958 8.97894 7.49861 8.86328C7.60142 8.74762 7.73602 8.66667 7.99991 8.66667ZM7.46345 10.9193C7.63021 10.9715 7.81059 11 7.99991 11C8.18923 11 8.36961 10.9715 8.53637 10.9193L9.16072 13H6.8391L7.46345 10.9193Z" fill="#28C7FF"/>
</g>
<defs>
<clipPath id="clip0_1856_1510">
<rect width="16" height="16" fill="white"/>
</clipPath>
</defs>
</svg>
