<svg width="21" height="21" viewBox="0 0 21 21" fill="none" xmlns="http://www.w3.org/2000/svg">
<g id="icons8-account 1">
<path id="Vector" d="M10.5 1.75C8.09153 1.75 6.125 3.71653 6.125 6.125C6.125 8.53347 8.09153 10.5 10.5 10.5C12.9085 10.5 14.875 8.53347 14.875 6.125C14.875 3.71653 12.9085 1.75 10.5 1.75ZM10.5 3.0625C12.1991 3.0625 13.5625 4.42585 13.5625 6.125C13.5625 7.82415 12.1991 9.1875 10.5 9.1875C8.80085 9.1875 7.4375 7.82415 7.4375 6.125C7.4375 4.42585 8.80085 3.0625 10.5 3.0625ZM5.46875 12.25C4.38922 12.25 3.5 13.1392 3.5 14.2188V14.7434C3.5 16.03 4.31581 17.1841 5.56018 17.9777C6.80455 18.7712 8.50712 19.25 10.5 19.25C12.4929 19.25 14.1955 18.7712 15.4398 17.9777C16.6842 17.1841 17.5 16.03 17.5 14.7434V14.2188C17.5 13.1392 16.6108 12.25 15.5312 12.25H5.46875ZM5.46875 13.5625H15.5312C15.9016 13.5625 16.1875 13.8484 16.1875 14.2188V14.7434C16.1875 15.4719 15.7183 16.2434 14.734 16.8711C13.7498 17.4988 12.2801 17.9375 10.5 17.9375C8.71988 17.9375 7.25025 17.4988 6.26599 16.8711C5.28173 16.2434 4.8125 15.4719 4.8125 14.7434V14.2188C4.8125 13.8484 5.09841 13.5625 5.46875 13.5625Z" fill="white"/>
</g>
</svg>
