<svg width="393" height="8" viewBox="0 0 393 8" fill="none" xmlns="http://www.w3.org/2000/svg">
<path fill-rule="evenodd" clip-rule="evenodd" d="M8 8C12.4183 8 16 4.41828 16 5.72205e-06L8 -2.86102e-05L0 5.72205e-06C0 4.41828 3.58172 8 8 8ZM33 5.72205e-06L24.5 -2.86102e-05L16 5.72205e-06C16 4.41828 19.8056 8 24.5 8C29.1944 8 33 4.41828 33 5.72205e-06ZM49 5.72205e-06C49 4.41828 45.4183 8 41 8C36.5817 8 33 4.41828 33 5.72205e-06L41 -2.86102e-05L49 5.72205e-06ZM66 5.72205e-06L57.5 -2.86102e-05L49 5.72205e-06C49 4.41828 52.8056 8 57.5 8C62.1944 8 66 4.41828 66 5.72205e-06ZM82 5.72205e-06C82 4.41828 78.4183 8 74 8C69.5817 8 66 4.41828 66 5.72205e-06L74 -2.86102e-05L82 5.72205e-06ZM98 5.72205e-06L90 -2.86102e-05L82 5.72205e-06C82 4.41828 85.5817 8 90 8C94.4183 8 98 4.41828 98 5.72205e-06ZM115 5.72205e-06C115 4.41828 111.194 8 106.5 8C101.806 8 98 4.41828 98 5.72205e-06L106.5 -2.86102e-05L115 5.72205e-06ZM131 5.72205e-06L123 -2.86102e-05L115 5.72205e-06C115 4.41828 118.582 8 123 8C127.418 8 131 4.41828 131 5.72205e-06ZM147 5.72205e-06C147 4.41828 143.418 8 139 8C134.582 8 131 4.41828 131 5.72205e-06L139 -2.86102e-05L147 5.72205e-06ZM164 5.72205e-06L155.5 -2.86102e-05L147 5.72205e-06C147 4.41828 150.806 8 155.5 8C160.194 8 164 4.41828 164 5.72205e-06ZM180 5.72205e-06C180 4.41828 176.418 8 172 8C167.582 8 164 4.41828 164 5.72205e-06L172 -2.86102e-05L180 5.72205e-06ZM197 5.72205e-06L188.5 -2.86102e-05L180 5.72205e-06C180 4.41828 183.806 8 188.5 8C193.194 8 197 4.41828 197 5.72205e-06ZM213 5.72205e-06C213 4.41828 209.418 8 205 8C200.582 8 197 4.41828 197 5.72205e-06L205 -2.86102e-05L213 5.72205e-06ZM229 5.72205e-06L221 -2.86102e-05L213 5.72205e-06C213 4.41828 216.582 8 221 8C225.418 8 229 4.41828 229 5.72205e-06ZM246 5.72205e-06C246 4.41828 242.194 8 237.5 8C232.806 8 229 4.41828 229 5.72205e-06L237.5 -2.86102e-05L246 5.72205e-06ZM262 5.72205e-06L254 -2.86102e-05L246 5.72205e-06C246 4.41828 249.582 8 254 8C258.418 8 262 4.41828 262 5.72205e-06ZM278 5.72205e-06L270 -2.86102e-05L262 5.72205e-06C262 4.41828 265.582 8 270 8C274.418 8 278 4.41828 278 5.72205e-06ZM295 5.72205e-06L286.5 -2.86102e-05L278 5.72205e-06C278 4.41828 281.806 8 286.5 8C291.194 8 295 4.41828 295 5.72205e-06ZM311 5.72205e-06C311 4.41828 307.418 8 303 8C298.582 8 295 4.41828 295 5.72205e-06L303 -2.86102e-05L311 5.72205e-06ZM328 5.72205e-06L319.5 -2.86102e-05L311 5.72205e-06C311 4.41828 314.806 8 319.5 8C324.194 8 328 4.41828 328 5.72205e-06ZM344 5.72205e-06C344 4.41828 340.418 8 336 8C331.582 8 328 4.41828 328 5.72205e-06L336 -2.86102e-05L344 5.72205e-06ZM360 5.72205e-06L352 -2.86102e-05L344 5.72205e-06C344 4.41828 347.582 8 352 8C356.418 8 360 4.41828 360 5.72205e-06ZM377 5.72205e-06C377 4.41828 373.194 8 368.5 8C363.806 8 360 4.41828 360 5.72205e-06L368.5 -2.86102e-05L377 5.72205e-06ZM377 5.72205e-06L385 -2.86102e-05L393 5.72205e-06C393 4.41828 389.418 8 385 8C380.582 8 377 4.41828 377 5.72205e-06Z" fill="#1F1926"/>
</svg>
