<svg width="100" height="100" viewBox="0 0 100 100" fill="none" xmlns="http://www.w3.org/2000/svg">
<path d="M50 0C22.385 0 0 22.385 0 50C0 77.615 22.385 100 50 100C77.615 100 100 77.615 100 50C100 22.385 77.615 0 50 0ZM68.9025 63.5975C70.3675 65.0625 70.3675 67.435 68.9025 68.9C68.17 69.635 67.21 70 66.25 70C65.29 70 64.33 69.635 63.5975 68.9025L50 55.3025L36.4025 68.9C35.67 69.635 34.71 70 33.75 70C32.79 70 31.83 69.635 31.0975 68.9025C29.6325 67.4375 29.6325 65.065 31.0975 63.6L44.6975 50L31.1 36.4025C29.635 34.9375 29.635 32.565 31.1 31.1C32.565 29.635 34.9375 29.635 36.4025 31.1L50 44.6975L63.5975 31.1C65.0625 29.635 67.435 29.635 68.9 31.1C70.365 32.565 70.365 34.9375 68.9 36.4025L55.3025 50L68.9025 63.5975Z" fill="white"/>
</svg>
