<svg width="40" height="40" viewBox="0 0 40 40" fill="none" xmlns="http://www.w3.org/2000/svg">
<circle cx="20" cy="20" r="20" fill="white"/>
<circle cx="20" cy="20" r="19.5" stroke="#1F1926" stroke-opacity="0.1"/>
<circle cx="34" cy="6" r="6" fill="#F500B8"/>
<path d="M19.639 10.0088C15.5973 10.1991 12.5004 13.6717 12.5004 17.6904V21.3242L11.1752 23.9902C11.1728 23.9951 11.1706 24 11.1683 24.0049C10.6352 25.1386 11.4982 26.5 12.7513 26.5H17.0004C17.0004 28.1479 18.3524 29.5 20.0004 29.5C21.6483 29.5 23.0004 28.1479 23.0004 26.5H27.2484C28.5015 26.5 29.3657 25.1389 28.8324 24.0049C28.8302 24 28.8279 23.9951 28.8256 23.9902L27.5004 21.3242V17.5C27.5004 13.2469 23.932 9.80667 19.639 10.0088ZM19.7094 11.5068C23.1694 11.3439 26.0004 14.0811 26.0004 17.5V21.5C26.0003 21.6159 26.027 21.7302 26.0785 21.834L27.475 24.6445C27.5648 24.837 27.4609 25 27.2484 25H12.7513C12.5389 25 12.4358 24.8373 12.5258 24.6445V24.6435L13.9222 21.834C13.9737 21.7302 14.0005 21.6159 14.0004 21.5V17.6904C14.0004 14.4402 16.4901 11.6585 19.7094 11.5068ZM18.5004 26.5H21.5004C21.5004 27.3371 20.8374 28 20.0004 28C19.1633 28 18.5004 27.3371 18.5004 26.5Z" fill="#3E2ABB"/>
</svg>
