<svg width="48" height="48" viewBox="0 0 48 48" fill="none" xmlns="http://www.w3.org/2000/svg">
<g id="icons8-purchase_order 1">
<path id="Vector" d="M12.5 5C10.0325 5 8 7.0325 8 9.5V33H6.5C6.10219 33 5.72068 33.1581 5.43938 33.4394C5.15809 33.7207 5.00004 34.1022 5 34.5V36.5C5 40.0719 7.92806 43 11.5 43H33.5C37.0719 43 40 40.0719 40 36.5V9.5C40 7.0325 37.9675 5 35.5 5H12.5ZM16.5 13C17.328 13 18 13.672 18 14.5C18 15.328 17.328 16 16.5 16C15.672 16 15 15.328 15 14.5C15 13.672 15.672 13 16.5 13ZM21.5 13H31.5C32.329 13 33 13.671 33 14.5C33 15.329 32.329 16 31.5 16H21.5C20.671 16 20 15.329 20 14.5C20 13.671 20.671 13 21.5 13ZM16.5 19C17.328 19 18 19.672 18 20.5C18 21.328 17.328 22 16.5 22C15.672 22 15 21.328 15 20.5C15 19.672 15.672 19 16.5 19ZM21.5 19H31.5C32.329 19 33 19.671 33 20.5C33 21.329 32.329 22 31.5 22H21.5C20.671 22 20 21.329 20 20.5C20 19.671 20.671 19 21.5 19ZM16.5 25C17.328 25 18 25.672 18 26.5C18 27.328 17.328 28 16.5 28C15.672 28 15 27.328 15 26.5C15 25.672 15.672 25 16.5 25ZM21.5 25H31.5C32.329 25 33 25.671 33 26.5C33 27.329 32.329 28 31.5 28H21.5C20.671 28 20 27.329 20 26.5C20 25.671 20.671 25 21.5 25ZM8 36H27V36.5C27 37.815 27.4941 38.9735 28.1738 40H11.5C9.54994 40 8 38.4501 8 36.5V36Z" fill="#3E2ABB"/>
</g>
</svg>
