<svg width="16" height="18" viewBox="0 0 16 18" fill="none" xmlns="http://www.w3.org/2000/svg">
<path id="Vector" d="M0.881587 18C0.631805 18 0.422576 17.904 0.253899 17.712C0.0852229 17.52 0.000590762 17.2827 3.03994e-06 17C-0.000584683 16.7173 0.0840475 16.48 0.253899 16.288C0.423751 16.096 0.63298 16 0.881587 16H1.76317V1C1.76317 0.716667 1.8478 0.479333 2.01707 0.288C2.18633 0.0966668 2.39556 0.000666667 2.64475 0H8.81584C9.06562 0 9.27515 0.0960001 9.44441 0.288C9.61368 0.48 9.69801 0.717333 9.69742 1H13.2238C13.4735 1 13.6831 1.096 13.8523 1.288C14.0216 1.48 14.1059 1.71733 14.1053 2V16H14.9869C15.2367 16 15.4462 16.096 15.6155 16.288C15.7848 16.48 15.8691 16.7173 15.8685 17C15.8679 17.2827 15.7833 17.5203 15.6146 17.713C15.4459 17.9057 15.2367 18.0013 14.9869 18H13.2238C12.974 18 12.7647 17.904 12.5961 17.712C12.4274 17.52 12.3428 17.2827 12.3422 17V3H9.69742V17C9.69742 17.2833 9.61279 17.521 9.44353 17.713C9.27427 17.905 9.06504 18.0007 8.81584 18H0.881587ZM7.93426 9C7.93426 8.71667 7.84963 8.47933 7.68036 8.288C7.5111 8.09667 7.30187 8.00067 7.05267 8C6.80348 7.99933 6.59425 8.09533 6.42499 8.288C6.25572 8.48067 6.17109 8.718 6.17109 9C6.17109 9.282 6.25572 9.51967 6.42499 9.713C6.59425 9.90633 6.80348 10.002 7.05267 10C7.30187 9.998 7.51139 9.902 7.68124 9.712C7.8511 9.522 7.93543 9.28467 7.93426 9Z" fill="#4ED1FF"/>
</svg>
