<svg width="16" height="16" viewBox="0 0 16 16" fill="none" xmlns="http://www.w3.org/2000/svg">
<g id="icons8-right 2">
<path id="Vector" d="M8.82841 2.99478C8.7289 2.99481 8.63167 3.02452 8.54914 3.08012C8.46661 3.13571 8.40255 3.21467 8.36515 3.30688C8.32775 3.39909 8.31871 3.50036 8.33919 3.59774C8.35966 3.69512 8.40873 3.78417 8.4801 3.85351L12.2933 7.66666H2.50029C2.43403 7.66572 2.36825 7.67796 2.30676 7.70267C2.24528 7.72737 2.18932 7.76405 2.14213 7.81058C2.09495 7.8571 2.05748 7.91253 2.03191 7.97366C2.00633 8.03479 1.99316 8.10039 1.99316 8.16666C1.99316 8.23292 2.00633 8.29852 2.03191 8.35965C2.05748 8.42078 2.09495 8.47621 2.14213 8.52274C2.18932 8.56926 2.24528 8.60594 2.30676 8.63065C2.36825 8.65535 2.43403 8.66759 2.50029 8.66666H12.2933L8.4801 12.4798C8.43212 12.5259 8.39381 12.5811 8.36742 12.6421C8.34102 12.7032 8.32708 12.7689 8.32641 12.8354C8.32573 12.9019 8.33833 12.9679 8.36348 13.0295C8.38862 13.0911 8.4258 13.1471 8.47284 13.1941C8.51988 13.2411 8.57583 13.2783 8.63742 13.3035C8.69901 13.3286 8.76499 13.3412 8.83151 13.3405C8.89803 13.3399 8.96375 13.3259 9.02481 13.2995C9.08588 13.2731 9.14106 13.2348 9.18713 13.1868L13.8538 8.52017C13.9475 8.4264 14.0002 8.29924 14.0002 8.16666C14.0002 8.03407 13.9475 7.90691 13.8538 7.81314L9.18713 3.14647C9.14053 3.09848 9.08477 3.06032 9.02315 3.03427C8.96153 3.00821 8.89531 2.99478 8.82841 2.99478Z" fill="#28C7FF"/>
</g>
</svg>
