<svg width="16" height="16" viewBox="0 0 16 16" fill="none" xmlns="http://www.w3.org/2000/svg">
<g id="icons8-minus 1" opacity="0.25">
<path id="Vector" d="M7.99992 1.3335C4.32394 1.3335 1.33325 4.32419 1.33325 8.00016C1.33325 11.6761 4.32394 14.6668 7.99992 14.6668C11.6759 14.6668 14.6666 11.6761 14.6666 8.00016C14.6666 4.32419 11.6759 1.3335 7.99992 1.3335ZM7.99992 2.3335C11.1355 2.3335 13.6666 4.86463 13.6666 8.00016C13.6666 11.1357 11.1355 13.6668 7.99992 13.6668C4.86438 13.6668 2.33325 11.1357 2.33325 8.00016C2.33325 4.86463 4.86438 2.3335 7.99992 2.3335ZM5.16658 7.50016C5.10033 7.49923 5.03455 7.51147 4.97306 7.53617C4.91158 7.56088 4.85562 7.59756 4.80843 7.64408C4.76125 7.6906 4.72378 7.74604 4.69821 7.80717C4.67263 7.8683 4.65946 7.9339 4.65946 8.00016C4.65946 8.06642 4.67263 8.13203 4.69821 8.19316C4.72378 8.25428 4.76125 8.30972 4.80843 8.35624C4.85562 8.40276 4.91158 8.43944 4.97306 8.46415C5.03455 8.48886 5.10033 8.5011 5.16658 8.50016H10.8333C10.8995 8.5011 10.9653 8.48886 11.0268 8.46415C11.0883 8.43944 11.1442 8.40276 11.1914 8.35624C11.2386 8.30972 11.2761 8.25428 11.3016 8.19316C11.3272 8.13203 11.3404 8.06642 11.3404 8.00016C11.3404 7.9339 11.3272 7.8683 11.3016 7.80717C11.2761 7.74604 11.2386 7.6906 11.1914 7.64408C11.1442 7.59756 11.0883 7.56088 11.0268 7.53617C10.9653 7.51147 10.8995 7.49923 10.8333 7.50016H5.16658Z" fill="#1F1926"/>
</g>
</svg>
