<svg width="20" height="20" viewBox="0 0 20 20" fill="none" xmlns="http://www.w3.org/2000/svg">
<g id="icons8-house 2">
<path id="Vector" d="M4.44579 2.5C3.41071 2.5 2.49821 3.20055 2.23143 4.20085L1.31428 7.6416C1.05774 8.60362 1.62058 9.56991 2.49999 9.88932V15.625C2.49999 16.6531 3.34686 17.5 4.37499 17.5H8.54165C8.70741 17.5 8.86637 17.4341 8.98357 17.3169C9.10078 17.1997 9.16664 17.0408 9.16665 16.875V13.304C9.16665 12.8356 9.53154 12.4707 9.99998 12.4707C10.4684 12.4707 10.8333 12.8356 10.8333 13.304V16.875C10.8333 17.0408 10.8992 17.1997 11.0164 17.3169C11.1336 17.4341 11.2926 17.5 11.4583 17.5H15.625C16.6531 17.5 17.5 16.6531 17.5 15.625V9.88851C18.3792 9.56899 18.9422 8.60352 18.6857 7.6416L17.7685 4.20085C17.5018 3.20055 16.5893 2.5 15.5542 2.5H4.44579ZM4.44579 3.75H15.5542C16.0291 3.75 16.4385 4.06424 16.5609 4.52311L17.478 7.96387C17.5879 8.376 17.2999 8.75 16.8742 8.75H13.5612C13.2258 8.75 12.9127 8.58953 12.7165 8.31787L10.9953 5.93506C10.5157 5.27207 9.48391 5.27148 9.00471 5.93506L7.28433 8.31787C7.08824 8.58931 6.77438 8.75 6.4396 8.75H3.1258C2.69944 8.75 2.41206 8.376 2.52196 7.96387L3.43911 4.52311C3.5615 4.06424 3.97086 3.75 4.44579 3.75ZM9.99998 6.69271L11.7033 9.05029C12.1337 9.64614 12.8257 10 13.5612 10H16.25V15.625C16.25 15.9777 15.9777 16.25 15.625 16.25H12.0833V13.304C12.0833 12.1608 11.1432 11.2207 9.99998 11.2207C8.85677 11.2207 7.91665 12.1608 7.91665 13.304V16.25H4.37499C4.02228 16.25 3.74999 15.9777 3.74999 15.625V10H6.4396C7.17482 10 7.86693 9.64635 8.29751 9.05029L9.99998 6.69271ZM5.83332 11.6667C5.3729 11.6667 4.99999 12.0396 4.99999 12.5V13.3333C4.99999 13.7937 5.3729 14.1667 5.83332 14.1667C6.29374 14.1667 6.66665 13.7937 6.66665 13.3333V12.5C6.66665 12.0396 6.29374 11.6667 5.83332 11.6667ZM14.1667 11.6667C13.7062 11.6667 13.3333 12.0396 13.3333 12.5V13.3333C13.3333 13.7937 13.7062 14.1667 14.1667 14.1667C14.6271 14.1667 15 13.7937 15 13.3333V12.5C15 12.0396 14.6271 11.6667 14.1667 11.6667Z" fill="#1F1926"/>
</g>
</svg>
