<svg width="24" height="24" viewBox="0 0 24 24" fill="none" xmlns="http://www.w3.org/2000/svg">
<g id="icons8-left 2">
<path id="Vector" d="M10.7355 4.49323C10.5407 4.49891 10.3557 4.58016 10.2198 4.71979L3.21983 11.7198C3.07923 11.8605 3.00024 12.0512 3.00024 12.2501C3.00024 12.4489 3.07923 12.6397 3.21983 12.7803L10.2198 19.7803C10.2889 19.8523 10.3717 19.9098 10.4633 19.9494C10.5549 19.989 10.6535 20.0099 10.7533 20.0109C10.853 20.0119 10.952 19.993 11.0444 19.9553C11.1368 19.9176 11.2207 19.8618 11.2913 19.7912C11.3618 19.7207 11.4176 19.6367 11.4553 19.5444C11.493 19.452 11.5119 19.353 11.5109 19.2532C11.5099 19.1534 11.489 19.0549 11.4494 18.9633C11.4098 18.8717 11.3524 18.7889 11.2804 18.7198L5.56065 13.0001H20.2501C20.3495 13.0015 20.4482 12.9831 20.5404 12.9461C20.6326 12.909 20.7165 12.854 20.7873 12.7842C20.8581 12.7144 20.9143 12.6312 20.9527 12.5396C20.991 12.4479 21.0108 12.3495 21.0108 12.2501C21.0108 12.1507 20.991 12.0523 20.9527 11.9606C20.9143 11.8689 20.8581 11.7857 20.7873 11.7159C20.7165 11.6462 20.6326 11.5911 20.5404 11.5541C20.4482 11.517 20.3495 11.4987 20.2501 11.5001H5.56065L11.2804 5.78034C11.3886 5.67496 11.4624 5.53938 11.4923 5.39132C11.5222 5.24327 11.5067 5.08965 11.4478 4.95056C11.3889 4.81148 11.2894 4.69341 11.1623 4.61181C11.0352 4.53021 10.8864 4.48888 10.7355 4.49323Z" fill="black"/>
</g>
</svg>
