<svg width="48" height="48" viewBox="0 0 48 48" fill="none" xmlns="http://www.w3.org/2000/svg">
<g id="icons8-online_support 1">
<path id="Vector" d="M24.5 4C14.794 4 9 9.42 9 18.5V22.0215C7.747 22.9505 7 24.402 7 26C7 28.357 8.63889 30.3373 10.8379 30.8633C12.8309 38.7663 18.026 44 24 44C24.828 44 25.5 43.329 25.5 42.5C25.5 41.671 24.828 41 24 41C19.294 41 14.9873 36.1415 13.5273 29.1855C13.3813 28.4915 12.7705 27.9941 12.0605 27.9941C12.0265 27.9941 11.9834 27.995 11.9414 27.998C10.8654 27.968 10 27.083 10 26C10 25.235 10.4385 24.5537 11.1445 24.2188C11.6675 23.9697 12 23.4423 12 22.8633V20.1738C15.855 19.1618 18.2686 17.104 19.5566 15.666C21.1976 16.667 24.431 18 30 18C32.1468 18 34.0095 17.8069 35.4961 17.5645C35.7315 18.2691 36 19.3019 36 20.5V30.5C36 33.0035 34.0035 35 31.5 35H29.6602C29.3765 34.4019 28.929 33.8965 28.3696 33.5425C27.8102 33.1885 27.162 33.0004 26.5 33C26.0404 33 25.5852 33.0905 25.1606 33.2664C24.736 33.4423 24.3501 33.7001 24.0251 34.0251C23.7001 34.3501 23.4423 34.736 23.2664 35.1606C23.0905 35.5852 23 36.0404 23 36.5C23 36.9596 23.0905 37.4148 23.2664 37.8394C23.4423 38.264 23.7001 38.6499 24.0251 38.9749C24.3501 39.2999 24.736 39.5577 25.1606 39.7336C25.5852 39.9095 26.0404 40 26.5 40C27.1616 39.9992 27.8095 39.8109 28.3685 39.457C28.9275 39.103 29.3746 38.5978 29.6582 38H31.5C35.4557 38 38.7139 34.8927 38.9746 31H39C41.209 31 43 29.209 43 27V25C43 22.791 41.209 21 39 21V20.5C39 19.0423 38.709 17.7474 38.418 16.8164C39.0004 16.4921 39.4666 15.9873 39.7402 15.3672C40.0982 14.5542 40.0851 13.629 39.7031 12.832C37.0191 7.21803 31.477 4 24.5 4ZM19 24C18.4696 24 17.9609 24.2107 17.5858 24.5858C17.2107 24.9609 17 25.4696 17 26C17 26.5304 17.2107 27.0391 17.5858 27.4142C17.9609 27.7893 18.4696 28 19 28C19.5304 28 20.0391 27.7893 20.4142 27.4142C20.7893 27.0391 21 26.5304 21 26C21 25.4696 20.7893 24.9609 20.4142 24.5858C20.0391 24.2107 19.5304 24 19 24ZM29 24C28.4776 24.0011 27.9763 24.2066 27.6035 24.5725C27.2306 24.9384 27.0157 25.4357 27.0047 25.958C26.9937 26.4803 27.1876 26.9862 27.5448 27.3674C27.9019 27.7486 28.3941 27.975 28.916 27.998C28.944 27.9993 28.972 27.9999 29 28C29.5304 28 30.0391 27.7893 30.4142 27.4142C30.7893 27.0391 31 26.5304 31 26C31 25.4696 30.7893 24.9609 30.4142 24.5858C30.0391 24.2107 29.5304 24 29 24Z" fill="#3E2ABB"/>
</g>
</svg>
