<svg width="40" height="40" viewBox="0 0 40 40" fill="none" xmlns="http://www.w3.org/2000/svg">
<g id="icons8-house 1">
<path id="Vector" d="M8.89157 5C6.82142 5 4.99643 6.4011 4.46286 8.40169L2.62855 15.2832C2.11547 17.2072 3.24116 19.1398 4.99997 19.7786V31.25C4.99997 33.3062 6.69372 35 8.74997 35H17.0833C17.4148 35 17.7327 34.8683 17.9672 34.6338C18.2016 34.3994 18.3333 34.0815 18.3333 33.75V26.6081C18.3333 25.6712 19.0631 24.9414 20 24.9414C20.9369 24.9414 21.6666 25.6712 21.6666 26.6081V33.75C21.6667 34.0815 21.7984 34.3994 22.0328 34.6338C22.2672 34.8683 22.5851 35 22.9166 35H31.25C33.3062 35 35 33.3062 35 31.25V19.777C36.7583 19.138 37.8844 17.207 37.3714 15.2832L35.5371 8.40169C35.0035 6.4011 33.1785 5 31.1084 5H8.89157ZM8.89157 7.5H31.1084C32.0582 7.5 32.877 8.12848 33.1217 9.04622L34.956 15.9277C35.1758 16.752 34.5998 17.5 33.7483 17.5H27.1224C26.4517 17.5 25.8254 17.1791 25.4329 16.6357L21.9905 11.8701C21.0313 10.5441 18.9678 10.543 18.0094 11.8701L14.5687 16.6357C14.1765 17.1786 13.5488 17.5 12.8792 17.5H6.2516C5.39888 17.5 4.82411 16.752 5.04392 15.9277L6.87823 9.04622C7.12299 8.12848 7.94173 7.5 8.89157 7.5ZM20 13.3854L23.4065 18.1006C24.2674 19.2923 25.6514 20 27.1224 20H32.5V31.25C32.5 31.9554 31.9554 32.5 31.25 32.5H24.1666V26.6081C24.1666 24.3216 22.2864 22.4414 20 22.4414C17.7135 22.4414 15.8333 24.3216 15.8333 26.6081V32.5H8.74997C8.04456 32.5 7.49997 31.9554 7.49997 31.25V20H12.8792C14.3496 20 15.7339 19.2927 16.595 18.1006L20 13.3854ZM11.6666 23.3333C10.7458 23.3333 9.99997 24.0792 9.99997 25V26.6667C9.99997 27.5875 10.7458 28.3333 11.6666 28.3333C12.5875 28.3333 13.3333 27.5875 13.3333 26.6667V25C13.3333 24.0792 12.5875 23.3333 11.6666 23.3333ZM28.3333 23.3333C27.4125 23.3333 26.6666 24.0792 26.6666 25V26.6667C26.6666 27.5875 27.4125 28.3333 28.3333 28.3333C29.2541 28.3333 30 27.5875 30 26.6667V25C30 24.0792 29.2541 23.3333 28.3333 23.3333Z" fill="#3E2ABB"/>
</g>
</svg>
