<svg width="297" height="297" viewBox="0 0 297 297" fill="none" xmlns="http://www.w3.org/2000/svg">
<g clip-path="url(#clip0_38_13242)">
<rect width="297" height="297" rx="16" fill="white"/>
<g opacity="0.05">
<path d="M123.252 122.558C122.783 121.768 122.647 120.821 122.872 119.929C123.098 119.037 123.668 118.272 124.456 117.801L125.957 116.905C128.306 115.502 130.989 114.78 133.719 114.816C136.46 114.853 139.125 115.653 141.428 117.132C143.026 118.157 144.876 118.725 146.776 118.774C147.731 118.798 148.684 118.69 149.605 118.452C150.558 118.206 151.474 117.822 152.331 117.311C153.537 116.59 154.566 115.656 155.387 114.536C156.181 113.452 156.752 112.237 157.085 110.926C157.417 109.615 157.492 108.274 157.309 106.94C157.12 105.562 156.66 104.248 155.943 103.038C155.317 101.98 154.523 101.055 153.585 100.287C152.677 99.5444 151.656 98.9654 150.548 98.5652C149.448 98.168 148.298 97.9598 147.131 97.9466C145.945 97.9334 144.776 98.1233 143.657 98.5103C142.791 98.8108 141.84 98.7529 141.016 98.3497C140.191 97.9466 139.56 97.2313 139.261 96.3613C138.962 95.4913 139.019 94.537 139.421 93.7096C139.823 92.8821 140.535 92.2481 141.402 91.9476C143.273 91.2997 145.226 90.9823 147.209 91.005C149.149 91.027 151.061 91.373 152.889 92.0333C154.735 92.7003 156.438 93.6663 157.953 94.9057C159.522 96.1883 160.845 97.7304 161.887 99.4887C162.485 100.499 162.983 101.57 163.365 102.673C163.738 103.749 164.006 104.866 164.161 105.994C164.313 107.102 164.357 108.23 164.293 109.347C164.23 110.454 164.06 111.56 163.788 112.635C163.516 113.71 163.14 114.764 162.669 115.766C162.193 116.779 161.618 117.75 160.958 118.65C160.285 119.567 159.519 120.421 158.68 121.188C157.82 121.974 156.874 122.676 155.867 123.277C153.059 124.954 149.855 125.797 146.602 125.714C143.441 125.633 140.364 124.688 137.704 122.981C136.489 122.2 135.079 121.777 133.628 121.758C132.176 121.738 130.746 122.124 129.495 122.871L127.994 123.767C127.206 124.238 126.263 124.375 125.375 124.148C124.486 123.922 123.723 123.35 123.254 122.558H123.252Z" fill="#1F1926"/>
<path d="M120.729 126.67C121.033 124.778 119.751 122.996 117.866 122.691C115.98 122.386 114.206 123.673 113.902 125.565C113.598 127.458 114.879 129.24 116.765 129.545C118.65 129.85 120.425 128.563 120.729 126.67Z" fill="#1F1926"/>
<path d="M279.803 226.738C279.424 226.041 279.337 225.222 279.56 224.46C279.783 223.699 280.298 223.057 280.992 222.677L282.315 221.953C284.383 220.82 286.719 220.285 289.069 220.404C291.43 220.524 293.701 221.3 295.638 222.648C296.982 223.583 298.558 224.132 300.194 224.235C301.017 224.287 301.84 224.224 302.642 224.049C303.471 223.868 304.273 223.567 305.027 223.154C306.09 222.572 307.006 221.801 307.75 220.861C308.469 219.953 309 218.925 309.328 217.806C309.655 216.687 309.764 215.534 309.649 214.379C309.53 213.185 309.176 212.038 308.597 210.971C308.091 210.04 307.437 209.217 306.652 208.525C305.895 207.856 305.032 207.324 304.091 206.943C303.156 206.565 302.172 206.349 301.167 206.3C300.145 206.25 299.131 206.376 298.155 206.673C297.399 206.904 296.582 206.824 295.884 206.45C295.186 206.076 294.665 205.439 294.435 204.68C294.205 203.92 294.285 203.1 294.658 202.4C295.03 201.7 295.665 201.176 296.421 200.945C298.054 200.448 299.748 200.237 301.455 200.32C303.127 200.402 304.763 200.762 306.317 201.39C307.886 202.024 309.323 202.911 310.589 204.028C311.899 205.184 312.991 206.555 313.832 208.104C314.315 208.994 314.709 209.933 315.004 210.895C315.291 211.834 315.486 212.806 315.583 213.783C315.678 214.742 315.681 215.716 315.589 216.677C315.499 217.628 315.318 218.576 315.048 219.494C314.78 220.411 314.421 221.307 313.984 222.156C313.542 223.013 313.015 223.831 312.418 224.585C311.809 225.354 311.121 226.065 310.373 226.699C309.607 227.348 308.769 227.923 307.883 228.409C305.41 229.764 302.621 230.386 299.821 230.209C297.099 230.038 294.479 229.124 292.241 227.567C291.218 226.855 290.017 226.446 288.767 226.382C287.516 226.318 286.272 226.604 285.17 227.207L283.847 227.931C283.153 228.312 282.337 228.399 281.578 228.175C280.819 227.951 280.181 227.434 279.802 226.737L279.803 226.738Z" fill="#1F1926"/>
<path d="M276.49 231.871C277.748 230.805 277.908 228.917 276.846 227.653C275.784 226.39 273.902 226.23 272.644 227.296C271.385 228.362 271.226 230.251 272.288 231.514C273.35 232.778 275.231 232.937 276.49 231.871Z" fill="#1F1926"/>
<path d="M260.11 260.365C260.568 260.037 261.137 259.905 261.692 259.998C262.247 260.091 262.743 260.402 263.07 260.861L263.693 261.736C264.667 263.106 265.244 264.716 265.361 266.393C265.479 268.078 265.127 269.755 264.345 271.244C263.801 272.277 263.55 273.441 263.617 274.611C263.652 275.199 263.766 275.777 263.958 276.331C264.156 276.903 264.437 277.446 264.792 277.945C265.292 278.649 265.914 279.232 266.639 279.679C267.34 280.112 268.108 280.4 268.925 280.537C269.74 280.674 270.561 280.651 271.364 280.471C272.194 280.285 272.97 279.935 273.671 279.433C274.283 278.995 274.807 278.46 275.227 277.845C275.633 277.25 275.933 276.593 276.12 275.893C276.306 275.197 276.374 274.481 276.323 273.764C276.27 273.035 276.095 272.327 275.802 271.66C275.575 271.144 275.562 270.557 275.765 270.03C275.968 269.503 276.371 269.08 276.886 268.852C277.401 268.624 277.985 268.611 278.51 268.814C279.035 269.019 279.457 269.423 279.684 269.94C280.174 271.056 280.468 272.239 280.555 273.457C280.641 274.649 280.528 275.84 280.219 276.996C279.907 278.163 279.405 279.258 278.728 280.251C278.026 281.279 277.155 282.17 276.137 282.9C275.552 283.319 274.925 283.679 274.273 283.97C273.636 284.254 272.97 284.476 272.29 284.628C271.623 284.778 270.939 284.863 270.254 284.881C269.578 284.898 268.895 284.851 268.226 284.739C267.557 284.627 266.896 284.449 266.261 284.212C265.62 283.972 265 283.668 264.418 283.309C263.825 282.943 263.265 282.516 262.755 282.04C262.233 281.553 261.756 281.007 261.339 280.42C260.174 278.782 259.497 276.859 259.381 274.857C259.269 272.913 259.687 270.976 260.591 269.256C261.004 268.47 261.19 267.583 261.128 266.692C261.066 265.799 260.758 264.942 260.238 264.212L259.616 263.336C259.288 262.876 259.157 262.304 259.25 261.747C259.342 261.19 259.652 260.693 260.11 260.364V260.365Z" fill="#1F1926"/>
<path d="M258.481 258.835C259.56 258.376 260.064 257.126 259.606 256.043C259.149 254.96 257.904 254.454 256.825 254.913C255.746 255.372 255.242 256.622 255.699 257.705C256.156 258.788 257.402 259.294 258.481 258.835Z" fill="#1F1926"/>
<path d="M226.847 246.985C225.987 246.866 225.21 246.409 224.686 245.715C224.161 245.021 223.934 244.145 224.053 243.283L224.278 241.64C224.632 239.068 225.684 236.65 227.322 234.646C228.967 232.633 231.131 231.126 233.579 230.29C235.278 229.71 236.788 228.672 237.946 227.29C238.528 226.595 239.01 225.824 239.379 225C239.76 224.147 240.018 223.24 240.148 222.303C240.33 220.983 240.248 219.668 239.907 218.396C239.578 217.166 239.02 216.026 238.25 215.005C237.48 213.984 236.536 213.137 235.447 212.485C234.32 211.811 233.081 211.378 231.765 211.195C230.616 211.036 229.466 211.079 228.346 211.322C227.264 211.557 226.234 211.973 225.285 212.56C224.342 213.142 223.511 213.872 222.812 214.731C222.102 215.604 221.551 216.584 221.177 217.642C220.886 218.463 220.282 219.134 219.499 219.508C218.715 219.882 217.815 219.929 216.998 219.636C216.18 219.345 215.511 218.738 215.139 217.952C214.767 217.166 214.721 216.262 215.011 215.442C215.638 213.67 216.558 212.033 217.745 210.574C218.907 209.147 220.29 207.932 221.856 206.965C223.437 205.988 225.155 205.294 226.962 204.901C228.833 204.495 230.75 204.423 232.66 204.687C233.758 204.839 234.841 205.103 235.878 205.469C236.891 205.828 237.872 206.289 238.795 206.84C239.7 207.381 240.557 208.014 241.343 208.721C242.121 209.421 242.835 210.201 243.467 211.038C244.098 211.875 244.652 212.776 245.113 213.717C245.579 214.668 245.954 215.668 246.228 216.689C246.506 217.73 246.683 218.803 246.752 219.879C246.823 220.98 246.782 222.098 246.631 223.2C246.208 226.275 244.937 229.15 242.955 231.516C241.03 233.815 238.517 235.541 235.689 236.508C234.396 236.95 233.252 237.746 232.381 238.812C231.509 239.878 230.949 241.167 230.761 242.537L230.535 244.18C230.417 245.043 229.962 245.823 229.27 246.349C228.579 246.876 227.707 247.104 226.848 246.985H226.847Z" fill="#1F1926"/>
<path d="M227.41 256.433C229.028 255.625 229.687 253.654 228.883 252.03C228.078 250.406 226.114 249.744 224.496 250.551C222.878 251.359 222.219 253.33 223.024 254.954C223.828 256.579 225.792 257.24 227.41 256.433Z" fill="#1F1926"/>
<path d="M259.724 153.356C260.284 153.408 260.801 153.68 261.162 154.114C261.523 154.547 261.697 155.107 261.645 155.67L261.549 156.741C261.398 158.417 260.789 160.016 259.789 161.364C258.784 162.718 257.427 163.76 255.867 164.377C254.784 164.805 253.837 165.523 253.129 166.453C252.773 166.921 252.484 167.435 252.271 167.98C252.049 168.544 251.909 169.139 251.854 169.75C251.777 170.611 251.869 171.46 252.128 172.273C252.379 173.06 252.774 173.782 253.304 174.419C253.834 175.057 254.47 175.577 255.196 175.967C255.947 176.369 256.762 176.612 257.62 176.69C258.369 176.758 259.113 176.695 259.831 176.504C260.525 176.318 261.18 176.017 261.777 175.609C262.37 175.203 262.887 174.705 263.313 174.128C263.747 173.541 264.074 172.889 264.285 172.192C264.448 171.652 264.819 171.198 265.315 170.932C265.812 170.666 266.393 170.609 266.932 170.772C267.47 170.937 267.922 171.309 268.187 171.807C268.452 172.305 268.509 172.888 268.346 173.429C267.993 174.595 267.447 175.684 266.722 176.665C266.012 177.625 265.153 178.454 264.168 179.128C263.174 179.809 262.082 180.311 260.923 180.621C259.724 180.941 258.484 181.046 257.239 180.933C256.524 180.868 255.814 180.731 255.131 180.524C254.464 180.322 253.815 180.054 253.201 179.725C252.598 179.403 252.024 179.019 251.493 178.584C250.968 178.154 250.482 177.671 250.047 177.148C249.613 176.626 249.227 176.058 248.9 175.462C248.57 174.861 248.297 174.224 248.089 173.571C247.877 172.906 247.731 172.216 247.653 171.521C247.574 170.81 247.566 170.085 247.631 169.366C247.812 167.361 248.548 165.46 249.761 163.867C250.939 162.319 252.514 161.126 254.317 160.413C255.141 160.088 255.858 159.537 256.39 158.82C256.922 158.102 257.246 157.251 257.327 156.357L257.424 155.286C257.475 154.723 257.746 154.204 258.178 153.842C258.61 153.48 259.168 153.305 259.728 153.356H259.724Z" fill="#1F1926"/>
<path d="M261.471 150.775C262.371 150.022 262.492 148.679 261.742 147.775C260.992 146.872 259.654 146.75 258.754 147.503C257.854 148.257 257.732 149.6 258.483 150.503C259.233 151.407 260.571 151.528 261.471 150.775Z" fill="#1F1926"/>
<path d="M298.389 136.902C297.615 137.004 296.83 136.795 296.21 136.317C295.589 135.84 295.183 135.135 295.08 134.356L294.885 132.875C294.579 130.557 294.918 128.204 295.863 126.071C296.812 123.928 298.332 122.1 300.26 120.785C301.597 119.873 302.661 118.609 303.338 117.131C303.678 116.388 303.913 115.604 304.037 114.799C304.165 113.967 304.173 113.118 304.062 112.272C303.905 111.081 303.522 109.959 302.923 108.937C302.344 107.948 301.588 107.091 300.676 106.389C299.764 105.688 298.743 105.178 297.641 104.874C296.501 104.559 295.322 104.479 294.136 104.637C293.101 104.775 292.111 105.088 291.197 105.568C290.313 106.032 289.518 106.641 288.834 107.377C288.154 108.109 287.605 108.944 287.203 109.856C286.795 110.785 286.55 111.768 286.476 112.777C286.419 113.56 286.055 114.288 285.464 114.801C284.872 115.314 284.102 115.57 283.322 115.513C282.542 115.456 281.817 115.09 281.306 114.496C280.795 113.903 280.54 113.129 280.597 112.347C280.72 110.658 281.129 109.015 281.812 107.463C282.481 105.944 283.393 104.558 284.523 103.341C285.664 102.113 286.99 101.098 288.466 100.324C289.994 99.521 291.641 98.9984 293.364 98.7697C294.354 98.6385 295.356 98.607 296.345 98.6766C297.31 98.7448 298.272 98.9097 299.205 99.167C300.12 99.4198 301.016 99.7636 301.866 100.189C302.708 100.611 303.515 101.116 304.262 101.691C305.01 102.267 305.706 102.917 306.33 103.623C306.961 104.337 307.525 105.115 308.006 105.937C308.496 106.774 308.905 107.664 309.222 108.581C309.546 109.521 309.776 110.502 309.907 111.496C310.272 114.267 309.854 117.07 308.696 119.6C307.571 122.059 305.8 124.161 303.574 125.679C302.556 126.373 301.753 127.34 301.251 128.475C300.748 129.61 300.568 130.863 300.731 132.099L300.926 133.58C301.028 134.358 300.818 135.145 300.343 135.768C299.868 136.391 299.165 136.799 298.39 136.902H298.389Z" fill="#1F1926"/>
<path d="M300.406 145.478C301.882 144.789 302.522 143.029 301.835 141.547C301.149 140.065 299.396 139.423 297.92 140.112C296.444 140.801 295.804 142.561 296.49 144.042C297.176 145.524 298.929 146.167 300.406 145.478Z" fill="#1F1926"/>
<path d="M243.473 111.68C243.82 112.233 243.934 112.902 243.79 113.539C243.646 114.176 243.256 114.73 242.705 115.078L241.657 115.741C240.015 116.779 238.124 117.34 236.187 117.363C234.242 117.387 232.336 116.867 230.675 115.86C229.523 115.161 228.2 114.792 226.851 114.792C226.172 114.792 225.499 114.886 224.849 115.071C224.178 115.263 223.535 115.552 222.936 115.93C222.092 116.463 221.38 117.145 220.817 117.955C220.273 118.738 219.89 119.61 219.677 120.547C219.465 121.484 219.436 122.436 219.59 123.379C219.749 124.354 220.098 125.277 220.629 126.123C221.093 126.862 221.673 127.504 222.352 128.032C223.01 128.542 223.745 128.935 224.538 129.198C225.326 129.461 226.145 129.588 226.974 129.576C227.817 129.564 228.643 129.408 229.429 129.113C230.039 128.884 230.714 128.907 231.306 129.179C231.898 129.45 232.359 129.946 232.587 130.558C232.815 131.17 232.791 131.848 232.521 132.442C232.251 133.037 231.757 133.499 231.147 133.728C229.831 134.221 228.451 134.482 227.044 134.502C225.667 134.522 224.304 134.311 222.994 133.875C221.673 133.436 220.447 132.781 219.349 131.929C218.214 131.048 217.247 129.978 216.476 128.749C216.033 128.043 215.661 127.292 215.37 126.517C215.086 125.761 214.876 124.972 214.746 124.175C214.618 123.392 214.566 122.593 214.592 121.798C214.617 121.012 214.717 120.224 214.891 119.456C215.065 118.688 215.313 117.934 215.629 117.214C215.948 116.487 216.338 115.788 216.79 115.137C217.251 114.474 217.78 113.855 218.361 113.295C218.957 112.722 219.617 112.207 220.32 111.762C222.282 110.521 224.54 109.866 226.85 109.865C229.095 109.865 231.294 110.48 233.212 111.643C234.089 112.175 235.097 112.45 236.127 112.437C237.158 112.425 238.165 112.126 239.04 111.573L240.088 110.91C240.639 110.562 241.305 110.447 241.94 110.592C242.574 110.736 243.126 111.128 243.473 111.681V111.68Z" fill="#1F1926"/>
<path d="M248.27 111.414C249.578 111.058 250.351 109.705 249.997 108.392C249.642 107.079 248.294 106.303 246.986 106.659C245.678 107.014 244.905 108.367 245.259 109.68C245.614 110.994 246.962 111.77 248.27 111.414Z" fill="#1F1926"/>
<path d="M243.473 111.68C243.82 112.233 243.934 112.902 243.79 113.539C243.646 114.176 243.256 114.73 242.705 115.078L241.657 115.741C240.015 116.779 238.124 117.34 236.187 117.363C234.242 117.387 232.336 116.867 230.675 115.86C229.523 115.161 228.2 114.792 226.851 114.792C226.172 114.792 225.499 114.886 224.849 115.071C224.178 115.263 223.535 115.552 222.936 115.93C222.092 116.463 221.38 117.145 220.817 117.955C220.273 118.738 219.89 119.61 219.677 120.547C219.465 121.484 219.436 122.436 219.59 123.379C219.749 124.354 220.098 125.277 220.629 126.123C221.093 126.862 221.673 127.504 222.352 128.032C223.01 128.542 223.745 128.935 224.538 129.198C225.326 129.461 226.145 129.588 226.974 129.576C227.817 129.564 228.643 129.408 229.429 129.113C230.039 128.884 230.714 128.907 231.306 129.179C231.898 129.45 232.359 129.946 232.587 130.558C232.815 131.17 232.791 131.848 232.521 132.442C232.251 133.037 231.757 133.499 231.147 133.728C229.831 134.221 228.451 134.482 227.044 134.502C225.667 134.522 224.304 134.311 222.994 133.875C221.673 133.436 220.447 132.781 219.349 131.929C218.214 131.048 217.247 129.978 216.476 128.749C216.033 128.043 215.661 127.292 215.37 126.517C215.086 125.761 214.876 124.972 214.746 124.175C214.618 123.392 214.566 122.593 214.592 121.798C214.617 121.012 214.717 120.224 214.891 119.456C215.065 118.688 215.313 117.934 215.629 117.214C215.948 116.487 216.338 115.788 216.79 115.137C217.251 114.474 217.78 113.855 218.361 113.295C218.957 112.722 219.617 112.207 220.32 111.762C222.282 110.521 224.54 109.866 226.85 109.865C229.095 109.865 231.294 110.48 233.212 111.643C234.089 112.175 235.097 112.45 236.127 112.437C237.158 112.425 238.165 112.126 239.04 111.573L240.088 110.91C240.639 110.562 241.305 110.447 241.94 110.592C242.574 110.736 243.126 111.128 243.473 111.681V111.68Z" fill="#1F1926"/>
<path d="M248.27 111.414C249.578 111.058 250.351 109.705 249.997 108.392C249.642 107.079 248.294 106.303 246.986 106.659C245.678 107.014 244.905 108.367 245.259 109.68C245.614 110.994 246.962 111.77 248.27 111.414Z" fill="#1F1926"/>
<path d="M252.226 16.1335C252.763 16.0265 253.32 16.1372 253.775 16.4428C254.229 16.7477 254.545 17.2219 254.652 17.7607L254.855 18.7868C255.174 20.3919 255.044 22.0512 254.48 23.5845C253.913 25.1244 252.934 26.4708 251.648 27.4764C250.755 28.1741 250.068 29.1057 249.663 30.1692C249.459 30.7035 249.33 31.2627 249.281 31.83C249.229 32.4163 249.261 33.0107 249.377 33.5956C249.541 34.4202 249.859 35.1868 250.323 35.8736C250.772 36.5376 251.339 37.1019 252.008 37.5505C252.676 37.9991 253.412 38.3083 254.196 38.4711C255.006 38.6389 255.834 38.6404 256.655 38.4769C257.372 38.334 258.049 38.0701 258.666 37.6927C259.262 37.3284 259.79 36.8667 260.235 36.3206C260.677 35.7783 261.022 35.1707 261.262 34.5147C261.506 33.847 261.632 33.15 261.638 32.4412C261.643 31.8923 261.864 31.3668 262.254 30.982C262.644 30.5965 263.171 30.3824 263.718 30.3868C264.265 30.3912 264.789 30.6133 265.172 31.0054C265.555 31.3976 265.769 31.9253 265.765 32.475C265.755 33.6601 265.544 34.8262 265.137 35.941C264.738 37.0323 264.164 38.0423 263.43 38.9438C262.689 39.8526 261.808 40.6222 260.812 41.2313C259.781 41.8609 258.654 42.3014 257.462 42.5396C256.776 42.6766 256.077 42.744 255.384 42.7404C254.707 42.7367 254.027 42.6656 253.364 42.5278C252.714 42.393 252.073 42.1936 251.459 41.9349C250.852 41.6791 250.266 41.3625 249.718 40.9953C249.17 40.6273 248.654 40.2052 248.186 39.7398C247.713 39.27 247.284 38.7518 246.911 38.1999C246.531 37.6377 246.205 37.0345 245.943 36.4079C245.674 35.7658 245.469 35.0915 245.333 34.404C244.952 32.4845 245.118 30.5085 245.812 28.6879C246.487 26.9193 247.629 25.3707 249.116 24.2082C249.795 23.6769 250.312 22.9652 250.612 22.1502C250.912 21.3337 250.981 20.4505 250.812 19.5952L250.609 18.5691C250.502 18.0304 250.612 17.4711 250.917 17.0145C251.221 16.5579 251.693 16.2413 252.23 16.1335H252.226Z" fill="#1F1926"/>
<path d="M253.303 12.8863C253.754 11.8358 253.272 10.6171 252.225 10.1643C251.179 9.71142 249.965 10.1959 249.514 11.2464C249.062 12.2969 249.545 13.5155 250.592 13.9684C251.638 14.4212 252.852 13.9367 253.303 12.8863Z" fill="#1F1926"/>
<path d="M30.8486 92.6112C30.9873 93.0752 30.9362 93.575 30.7077 94.0016C30.4784 94.4282 30.0907 94.7455 29.6285 94.8848L28.748 95.1494C27.3709 95.5635 25.9092 95.5877 24.5212 95.2183C23.1274 94.8474 21.8686 94.0969 20.8815 93.0466C20.1966 92.3181 19.3248 91.7904 18.361 91.5221C17.877 91.3872 17.3775 91.3198 16.8767 91.3227C16.359 91.3257 15.8421 91.4041 15.3405 91.5551C14.633 91.7676 13.989 92.1121 13.4268 92.579C12.8835 93.0305 12.4367 93.5765 12.1008 94.2032C11.7642 94.8298 11.5547 95.5048 11.478 96.2084C11.3992 96.9362 11.4663 97.6655 11.6781 98.3757C11.8628 98.9958 12.1505 99.5697 12.5316 100.082C12.9003 100.577 13.3479 101.004 13.8619 101.351C14.373 101.695 14.933 101.949 15.5266 102.106C16.1305 102.265 16.7511 102.318 17.3717 102.264C17.8521 102.222 18.3296 102.373 18.6991 102.685C19.0685 102.997 19.2993 103.443 19.3416 103.925C19.3832 104.408 19.2321 104.887 18.9218 105.258C18.6115 105.629 18.1668 105.86 17.6864 105.903C16.6489 105.993 15.6113 105.904 14.6023 105.638C13.6144 105.378 12.6835 104.956 11.8343 104.384C10.9772 103.807 10.231 103.095 9.61618 102.268C8.9795 101.412 8.50053 100.456 8.19314 99.4245C8.01644 98.8323 7.89889 98.2218 7.84413 97.6098C7.79083 97.0125 7.79667 96.4078 7.86166 95.8127C7.92518 95.2285 8.04638 94.6466 8.22161 94.0844C8.39466 93.5281 8.62246 92.985 8.89845 92.4712C9.17444 91.9575 9.50082 91.4679 9.86881 91.0171C10.2404 90.5612 10.6581 90.1398 11.1093 89.7653C11.5693 89.3834 12.0694 89.0463 12.5951 88.7626C13.134 88.4724 13.7064 88.2349 14.2971 88.0575C15.9436 87.5621 17.6864 87.5438 19.3358 88.004C20.9384 88.4511 22.3885 89.3284 23.5282 90.5414C24.0495 91.0955 24.7147 91.4928 25.4529 91.6885C26.1918 91.8849 26.9701 91.8717 27.7039 91.6511L28.5837 91.3865C29.0459 91.2472 29.5446 91.2986 29.9688 91.5287C30.3937 91.7588 30.7099 92.148 30.8486 92.612V92.6112Z" fill="#1F1926"/>
<path d="M35.3173 93.0993C36.1636 92.5554 36.4104 91.4258 35.8685 90.5763C35.3267 89.7268 34.2014 89.479 33.3551 90.023C32.5088 90.5669 32.262 91.6965 32.8038 92.546C33.3457 93.3955 34.471 93.6433 35.3173 93.0993Z" fill="#1F1926"/>
<path d="M169.699 153.686C170.074 152.956 170.722 152.406 171.501 152.155C172.28 151.905 173.126 151.975 173.853 152.351L175.239 153.067C177.406 154.188 179.218 155.884 180.48 157.974C181.748 160.072 182.405 162.475 182.379 164.922C182.362 166.62 182.808 168.293 183.67 169.759C184.103 170.496 184.635 171.167 185.249 171.755C185.885 172.362 186.607 172.877 187.398 173.285C188.51 173.861 189.7 174.2 190.933 174.295C192.125 174.385 193.31 174.245 194.455 173.877C195.6 173.509 196.646 172.933 197.565 172.164C198.515 171.369 199.286 170.399 199.859 169.282C200.36 168.307 200.682 167.267 200.817 166.191C200.948 165.152 200.901 164.102 200.679 163.072C200.459 162.049 200.073 161.077 199.531 160.185C198.98 159.278 198.285 158.479 197.464 157.813C196.828 157.296 196.422 156.548 196.337 155.732C196.25 154.915 196.491 154.098 197.005 153.46C197.52 152.821 198.266 152.414 199.079 152.328C199.892 152.241 200.706 152.483 201.342 152.999C202.715 154.113 203.877 155.447 204.797 156.963C205.698 158.447 206.341 160.062 206.707 161.762C207.078 163.479 207.154 165.229 206.937 166.965C206.711 168.762 206.175 170.496 205.343 172.118C204.865 173.05 204.292 173.934 203.642 174.745C203.008 175.538 202.292 176.269 201.515 176.919C200.753 177.558 199.924 178.125 199.051 178.605C198.187 179.08 197.273 179.473 196.335 179.775C195.396 180.077 194.424 180.289 193.447 180.406C192.459 180.524 191.456 180.545 190.466 180.47C189.456 180.393 188.451 180.214 187.476 179.939C186.478 179.657 185.501 179.271 184.573 178.79C181.982 177.451 179.833 175.416 178.358 172.906C176.924 170.468 176.183 167.685 176.212 164.859C176.225 163.567 175.877 162.297 175.206 161.185C174.535 160.074 173.569 159.17 172.414 158.573L171.029 157.857C170.302 157.481 169.754 156.83 169.504 156.048C169.255 155.266 169.325 154.417 169.7 153.687L169.699 153.686Z" fill="#1F1926"/>
<path d="M165.16 153.789C166.782 153.268 167.676 151.525 167.157 149.897C166.637 148.268 164.901 147.371 163.279 147.892C161.657 148.413 160.763 150.156 161.282 151.784C161.801 153.413 163.537 154.31 165.16 153.789Z" fill="#1F1926"/>
<path d="M213.665 61.6424C212.959 61.7464 212.241 61.5654 211.669 61.1381C211.097 60.7108 210.717 60.0732 210.612 59.3644L210.415 58.0151C210.105 55.9043 210.382 53.7524 211.216 51.7933C212.054 49.8253 213.417 48.1374 215.158 46.9119C216.366 46.0617 217.32 44.8949 217.918 43.5368C218.218 42.8544 218.422 42.1354 218.524 41.3996C218.63 40.6388 218.626 39.8633 218.514 39.0938C218.355 38.0098 217.991 36.9903 217.43 36.0653C216.889 35.1711 216.188 34.3986 215.347 33.7712C214.506 33.1431 213.567 32.6916 212.558 32.4292C211.513 32.1573 210.437 32.1009 209.357 32.2599C208.413 32.3992 207.515 32.6982 206.687 33.1482C205.887 33.5836 205.169 34.1494 204.555 34.831C203.944 35.5075 203.454 36.2764 203.099 37.1149C202.739 37.968 202.528 38.868 202.474 39.7901C202.433 40.5047 202.11 41.1738 201.577 41.6495C201.044 42.1252 200.345 42.3692 199.633 42.3275C198.921 42.2857 198.254 41.9617 197.78 41.4267C197.306 40.8917 197.063 40.1895 197.104 39.4749C197.194 37.9321 197.545 36.4274 198.148 35.0026C198.738 33.6078 199.552 32.3303 200.567 31.2052C201.592 30.0699 202.788 29.1259 204.124 28.3996C205.508 27.6469 207.005 27.1485 208.572 26.9169C209.473 26.7835 210.388 26.7417 211.292 26.7923C212.173 26.8414 213.053 26.9792 213.908 27.2012C214.746 27.4197 215.567 27.7216 216.349 28.0984C217.123 28.4714 217.866 28.9222 218.556 29.4367C219.246 29.9512 219.889 30.5353 220.468 31.1715C221.053 31.815 221.578 32.5172 222.027 33.2604C222.486 34.0175 222.871 34.8237 223.172 35.6571C223.48 36.5102 223.703 37.4022 223.836 38.3066C224.206 40.8308 223.861 43.3931 222.838 45.718C221.844 47.9762 220.256 49.9177 218.245 51.333C217.326 51.9802 216.606 52.8721 216.162 53.9144C215.718 54.9573 215.571 56.1029 215.736 57.2279L215.934 58.5773C216.037 59.286 215.857 60.0065 215.431 60.5811C215.006 61.1557 214.37 61.5368 213.664 61.6416L213.665 61.6424Z" fill="#1F1926"/>
<path d="M216.885 68.1701C217.531 66.8272 216.97 65.213 215.632 64.5647C214.294 63.9163 212.686 64.4794 212.041 65.8223C211.395 67.1652 211.956 68.7795 213.293 69.4278C214.631 70.0761 216.239 69.513 216.885 68.1701Z" fill="#1F1926"/>
<path d="M151.082 223.436C150.832 222.693 150.886 221.88 151.232 221.176C151.579 220.473 152.19 219.937 152.931 219.686L154.341 219.207C156.547 218.458 158.913 218.337 161.181 218.855C163.459 219.376 165.539 220.521 167.195 222.164C168.345 223.306 169.786 224.11 171.362 224.49C172.154 224.681 172.966 224.761 173.776 224.728C174.614 224.694 175.446 224.538 176.251 224.265C177.384 223.88 178.407 223.287 179.291 222.499C180.146 221.737 180.837 220.827 181.347 219.793C181.857 218.76 182.157 217.655 182.242 216.511C182.33 215.328 182.179 214.151 181.796 213.014C181.462 212.021 180.964 211.107 180.318 210.299C179.694 209.518 178.945 208.852 178.093 208.321C177.246 207.792 176.325 207.414 175.355 207.194C174.368 206.97 173.36 206.919 172.359 207.042C171.583 207.137 170.802 206.919 170.185 206.435C169.57 205.951 169.171 205.243 169.076 204.463C168.981 203.684 169.198 202.9 169.68 202.282C170.162 201.664 170.868 201.263 171.644 201.167C173.318 200.962 175.004 201.047 176.652 201.421C178.266 201.787 179.798 202.417 181.205 203.295C182.625 204.181 183.873 205.292 184.916 206.596C185.995 207.946 186.825 209.467 187.381 211.119C187.701 212.068 187.925 213.05 188.047 214.038C188.167 215.002 188.192 215.981 188.121 216.949C188.05 217.899 187.887 218.847 187.636 219.768C187.387 220.679 187.048 221.57 186.63 222.418C186.213 223.265 185.712 224.077 185.142 224.828C184.565 225.587 183.913 226.293 183.204 226.925C182.48 227.569 181.69 228.144 180.854 228.633C179.998 229.133 179.084 229.55 178.139 229.87C175.501 230.765 172.68 230.894 169.983 230.243C167.363 229.61 164.966 228.272 163.052 226.372C162.177 225.504 161.077 224.9 159.871 224.623C158.664 224.347 157.404 224.412 156.228 224.811L154.818 225.29C154.078 225.541 153.268 225.487 152.567 225.139C151.866 224.791 151.333 224.178 151.082 223.434V223.436Z" fill="#1F1926"/>
<path d="M146.951 227.909C148.366 227.102 148.862 225.296 148.057 223.875C147.253 222.454 145.454 221.957 144.038 222.765C142.623 223.572 142.128 225.378 142.932 226.799C143.736 228.22 145.536 228.717 146.951 227.909Z" fill="#1F1926"/>
<path d="M180.372 75.7123C180.879 75.425 181.479 75.3517 182.039 75.5086C182.6 75.6654 183.076 76.0392 183.362 76.5478L183.906 77.5168C184.759 79.0332 185.177 80.7527 185.114 82.4904C185.051 84.2356 184.507 85.922 183.539 87.3674C182.867 88.3707 182.482 89.5405 182.424 90.7498C182.395 91.3582 182.45 91.9658 182.587 92.5558C182.729 93.1663 182.958 93.7556 183.269 94.3082C183.707 95.0873 184.282 95.755 184.979 96.2952C185.653 96.817 186.412 97.1982 187.237 97.4283C188.061 97.6584 188.907 97.7259 189.753 97.6291C190.627 97.5287 191.463 97.2546 192.239 96.8156C192.917 96.4315 193.514 95.9397 194.012 95.3534C194.494 94.7861 194.875 94.144 195.144 93.4441C195.411 92.7493 195.559 92.02 195.584 91.2768C195.61 90.5212 195.507 89.7743 195.278 89.056C195.101 88.4997 195.151 87.8951 195.418 87.3762C195.684 86.8565 196.146 86.4651 196.7 86.287C197.254 86.1089 197.856 86.1595 198.373 86.427C198.891 86.6945 199.281 87.1577 199.458 87.714C199.841 88.9153 200.013 90.1642 199.97 91.4263C199.929 92.6621 199.682 93.8743 199.238 95.0294C198.79 96.1955 198.154 97.2663 197.349 98.2133C196.515 99.1932 195.522 100.014 194.396 100.652C193.748 101.019 193.064 101.321 192.362 101.548C191.677 101.77 190.966 101.925 190.251 102.007C189.55 102.088 188.836 102.1 188.13 102.043C187.431 101.986 186.734 101.863 186.059 101.673C185.383 101.484 184.723 101.229 184.096 100.916C183.462 100.598 182.857 100.218 182.298 99.7847C181.728 99.3434 181.199 98.8429 180.727 98.2968C180.243 97.7376 179.812 97.1249 179.447 96.4755C178.427 94.663 177.941 92.61 178.04 90.5388C178.137 88.5269 178.779 86.5809 179.897 84.9113C180.408 84.1483 180.695 83.2564 180.728 82.3321C180.762 81.4072 180.539 80.4917 180.084 79.6833L179.539 78.7144C179.253 78.2057 179.18 77.6033 179.336 77.0404C179.493 76.4775 179.865 75.9996 180.372 75.713V75.7123Z" fill="#1F1926"/>
<path d="M180.338 72.4717C180.663 71.2995 179.98 70.0846 178.812 69.7582C177.645 69.4318 176.434 70.1175 176.109 71.2897C175.784 72.4619 176.467 73.6767 177.635 74.0031C178.803 74.3295 180.013 73.6439 180.338 72.4717Z" fill="#1F1926"/>
<path d="M42.6956 184.506C43.122 185 43.3352 185.644 43.2884 186.296C43.2417 186.947 42.9394 187.554 42.4473 187.981L41.5105 188.796C40.0444 190.071 38.2592 190.913 36.3485 191.23C34.4289 191.548 32.4663 191.323 30.6731 190.58C29.429 190.064 28.0658 189.9 26.7318 190.105C26.0616 190.207 25.4103 190.403 24.7955 190.684C24.161 190.976 23.5681 191.359 23.0337 191.824C22.2809 192.479 21.6785 193.261 21.2441 194.147C20.8243 195.003 20.5768 195.924 20.5081 196.882C20.4395 197.84 20.5541 198.786 20.8476 199.695C21.1514 200.635 21.6362 201.494 22.2889 202.25C22.8584 202.91 23.528 203.457 24.2793 203.876C25.0058 204.28 25.7914 204.557 26.6157 204.697C27.4342 204.836 28.2629 204.838 29.0799 204.7C29.9108 204.56 30.7038 204.281 31.4368 203.87C32.0049 203.551 32.6759 203.472 33.3023 203.65C33.9288 203.828 34.4589 204.249 34.7765 204.819C35.0941 205.389 35.1729 206.063 34.9955 206.692C34.8181 207.32 34.399 207.852 33.831 208.171C32.6043 208.859 31.2791 209.326 29.8911 209.559C28.5323 209.788 27.1538 209.786 25.7943 209.554C24.4217 209.321 23.1111 208.86 21.8983 208.184C20.6432 207.485 19.5261 206.574 18.5791 205.476C18.0352 204.845 17.554 204.16 17.1495 203.438C16.7545 202.733 16.4281 201.986 16.1799 201.217C15.936 200.463 15.7644 199.68 15.6695 198.891C15.576 198.11 15.5571 197.316 15.6126 196.53C15.6688 195.744 15.8002 194.962 16.0039 194.202C16.2098 193.434 16.4909 192.684 16.8399 191.972C17.1955 191.246 17.6241 190.554 18.1155 189.913C18.6185 189.256 19.1917 188.646 19.8203 188.099C21.5734 186.575 23.7069 185.584 25.99 185.234C28.2082 184.893 30.476 185.167 32.5474 186.025C33.4944 186.418 34.5319 186.536 35.5482 186.367C36.5653 186.199 37.516 185.75 38.2972 185.071L39.234 184.256C39.7261 183.828 40.3671 183.614 41.0162 183.661C41.6653 183.708 42.2699 184.011 42.6956 184.505V184.506Z" fill="#1F1926"/>
<path d="M48.0244 183.13C49.0463 182.236 49.1531 180.68 48.2628 179.655C47.3726 178.629 45.8225 178.521 44.8006 179.415C43.7786 180.309 43.6719 181.865 44.5621 182.891C45.4523 183.916 47.0024 184.024 48.0244 183.13Z" fill="#1F1926"/>
<path d="M123.037 63.5877C123.392 64.026 123.558 64.5882 123.5 65.1503C123.442 65.7125 123.164 66.2277 122.727 66.5839L121.895 67.2619C120.593 68.3232 119.028 69.0004 117.368 69.2218C115.7 69.4438 114.01 69.1954 112.481 68.5035C111.421 68.0234 110.247 67.8431 109.089 67.9838C108.507 68.0542 107.939 68.2052 107.4 68.4317C106.844 68.6662 106.321 68.9806 105.847 69.3676C105.178 69.9129 104.636 70.5711 104.237 71.3253C103.851 72.0545 103.611 72.8424 103.526 73.6684C103.44 74.4945 103.513 75.3153 103.742 76.1084C103.978 76.9285 104.374 77.6849 104.917 78.3563C105.39 78.9426 105.954 79.4337 106.592 79.8155C107.208 80.1849 107.88 80.4459 108.588 80.5902C109.291 80.7332 110.008 80.7573 110.717 80.6613C111.439 80.5639 112.132 80.344 112.777 80.009C113.277 79.7496 113.859 79.6997 114.395 79.8712C114.931 80.0427 115.378 80.4202 115.636 80.9223C115.895 81.4243 115.945 82.0085 115.774 82.5464C115.603 83.0844 115.227 83.533 114.727 83.7924C113.648 84.3524 112.49 84.7196 111.284 84.883C110.104 85.0428 108.913 85.0032 107.744 84.765C106.565 84.5246 105.445 84.09 104.416 83.4729C103.35 82.8337 102.41 82.0158 101.622 81.041C101.169 80.481 100.772 79.8749 100.443 79.2402C100.121 78.6201 99.8596 77.9656 99.6661 77.2943C99.4763 76.6353 99.3492 75.9545 99.2886 75.2699C99.2287 74.5927 99.2346 73.9059 99.3047 73.2287C99.3748 72.5515 99.5098 71.8786 99.707 71.2278C99.9056 70.5704 100.169 69.9298 100.49 69.3244C100.818 68.7072 101.207 68.1209 101.649 67.58C102.102 67.0266 102.614 66.515 103.172 66.0606C104.729 64.7919 106.599 63.9952 108.582 63.7548C110.508 63.5218 112.46 63.8215 114.226 64.6204C115.033 64.9862 115.926 65.1166 116.809 64.9993C117.692 64.8813 118.526 64.5207 119.22 63.9549L120.052 63.277C120.488 62.9208 121.048 62.7537 121.608 62.8123C122.168 62.8709 122.681 63.1494 123.036 63.5885L123.037 63.5877Z" fill="#1F1926"/>
<path d="M128.398 61.4313C128.686 60.291 127.998 59.1326 126.862 58.844C125.726 58.5555 124.572 59.246 124.284 60.3864C123.997 61.5267 124.685 62.6851 125.821 62.9737C126.957 63.2622 128.111 62.5717 128.398 61.4313Z" fill="#1F1926"/>
<path d="M85.9301 44.174C85.3 44.1447 84.7078 43.8654 84.2829 43.3978C83.858 42.9302 83.636 42.3123 83.6652 41.6798L83.7207 40.4756C83.8076 38.592 84.4107 36.7721 85.4643 35.2139C86.523 33.6484 87.9898 32.4156 89.7064 31.6482C90.898 31.1154 91.9223 30.2652 92.6693 29.1885C93.0446 28.6476 93.3432 28.0583 93.5557 27.4368C93.7754 26.7947 93.9032 26.1212 93.9353 25.4344C93.9799 24.467 93.8353 23.5207 93.5053 22.6236C93.1862 21.7558 92.708 20.9672 92.0837 20.2797C91.4594 19.5922 90.7213 19.0411 89.8904 18.6416C89.0303 18.229 88.1059 17.9966 87.1421 17.9519C86.3003 17.9124 85.4708 18.0194 84.6772 18.27C83.9098 18.5119 83.1914 18.8813 82.5437 19.368C81.8997 19.8517 81.3456 20.4351 80.8965 21.1021C80.4395 21.7808 80.1058 22.5262 79.9035 23.317C79.7473 23.9305 79.3545 24.456 78.812 24.7785C78.2695 25.1009 77.6219 25.194 77.0107 25.0364C76.3996 24.8796 75.8761 24.4853 75.5548 23.9407C75.2336 23.3961 75.1409 22.746 75.2978 22.1326C75.6352 20.8096 76.1937 19.5637 76.9567 18.4298C77.7036 17.3202 78.6251 16.3498 79.6947 15.5465C80.7746 14.7358 81.972 14.1194 83.2534 13.7163C84.5801 13.2986 85.963 13.1197 87.3626 13.185C88.1672 13.2223 88.9675 13.3411 89.7421 13.5382C90.4986 13.7303 91.2389 13.9992 91.9428 14.3371C92.6335 14.6684 93.295 15.0701 93.9098 15.5303C94.5187 15.9855 95.0868 16.5022 95.5986 17.0658C96.1104 17.6295 96.5704 18.2451 96.9654 18.896C97.3648 19.5534 97.7014 20.2519 97.9664 20.9731C98.2366 21.7075 98.4344 22.4727 98.5549 23.2466C98.6783 24.0389 98.7221 24.8503 98.6849 25.658C98.5805 27.9103 97.8496 30.0753 96.5711 31.9179C95.3284 33.7085 93.6236 35.123 91.6405 36.0099C90.7344 36.4152 89.959 37.0675 89.3983 37.8957C88.8375 38.7254 88.5162 39.6943 88.4702 40.6984L88.4148 41.9026C88.3856 42.5352 88.1074 43.1296 87.6415 43.5561C87.1757 43.9827 86.5602 44.2055 85.9301 44.1762V44.174Z" fill="#1F1926"/>
<path d="M87.2628 50.7516C88.2571 49.8909 88.3682 48.384 87.5108 47.3859C86.6534 46.3877 85.1522 46.2762 84.1579 47.1369C83.1635 47.9976 83.0525 49.5045 83.9099 50.5026C84.7673 51.5008 86.2684 51.6122 87.2628 50.7516Z" fill="#1F1926"/>
<path d="M165.213 274.419C164.953 275.302 164.354 276.045 163.549 276.484C162.742 276.924 161.796 277.024 160.916 276.763L159.241 276.265C156.621 275.487 154.271 274 152.445 271.964C150.61 269.919 149.385 267.411 148.902 264.711C148.567 262.837 147.726 261.088 146.471 259.655C145.84 258.934 145.115 258.307 144.314 257.789C143.488 257.254 142.585 256.839 141.63 256.555C140.284 256.156 138.903 256.032 137.525 256.187C136.193 256.338 134.917 256.742 133.733 257.388C132.548 258.034 131.516 258.889 130.665 259.929C129.785 261.004 129.137 262.235 128.739 263.586C128.392 264.766 128.254 265.979 128.33 267.192C128.403 268.365 128.673 269.511 129.133 270.599C129.589 271.68 130.218 272.668 131 273.537C131.796 274.421 132.729 275.153 133.772 275.715C134.58 276.15 135.183 276.889 135.448 277.771C135.713 278.652 135.619 279.603 135.186 280.414C134.753 281.226 134.016 281.831 133.138 282.097C132.26 282.363 131.312 282.269 130.504 281.833C128.76 280.895 127.201 279.671 125.871 278.194C124.569 276.75 123.525 275.106 122.766 273.31C122 271.498 121.55 269.586 121.428 267.628C121.301 265.601 121.53 263.579 122.108 261.618C122.44 260.49 122.886 259.396 123.433 258.366C123.966 257.361 124.601 256.404 125.321 255.524C126.028 254.661 126.823 253.862 127.683 253.149C128.535 252.445 129.46 251.819 130.431 251.289C131.402 250.759 132.428 250.322 133.481 249.988C134.545 249.65 135.645 249.415 136.751 249.29C137.878 249.162 139.023 249.148 140.154 249.245C141.312 249.346 142.469 249.565 143.592 249.899C146.725 250.83 149.517 252.618 151.666 255.072C153.753 257.455 155.151 260.365 155.709 263.485C155.964 264.911 156.612 266.237 157.583 267.318C158.555 268.402 159.807 269.194 161.204 269.609L162.879 270.107C163.758 270.367 164.498 270.969 164.936 271.778C165.375 272.587 165.474 273.537 165.214 274.42L165.213 274.419Z" fill="#1F1926"/>
<path d="M174.29 278.843C175.641 277.488 175.641 275.29 174.29 273.934C172.94 272.579 170.751 272.579 169.4 273.934C168.05 275.29 168.05 277.488 169.4 278.843C170.751 280.199 172.94 280.199 174.29 278.843Z" fill="#1F1926"/>
<path d="M69.9573 275.39C69.9047 274.843 70.0705 274.298 70.418 273.874C70.7656 273.449 71.2672 273.182 71.8119 273.128L72.8487 273.027C74.4718 272.869 76.1029 273.164 77.5668 273.879C79.0373 274.598 80.2734 275.71 81.1423 277.096C81.7454 278.058 82.5997 278.836 83.6138 279.347C84.1235 279.604 84.6645 279.788 85.2223 279.895C85.7984 280.005 86.3905 280.032 86.9827 279.974C87.8165 279.892 88.608 279.651 89.3352 279.255C90.0383 278.873 90.6538 278.363 91.1656 277.74C91.6767 277.117 92.0571 276.412 92.2959 275.646C92.5427 274.853 92.6274 274.027 92.5463 273.19C92.4755 272.46 92.282 271.758 91.9695 271.104C91.668 270.472 91.2627 269.898 90.7662 269.4C90.2727 268.904 89.7054 268.499 89.0789 268.194C88.4415 267.884 87.7625 267.688 87.0608 267.612C86.5168 267.553 86.0182 267.279 85.6757 266.851C85.3326 266.423 85.1727 265.877 85.2318 265.331C85.2909 264.784 85.5633 264.284 85.9897 263.94C86.4161 263.596 86.9608 263.435 87.5047 263.495C88.6788 263.622 89.8134 263.949 90.878 264.467C91.9199 264.974 92.8639 265.649 93.6839 266.472C94.5111 267.302 95.1865 268.259 95.6903 269.314C96.2123 270.407 96.5358 271.577 96.6533 272.791C96.7205 273.49 96.7183 274.195 96.6453 274.886C96.5745 275.562 96.4358 276.234 96.2335 276.882C96.0349 277.518 95.7735 278.139 95.4559 278.726C95.142 279.308 94.7696 279.861 94.3505 280.372C93.9314 280.883 93.4612 281.356 92.9537 281.777C92.4404 282.203 91.8841 282.58 91.3007 282.897C90.7056 283.221 90.0755 283.487 89.4286 283.686C88.7657 283.891 88.0771 284.029 87.3813 284.096C85.4413 284.286 83.4984 283.923 81.7629 283.048C80.077 282.198 78.6554 280.903 77.6515 279.302C77.193 278.571 76.5388 277.983 75.7604 277.603C74.9814 277.222 74.1125 277.065 73.2473 277.149L72.2105 277.25C71.6658 277.303 71.1226 277.137 70.6999 276.788C70.2771 276.439 70.0106 275.935 69.9573 275.389V275.39Z" fill="#1F1926"/>
<path d="M67.7918 276.504C68.1761 275.427 67.618 274.241 66.5452 273.855C65.4724 273.47 64.2912 274.03 63.9068 275.107C63.5225 276.184 64.0806 277.369 65.1534 277.755C66.2262 278.141 67.4075 277.581 67.7918 276.504Z" fill="#1F1926"/>
<path d="M174.229 19.911C174.328 20.5567 174.167 21.2156 173.782 21.7426C173.398 22.2696 172.819 22.6214 172.176 22.7203L170.951 22.9094C169.034 23.2048 167.077 22.9637 165.29 22.2109C163.496 21.4546 161.954 20.2159 160.83 18.6284C160.051 17.5268 158.984 16.659 157.746 16.1196C157.124 15.8484 156.469 15.6659 155.8 15.5757C155.108 15.4834 154.403 15.4907 153.704 15.5984C152.719 15.7502 151.796 16.0902 150.958 16.6084C150.148 17.1097 149.45 17.7562 148.884 18.5309C148.318 19.3056 147.913 20.1675 147.68 21.0932C147.439 22.0512 147.394 23.0377 147.545 24.0264C147.677 24.8898 147.954 25.7107 148.368 26.4663C148.768 27.1971 149.287 27.8508 149.91 28.4101C150.528 28.9656 151.23 29.4098 151.994 29.7301C152.772 30.0555 153.591 30.2431 154.43 30.2871C155.08 30.3208 155.69 30.6125 156.126 31.0985C156.562 31.5837 156.788 32.2235 156.754 32.8758C156.72 33.5281 156.43 34.1408 155.946 34.5784C155.462 35.016 154.825 35.2424 154.175 35.2087C152.773 35.1354 151.403 34.8225 150.104 34.2786C148.833 33.7458 147.667 33.0077 146.639 32.085C145.601 31.1534 144.736 30.0628 144.068 28.8425C143.376 27.5797 142.914 26.2113 142.695 24.7762C142.568 23.9516 142.525 23.1139 142.565 22.2864C142.605 21.4787 142.725 20.6718 142.922 19.8883C143.116 19.1194 143.385 18.3653 143.724 17.6463C144.059 16.9353 144.464 16.253 144.928 15.6175C145.392 14.9828 145.919 14.3898 146.494 13.8555C147.075 13.3161 147.711 12.8309 148.384 12.4153C149.069 11.991 149.8 11.634 150.556 11.3533C151.33 11.066 152.139 10.8564 152.96 10.7296C155.252 10.3763 157.584 10.6775 159.703 11.601C161.761 12.4981 163.536 13.942 164.834 15.7758C165.427 16.6143 166.243 17.2688 167.192 17.669C168.143 18.0699 169.185 18.1981 170.207 18.0406L171.432 17.8515C172.075 17.7525 172.732 17.9138 173.257 18.3C173.782 18.6863 174.132 19.2668 174.231 19.9125L174.229 19.911Z" fill="#1F1926"/>
<path d="M179.413 21.5873C180.756 21.4025 181.695 20.1599 181.511 18.8121C181.327 17.4642 180.089 16.5214 178.746 16.7063C177.403 16.8911 176.464 18.1337 176.648 19.4815C176.833 20.8294 178.07 21.7722 179.413 21.5873Z" fill="#1F1926"/>
<path d="M174.229 19.911C174.328 20.5567 174.167 21.2156 173.782 21.7426C173.398 22.2696 172.819 22.6214 172.176 22.7203L170.951 22.9094C169.034 23.2048 167.077 22.9637 165.29 22.2109C163.496 21.4546 161.954 20.2159 160.83 18.6284C160.051 17.5268 158.984 16.659 157.746 16.1196C157.124 15.8484 156.469 15.6659 155.8 15.5757C155.108 15.4834 154.403 15.4907 153.704 15.5984C152.719 15.7502 151.796 16.0902 150.958 16.6084C150.148 17.1097 149.45 17.7562 148.884 18.5309C148.318 19.3056 147.913 20.1675 147.68 21.0932C147.439 22.0512 147.394 23.0377 147.545 24.0264C147.677 24.8898 147.954 25.7107 148.368 26.4663C148.768 27.1971 149.287 27.8508 149.91 28.4101C150.528 28.9656 151.23 29.4098 151.994 29.7301C152.772 30.0555 153.591 30.2431 154.43 30.2871C155.08 30.3208 155.69 30.6125 156.126 31.0985C156.562 31.5837 156.788 32.2235 156.754 32.8758C156.72 33.5281 156.43 34.1408 155.946 34.5784C155.462 35.016 154.825 35.2424 154.175 35.2087C152.773 35.1354 151.403 34.8225 150.104 34.2786C148.833 33.7458 147.667 33.0077 146.639 32.085C145.601 31.1534 144.736 30.0628 144.068 28.8425C143.376 27.5797 142.914 26.2113 142.695 24.7762C142.568 23.9516 142.525 23.1139 142.565 22.2864C142.605 21.4787 142.725 20.6718 142.922 19.8883C143.116 19.1194 143.385 18.3653 143.724 17.6463C144.059 16.9353 144.464 16.253 144.928 15.6175C145.392 14.9828 145.919 14.3898 146.494 13.8555C147.075 13.3161 147.711 12.8309 148.384 12.4153C149.069 11.991 149.8 11.634 150.556 11.3533C151.33 11.066 152.139 10.8564 152.96 10.7296C155.252 10.3763 157.584 10.6775 159.703 11.601C161.761 12.4981 163.536 13.942 164.834 15.7758C165.427 16.6143 166.243 17.2688 167.192 17.669C168.143 18.0699 169.185 18.1981 170.207 18.0406L171.432 17.8515C172.075 17.7525 172.732 17.9138 173.257 18.3C173.782 18.6863 174.132 19.2668 174.231 19.9125L174.229 19.911Z" fill="#1F1926"/>
<path d="M179.413 21.5873C180.756 21.4025 181.695 20.1599 181.511 18.8121C181.327 17.4642 180.089 16.5214 178.746 16.7063C177.403 16.8911 176.464 18.1337 176.648 19.4815C176.833 20.8294 178.07 21.7722 179.413 21.5873Z" fill="#1F1926"/>
<path d="M81.8035 133.297C81.4063 133.984 80.7543 134.484 79.9898 134.687C79.2254 134.891 78.412 134.781 77.7278 134.383L76.4253 133.624C74.3875 132.436 72.7191 130.71 71.602 128.631C70.4798 126.543 69.9614 124.191 70.1045 121.83C70.2038 120.191 69.854 118.554 69.0925 117.096C68.7099 116.363 68.2295 115.69 67.6643 115.092C67.0802 114.475 66.4078 113.943 65.6645 113.51C64.6175 112.9 63.4858 112.514 62.2993 112.363C61.1522 112.217 60.0015 112.295 58.8779 112.594C57.7542 112.893 56.7167 113.399 55.7923 114.096C54.8373 114.818 54.0444 115.716 53.4369 116.767C52.9061 117.685 52.5447 118.673 52.3621 119.705C52.1862 120.702 52.1796 121.718 52.3446 122.724C52.5081 123.723 52.8338 124.679 53.3135 125.567C53.8012 126.47 54.4342 127.274 55.1943 127.958C55.7835 128.488 56.1391 129.231 56.1822 130.024C56.226 130.816 55.9537 131.594 55.4258 132.185C54.8979 132.777 54.1583 133.134 53.3682 133.177C52.579 133.221 51.8043 132.947 51.2151 132.417C49.9439 131.275 48.8859 129.93 48.0711 128.422C47.2731 126.945 46.7313 125.354 46.4597 123.694C46.1859 122.019 46.1961 120.325 46.4903 118.66C46.7948 116.936 47.3972 115.288 48.2792 113.762C48.7859 112.886 49.3817 112.06 50.0483 111.308C50.6989 110.575 51.4254 109.903 52.2073 109.313C52.9747 108.734 53.8027 108.227 54.6686 107.806C55.5258 107.39 56.4268 107.054 57.3482 106.809C58.2697 106.563 59.2181 106.406 60.168 106.341C61.1274 106.275 62.097 106.304 63.0499 106.425C64.0202 106.549 64.9825 106.77 65.9106 107.083C66.8605 107.404 67.7855 107.825 68.6588 108.333C71.0953 109.753 73.0717 111.823 74.3743 114.318C75.6396 116.742 76.2216 119.465 76.0566 122.193C75.9813 123.44 76.2551 124.684 76.8495 125.789C77.4445 126.896 78.3324 127.815 79.4188 128.448L80.7214 129.207C81.4055 129.606 81.9035 130.26 82.1065 131.028C82.3095 131.795 82.1999 132.612 81.8035 133.298V133.297Z" fill="#1F1926"/>
<path d="M87.7197 139.202C89.3115 138.778 90.2595 137.139 89.8371 135.541C89.4148 133.944 87.782 132.992 86.1903 133.416C84.5985 133.84 83.6505 135.479 84.0728 137.077C84.4952 138.675 86.1279 139.626 87.7197 139.202Z" fill="#1F1926"/>
<path d="M134.577 163.264C135.268 163.552 135.816 164.104 136.101 164.798C136.386 165.493 136.384 166.272 136.098 166.965L135.55 168.285C134.693 170.35 133.287 172.134 131.484 173.444C129.672 174.76 127.54 175.539 125.316 175.696C123.772 175.806 122.287 176.338 121.019 177.236C120.383 177.686 119.813 178.222 119.325 178.828C118.821 179.455 118.407 180.154 118.095 180.907C117.654 181.968 117.434 183.081 117.44 184.217C117.446 185.314 117.662 186.388 118.081 187.409C118.5 188.429 119.101 189.344 119.867 190.126C120.659 190.936 121.596 191.571 122.654 192.013C123.576 192.398 124.545 192.616 125.531 192.66C126.485 192.703 127.434 192.582 128.353 192.302C129.266 192.025 130.119 191.599 130.889 191.037C131.672 190.466 132.345 189.771 132.889 188.97C133.311 188.35 133.96 187.924 134.695 187.785C135.43 187.645 136.19 187.805 136.808 188.228C137.426 188.652 137.851 189.304 137.989 190.041C138.128 190.779 137.969 191.542 137.547 192.162C136.637 193.501 135.512 194.663 134.204 195.617C132.923 196.551 131.504 197.259 129.987 197.72C128.456 198.186 126.872 198.386 125.28 198.315C123.631 198.242 122.018 197.88 120.484 197.239C119.602 196.87 118.757 196.412 117.972 195.878C117.206 195.356 116.489 194.755 115.841 194.092C115.205 193.442 114.628 192.725 114.128 191.962C113.633 191.207 113.207 190.4 112.864 189.563C112.521 188.727 112.256 187.853 112.077 186.967C111.897 186.072 111.804 185.156 111.799 184.245C111.793 183.316 111.881 182.382 112.058 181.47C112.24 180.537 112.518 179.614 112.886 178.729C113.91 176.259 115.598 174.142 117.767 172.606C119.875 171.115 122.347 170.229 124.915 170.046C126.09 169.963 127.217 169.551 128.176 168.854C129.136 168.157 129.885 167.206 130.341 166.106L130.889 164.786C131.176 164.093 131.726 163.543 132.418 163.256C133.109 162.971 133.886 162.972 134.576 163.26L134.577 163.264Z" fill="#1F1926"/>
<path d="M137.814 160.667C139.255 160.071 139.941 158.416 139.348 156.971C138.754 155.525 137.106 154.836 135.666 155.431C134.225 156.027 133.539 157.682 134.132 159.128C134.725 160.573 136.374 161.263 137.814 160.667Z" fill="#1F1926"/>
<path d="M29.0122 252.349C29.6678 252.777 30.1278 253.447 30.2906 254.215C30.4535 254.983 30.306 255.784 29.8803 256.442L29.0699 257.695C27.8016 259.657 26.0223 261.225 23.9224 262.231C21.8137 263.241 19.4751 263.639 17.1591 263.381C15.5521 263.202 13.9253 263.469 12.4541 264.151C11.7152 264.494 11.0281 264.937 10.4134 265.468C9.77742 266.017 9.22106 266.658 8.75888 267.372C8.1076 268.38 7.67243 269.483 7.46581 270.651C7.26575 271.78 7.28619 272.925 7.52495 274.053C7.76443 275.181 8.21055 276.235 8.85088 277.184C9.51384 278.166 10.3586 278.996 11.3618 279.65C12.238 280.221 13.1923 280.627 14.1984 280.859C15.171 281.082 16.169 281.138 17.1664 281.025C18.1572 280.912 19.1137 280.635 20.0103 280.204C20.9222 279.765 21.7444 279.177 22.4541 278.457C23.0039 277.899 23.7515 277.583 24.5335 277.579C25.3155 277.575 26.0668 277.882 26.6224 278.434C27.1781 278.986 27.4928 279.737 27.4971 280.522C27.5015 281.307 27.1949 282.061 26.6451 282.619C25.4586 283.822 24.0845 284.805 22.5607 285.539C21.069 286.257 19.478 286.716 17.8323 286.904C16.1712 287.093 14.5058 287 12.882 286.626C11.2012 286.24 9.61022 285.562 8.15287 284.613C7.3154 284.068 6.53269 283.437 5.82665 282.74C5.13667 282.059 4.5124 281.305 3.9699 280.502C3.43763 279.713 2.97984 278.868 2.6082 277.989C2.24094 277.119 1.95472 276.209 1.75905 275.284C1.56264 274.359 1.45458 273.412 1.43706 272.467C1.41953 271.513 1.49474 270.553 1.66048 269.615C1.82987 268.659 2.09418 267.716 2.4483 266.812C2.81045 265.887 3.2697 264.991 3.81292 264.15C5.32869 261.805 7.46142 259.948 9.97894 258.779C12.4249 257.644 15.1323 257.201 17.8067 257.498C19.0297 257.635 20.2659 257.423 21.3822 256.888C22.4993 256.353 23.4478 255.518 24.1232 254.473L24.9336 253.219C25.3593 252.561 26.0281 252.099 26.7926 251.936C27.557 251.773 28.3551 251.921 29.0107 252.348L29.0122 252.349Z" fill="#1F1926"/>
<path d="M33.6508 249.972C35.073 249.177 35.5836 247.375 34.7914 245.947C33.9992 244.52 32.2042 244.007 30.782 244.802C29.3599 245.598 28.8492 247.399 29.6414 248.827C30.4336 250.255 32.2287 250.767 33.6508 249.972Z" fill="#1F1926"/>
<path d="M10.9631 159.906C10.4249 159.935 9.89705 159.749 9.49548 159.388C9.0939 159.027 8.8515 158.521 8.82229 157.98L8.76607 156.951C8.67772 155.341 9.03403 153.742 9.7963 152.325C10.5615 150.902 11.7034 149.726 13.0972 148.924C14.0647 148.368 14.8627 147.556 15.4059 146.575C15.679 146.083 15.882 145.556 16.009 145.009C16.1412 144.444 16.1916 143.86 16.1594 143.273C16.1142 142.447 15.9097 141.654 15.552 140.92C15.2059 140.21 14.7313 139.58 14.1413 139.05C13.5514 138.519 12.876 138.114 12.1349 137.847C11.3683 137.571 10.5615 137.453 9.73788 137.499C9.0187 137.538 8.32215 137.701 7.66867 137.983C7.03637 138.255 6.45737 138.632 5.94847 139.102C5.44248 139.569 5.02119 140.114 4.69701 140.72C4.36699 141.337 4.14722 142 4.04354 142.69C3.96322 143.225 3.67482 143.706 3.24112 144.028C2.80741 144.349 2.26419 144.484 1.73119 144.404C1.19819 144.323 0.71922 144.034 0.398689 143.598C0.078889 143.163 -0.0561865 142.617 0.0241287 142.082C0.197171 140.928 0.565161 139.82 1.11642 138.789C1.65599 137.781 2.35619 136.876 3.19731 136.1C4.04573 135.316 5.01097 134.689 6.06675 134.234C7.15977 133.764 8.31996 133.492 9.51592 133.426C10.203 133.388 10.8944 133.419 11.5705 133.52C12.2306 133.618 12.8833 133.782 13.5105 134.008C14.126 134.231 14.724 134.515 15.2862 134.853C15.8433 135.187 16.3705 135.578 16.8545 136.012C17.3386 136.448 17.7825 136.931 18.1746 137.45C18.5711 137.975 18.9172 138.54 19.2049 139.13C19.4976 139.731 19.732 140.365 19.9014 141.012C20.0744 141.676 20.1818 142.362 20.2197 143.052C20.3249 144.977 19.8897 146.882 18.9603 148.56C18.0578 150.191 16.729 151.542 15.119 152.468C14.383 152.891 13.7799 153.513 13.3747 154.267C12.9687 155.021 12.7796 155.873 12.8264 156.731L12.8826 157.76C12.9118 158.3 12.7263 158.83 12.3671 159.233C12.0072 159.636 11.5034 159.879 10.9645 159.909L10.9631 159.906Z" fill="#1F1926"/>
<path d="M11.8592 165.904C12.9203 165.536 13.4833 164.374 13.1167 163.309C12.7501 162.244 11.5927 161.679 10.5316 162.047C9.47053 162.415 8.90754 163.576 9.27414 164.641C9.64075 165.707 10.7981 166.272 11.8592 165.904Z" fill="#1F1926"/>
<path d="M13.5608 21.6675C14.1639 20.9742 15.0174 20.5498 15.9323 20.4883C16.8471 20.4267 17.7496 20.7316 18.4396 21.3377L19.7546 22.4914C21.8121 24.2966 23.33 26.6324 24.1434 29.2475C24.9604 31.8743 25.0313 34.6668 24.3478 37.3229C23.8733 39.1663 23.9105 41.1078 24.4552 42.9357C24.729 43.8548 25.1269 44.7292 25.6387 45.5347C26.1674 46.3673 26.8157 47.1229 27.5663 47.7804C28.6235 48.7075 29.8268 49.3987 31.144 49.8341C32.4173 50.2548 33.7447 50.4226 35.0896 50.3317C36.4346 50.2408 37.7276 49.8964 38.9331 49.3071C40.1794 48.698 41.2805 47.8515 42.2041 46.7902C43.0102 45.8638 43.6403 44.8193 44.0754 43.6848C44.496 42.5883 44.7267 41.4339 44.7618 40.2525C44.7961 39.079 44.6362 37.9173 44.2857 36.8004C43.9294 35.6636 43.3869 34.6074 42.6721 33.6612C42.1187 32.9276 41.8777 32.0026 42.0033 31.0908C42.1289 30.1791 42.6101 29.3545 43.3409 28.7982C44.0718 28.2427 44.9932 28.0008 45.9015 28.1269C46.8098 28.2529 47.6312 28.7359 48.1854 29.4696C49.3806 31.0535 50.2882 32.8183 50.8833 34.7174C51.4659 36.5761 51.7324 38.5066 51.6747 40.4569C51.617 42.4249 51.2315 44.351 50.5291 46.1811C49.8019 48.0758 48.7534 49.8179 47.4122 51.3585C46.6419 52.2439 45.7818 53.0516 44.8574 53.7589C43.9542 54.4493 42.9795 55.0518 41.9595 55.5502C40.9585 56.039 39.9042 56.4326 38.8258 56.7185C37.7583 57.0021 36.658 57.1839 35.5555 57.2579C34.453 57.3327 33.338 57.3004 32.2428 57.1634C31.1359 57.0248 30.0385 56.7771 28.9813 56.4275C27.9036 56.0713 26.8566 55.6051 25.8702 55.0423C24.8597 54.4662 23.8995 53.7816 23.0175 53.0076C20.557 50.8499 18.7638 48.0545 17.8314 44.9249C16.9253 41.884 16.8639 38.6547 17.6539 35.5859C18.0146 34.1831 17.9774 32.7069 17.5444 31.3166C17.1115 29.9247 16.3032 28.681 15.2065 27.7186L13.8915 26.565C13.2008 25.9596 12.7781 25.1028 12.7168 24.1844C12.6554 23.2661 12.9592 22.3602 13.563 21.6675H13.5608Z" fill="#1F1926"/>
<path d="M9.62747 20.3263C11.4028 19.6196 12.2712 17.6021 11.5673 15.8201C10.8633 14.038 8.85349 13.1662 7.07821 13.8728C5.30292 14.5795 4.43444 16.597 5.1384 18.3791C5.84236 20.1611 7.85219 21.033 9.62747 20.3263Z" fill="#1F1926"/>
<path d="M283.459 65.1797C283.243 64.2848 283.39 63.3408 283.867 62.5551C284.345 61.7694 285.114 61.2057 286.005 60.9888L287.703 60.5754C290.358 59.929 293.135 60.0316 295.732 60.873C298.341 61.7181 300.654 63.2704 302.422 65.3637C303.648 66.8163 305.249 67.9055 307.051 68.5131C307.958 68.8187 308.899 68.9961 309.849 69.0415C310.831 69.0877 311.821 68.9924 312.789 68.7564C314.153 68.4244 315.409 67.8358 316.524 67.0069C317.6 66.2058 318.502 65.2134 319.204 64.0583C319.906 62.9032 320.371 61.644 320.587 60.316C320.811 58.9425 320.757 57.5521 320.426 56.1822C320.137 54.9868 319.65 53.8676 318.978 52.8569C318.329 51.8799 317.522 51.0239 316.58 50.3144C315.645 49.6093 314.608 49.0706 313.496 48.7137C312.366 48.3501 311.193 48.186 310.011 48.2263C309.094 48.2571 308.203 47.9214 307.533 47.2925C306.864 46.6637 306.47 45.7937 306.44 44.8739C306.409 43.954 306.743 43.0591 307.37 42.387C307.996 41.7149 308.863 41.3199 309.779 41.2891C311.757 41.2224 313.718 41.4965 315.606 42.1041C317.454 42.6985 319.179 43.5934 320.733 44.7654C322.302 45.9476 323.647 47.3746 324.731 49.0068C325.853 50.6963 326.666 52.5608 327.146 54.5485C327.422 55.6912 327.584 56.8617 327.626 58.0278C327.667 59.166 327.595 60.3138 327.412 61.4373C327.232 62.5404 326.944 63.6317 326.556 64.6813C326.171 65.7199 325.684 66.7269 325.108 67.6738C324.533 68.6208 323.864 69.5164 323.121 70.3359C322.37 71.1633 321.535 71.9204 320.641 72.5859C319.73 73.2639 318.746 73.8539 317.719 74.3384C316.667 74.8346 315.557 75.2274 314.419 75.5045C311.243 76.2777 307.934 76.1355 304.849 75.0955C301.852 74.0848 299.189 72.2723 297.147 69.8551C296.214 68.7498 294.99 67.9296 293.61 67.4826C292.227 67.0347 290.748 66.9805 289.333 67.325L287.636 67.7383C286.745 67.9553 285.804 67.808 285.022 67.3286C284.239 66.8493 283.678 66.0775 283.461 65.1826L283.459 65.1797Z" fill="#1F1926"/>
<path d="M279.693 68.6248C280.687 66.9879 280.171 64.852 278.54 63.8541C276.91 62.8561 274.782 63.374 273.788 65.0109C272.794 66.6477 273.31 68.7836 274.94 69.7816C276.571 70.7795 278.699 70.2616 279.693 68.6248Z" fill="#1F1926"/>
<path d="M72.748 219.766C72.2479 219.542 71.8573 219.129 71.6616 218.616C71.4659 218.103 71.4805 217.533 71.7032 217.031L72.1274 216.076C72.7911 214.58 73.8513 213.301 75.1933 212.376C76.5418 211.446 78.1153 210.915 79.7442 210.84C80.8745 210.787 81.9704 210.425 82.9138 209.791C83.3876 209.473 83.814 209.091 84.182 208.657C84.5617 208.208 84.8771 207.704 85.1188 207.159C85.4598 206.391 85.6401 205.581 85.6562 204.75C85.6715 203.948 85.5335 203.158 85.2451 202.405C84.9567 201.651 84.5339 200.971 83.9878 200.385C83.4227 199.778 82.7487 199.297 81.9836 198.955C81.3155 198.656 80.6116 198.479 79.891 198.43C79.1944 198.381 78.4979 198.452 77.821 198.64C77.1486 198.827 76.517 199.122 75.9439 199.519C75.3612 199.923 74.8567 200.419 74.4442 200.995C74.1244 201.44 73.6417 201.741 73.1022 201.83C72.5619 201.918 72.0091 201.788 71.5652 201.467C71.1213 201.146 70.8219 200.661 70.7336 200.12C70.6453 199.577 70.7752 199.022 71.095 198.577C71.7843 197.615 72.6276 196.785 73.6016 196.111C74.5544 195.45 75.6051 194.958 76.7222 194.648C77.8503 194.335 79.0119 194.217 80.175 194.298C81.379 194.382 82.5531 194.675 83.6636 195.172C84.3017 195.457 84.9114 195.807 85.4758 196.212C86.0263 196.607 86.5403 197.06 87.0025 197.556C87.4559 198.043 87.8648 198.578 88.2167 199.144C88.565 199.705 88.8622 200.303 89.098 200.921C89.3339 201.539 89.512 202.182 89.6266 202.834C89.7427 203.492 89.7946 204.163 89.7822 204.83C89.769 205.51 89.6887 206.191 89.5427 206.855C89.393 207.535 89.1732 208.204 88.8885 208.844C88.0955 210.632 86.8229 212.15 85.2093 213.233C83.6417 214.286 81.8178 214.889 79.9363 214.976C79.0762 215.016 78.2445 215.297 77.5304 215.789C76.8164 216.282 76.2512 216.963 75.8979 217.76L75.4736 218.716C75.251 219.218 74.8392 219.61 74.3281 219.806C73.817 220.003 73.2497 219.988 72.7495 219.764L72.748 219.766Z" fill="#1F1926"/>
<path d="M71.8139 225.479C72.8778 225.069 73.4094 223.871 73.0012 222.803C72.593 221.735 71.3996 221.202 70.3356 221.612C69.2717 222.021 68.7401 223.219 69.1483 224.287C69.5565 225.355 70.7499 225.889 71.8139 225.479Z" fill="#1F1926"/>
</g>
</g>
<defs>
<clipPath id="clip0_38_13242">
<rect width="297" height="297" fill="white"/>
</clipPath>
</defs>
</svg>
