<svg width="21" height="14" viewBox="0 0 21 14" fill="none" xmlns="http://www.w3.org/2000/svg">
<g id="Layer_1" clip-path="url(#clip0_0_6187)">
<path id="Vector" d="M21 0H0V14H21V0Z" fill="white"/>
<g id="Group">
<path id="Vector_2" d="M20.5964 4.08911H0.427979V9.92992H20.5964V4.08911Z" fill="#0061AF"/>
<path id="Vector_3" fill-rule="evenodd" clip-rule="evenodd" d="M8.3842 0.755524V1.15687H8.86639V0.755524H8.3842ZM3.30149 0.760246V1.1616H3.78369V0.760246H3.30149ZM0.423096 0.330566V3.5933H20.5916V0.330566H0.423096ZM16.9653 2.79532V3.17778H17.4721V2.79532H16.9653ZM4.17731 0.755524V1.15687H4.65951V0.755524H4.17731ZM16.0993 2.79532V3.17778H16.6061V2.79532H16.0993ZM12.0449 1.27964V3.1164H15.6663V1.97846L16.0599 2.51674H19.0318L19.5042 1.90763L19.0613 1.2938H17.536L17.3983 1.14271H19.0023L18.7218 0.76969H16.2223L16.8669 1.69987H18.4168L18.6136 1.94541H16.6553L16.1633 1.28436H14.9922V2.65839H12.8273V1.84153H14.5887V1.28436H12.04L12.0449 1.27964ZM9.92919 1.71404H11.0904V2.21927H9.92919V1.71404ZM2.15013 0.774411L1.46129 1.86986L1.9238 2.54035H8.9402V1.4024H8.335V1.87458H8.03486V1.4024H7.37553V1.88875H2.25838L2.89311 0.774411H2.15013Z" fill="#0061AF"/>
<path id="Vector_4" fill-rule="evenodd" clip-rule="evenodd" d="M0.427979 10.4209V13.6836H20.5964V10.4209H0.427979ZM17.5114 10.9072V11.1858H16.9849V11.743H17.5114V12.8054C17.5114 12.8054 17.6049 13.4334 18.4561 13.3437C18.4561 13.3437 19.2876 13.254 19.4549 13.1501V12.7723L18.9137 12.7912C18.9137 12.7912 18.6972 12.7393 18.712 12.5126V11.7477H19.4549V11.1905H18.712V10.6334L17.5163 10.912L17.5114 10.9072ZM10.185 11.7902C10.185 11.7902 10.4015 11.3889 10.9624 11.4408C10.9624 11.4408 11.4889 11.3889 11.7054 11.7902H10.1801H10.185ZM13.0683 12.2624C13.0683 12.2624 13.0339 10.9733 11.0362 10.9733C11.0362 10.9733 9.22062 10.8695 9.02381 12.1916C9.02381 12.1916 9.04349 13.4806 11.0559 13.3767C11.0559 13.3767 12.409 13.405 12.9256 12.574H11.7103C11.7103 12.574 11.6365 12.9045 10.9821 12.9045C10.9821 12.9045 10.2194 12.9376 10.1112 12.2624H13.0683ZM1.46125 11.1858V13.1878H2.60277V12.0735C2.60277 12.0735 2.85863 11.743 3.39986 11.7099C3.39986 11.7099 4.0149 11.7619 4.0149 12.1443V13.1878H5.15642V12.0216C5.15642 12.0216 5.15642 11.2047 3.87221 11.0961C3.87221 11.0961 3.021 11.0772 2.60277 11.5305V11.1811H1.46125V11.1858Z" fill="#0061AF"/>
<path id="Vector_5" fill-rule="evenodd" clip-rule="evenodd" d="M3.56714 4.27319H7.75435V6.53491L10.9624 4.31097H16.5864L13.1421 6.88432L17.0243 9.56628H11.0559L7.73958 6.74739V9.52851H3.56714V4.27319Z" fill="#FFD200"/>
</g>
</g>
<defs>
<clipPath id="clip0_0_6187">
<rect width="21" height="14" fill="white"/>
</clipPath>
</defs>
</svg>
