<svg width="20" height="20" viewBox="0 0 20 20" fill="none" xmlns="http://www.w3.org/2000/svg">
<g id="icons8-heart_plus 1">
<path id="Vector" d="M6.25033 2.91699C3.72634 2.91699 1.66699 4.97634 1.66699 7.50033C1.66699 9.20706 2.95351 10.814 4.52181 12.4621C6.09011 14.1101 8.02048 15.7793 9.55843 17.3172C9.67564 17.4344 9.83459 17.5002 10.0003 17.5002C10.1661 17.5002 10.325 17.4344 10.4422 17.3172C11.9802 15.7793 13.9105 14.1101 15.4788 12.4621C17.0471 10.814 18.3337 9.20706 18.3337 7.50033C18.3337 4.97634 16.2743 2.91699 13.7503 2.91699C12.3018 2.91699 11.0407 3.6947 10.0003 5.01579C8.95998 3.6947 7.69884 2.91699 6.25033 2.91699ZM6.25033 4.16699C7.47056 4.16699 8.48628 4.81633 9.47217 6.37565C9.52854 6.46472 9.60653 6.53809 9.69887 6.58892C9.79121 6.63976 9.89491 6.66642 10.0003 6.66642C10.1057 6.66642 10.2094 6.63976 10.3018 6.58892C10.3941 6.53809 10.4721 6.46472 10.5285 6.37565C11.5144 4.81633 12.5301 4.16699 13.7503 4.16699C15.5988 4.16699 17.0837 5.65181 17.0837 7.50033C17.0837 8.50193 16.0785 10.02 14.5739 11.6011C13.2018 13.0429 11.4963 14.5493 10.0003 16.0078C8.50436 14.5493 6.79883 13.0429 5.42676 11.6011C3.92214 10.02 2.91699 8.50193 2.91699 7.50033C2.91699 5.65181 4.40181 4.16699 6.25033 4.16699ZM13.3239 5.82471C13.1583 5.82729 13.0005 5.89551 12.8851 6.01438C12.7697 6.13324 12.7063 6.29304 12.7087 6.45866V7.29199H11.8753C11.7925 7.29082 11.7103 7.30612 11.6334 7.33701C11.5566 7.36789 11.4866 7.41374 11.4276 7.47189C11.3687 7.53005 11.3218 7.59934 11.2899 7.67575C11.2579 7.75216 11.2414 7.83416 11.2414 7.91699C11.2414 7.99982 11.2579 8.08182 11.2899 8.15823C11.3218 8.23464 11.3687 8.30394 11.4276 8.36209C11.4866 8.42024 11.5566 8.4661 11.6334 8.49698C11.7103 8.52786 11.7925 8.54316 11.8753 8.54199H12.7087V9.37533C12.7075 9.45815 12.7228 9.54037 12.7537 9.61723C12.7846 9.69408 12.8304 9.76403 12.8886 9.82301C12.9467 9.882 13.016 9.92883 13.0924 9.9608C13.1688 9.99277 13.2508 10.0092 13.3337 10.0092C13.4165 10.0092 13.4985 9.99277 13.5749 9.9608C13.6513 9.92883 13.7206 9.882 13.7788 9.82301C13.8369 9.76403 13.8828 9.69408 13.9136 9.61723C13.9445 9.54037 13.9598 9.45815 13.9587 9.37533V8.54199H14.792C14.8748 8.54316 14.957 8.52786 15.0339 8.49698C15.1107 8.4661 15.1807 8.42024 15.2397 8.36209C15.2987 8.30394 15.3455 8.23464 15.3775 8.15823C15.4094 8.08182 15.4259 7.99982 15.4259 7.91699C15.4259 7.83416 15.4094 7.75216 15.3775 7.67575C15.3455 7.59934 15.2987 7.53005 15.2397 7.47189C15.1807 7.41374 15.1107 7.36789 15.0339 7.33701C14.957 7.30612 14.8748 7.29082 14.792 7.29199H13.9587V6.45866C13.9599 6.37501 13.9443 6.29196 13.9128 6.21445C13.8813 6.13694 13.8346 6.06654 13.7754 6.00742C13.7162 5.9483 13.6457 5.90167 13.5682 5.87028C13.4906 5.8389 13.4075 5.8234 13.3239 5.82471Z" fill="#3E2ABB"/>
</g>
</svg>
