<svg width="48" height="48" viewBox="0 0 48 48" fill="none" xmlns="http://www.w3.org/2000/svg">
<g id="icons8-settings 2">
<path id="Vector" d="M39.139 26.2819C38.426 25.7589 38 24.9189 38 24.0339C38 23.1489 38.426 22.3089 39.138 21.7869L42.432 19.3719C42.957 18.9859 43.174 18.3069 42.969 17.6879C42.121 15.1399 40.78 12.8159 38.982 10.7789C38.549 10.2909 37.851 10.1369 37.254 10.3989L33.545 12.0299C32.737 12.3859 31.796 12.3349 31.029 11.8919C30.263 11.4499 29.749 10.6619 29.652 9.78288L29.206 5.71088C29.135 5.06288 28.653 4.53488 28.015 4.40388C25.418 3.87288 22.689 3.86388 20.046 4.39388C19.404 4.52288 18.921 5.05088 18.85 5.70188L18.408 9.74788C18.311 10.6279 17.797 11.4159 17.029 11.8579C16.263 12.2999 15.325 12.3529 14.514 11.9959L10.785 10.3559C10.193 10.0939 9.493 10.2459 9.06 10.7329C7.256 12.7619 5.909 15.0829 5.052 17.6289C4.844 18.2469 5.06 18.9299 5.587 19.3169L8.86 21.7169C9.574 22.2409 10 23.0809 10 23.9659C10 24.8509 9.574 25.6909 8.862 26.2129L5.568 28.6279C5.043 29.0139 4.826 29.6929 5.031 30.3119C5.879 32.8599 7.22 35.1839 9.018 37.2209C9.451 37.7099 10.151 37.8649 10.746 37.6009L14.455 35.9699C15.263 35.6139 16.203 35.6649 16.971 36.1079C17.737 36.5499 18.251 37.3379 18.348 38.2169L18.794 42.2889C18.865 42.9369 19.347 43.4649 19.985 43.5959C21.299 43.8639 22.649 43.9999 24 43.9999C25.318 43.9999 26.648 43.8669 27.953 43.6049C28.595 43.4759 29.078 42.9479 29.149 42.2969L29.592 38.2509C29.689 37.3709 30.203 36.5829 30.971 36.1409C31.737 35.6999 32.676 35.6479 33.486 36.0029L37.215 37.6429C37.809 37.9059 38.507 37.7539 38.94 37.2659C40.744 35.2369 42.091 32.9159 42.948 30.3699C43.156 29.7519 42.94 29.0689 42.413 28.6819L39.139 26.2819ZM24 30.9999C20.134 30.9999 17 27.8659 17 23.9999C17 20.1339 20.134 16.9999 24 16.9999C27.866 16.9999 31 20.1339 31 23.9999C31 27.8659 27.866 30.9999 24 30.9999Z" fill="#3E2ABB"/>
</g>
</svg>
