<svg width="20" height="17" viewBox="0 0 20 17" fill="none" xmlns="http://www.w3.org/2000/svg">
<g id="fa6-solid:people-roof" clip-path="url(#clip0_1079_6883)">
<path id="Vector" d="M9.51639 1.07188L0.51639 6.07188C0.0351391 6.34063 -0.13986 6.95 0.128889 7.43125C0.397638 7.9125 1.00701 8.0875 1.48826 7.81875L10.0008 3.09063L18.5164 7.82188C18.9976 8.09063 19.607 7.91563 19.8758 7.43438C20.1445 6.95313 19.9695 6.34375 19.4883 6.075L10.4851 1.07188C10.182 0.903125 9.81639 0.903125 9.51326 1.07188H9.51639ZM10.0008 5.94688C9.66924 5.94688 9.3513 6.07857 9.11688 6.31299C8.88246 6.54741 8.75076 6.86535 8.75076 7.19688C8.75076 7.5284 8.88246 7.84634 9.11688 8.08076C9.3513 8.31518 9.66924 8.44688 10.0008 8.44688C10.3323 8.44688 10.6502 8.31518 10.8846 8.08076C11.1191 7.84634 11.2508 7.5284 11.2508 7.19688C11.2508 6.86535 11.1191 6.54741 10.8846 6.31299C10.6502 6.07857 10.3323 5.94688 10.0008 5.94688ZM15.5008 8.94687C15.1692 8.94687 14.8513 9.07857 14.6169 9.31299C14.3825 9.54741 14.2508 9.86535 14.2508 10.1969C14.2508 10.5284 14.3825 10.8463 14.6169 11.0808C14.8513 11.3152 15.1692 11.4469 15.5008 11.4469C15.8323 11.4469 16.1502 11.3152 16.3846 11.0808C16.6191 10.8463 16.7508 10.5284 16.7508 10.1969C16.7508 9.86535 16.6191 9.54741 16.3846 9.31299C16.1502 9.07857 15.8323 8.94687 15.5008 8.94687ZM5.75076 10.1969C5.75076 9.86535 5.61907 9.54741 5.38465 9.31299C5.15023 9.07857 4.83229 8.94687 4.50076 8.94687C4.16924 8.94687 3.8513 9.07857 3.61688 9.31299C3.38246 9.54741 3.25076 9.86535 3.25076 10.1969C3.25076 10.5284 3.38246 10.8463 3.61688 11.0808C3.8513 11.3152 4.16924 11.4469 4.50076 11.4469C4.83229 11.4469 5.15023 11.3152 5.38465 11.0808C5.61907 10.8463 5.75076 10.5284 5.75076 10.1969ZM12.9101 16.3031L13.7508 14.7437V15.9469C13.7508 16.5 14.1976 16.9469 14.7508 16.9469H16.2508C16.8039 16.9469 17.2508 16.5 17.2508 15.9469V14.7437L18.0914 16.3031C18.2883 16.6687 18.7414 16.8031 19.107 16.6094C19.4726 16.4156 19.607 15.9594 19.4133 15.5938L18.2289 13.3969C17.7508 12.5062 16.8195 11.95 15.807 11.95H15.1976C14.6883 11.95 14.2008 12.0906 13.7789 12.3438L12.7289 10.3969C12.2508 9.50625 11.3195 8.95 10.307 8.95H9.69764C8.68514 8.95 7.75701 9.50625 7.27576 10.3969L6.22577 12.3438C5.80389 12.0906 5.31639 11.95 4.80701 11.95H4.19764C3.18514 11.95 2.25702 12.5062 1.77576 13.3969L0.591391 15.5938C0.394516 15.9594 0.532015 16.4125 0.89764 16.6094C1.26327 16.8062 1.71639 16.6687 1.91327 16.3031L2.75076 14.7437V15.9469C2.75076 16.5 3.19764 16.9469 3.75076 16.9469H5.25076C5.80389 16.9469 6.25076 16.5 6.25076 15.9469V14.7437L7.09139 16.3031C7.28826 16.6687 7.74139 16.8031 8.10701 16.6094C8.47264 16.4156 8.60702 15.9594 8.41327 15.5938L7.27889 13.4844C7.33202 13.4312 7.37889 13.3719 7.41327 13.3031L8.25076 11.7437V13.4469C8.25076 14 8.69764 14.4469 9.25076 14.4469H10.7508C11.3039 14.4469 11.7508 14 11.7508 13.4469V11.7437L12.5914 13.3031C12.6289 13.3719 12.6726 13.4312 12.7258 13.4844L11.5914 15.5938C11.3945 15.9594 11.532 16.4125 11.8976 16.6094C12.2633 16.8062 12.7164 16.6687 12.9133 16.3031H12.9101Z" fill="#4ED1FF"/>
</g>
<defs>
<clipPath id="clip0_1079_6883">
<rect width="20" height="16" fill="white" transform="matrix(-1 0 0 1 20 0.947266)"/>
</clipPath>
</defs>
</svg>
