<svg width="48" height="48" viewBox="0 0 48 48" fill="none" xmlns="http://www.w3.org/2000/svg">
<g id="icons8-confetti 1">
<path id="Vector" d="M33.9739 29.1443L18.8569 14.0263C18.0059 13.1753 16.7949 12.8213 15.6189 13.0853C14.4429 13.3473 13.4969 14.1803 13.0889 15.3133L3.08894 42.9913C2.89194 43.5383 3.02794 44.1503 3.43994 44.5613C3.72594 44.8473 4.10894 45.0003 4.49994 45.0003C4.67094 45.0003 4.84394 44.9713 5.00994 44.9113L32.6869 34.9113C33.8209 34.5033 34.6539 33.5573 34.9159 32.3813C35.1779 31.2053 34.8249 29.9943 33.9739 29.1443ZM42.6199 9.62026C40.9799 11.2603 39.3999 11.3903 38.1199 11.5003C37.0599 11.5803 36.3599 11.6403 35.4999 12.5003C34.6399 13.3603 34.5799 14.0603 34.4899 15.1203C34.3899 16.4003 34.2599 17.9803 32.6199 19.6203C31.4699 20.7703 30.3499 21.1803 29.3499 21.3503L26.6599 18.6603C27.0899 18.5703 27.4999 18.5403 27.8799 18.5103C28.9399 18.4203 29.6399 18.3603 30.4999 17.5003C31.3599 16.6403 31.4199 15.9403 31.4999 14.8803C31.6099 13.6103 31.7399 12.0203 33.3799 10.3803C35.0199 8.74026 36.5999 8.61026 37.8799 8.51026C38.9399 8.42026 39.6399 8.36026 40.4999 7.50026C41.0899 6.91026 42.0399 6.91026 42.6199 7.50026C43.2099 8.08026 43.2099 9.04026 42.6199 9.62026ZM23.3999 15.4003L21.2599 13.2603C23.3099 10.3603 23.4599 7.77026 22.0899 4.01026C21.8099 3.23026 22.2099 2.37026 22.9899 2.09026C23.7699 1.81026 24.6299 2.21026 24.9099 2.99026C26.6899 7.90026 26.3199 11.5203 23.3999 15.4003ZM45.9099 25.0003C45.6299 25.7703 44.7599 26.1803 43.9899 25.8903C40.2099 24.5203 37.6299 24.6703 34.7299 26.7303L32.5899 24.5903C36.4799 21.6603 40.0999 21.2903 45.0099 23.0703C45.7899 23.3603 46.1899 24.2203 45.9099 25.0003ZM30.1079 7.63126L29.3689 6.89226C28.8759 6.39926 28.8759 5.60126 29.3689 5.10826L30.1079 4.36926C30.6009 3.87626 31.3989 3.87626 31.8919 4.36926L32.6309 5.10826C33.1239 5.60126 33.1239 6.39926 32.6309 6.89226L31.8919 7.63126C31.3989 8.12326 30.6009 8.12326 30.1079 7.63126ZM8.10794 15.1313L7.36894 14.3923C6.87594 13.8993 6.87594 13.1013 7.36894 12.6083L8.10794 11.8693C8.60094 11.3763 9.39894 11.3763 9.89194 11.8693L10.6309 12.6083C11.1239 13.1013 11.1239 13.8993 10.6309 14.3923L9.89194 15.1313C9.39894 15.6233 8.60094 15.6233 8.10794 15.1313ZM39.1079 19.6313L38.3689 18.8923C37.8759 18.3993 37.8759 17.6013 38.3689 17.1083L39.1079 16.3693C39.6009 15.8763 40.3989 15.8763 40.8919 16.3693L41.6309 17.1083C42.1239 17.6013 42.1239 18.3993 41.6309 18.8923L40.8919 19.6313C40.3989 20.1233 39.6009 20.1233 39.1079 19.6313ZM39.1079 32.6313L38.3689 31.8923C37.8759 31.3993 37.8759 30.6013 38.3689 30.1083L39.1079 29.3693C39.6009 28.8763 40.3989 28.8763 40.8919 29.3693L41.6309 30.1083C42.1239 30.6013 42.1239 31.3993 41.6309 31.8923L40.8919 32.6313C40.3989 33.1233 39.6009 33.1233 39.1079 32.6313ZM36.1079 39.6313L35.3689 38.8923C34.8759 38.3993 34.8759 37.6013 35.3689 37.1083L36.1079 36.3693C36.6009 35.8763 37.3989 35.8763 37.8919 36.3693L38.6309 37.1083C39.1239 37.6013 39.1239 38.3993 38.6309 38.8923L37.8919 39.6313C37.3989 40.1233 36.6009 40.1233 36.1079 39.6313ZM14.1079 10.6313L13.3689 9.89226C12.8759 9.39926 12.8759 8.60126 13.3689 8.10826L14.1079 7.36926C14.6009 6.87626 15.3989 6.87626 15.8919 7.36926L16.6309 8.10826C17.1239 8.60126 17.1239 9.39926 16.6309 9.89226L15.8919 10.6313C15.3989 11.1233 14.6009 11.1233 14.1079 10.6313Z" fill="#3E2ABB"/>
</g>
</svg>
