<svg width="24" height="24" viewBox="0 0 24 24" fill="none" xmlns="http://www.w3.org/2000/svg">
<path d="M3.5 3C3.10218 3 2.72064 3.15804 2.43934 3.43934C2.15804 3.72064 2 4.10218 2 4.5C2 4.89782 2.15804 5.27936 2.43934 5.56066C2.72064 5.84196 3.10218 6 3.5 6C3.89782 6 4.27936 5.84196 4.56066 5.56066C4.84196 5.27936 5 4.89782 5 4.5C5 4.10218 4.84196 3.72064 4.56066 3.43934C4.27936 3.15804 3.89782 3 3.5 3ZM7.5 3C6.672 3 6 3.672 6 4.5C6 5.328 6.672 6 7.5 6H10V10V14.2207L8.28125 13.0352L8.20508 13C7.26459 12.5619 6.13821 12.7732 5.42188 13.5234L4.07422 14.9395L9.08594 21.0859L9.12109 21.1211C9.68277 21.6828 10.4463 22 11.2422 22H18C19.645 22 21 20.645 21 19V12.1934C21 11.2237 20.2871 10.3804 19.3301 10.2207H19.3281L13 9.16602V4.5C13 3.672 12.328 3 11.5 3H11H10H7.5ZM12 11.0273L19 12.1953V19C19 19.565 18.565 20 18 20H11.2422C10.9806 20 10.7341 19.8952 10.5469 19.7129L6.73828 15.041L6.86914 14.9043C6.99412 14.7734 7.17527 14.7475 7.3418 14.8164L12 18.0293V11.0273Z" fill="white"/>
</svg>
