<svg width="48" height="48" viewBox="0 0 48 48" fill="none" xmlns="http://www.w3.org/2000/svg">
<g id="icons8-gifts 1">
<path id="Vector" d="M15.4766 1.9787C15.0791 1.98491 14.7003 2.14863 14.4235 2.43391C14.1466 2.71919 13.9943 3.10269 14 3.50018V6.87909L11.5605 4.43964C11.4223 4.29568 11.2568 4.18075 11.0736 4.10157C10.8904 4.0224 10.6932 3.98057 10.4937 3.97854C10.2941 3.97651 10.0962 4.01432 9.9114 4.08976C9.72664 4.16519 9.55878 4.27673 9.41766 4.41785C9.27655 4.55896 9.16501 4.72682 9.08957 4.91158C9.01414 5.09635 8.97633 5.29431 8.97836 5.49387C8.98039 5.69343 9.02221 5.89057 9.10139 6.07377C9.18056 6.25696 9.2955 6.42251 9.43945 6.56073L11.8789 9.00018H6.5C4.019 9.00018 2 11.0192 2 13.5002V39.5002C2 41.9812 4.019 44.0002 6.5 44.0002H17.8164C17.0254 43.1772 16.4526 42.1482 16.1816 41.0002H6.5C5.673 41.0002 5 40.3272 5 39.5002V13.5002C5 12.6732 5.673 12.0002 6.5 12.0002H15.2637C15.4221 12.0258 15.5837 12.0258 15.7422 12.0002H24.5C25.327 12.0002 26 12.6732 26 13.5002V15.4689C26.777 15.1709 27.618 15.0002 28.5 15.0002C28.669 15.0002 28.834 15.0136 29 15.0256V13.5002C29 11.0192 26.981 9.00018 24.5 9.00018H19.1211L21.5605 6.56073C21.7045 6.42251 21.8194 6.25696 21.8986 6.07377C21.9778 5.89057 22.0196 5.69343 22.0216 5.49387C22.0237 5.29431 21.9859 5.09635 21.9104 4.91159C21.835 4.72682 21.7235 4.55897 21.5823 4.41785C21.4412 4.27673 21.2734 4.16519 21.0886 4.08976C20.9038 4.01432 20.7059 3.97651 20.5063 3.97854C20.3068 3.98057 20.1096 4.0224 19.9264 4.10157C19.7432 4.18075 19.5777 4.29568 19.4395 4.43964L17 6.87909V3.50018C17.0029 3.29942 16.9654 3.10012 16.8899 2.91409C16.8143 2.72807 16.7022 2.55911 16.5601 2.41722C16.418 2.27533 16.2489 2.16341 16.0628 2.08808C15.8767 2.01276 15.6773 1.97556 15.4766 1.9787ZM28.5 17.0002C25.7563 17.0002 23.5 19.2565 23.5 22.0002C23.5 22.7258 23.6741 23.4067 23.957 24.0314H22.5293C20.0458 24.0314 18 26.0761 18 28.5607V39.4709C18 41.9544 20.0447 44.0002 22.5293 44.0002H41.4707C43.9542 44.0002 46 41.9555 46 39.4709V28.5607C46 26.0772 43.9553 24.0314 41.4707 24.0314H40.043C40.3259 23.4067 40.5 22.7258 40.5 22.0002C40.5 19.2565 38.2437 17.0002 35.5 17.0002C34.1408 17.0002 32.9049 17.5589 32 18.4514C31.0951 17.5589 29.8592 17.0002 28.5 17.0002ZM28.5 20.0002C29.6223 20.0002 30.5 20.8778 30.5 22.0002H30.4707V24.0314H28.5V24.0002C27.3777 24.0002 26.5 23.1225 26.5 22.0002C26.5 20.8778 27.3777 20.0002 28.5 20.0002ZM35.5 20.0002C36.6223 20.0002 37.5 20.8778 37.5 22.0002C37.5 23.1225 36.6223 24.0002 35.5 24.0002V24.0314H33.4707V22.0002H33.5C33.5 20.8778 34.3777 20.0002 35.5 20.0002ZM22.5293 27.0314H30.4707V32.5158H21V28.5607C21 27.6974 21.6668 27.0314 22.5293 27.0314ZM33.4707 27.0314H41.4707C42.3341 27.0314 43 27.6982 43 28.5607V32.5158H33.4707V27.0314ZM21 35.5158H30.4707V41.0002H22.5293C21.6659 41.0002 21 40.3334 21 39.4709V35.5158ZM33.4707 35.5158H43V39.4709C43 40.3343 42.3332 41.0002 41.4707 41.0002H33.4707V35.5158Z" fill="#28C7FF"/>
</g>
</svg>
