<svg width="16" height="16" viewBox="0 0 16 16" fill="none" xmlns="http://www.w3.org/2000/svg">
<g id="icons8-mosque 1">
<path id="Vector" d="M2.50586 1.33402C2.40312 1.33282 2.3025 1.3633 2.2177 1.42131C2.1329 1.47932 2.06802 1.56205 2.0319 1.65824L1.0319 4.3249C1.0108 4.38111 0.999996 4.44065 1 4.50068V14.1674C1.00001 14.3 1.0527 14.4271 1.14646 14.5209C1.24023 14.6147 1.3674 14.6673 1.5 14.6674H3.5H6.16667C6.29927 14.6673 6.42644 14.6147 6.52021 14.5209C6.61397 14.4271 6.66665 14.3 6.66667 14.1674V12.5424C6.66667 10.9976 7.73186 10.5178 8 10.4095C8.26814 10.5178 9.33333 10.9976 9.33333 12.5424V14.1674C9.33335 14.3 9.38603 14.4271 9.4798 14.5209C9.57356 14.6147 9.70073 14.6673 9.83333 14.6674H12.5H14.5C14.6326 14.6673 14.7598 14.6147 14.8535 14.5209C14.9473 14.4271 15 14.3 15 14.1674V4.50068C15 4.44065 14.9892 4.38111 14.9681 4.3249L13.9681 1.65824C13.9327 1.56392 13.8696 1.4825 13.7871 1.42465C13.7046 1.36679 13.6066 1.33521 13.5059 1.33402C13.4031 1.33282 13.3025 1.3633 13.2177 1.42131C13.1329 1.47932 13.068 1.56205 13.0319 1.65824L12.0319 4.3249C12.0108 4.38111 12 4.44065 12 4.50068V7.20511C11.7963 7.09992 11.5714 7.03103 11.3333 7.00915V6.78128C11.3333 5.62271 10.4944 4.72344 9.73893 4.08727C8.98349 3.45111 8.23307 3.05798 8.23307 3.05798C8.15885 3.01899 8.07602 2.99929 7.99219 3.00068C7.91364 3.00182 7.83647 3.02145 7.76693 3.05798C7.76693 3.05798 7.01651 3.45111 6.26107 4.08727C5.50563 4.72344 4.66667 5.62271 4.66667 6.78128V7.00915C4.4286 7.03103 4.20365 7.09992 4 7.20511V4.50068C4 4.44065 3.9892 4.38111 3.9681 4.3249L2.9681 1.65824C2.93268 1.56392 2.8696 1.4825 2.78712 1.42465C2.70463 1.36679 2.6066 1.33521 2.50586 1.33402ZM2.5 3.25785L3 4.59118V8.83402V13.6674H2V4.59118L2.5 3.25785ZM13.5 3.25785L14 4.59118V13.6674H13V8.83402V4.59118L13.5 3.25785ZM8 4.1029C8.1758 4.20117 8.54925 4.39317 9.0944 4.85225C9.75563 5.40908 10.3333 6.15053 10.3333 6.78128V7.00068H5.66667V6.78128C5.66667 6.15053 6.24437 5.40908 6.9056 4.85225C7.45075 4.39317 7.8242 4.20117 8 4.1029ZM4.83333 8.00068H11.1667C11.6327 8.00068 12 8.36794 12 8.83402V13.6674H10.3333V12.5424C10.3333 10.2014 8.17057 9.36397 8.17057 9.36397C8.06037 9.32398 7.93963 9.32398 7.82943 9.36397C7.82943 9.36397 5.66667 10.2014 5.66667 12.5424V13.6674H4V8.83402C4 8.36794 4.36726 8.00068 4.83333 8.00068Z" fill="#28C7FF"/>
</g>
</svg>
