<svg width="32" height="32" viewBox="0 0 32 32" fill="none" xmlns="http://www.w3.org/2000/svg">
<g id="icons8-cancel 1">
<path id="Vector" d="M15.9998 2.66699C8.64788 2.66699 2.6665 8.64837 2.6665 16.0003C2.6665 23.3523 8.64788 29.3337 15.9998 29.3337C23.3518 29.3337 29.3332 23.3523 29.3332 16.0003C29.3332 8.64837 23.3518 2.66699 15.9998 2.66699ZM15.9998 4.66699C22.2709 4.66699 27.3332 9.72925 27.3332 16.0003C27.3332 22.2714 22.2709 27.3337 15.9998 27.3337C9.72876 27.3337 4.6665 22.2714 4.6665 16.0003C4.6665 9.72925 9.72876 4.66699 15.9998 4.66699ZM20.3241 10.6527C20.06 10.6589 19.8091 10.7694 19.6261 10.96L15.9998 14.5863L12.3735 10.96C12.2803 10.864 12.1688 10.7877 12.0456 10.7355C11.9223 10.6834 11.7899 10.6566 11.6561 10.6566C11.4571 10.6566 11.2626 10.716 11.0975 10.8272C10.9325 10.9384 10.8044 11.0963 10.7296 11.2808C10.6548 11.4652 10.6367 11.6677 10.6776 11.8625C10.7186 12.0572 10.8167 12.2354 10.9595 12.374L14.5858 16.0003L10.9595 19.6266C10.8635 19.7188 10.7869 19.8291 10.7341 19.9513C10.6813 20.0734 10.6534 20.2048 10.6521 20.3379C10.6507 20.4709 10.6759 20.6029 10.7262 20.7261C10.7765 20.8492 10.8509 20.9611 10.9449 21.0552C11.039 21.1493 11.1509 21.2236 11.2741 21.2739C11.3973 21.3242 11.5293 21.3494 11.6623 21.3481C11.7953 21.3467 11.9268 21.3188 12.0489 21.2661C12.171 21.2133 12.2814 21.1367 12.3735 21.0407L15.9998 17.4144L19.6261 21.0407C19.7183 21.1367 19.8287 21.2133 19.9508 21.2661C20.0729 21.3188 20.2043 21.3467 20.3374 21.3481C20.4704 21.3494 20.6024 21.3242 20.7256 21.2739C20.8487 21.2236 20.9606 21.1493 21.0547 21.0552C21.1488 20.9611 21.2232 20.8492 21.2735 20.7261C21.3237 20.6029 21.3489 20.4709 21.3476 20.3379C21.3462 20.2048 21.3184 20.0734 21.2656 19.9513C21.2128 19.8291 21.1362 19.7188 21.0402 19.6266L17.4139 16.0003L21.0402 12.374C21.1856 12.2345 21.2855 12.0542 21.3267 11.8569C21.3679 11.6596 21.3485 11.4544 21.2711 11.2683C21.1936 11.0822 21.0618 10.9239 20.8928 10.814C20.7238 10.7041 20.5256 10.6479 20.3241 10.6527Z" fill="#F500B8"/>
</g>
</svg>
