<svg width="24" height="24" viewBox="0 0 24 24" fill="none" xmlns="http://www.w3.org/2000/svg">
<g id="Apple Pay">
<path id="Vector" d="M4.38525 8.34858C4.10397 8.68143 3.65392 8.94396 3.20387 8.90646C3.14761 8.45641 3.36795 7.97823 3.62579 7.68288C3.90707 7.34066 4.39932 7.09688 4.7978 7.07812C4.84468 7.54693 4.66185 8.00636 4.38525 8.34858ZM4.79311 8.99553C4.14148 8.95803 3.5836 9.36589 3.27419 9.36589C2.96009 9.36589 2.4866 9.01428 1.97091 9.02366C1.30052 9.03304 0.677016 9.41277 0.334789 10.0175C-0.368417 11.227 0.151956 13.0179 0.831721 14.0024C1.16457 14.4899 1.56305 15.0243 2.08811 15.0056C2.58505 14.9868 2.78194 14.6821 3.38201 14.6821C3.98677 14.6821 4.16023 15.0056 4.68529 14.9962C5.2291 14.9868 5.57133 14.5087 5.90418 14.0211C6.28391 13.4679 6.43861 12.9288 6.44799 12.9007C6.43861 12.8913 5.39787 12.4928 5.38849 11.2927C5.37912 10.2894 6.2089 9.81125 6.2464 9.78312C5.7776 9.08929 5.04627 9.01428 4.79311 8.99553ZM8.55761 7.636V14.9447H9.69211V12.4459H11.2626C12.6971 12.4459 13.7051 11.4614 13.7051 10.0363C13.7051 8.61111 12.7159 7.636 11.3001 7.636H8.55761ZM9.69211 8.59236H11.0001C11.9846 8.59236 12.5471 9.11742 12.5471 10.041C12.5471 10.9645 11.9846 11.4943 10.9954 11.4943H9.69211V8.59236ZM15.7772 15.0009C16.4898 15.0009 17.1508 14.6399 17.4508 14.068H17.4743V14.9447H18.5244V11.3067C18.5244 10.2519 17.6805 9.57216 16.3819 9.57216C15.1771 9.57216 14.2864 10.2613 14.2536 11.2083H15.2756C15.3599 10.7582 15.7772 10.4629 16.3491 10.4629C17.043 10.4629 17.4321 10.7864 17.4321 11.3817V11.7849L16.0163 11.8693C14.6989 11.949 13.9864 12.4881 13.9864 13.4257C13.9864 14.3727 14.7224 15.0009 15.7772 15.0009ZM16.0819 14.1336C15.4771 14.1336 15.0927 13.843 15.0927 13.3976C15.0927 12.9382 15.4631 12.671 16.171 12.6288L17.4321 12.5491V12.9616C17.4321 13.6461 16.8507 14.1336 16.0819 14.1336ZM19.9261 16.9324C21.0325 16.9324 21.5528 16.5105 22.0076 15.2306L24 9.64248H22.8467L21.5107 13.9602H21.4872L20.1511 9.64248H18.965L20.8871 14.9634L20.784 15.2869C20.6105 15.8354 20.3293 16.0463 19.8276 16.0463C19.7386 16.0463 19.5651 16.037 19.4948 16.0276V16.9042C19.5604 16.923 19.8417 16.9324 19.9261 16.9324Z" fill="black"/>
</g>
</svg>
