<svg width="16" height="16" viewBox="0 0 16 16" fill="none" xmlns="http://www.w3.org/2000/svg">
<g id="icons8-birthday 3">
<path id="Vector" d="M4.33354 0.6195C4.26946 0.6195 4.20562 0.648557 4.16362 0.707391C3.87795 1.10806 3.33354 1.92571 3.33354 2.33304C3.33354 2.88538 3.78121 3.33304 4.33354 3.33304C4.88587 3.33304 5.33354 2.88538 5.33354 2.33304C5.33354 1.92571 4.78945 1.10806 4.50411 0.707391C4.46211 0.648557 4.39762 0.6195 4.33354 0.6195ZM4.33354 3.33304H3.83354C3.37901 3.33304 3.00021 3.71184 3.00021 4.16637V6.01273C2.40068 6.39941 2.00021 7.07136 2.00021 7.83304V8.39229C1.98951 8.45127 1.98951 8.51169 2.00021 8.57067V11.833C2.00021 13.0237 2.97623 13.9997 4.16687 13.9997H11.8335C13.0242 13.9997 14.0002 13.0237 14.0002 11.833V8.57132C14.0111 8.51192 14.0111 8.45104 14.0002 8.39164V7.83304C14.0002 7.07136 13.5997 6.39941 13.0002 6.01273V4.16637C13.0002 3.71184 12.6214 3.33304 12.1669 3.33304H11.6669H11.1669C10.7123 3.33304 10.3335 3.71184 10.3335 4.16637V5.66638H9.33354V4.16637C9.33354 3.71184 8.95474 3.33304 8.50021 3.33304H8.00021H7.50021C7.04567 3.33304 6.66687 3.71184 6.66687 4.16637V5.66638H5.66687V4.16637C5.66687 3.71184 5.28807 3.33304 4.83354 3.33304H4.33354ZM8.00021 3.33304C8.55254 3.33304 9.00021 2.88538 9.00021 2.33304C9.00021 1.92571 8.45611 1.10806 8.17078 0.707391C8.08678 0.589724 7.91428 0.589724 7.83028 0.707391C7.54462 1.10806 7.00021 1.92571 7.00021 2.33304C7.00021 2.88538 7.44787 3.33304 8.00021 3.33304ZM11.6669 3.33304C12.2192 3.33304 12.6669 2.88538 12.6669 2.33304C12.6669 1.92571 12.1228 1.10806 11.8374 0.707391C11.7534 0.589724 11.581 0.589724 11.497 0.707391C11.2113 1.10806 10.6669 1.92571 10.6669 2.33304C10.6669 2.88538 11.1145 3.33304 11.6669 3.33304ZM4.00021 4.33304H4.66687V5.66638H4.16687C4.11068 5.66638 4.05537 5.67057 4.00021 5.67484V4.33304ZM7.66687 4.33304H8.33354V5.66638H7.66687V4.33304ZM11.3335 4.33304H12.0002V5.67484C11.945 5.67057 11.8897 5.66638 11.8335 5.66638H11.3335V4.33304ZM4.16687 6.66638H5.08484C5.13852 6.67519 5.19327 6.67519 5.24695 6.66638H7.08484C7.13852 6.67519 7.19327 6.67519 7.24695 6.66638H8.75151C8.80518 6.67519 8.85994 6.67519 8.91362 6.66638H10.7515C10.8052 6.67519 10.8599 6.67519 10.9136 6.66638H11.8335C12.4836 6.66638 13.0002 7.18302 13.0002 7.83304V8.37927C12.9004 8.55904 12.5833 8.99971 11.8335 8.99971C10.9257 8.99971 10.6509 8.3487 10.6356 8.31156C10.6034 8.22933 10.55 8.15709 10.4808 8.1022C10.4116 8.04731 10.3291 8.01172 10.2417 7.99906C10.2311 7.99763 10.2205 7.99655 10.2098 7.9958C10.2003 7.99488 10.1908 7.99423 10.1812 7.99385C10.1645 7.99344 10.1477 7.99388 10.1311 7.99515C10.0464 8.00081 9.96456 8.02792 9.89326 8.07394C9.82196 8.11995 9.76355 8.18335 9.72351 8.25817C9.71704 8.26941 9.64134 8.40528 9.37976 8.59476C9.10767 8.79188 8.68037 8.99971 8.00021 8.99971C7.32004 8.99971 6.89274 8.79185 6.62065 8.59476C6.35957 8.40564 6.28432 8.27057 6.27755 8.25882C6.23658 8.18173 6.17614 8.1167 6.10224 8.07022C6.02834 8.02373 5.94356 7.9974 5.85633 7.99385C5.85567 7.99385 5.85502 7.99385 5.85437 7.99385C5.85416 7.99385 5.85394 7.99385 5.85372 7.99385C5.85025 7.9936 5.84678 7.99338 5.84331 7.9932C5.83309 7.99332 5.82289 7.99375 5.81271 7.9945C5.80989 7.99448 5.80706 7.99448 5.80424 7.9945C5.80294 7.99471 5.80164 7.99493 5.80034 7.99515C5.7949 7.9955 5.78948 7.99593 5.78406 7.99645C5.77054 7.99764 5.75707 7.99938 5.7437 8.00166C5.6592 8.01657 5.57997 8.05297 5.51361 8.10735C5.44725 8.16174 5.396 8.23229 5.36479 8.31221C5.34916 8.35011 5.0741 8.99971 4.16687 8.99971C3.41708 8.99971 3.10005 8.55904 3.00021 8.37927V7.83304C3.00021 7.18302 3.51685 6.66638 4.16687 6.66638ZM5.8739 9.23929C5.95349 9.31556 5.92771 9.32762 6.03406 9.40466C6.45222 9.70756 7.10804 9.99971 8.00021 9.99971C8.89237 9.99971 9.54819 9.70756 9.96635 9.40466C10.0727 9.32762 10.0469 9.31556 10.1265 9.23929C10.4558 9.60761 10.9595 9.99971 11.8335 9.99971C12.3066 9.99971 12.6926 9.86854 13.0002 9.68981V11.833C13.0002 12.4831 12.4836 12.9997 11.8335 12.9997H4.16687C3.51685 12.9997 3.00021 12.4831 3.00021 11.833V9.68981C3.30785 9.86854 3.69384 9.99971 4.16687 9.99971C5.04095 9.99971 5.54456 9.60761 5.8739 9.23929Z" fill="#3E2ABB"/>
</g>
</svg>
