<svg width="16" height="16" viewBox="0 0 16 16" fill="none" xmlns="http://www.w3.org/2000/svg">
<g id="icons8-parking 1">
<path id="Vector" d="M4.16667 2C2.97602 2 2 2.97602 2 4.16667V11.8333C2 13.024 2.97602 14 4.16667 14H11.8333C13.024 14 14 13.024 14 11.8333V4.16667C14 2.97602 13.024 2 11.8333 2H4.16667ZM4.16667 3H11.8333C12.4834 3 13 3.51665 13 4.16667V11.8333C13 12.4834 12.4834 13 11.8333 13H4.16667C3.51665 13 3 12.4834 3 11.8333V4.16667C3 3.51665 3.51665 3 4.16667 3ZM6.5 4.66667C6.3674 4.66668 6.24023 4.71936 6.14646 4.81313C6.0527 4.90689 6.00001 5.03406 6 5.16667V8.7513C5.99118 8.80498 5.99118 8.85974 6 8.91341V11.1667C5.99906 11.2329 6.0113 11.2987 6.03601 11.3602C6.06072 11.4217 6.0974 11.4776 6.14392 11.5248C6.19044 11.572 6.24588 11.6095 6.30701 11.635C6.36814 11.6606 6.43374 11.6738 6.5 11.6738C6.56626 11.6738 6.63186 11.6606 6.69299 11.635C6.75412 11.6095 6.80956 11.572 6.85608 11.5248C6.9026 11.4776 6.93928 11.4217 6.96399 11.3602C6.9887 11.2987 7.00094 11.2329 7 11.1667V9.33333H8.33333C9.61613 9.33333 10.6667 8.2828 10.6667 7C10.6667 5.7172 9.61613 4.66667 8.33333 4.66667H6.5ZM7 5.66667H8.33333C9.07587 5.66667 9.66667 6.25747 9.66667 7C9.66667 7.74253 9.07587 8.33333 8.33333 8.33333H7V5.66667Z" fill="#28C7FF"/>
</g>
</svg>
