<svg width="24" height="24" viewBox="0 0 24 24" fill="none" xmlns="http://www.w3.org/2000/svg">
<g id="icons8-invisible 1">
<path id="Vector" d="M21.2353 1.9925C21.0406 1.99818 20.8556 2.07943 20.7197 2.21906L2.21971 20.7191C2.14773 20.7882 2.09026 20.8709 2.05068 20.9625C2.01109 21.0541 1.99018 21.1527 1.98916 21.2525C1.98815 21.3523 2.00705 21.4513 2.04477 21.5436C2.08249 21.636 2.13826 21.7199 2.20881 21.7905C2.27937 21.8611 2.3633 21.9168 2.45568 21.9545C2.54806 21.9923 2.64704 22.0112 2.74682 22.0102C2.8466 22.0091 2.94518 21.9882 3.03677 21.9486C3.12837 21.9091 3.21115 21.8516 3.28026 21.7796L8.45799 16.6019C9.34233 17.5589 10.6001 18.1644 12 18.1644C14.665 18.1644 16.8349 15.9943 16.8349 13.3343C16.8349 11.9344 16.2296 10.6729 15.2724 9.78742L17.5264 7.53351C19.9522 8.95389 21.8344 11.2478 22.5254 13.9339C22.6104 14.2739 22.915 14.4993 23.25 14.4993C23.31 14.4993 23.3746 14.4939 23.4346 14.4739C23.8396 14.3739 24.0796 13.9648 23.9746 13.5648C23.2047 10.5635 21.2306 8.03588 18.6387 6.42121L21.7803 3.27961C21.8885 3.17423 21.9623 3.03864 21.9922 2.89059C22.0221 2.74254 22.0065 2.58892 21.9477 2.44983C21.8888 2.31075 21.7893 2.19268 21.6622 2.11108C21.5351 2.02948 21.3863 1.98815 21.2353 1.9925ZM11.9951 4.49933C6.4101 4.49933 1.37537 8.30976 0.0253725 13.5648C-0.0796274 13.9648 0.160412 14.3739 0.565412 14.4739C0.965412 14.5789 1.37459 14.3389 1.47459 13.9339C2.63959 9.4089 7.1651 5.99933 11.9951 5.99933C12.8501 5.99933 13.6947 6.1039 14.5097 6.3089L15.7402 5.07941C14.5452 4.69941 13.2851 4.49933 11.9951 4.49933ZM12 8.49933C9.33498 8.49933 7.1699 10.6693 7.1699 13.3343C7.1699 13.4343 7.17467 13.539 7.17967 13.639L9.07518 11.7445C9.38018 11.1795 9.85002 10.7096 10.415 10.4046L12.3096 8.5091C12.2046 8.5041 12.105 8.49933 12 8.49933ZM14.2129 10.847C14.8982 11.4576 15.3349 12.3431 15.3349 13.3343C15.3349 15.1693 13.84 16.6644 12 16.6644C11.0127 16.6644 10.128 16.2276 9.51756 15.5423L14.2129 10.847Z" fill="#3E2ABB"/>
</g>
</svg>
