<svg width="48" height="48" viewBox="0 0 48 48" fill="none" xmlns="http://www.w3.org/2000/svg">
<circle cx="24" cy="24" r="24" fill="white"/>
<path d="M25.2421 16.4922C25.0929 16.4922 24.947 16.5368 24.8232 16.6202C24.6994 16.7036 24.6033 16.822 24.5472 16.9603C24.4911 17.0986 24.4776 17.2506 24.5083 17.3966C24.539 17.5427 24.6126 17.6763 24.7197 17.7803L30.4394 23.5H15.7499C15.6506 23.4986 15.5519 23.517 15.4597 23.554C15.3674 23.5911 15.2835 23.6461 15.2127 23.7159C15.1419 23.7857 15.0857 23.8688 15.0474 23.9605C15.009 24.0522 14.9893 24.1506 14.9893 24.25C14.9893 24.3494 15.009 24.4478 15.0474 24.5395C15.0857 24.6312 15.1419 24.7143 15.2127 24.7841C15.2835 24.8539 15.3674 24.9089 15.4597 24.946C15.5519 24.983 15.6506 25.0014 15.7499 25H30.4394L24.7197 30.7197C24.6477 30.7888 24.5902 30.8716 24.5506 30.9632C24.511 31.0548 24.4901 31.1534 24.4891 31.2532C24.4881 31.3529 24.507 31.4519 24.5447 31.5443C24.5824 31.6367 24.6382 31.7206 24.7088 31.7912C24.7793 31.8617 24.8633 31.9175 24.9556 31.9552C25.048 31.9929 25.147 32.0118 25.2468 32.0108C25.3466 32.0098 25.4451 31.9889 25.5367 31.9493C25.6283 31.9097 25.7111 31.8523 25.7802 31.7803L32.7802 24.7803C32.9208 24.6396 32.9998 24.4489 32.9998 24.25C32.9998 24.0511 32.9208 23.8604 32.7802 23.7197L25.7802 16.7197C25.7103 16.6477 25.6267 16.5905 25.5342 16.5514C25.4418 16.5123 25.3425 16.4922 25.2421 16.4922Z" fill="#3E2ABB"/>
</svg>
