<svg width="16" height="16" viewBox="0 0 16 16" fill="none" xmlns="http://www.w3.org/2000/svg">
<g id="icons8-magnetic_card 1">
<path id="Vector" d="M2.83341 3C1.64277 3 0.666748 3.97602 0.666748 5.16667V10.8333C0.666748 12.024 1.64277 13 2.83341 13H13.1667C14.3574 13 15.3334 12.024 15.3334 10.8333V5.16667C15.3334 3.97602 14.3574 3 13.1667 3H2.83341ZM2.83341 4H13.1667C13.8168 4 14.3334 4.51665 14.3334 5.16667V5.66667H1.66675V5.16667C1.66675 4.51665 2.18339 4 2.83341 4ZM1.66675 7H14.3334V10.8333C14.3334 11.4834 13.8168 12 13.1667 12H2.83341C2.18339 12 1.66675 11.4834 1.66675 10.8333V7ZM10.5001 9.66667C10.4338 9.66573 10.368 9.67797 10.3066 9.70268C10.2451 9.72738 10.1891 9.76406 10.1419 9.81059C10.0947 9.85711 10.0573 9.91255 10.0317 9.97367C10.0061 10.0348 9.99296 10.1004 9.99296 10.1667C9.99296 10.2329 10.0061 10.2985 10.0317 10.3597C10.0573 10.4208 10.0947 10.4762 10.1419 10.5227C10.1891 10.5693 10.2451 10.6059 10.3066 10.6307C10.368 10.6554 10.4338 10.6676 10.5001 10.6667H12.5001C12.5663 10.6676 12.6321 10.6554 12.6936 10.6307C12.7551 10.6059 12.811 10.5693 12.8582 10.5227C12.9054 10.4762 12.9429 10.4208 12.9685 10.3597C12.994 10.2985 13.0072 10.2329 13.0072 10.1667C13.0072 10.1004 12.994 10.0348 12.9685 9.97367C12.9429 9.91255 12.9054 9.85711 12.8582 9.81059C12.811 9.76406 12.7551 9.72738 12.6936 9.70268C12.6321 9.67797 12.5663 9.66573 12.5001 9.66667H10.5001Z" fill="#1F1926"/>
</g>
</svg>
