<svg width="24" height="24" viewBox="0 0 24 24" fill="none" xmlns="http://www.w3.org/2000/svg">
<g id="icons8-eye 1" clip-path="url(#clip0_107_4892)">
<path id="Vector" d="M11.9999 4.5C6.35082 4.5 1.36615 8.40782 0.0242939 13.5605C-0.00293409 13.6566 -0.0107201 13.7571 0.00139219 13.8562C0.0135045 13.9552 0.0452713 14.0509 0.0948312 14.1376C0.144391 14.2242 0.210747 14.3001 0.29001 14.3608C0.369273 14.4214 0.45985 14.4657 0.55643 14.4909C0.653011 14.5161 0.753654 14.5218 0.852461 14.5076C0.951268 14.4934 1.04625 14.4597 1.13184 14.4083C1.21744 14.357 1.29192 14.289 1.35092 14.2085C1.40993 14.128 1.45227 14.0365 1.47547 13.9395C2.63361 9.49218 7.04894 6 11.9999 6C16.9508 6 21.3661 9.49218 22.5243 13.9395C22.5475 14.0365 22.5898 14.128 22.6488 14.2085C22.7078 14.289 22.7823 14.357 22.8679 14.4083C22.9535 14.4597 23.0485 14.4934 23.1473 14.5076C23.2461 14.5218 23.3467 14.5161 23.4433 14.4909C23.5399 14.4657 23.6305 14.4214 23.7097 14.3608C23.789 14.3001 23.8554 14.2242 23.9049 14.1376C23.9545 14.0509 23.9863 13.9552 23.9984 13.8562C24.0105 13.7571 24.0027 13.6566 23.9755 13.5605C22.6336 8.40782 17.6489 4.5 11.9999 4.5ZM11.9999 8.5C9.33018 8.5 7.15027 10.6799 7.15027 13.3496C7.15027 16.0193 9.33018 18.2002 11.9999 18.2002C14.6696 18.2002 16.8495 16.0193 16.8495 13.3496C16.8495 10.6799 14.6696 8.5 11.9999 8.5ZM11.9999 10C13.8589 10 15.3495 11.4906 15.3495 13.3496C15.3495 15.2086 13.8589 16.7002 11.9999 16.7002C10.1408 16.7002 8.65027 15.2086 8.65027 13.3496C8.65027 11.4906 10.1408 10 11.9999 10Z" fill="#3E2ABB"/>
</g>
<defs>
<clipPath id="clip0_107_4892">
<rect width="24" height="24" fill="white"/>
</clipPath>
</defs>
</svg>
