<svg width="80" height="80" viewBox="0 0 80 80" fill="none" xmlns="http://www.w3.org/2000/svg">
<g clip-path="url(#clip0_38_12953)">
<path d="M11.3025 2.96875C10.805 2.96887 10.3188 3.11743 9.90618 3.39542C9.49355 3.67341 9.17324 4.06818 8.98623 4.52924C8.79922 4.99029 8.75402 5.49665 8.85641 5.98354C8.9588 6.47043 9.20413 6.91569 9.561 7.26237L11.9178 9.61914C12.1481 9.85907 12.4241 10.0506 12.7294 10.1826C13.0347 10.3145 13.3633 10.3843 13.6959 10.3876C14.0285 10.391 14.3584 10.328 14.6663 10.2023C14.9743 10.0766 15.254 9.89065 15.4892 9.65546C15.7244 9.42026 15.9103 9.1405 16.0361 8.83256C16.1618 8.52462 16.2248 8.19469 16.2214 7.86209C16.218 7.52949 16.1483 7.20091 16.0164 6.89559C15.8844 6.59027 15.6929 6.31435 15.4529 6.08398L13.0962 3.72721C12.8631 3.48724 12.5843 3.29646 12.2762 3.16618C11.9681 3.0359 11.637 2.96876 11.3025 2.96875ZM68.6235 2.97201C67.9742 2.99093 67.3578 3.26178 66.9047 3.72721L64.548 6.08398C64.308 6.31435 64.1165 6.59027 63.9845 6.89559C63.8526 7.20091 63.7828 7.52949 63.7795 7.8621C63.7761 8.1947 63.8391 8.52463 63.9648 8.83257C64.0905 9.14052 64.2764 9.42028 64.5116 9.65547C64.7468 9.89067 65.0266 10.0766 65.3345 10.2023C65.6425 10.328 65.9724 10.391 66.305 10.3877C66.6376 10.3843 66.9662 10.3146 67.2715 10.1826C67.5768 10.0506 67.8528 9.85907 68.0831 9.61914L70.4399 7.26237C70.8006 6.91111 71.0468 6.45915 71.1463 5.96564C71.2459 5.47213 71.1942 4.96007 70.9979 4.49645C70.8016 4.03284 70.4699 3.63928 70.0463 3.36728C69.6226 3.09528 69.1267 2.95751 68.6235 2.97201ZM40.0004 6.70247C27.1388 6.70747 16.6671 17.1367 16.6671 30C16.6671 36.44 19.3422 42.5488 23.9555 46.9238C25.7122 48.5888 26.8322 50.8154 27.3572 53.1771L28.1352 56.6667H51.8657L52.6437 53.1771C53.1687 50.8154 54.2904 48.5888 56.0454 46.9238C60.6604 42.5488 63.3338 36.44 63.3338 30C63.3338 17.1367 52.8621 6.70747 40.0004 6.70247ZM2.50045 25C2.16917 24.9953 1.84026 25.0565 1.53284 25.1801C1.22542 25.3036 0.945619 25.487 0.709695 25.7196C0.473771 25.9522 0.28643 26.2294 0.158561 26.535C0.0306918 26.8407 -0.0351563 27.1687 -0.0351562 27.5C-0.0351563 27.8313 0.0306918 28.1593 0.158561 28.465C0.28643 28.7706 0.473771 29.0478 0.709695 29.2804C0.945619 29.513 1.22542 29.6964 1.53284 29.8199C1.84026 29.9435 2.16917 30.0047 2.50045 30H7.50045C7.83173 30.0047 8.16064 29.9435 8.46806 29.8199C8.77548 29.6964 9.05528 29.513 9.2912 29.2804C9.52713 29.0478 9.71447 28.7706 9.84234 28.465C9.97021 28.1593 10.0361 27.8313 10.0361 27.5C10.0361 27.1687 9.97021 26.8407 9.84234 26.535C9.71447 26.2294 9.52713 25.9522 9.2912 25.7196C9.05528 25.487 8.77548 25.3036 8.46806 25.1801C8.16064 25.0565 7.83173 24.9953 7.50045 25H2.50045ZM72.5004 25C72.1692 24.9953 71.8403 25.0565 71.5328 25.1801C71.2254 25.3036 70.9456 25.487 70.7097 25.7196C70.4738 25.9522 70.2864 26.2294 70.1586 26.535C70.0307 26.8407 69.9648 27.1687 69.9648 27.5C69.9648 27.8313 70.0307 28.1593 70.1586 28.465C70.2864 28.7706 70.4738 29.0478 70.7097 29.2804C70.9456 29.513 71.2254 29.6964 71.5328 29.8199C71.8403 29.9435 72.1692 30.0047 72.5004 30H77.5004C77.8317 30.0047 78.1606 29.9435 78.4681 29.8199C78.7755 29.6964 79.0553 29.513 79.2912 29.2804C79.5271 29.0478 79.7145 28.7706 79.8423 28.465C79.9702 28.1593 80.036 27.8313 80.036 27.5C80.036 27.1687 79.9702 26.8407 79.8423 26.535C79.7145 26.2294 79.5271 25.9522 79.2912 25.7196C79.0553 25.487 78.7755 25.3036 78.4681 25.1801C78.1606 25.0565 77.8317 24.9953 77.5004 25H72.5004ZM66.2895 44.6224C65.792 44.6225 65.3058 44.7711 64.8932 45.0491C64.4805 45.3271 64.1602 45.7218 63.9732 46.1829C63.7862 46.6439 63.741 47.1503 63.8434 47.6372C63.9458 48.1241 64.1911 48.5693 64.548 48.916L66.9047 51.2728C67.1351 51.5127 67.411 51.7043 67.7164 51.8362C68.0217 51.9682 68.3503 52.0379 68.6828 52.0413C69.0154 52.0447 69.3454 51.9816 69.6533 51.8559C69.9613 51.7302 70.241 51.5443 70.4762 51.3091C70.7114 51.0739 70.8973 50.7941 71.023 50.4862C71.1487 50.1783 71.2118 49.8483 71.2084 49.5157C71.205 49.1831 71.1353 48.8546 71.0033 48.5492C70.8714 48.2439 70.6798 47.968 70.4399 47.7376L68.0831 45.3809C67.8501 45.1409 67.5713 44.9501 67.2632 44.8198C66.9551 44.6895 66.624 44.6224 66.2895 44.6224ZM13.6365 44.6257C12.9873 44.6446 12.3708 44.9154 11.9178 45.3809L9.561 47.7376C9.32107 47.968 9.12952 48.2439 8.99756 48.5492C8.8656 48.8546 8.79589 49.1831 8.79251 49.5157C8.78913 49.8483 8.85214 50.1783 8.97786 50.4862C9.10359 50.7941 9.28949 51.0739 9.52468 51.3091C9.75988 51.5443 10.0396 51.7302 10.3476 51.8559C10.6555 51.9816 10.9854 52.0447 11.318 52.0413C11.6506 52.0379 11.9792 51.9682 12.2845 51.8362C12.5899 51.7043 12.8658 51.5127 13.0962 51.2728L15.4529 48.916C15.8136 48.5648 16.0598 48.1128 16.1594 47.6193C16.2589 47.1258 16.2072 46.6137 16.0109 46.1501C15.8146 45.6865 15.483 45.2929 15.0593 45.0209C14.6357 44.7489 14.1398 44.6112 13.6365 44.6257ZM29.2452 61.6667L30.8208 68.7663C31.4141 71.4363 33.784 73.3333 36.5174 73.3333H43.4835C46.2169 73.3333 48.5868 71.4363 49.1801 68.7663L50.7557 61.6667H29.2452Z" fill="#28C7FF"/>
</g>
<defs>
<clipPath id="clip0_38_12953">
<rect width="80" height="80" fill="white"/>
</clipPath>
</defs>
</svg>
