<svg width="48" height="48" viewBox="0 0 48 48" fill="none" xmlns="http://www.w3.org/2000/svg">
<g id="icons8-friends 1">
<path id="Vector" d="M16.9999 4C15.9391 4 14.9217 4.42143 14.1715 5.17157C13.4214 5.92172 12.9999 6.93913 12.9999 8C12.9999 9.06087 13.4214 10.0783 14.1715 10.8284C14.9217 11.5786 15.9391 12 16.9999 12C18.0608 12 19.0782 11.5786 19.8284 10.8284C20.5785 10.0783 20.9999 9.06087 20.9999 8C20.9999 6.93913 20.5785 5.92172 19.8284 5.17157C19.0782 4.42143 18.0608 4 16.9999 4ZM30.9999 4C29.9391 4 28.9217 4.42143 28.1715 5.17157C27.4214 5.92172 26.9999 6.93913 26.9999 8C26.9999 9.06087 27.4214 10.0783 28.1715 10.8284C28.9217 11.5786 29.9391 12 30.9999 12C32.0608 12 33.0782 11.5786 33.8284 10.8284C34.5785 10.0783 34.9999 9.06087 34.9999 8C34.9999 6.93913 34.5785 5.92172 33.8284 5.17157C33.0782 4.42143 32.0608 4 30.9999 4ZM14.9999 14C11.7099 14 8.99994 16.71 8.99994 20V31C8.99634 31.2649 9.04542 31.5279 9.14432 31.7737C9.24321 32.0195 9.38996 32.2432 9.57603 32.4319C9.7621 32.6205 9.9838 32.7703 10.2282 32.8725C10.4727 32.9747 10.735 33.0273 10.9999 33.0273V43C10.9962 43.265 11.0452 43.5281 11.144 43.7741C11.2428 44.02 11.3895 44.2439 11.5756 44.4326C11.7617 44.6213 11.9835 44.7712 12.228 44.8735C12.4725 44.9758 12.7349 45.0285 12.9999 45.0285C13.265 45.0285 13.5274 44.9758 13.7719 44.8735C14.0164 44.7712 14.2382 44.6213 14.4243 44.4326C14.6103 44.2439 14.7571 44.02 14.8559 43.7741C14.9547 43.5281 15.0037 43.265 14.9999 43V32H16.9999V43C16.9962 43.265 17.0452 43.5281 17.144 43.7741C17.2428 44.02 17.3895 44.2439 17.5756 44.4326C17.7617 44.6213 17.9835 44.7712 18.228 44.8735C18.4725 44.9758 18.7349 45.0285 18.9999 45.0285C19.265 45.0285 19.5274 44.9758 19.7719 44.8735C20.0164 44.7712 20.2382 44.6213 20.4243 44.4326C20.6103 44.2439 20.7571 44.02 20.8559 43.7741C20.9547 43.5281 21.0037 43.265 20.9999 43V30V18H31.9999C32.265 18.0037 32.5281 17.9548 32.774 17.856C33.02 17.7571 33.2438 17.6104 33.4325 17.4243C33.6213 17.2382 33.7712 17.0165 33.8735 16.772C33.9757 16.5275 34.0284 16.265 34.0284 16C34.0284 15.735 33.9757 15.4725 33.8735 15.228C33.7712 14.9835 33.6213 14.7618 33.4325 14.5757C33.2438 14.3896 33.02 14.2429 32.774 14.144C32.5281 14.0452 32.265 13.9963 31.9999 14H20.9999H14.9999ZM35.955 15.5605C35.971 15.7075 35.9999 15.849 35.9999 16C35.9999 18.206 34.2059 20 31.9999 20H23.9999V31C23.9999 32.104 24.8959 33 25.9999 33V43C25.9962 43.265 26.0452 43.5281 26.144 43.7741C26.2428 44.02 26.3895 44.2439 26.5756 44.4326C26.7617 44.6213 26.9835 44.7712 27.228 44.8735C27.4725 44.9758 27.7349 45.0285 27.9999 45.0285C28.265 45.0285 28.5274 44.9758 28.7719 44.8735C29.0164 44.7712 29.2382 44.6213 29.4243 44.4326C29.6103 44.2439 29.7571 44.02 29.8559 43.7741C29.9547 43.5281 30.0037 43.265 29.9999 43V32H31.9999V43C31.9962 43.265 32.0452 43.5281 32.144 43.7741C32.2428 44.02 32.3895 44.2439 32.5756 44.4326C32.7617 44.6213 32.9835 44.7712 33.228 44.8735C33.4725 44.9758 33.7349 45.0285 33.9999 45.0285C34.265 45.0285 34.5274 44.9758 34.7719 44.8735C35.0164 44.7712 35.2382 44.6213 35.4243 44.4326C35.6103 44.2439 35.7571 44.02 35.8559 43.7741C35.9547 43.5281 36.0037 43.265 35.9999 43V33H36.0019C37.1059 33 38.0019 32.104 38.0019 31V19.75C38.0009 18.097 37.209 16.6105 35.955 15.5605Z" fill="#3E2ABB"/>
</g>
</svg>
