<svg width="16" height="16" viewBox="0 0 16 16" fill="none" xmlns="http://www.w3.org/2000/svg">
<g id="icons8-tear-off_calendar 1">
<path id="Vector" d="M14 4.66667V4.16667C14 2.972 13.028 2 11.8333 2H4.16667C2.972 2 2 2.972 2 4.16667V4.66667H14ZM2 5.66667V11.8333C2 13.028 2.972 14 4.16667 14H11.8333C13.028 14 14 13.028 14 11.8333V5.66667H2ZM11.3333 10.6667C11.3333 11.035 11.035 11.3333 10.6667 11.3333H9.33333C8.965 11.3333 8.66667 11.035 8.66667 10.6667V9.33333C8.66667 8.965 8.965 8.66667 9.33333 8.66667H10.6667C11.035 8.66667 11.3333 8.965 11.3333 9.33333V10.6667Z" fill="white"/>
</g>
</svg>
