<svg width="20" height="20" viewBox="0 0 20 20" fill="none" xmlns="http://www.w3.org/2000/svg">
<g id="icons8-cancel 2">
<path id="Vector" d="M10.0001 1.66675C5.39758 1.66675 1.66675 5.39758 1.66675 10.0001C1.66675 14.6026 5.39758 18.3334 10.0001 18.3334C14.6026 18.3334 18.3334 14.6026 18.3334 10.0001C18.3334 5.39758 14.6026 1.66675 10.0001 1.66675ZM13.1505 12.2663C13.3947 12.5105 13.3947 12.9059 13.1505 13.1501C13.0284 13.2726 12.8684 13.3334 12.7084 13.3334C12.5484 13.3334 12.3884 13.2726 12.2663 13.1505L10.0001 10.8838L7.73383 13.1501C7.61175 13.2726 7.45175 13.3334 7.29175 13.3334C7.13175 13.3334 6.97175 13.2726 6.84966 13.1505C6.6055 12.9063 6.6055 12.5109 6.84966 12.2667L9.11633 10.0001L6.85008 7.73383C6.60591 7.48967 6.60591 7.09425 6.85008 6.85008C7.09425 6.60591 7.48967 6.60591 7.73383 6.85008L10.0001 9.11633L12.2663 6.85008C12.5105 6.60591 12.9059 6.60591 13.1501 6.85008C13.3942 7.09425 13.3942 7.48967 13.1501 7.73383L10.8838 10.0001L13.1505 12.2663Z" fill="#FF3880"/>
</g>
</svg>
