<svg width="80" height="80" viewBox="0 0 80 80" fill="none" xmlns="http://www.w3.org/2000/svg">
<g id="icons8-pay 1">
<path id="Vector" d="M35.8333 8.33326C32.6417 8.33326 30 10.975 30 14.1666V24.8014L21.7643 27.3339C18.8636 28.2258 16.3858 30.1469 14.7949 32.731C14.7905 32.7386 14.7862 32.7462 14.7819 32.7538L3.69141 51.2109C3.51562 51.4923 3.39761 51.8059 3.34426 52.1334C3.29091 52.4609 3.30329 52.7958 3.38066 53.1184C3.45804 53.4411 3.59888 53.7452 3.79496 54.0128C3.99103 54.2805 4.23844 54.5065 4.52274 54.6776C4.80705 54.8487 5.12257 54.9615 5.45092 55.0094C5.77926 55.0574 6.11386 55.0394 6.4352 54.9567C6.75655 54.874 7.05822 54.7282 7.32263 54.5277C7.58704 54.3272 7.80889 54.0761 7.97526 53.789L19.0527 35.3515L19.0592 35.3417C20.0152 33.7943 21.5002 32.6494 23.2357 32.1158L30 30.0325V42.4999C30 42.6981 30.0222 42.89 30.0423 43.0826L26.224 45.3515C25.9299 45.5129 25.6713 45.7319 25.4636 45.9953C25.2559 46.2588 25.1034 46.5614 25.0151 46.885C24.9267 47.2086 24.9045 47.5467 24.9495 47.8792C24.9946 48.2116 25.1061 48.5316 25.2774 48.82C25.4487 49.1084 25.6764 49.3594 25.9467 49.5581C26.217 49.7567 26.5246 49.8989 26.8511 49.9762C27.1775 50.0535 27.5162 50.0643 27.8469 50.008C28.1776 49.9517 28.4936 49.8294 28.776 49.6484L33.7598 46.6861C34.1498 46.5684 34.5051 46.3572 34.7949 46.0709L44.1895 40.4882C44.2114 40.4755 44.2331 40.4625 44.2546 40.4491C45.317 39.7733 46.6678 39.9221 47.5553 40.8105C48.4598 41.715 48.5788 43.0308 47.946 44.0527C47.7993 44.199 47.6713 44.363 47.5651 44.5409C47.5425 44.5638 47.5268 44.5902 47.5033 44.6126L26.8848 63.7141C26.8804 63.7174 26.8761 63.7206 26.8717 63.7239C24.8608 65.6141 22.2091 66.6666 19.4499 66.6666H5.83334C5.50206 66.6619 5.17315 66.7231 4.86573 66.8466C4.55831 66.9702 4.2785 67.1536 4.04258 67.3862C3.80666 67.6188 3.61932 67.896 3.49145 68.2016C3.36358 68.5073 3.29773 68.8353 3.29773 69.1666C3.29773 69.4979 3.36358 69.8259 3.49145 70.1316C3.61932 70.4372 3.80666 70.7144 4.04258 70.947C4.2785 71.1796 4.55831 71.363 4.86573 71.4865C5.17315 71.6101 5.50206 71.6713 5.83334 71.6666H19.4499C23.4751 71.6666 27.3489 70.1321 30.2832 67.3795L30.2897 67.3762L50.8431 48.3333H74.1667C74.4979 48.3379 74.8269 48.2767 75.1343 48.1532C75.4417 48.0297 75.7215 47.8463 75.9574 47.6137C76.1933 47.381 76.3807 47.1039 76.5086 46.7982C76.6364 46.4926 76.7023 46.1646 76.7023 45.8333C76.7023 45.5019 76.6364 45.1739 76.5086 44.8683C76.3807 44.5626 76.1933 44.2855 75.9574 44.0529C75.7215 43.8202 75.4417 43.6368 75.1343 43.5133C74.8269 43.3898 74.4979 43.3286 74.1667 43.3333H53.2552C53.4376 41.1613 52.7403 38.9251 51.0905 37.2753C49.8276 36.0112 48.2013 35.2729 46.5137 35.0878C44.8261 34.9027 43.0794 35.2717 41.5723 36.2304L35 40.1366V26.9693C35.031 26.7436 35.031 26.5147 35 26.289V18.3333C37.7667 18.3333 40 16.0999 40 13.3333H74.1667C74.4979 13.3379 74.8269 13.2767 75.1343 13.1532C75.4417 13.0297 75.7215 12.8463 75.9574 12.6137C76.1933 12.381 76.3807 12.1039 76.5086 11.7982C76.6364 11.4926 76.7023 11.1646 76.7023 10.8333C76.7023 10.5019 76.6364 10.1739 76.5086 9.86829C76.3807 9.56265 76.1933 9.28547 75.9574 9.05286C75.7215 8.82025 75.4417 8.63684 75.1343 8.51331C74.8269 8.38978 74.4979 8.32857 74.1667 8.33326H35.8333ZM61.6667 16.6666C58.4028 16.6666 55.6588 18.3068 54.0202 20.5598C52.3816 22.8129 51.6667 25.587 51.6667 28.3333C51.6667 31.0795 52.3816 33.8536 54.0202 36.1067C55.6588 38.3597 58.4028 39.9999 61.6667 39.9999C64.9306 39.9999 67.6746 38.3597 69.3131 36.1067C70.9517 33.8536 71.6667 31.0795 71.6667 28.3333C71.6667 25.587 70.9517 22.8129 69.3131 20.5598C67.6746 18.3068 64.9306 16.6666 61.6667 16.6666ZM61.6667 21.6666C63.4028 21.6666 64.4088 22.3181 65.2702 23.5025C66.1316 24.687 66.6667 26.4961 66.6667 28.3333C66.6667 30.1704 66.1316 31.9795 65.2702 33.164C64.4088 34.3484 63.4028 34.9999 61.6667 34.9999C59.9306 34.9999 58.9246 34.3484 58.0631 33.164C57.2017 31.9795 56.6667 30.1704 56.6667 28.3333C56.6667 26.4961 57.2017 24.687 58.0631 23.5025C58.9246 22.3181 59.9306 21.6666 61.6667 21.6666ZM41.6667 24.9999C40.7826 24.9999 39.9348 25.3511 39.3096 25.9762C38.6845 26.6014 38.3333 27.4492 38.3333 28.3333C38.3333 29.2173 38.6845 30.0652 39.3096 30.6903C39.9348 31.3154 40.7826 31.6666 41.6667 31.6666C42.5507 31.6666 43.3986 31.3154 44.0237 30.6903C44.6488 30.0652 45 29.2173 45 28.3333C45 27.4492 44.6488 26.6014 44.0237 25.9762C43.3986 25.3511 42.5507 24.9999 41.6667 24.9999Z" fill="#3E2ABB"/>
</g>
</svg>
