<svg width="48" height="48" viewBox="0 0 48 48" fill="none" xmlns="http://www.w3.org/2000/svg">
<rect x="0.5" y="0.5" width="47" height="47" rx="23.5" fill="white" stroke="#3E2ABB"/>
<path d="M20.2503 16.917C17.7263 16.917 15.667 18.9763 15.667 21.5003C15.667 23.2071 16.9535 24.814 18.5218 26.4621C20.0901 28.1101 22.0205 29.7793 23.5584 31.3172C23.6756 31.4344 23.8346 31.5002 24.0003 31.5002C24.1661 31.5002 24.325 31.4344 24.4422 31.3172C25.9802 29.7793 27.9105 28.1101 29.4788 26.4621C31.0471 24.814 32.3337 23.2071 32.3337 21.5003C32.3337 18.9763 30.2743 16.917 27.7503 16.917C26.3018 16.917 25.0407 17.6947 24.0003 19.0158C22.96 17.6947 21.6988 16.917 20.2503 16.917ZM20.2503 18.167C21.4706 18.167 22.4863 18.8163 23.4722 20.3757C23.5285 20.4647 23.6065 20.5381 23.6989 20.5889C23.7912 20.6398 23.8949 20.6664 24.0003 20.6664C24.1057 20.6664 24.2094 20.6398 24.3018 20.5889C24.3941 20.5381 24.4721 20.4647 24.5285 20.3757C25.5144 18.8163 26.5301 18.167 27.7503 18.167C29.5988 18.167 31.0837 19.6518 31.0837 21.5003C31.0837 22.5019 30.0785 24.02 28.5739 25.6011C27.3258 26.9127 25.8082 28.2761 24.417 29.6099C24.413 29.4468 24.3453 29.2918 24.2286 29.1779C24.1118 29.064 23.9551 29.0003 23.792 29.0003C23.6849 29.0004 23.5797 29.028 23.4864 29.0804C23.393 29.1329 23.3147 29.2084 23.259 29.2998C22.9814 29.0363 22.7054 28.7728 22.4232 28.508C22.5453 28.4417 22.6419 28.3366 22.6976 28.2093C22.7533 28.082 22.765 27.9397 22.7309 27.805C22.6967 27.6703 22.6186 27.5508 22.509 27.4655C22.3993 27.3801 22.2643 27.3337 22.1253 27.3337C22.0064 27.3339 21.8899 27.3682 21.7898 27.4323C21.6896 27.4965 21.6098 27.5879 21.5597 27.6958C21.267 27.4196 20.9787 27.1445 20.6947 26.8698C20.8282 26.8147 20.9386 26.715 21.007 26.5878C21.0754 26.4605 21.0975 26.3134 21.0697 26.1717C21.0419 26.0299 20.9658 25.9021 20.8544 25.8101C20.743 25.7181 20.6031 25.6675 20.4587 25.667C20.3343 25.6671 20.2128 25.7044 20.1097 25.774C20.0067 25.8436 19.9267 25.9423 19.88 26.0576C19.7299 25.9056 19.5702 25.7518 19.4268 25.6011C19.2963 25.464 19.175 25.3284 19.0524 25.1925C19.1815 25.1328 19.2864 25.0308 19.3497 24.9035C19.413 24.7761 19.4309 24.6309 19.4006 24.4919C19.3702 24.353 19.2934 24.2285 19.1827 24.1391C19.0721 24.0498 18.9342 24.0008 18.792 24.0003C18.6904 24.0005 18.5905 24.0254 18.5007 24.0729C18.4109 24.1204 18.3341 24.1891 18.2769 24.2729C18.028 23.9543 17.8026 23.6424 17.616 23.3452C17.6886 23.2531 17.7337 23.1424 17.7463 23.0258C17.7589 22.9092 17.7384 22.7914 17.6873 22.6859C17.6361 22.5804 17.5562 22.4914 17.4569 22.4291C17.3575 22.3668 17.2426 22.3337 17.1253 22.3337C17.1155 22.334 17.1058 22.3345 17.096 22.3353C16.9797 22.0297 16.917 21.7491 16.917 21.5003C16.917 21.0566 17.0047 20.635 17.1603 20.2487C17.2623 20.2429 17.3613 20.2122 17.4486 20.1592C17.536 20.1063 17.609 20.0328 17.6614 19.9451C17.7137 19.8574 17.7438 19.7582 17.7489 19.6562C17.7541 19.5543 17.7342 19.4525 17.6909 19.36C18.3011 18.6302 19.2189 18.167 20.2503 18.167ZM20.4587 19.0003C20.2929 19.0003 20.1339 19.0662 20.0167 19.1834C19.8995 19.3006 19.8337 19.4596 19.8337 19.6253C19.8337 19.7911 19.8995 19.9501 20.0167 20.0673C20.1339 20.1845 20.2929 20.2503 20.4587 20.2503C20.6244 20.2503 20.7834 20.1845 20.9006 20.0673C21.0178 19.9501 21.0837 19.7911 21.0837 19.6253C21.0837 19.4596 21.0178 19.3006 20.9006 19.1834C20.7834 19.0662 20.6244 19.0003 20.4587 19.0003ZM18.792 20.667C18.6262 20.667 18.4673 20.7328 18.3501 20.8501C18.2328 20.9673 18.167 21.1262 18.167 21.292C18.167 21.4578 18.2328 21.6167 18.3501 21.7339C18.4673 21.8511 18.6262 21.917 18.792 21.917C18.9578 21.917 19.1167 21.8511 19.2339 21.7339C19.3511 21.6167 19.417 21.4578 19.417 21.292C19.417 21.1262 19.3511 20.9673 19.2339 20.8501C19.1167 20.7328 18.9578 20.667 18.792 20.667ZM22.1253 20.667C21.9596 20.667 21.8006 20.7328 21.6834 20.8501C21.5662 20.9673 21.5003 21.1262 21.5003 21.292C21.5003 21.4578 21.5662 21.6167 21.6834 21.7339C21.8006 21.8511 21.9596 21.917 22.1253 21.917C22.2911 21.917 22.4501 21.8511 22.5673 21.7339C22.6845 21.6167 22.7503 21.4578 22.7503 21.292C22.7503 21.1262 22.6845 20.9673 22.5673 20.8501C22.4501 20.7328 22.2911 20.667 22.1253 20.667ZM20.4587 22.3337C20.2929 22.3337 20.1339 22.3995 20.0167 22.5167C19.8995 22.6339 19.8337 22.7929 19.8337 22.9587C19.8337 23.1244 19.8995 23.2834 20.0167 23.4006C20.1339 23.5178 20.2929 23.5837 20.4587 23.5837C20.6244 23.5837 20.7834 23.5178 20.9006 23.4006C21.0178 23.2834 21.0837 23.1244 21.0837 22.9587C21.0837 22.7929 21.0178 22.6339 20.9006 22.5167C20.7834 22.3995 20.6244 22.3337 20.4587 22.3337ZM23.792 22.3337C23.6262 22.3337 23.4673 22.3995 23.3501 22.5167C23.2328 22.6339 23.167 22.7929 23.167 22.9587C23.167 23.1244 23.2328 23.2834 23.3501 23.4006C23.4673 23.5178 23.6262 23.5837 23.792 23.5837C23.9578 23.5837 24.1167 23.5178 24.2339 23.4006C24.3511 23.2834 24.417 23.1244 24.417 22.9587C24.417 22.7929 24.3511 22.6339 24.2339 22.5167C24.1167 22.3995 23.9578 22.3337 23.792 22.3337ZM22.1253 24.0003C21.9596 24.0003 21.8006 24.0662 21.6834 24.1834C21.5662 24.3006 21.5003 24.4596 21.5003 24.6253C21.5003 24.7911 21.5662 24.9501 21.6834 25.0673C21.8006 25.1845 21.9596 25.2503 22.1253 25.2503C22.2911 25.2503 22.4501 25.1845 22.5673 25.0673C22.6845 24.9501 22.7503 24.7911 22.7503 24.6253C22.7503 24.4596 22.6845 24.3006 22.5673 24.1834C22.4501 24.0662 22.2911 24.0003 22.1253 24.0003ZM23.792 25.667C23.6262 25.667 23.4673 25.7328 23.3501 25.8501C23.2328 25.9673 23.167 26.1262 23.167 26.292C23.167 26.4578 23.2328 26.6167 23.3501 26.7339C23.4673 26.8511 23.6262 26.917 23.792 26.917C23.9578 26.917 24.1167 26.8511 24.2339 26.7339C24.3511 26.6167 24.417 26.4578 24.417 26.292C24.417 26.1262 24.3511 25.9673 24.2339 25.8501C24.1167 25.7328 23.9578 25.667 23.792 25.667Z" fill="#3E2ABB"/>
</svg>
