<svg width="36" height="24" viewBox="0 0 36 24" fill="none" xmlns="http://www.w3.org/2000/svg">
<rect width="36" height="24" rx="12" fill="#3E2ABB"/>
<path d="M22.8677 8.24625C22.7703 8.24909 22.6779 8.28972 22.6099 8.35953L16.1251 14.8444L13.3902 12.1095C13.3556 12.0735 13.3143 12.0448 13.2685 12.025C13.2227 12.0052 13.1734 11.9948 13.1235 11.9943C13.0736 11.9937 13.0241 12.0032 12.9779 12.0221C12.9317 12.0409 12.8898 12.0688 12.8545 12.1041C12.8192 12.1394 12.7913 12.1813 12.7725 12.2275C12.7536 12.2737 12.7441 12.3232 12.7446 12.3731C12.7452 12.423 12.7556 12.4723 12.7754 12.5181C12.7952 12.5639 12.8239 12.6052 12.8599 12.6398L15.8599 15.6398C15.9303 15.7101 16.0256 15.7496 16.1251 15.7496C16.2245 15.7496 16.3199 15.7101 16.3902 15.6398L23.1402 8.8898C23.1943 8.83712 23.2312 8.76932 23.2462 8.69529C23.2611 8.62127 23.2533 8.54446 23.2239 8.47492C23.1945 8.40537 23.1447 8.34634 23.0812 8.30554C23.0176 8.26474 22.9432 8.24408 22.8677 8.24625Z" fill="white" stroke="white"/>
</svg>
