<svg width="48" height="48" viewBox="0 0 48 48" fill="none" xmlns="http://www.w3.org/2000/svg">
<path d="M32.589 8.5332C27.476 8.5332 24 11.9692 24 11.9692C24 11.9692 20.543 8.5332 15.411 8.5332C9.719 8.5332 5.104 13.1482 5.104 18.8402C5.104 29.1472 24 39.4542 24 39.4542C24 39.4542 42.896 29.1472 42.896 18.8402C42.896 13.1472 38.282 8.5332 32.589 8.5332Z" fill="url(#paint0_radial_38_13487)"/>
<path d="M32.589 8.5332C27.476 8.5332 24 11.9692 24 11.9692C24 11.9692 20.543 8.5332 15.411 8.5332C9.719 8.5332 5.104 13.1482 5.104 18.8402C5.104 29.1472 24 39.4542 24 39.4542C24 39.4542 42.896 29.1472 42.896 18.8402C42.896 13.1472 38.282 8.5332 32.589 8.5332Z" fill="url(#paint1_linear_38_13487)"/>
<path opacity="0.69" d="M21.1641 11.9498C22.4311 14.1448 20.7691 17.4778 17.4501 19.3938C14.1311 21.3098 10.4141 21.0838 9.14709 18.8878C7.88009 16.6918 9.54209 13.3598 12.8611 11.4438C16.1801 9.52778 19.8971 9.75378 21.1641 11.9498Z" fill="url(#paint2_radial_38_13487)"/>
<path opacity="0.015" d="M22.2041 28.998C19.3471 30.198 17.3141 31.977 17.2691 35.131L12.4521 31.34L16.6971 29.095L22.2041 28.998Z" fill="#BE2510"/>
<path opacity="0.029" d="M22.2034 28.998C19.3504 30.181 17.3124 31.952 17.2314 35.101L12.4214 31.316L16.7414 29.092L22.2034 28.998Z" fill="#BD2510"/>
<path opacity="0.044" d="M22.2011 28.998C19.3521 30.163 17.3091 31.928 17.1921 35.071L12.3901 31.292L16.7861 29.089L22.2011 28.998Z" fill="#BC2410"/>
<path opacity="0.059" d="M22.2004 28.998C19.3554 30.145 17.3064 31.903 17.1554 35.041L12.3604 31.269L16.8324 29.087L22.2004 28.998Z" fill="#BB2410"/>
<path opacity="0.073" d="M22.1991 28.998C19.3591 30.127 17.3041 31.878 17.1171 35.011L12.3301 31.245L16.8771 29.084L22.1991 28.998Z" fill="#BA2410"/>
<path opacity="0.088" d="M22.1973 28.998C19.3613 30.109 17.3013 31.854 17.0783 34.98L12.2983 31.22L16.9213 29.08L22.1973 28.998Z" fill="#B9240F"/>
<path opacity="0.103" d="M22.1961 28.998C19.3641 30.091 17.2991 31.829 17.0401 34.95L12.2671 31.196L16.9651 29.078L22.1961 28.998Z" fill="#B8230F"/>
<path opacity="0.118" d="M22.1953 28.998C19.3673 30.073 17.2973 31.805 17.0023 34.92L12.2373 31.172L17.0113 29.075L22.1953 28.998Z" fill="#B7230F"/>
<path opacity="0.132" d="M22.1931 28.998C19.3691 30.055 17.2941 31.78 16.9631 34.89L12.2051 31.149L17.0551 29.073L22.1931 28.998Z" fill="#B6230F"/>
<path opacity="0.147" d="M22.1923 28.998C19.3733 30.037 17.2923 31.755 16.9253 34.86L12.1753 31.125L17.1003 29.07L22.1923 28.998Z" fill="#B5230F"/>
<path opacity="0.162" d="M22.191 29C19.376 30.021 17.29 31.733 16.887 34.832L12.144 31.103L17.145 29.069L22.191 29Z" fill="#B4220F"/>
<path opacity="0.176" d="M22.1893 29C19.3783 30.003 17.2873 31.708 16.8483 34.802L12.1133 31.079L17.1893 29.066L22.1893 29Z" fill="#B3220F"/>
<path opacity="0.191" d="M22.188 29C19.381 29.985 17.285 31.683 16.81 34.771L12.082 31.055L17.234 29.063L22.188 29Z" fill="#B2220F"/>
<path opacity="0.206" d="M22.1872 29C19.3842 29.968 17.2832 31.659 16.7722 34.741L12.0522 31.031L17.2802 29.06L22.1872 29Z" fill="#B1220F"/>
<path opacity="0.221" d="M22.185 29C19.386 29.95 17.28 31.634 16.733 34.711L12.02 31.007L17.323 29.057L22.185 29Z" fill="#B0210F"/>
<path opacity="0.235" d="M22.1843 29C19.3903 29.932 17.2783 31.61 16.6953 34.681L11.9893 30.983L17.3683 29.055L22.1843 29Z" fill="#AF210F"/>
<path opacity="0.25" d="M22.183 29C19.393 29.914 17.276 31.585 16.657 34.651L11.959 30.959L17.413 29.052L22.183 29Z" fill="#AE210E"/>
<path opacity="0.265" d="M22.1812 29C19.3952 29.896 17.2732 31.56 16.6182 34.621L11.9272 30.936L17.4572 29.05L22.1812 29Z" fill="#AD210E"/>
<path opacity="0.279" d="M22.18 29C19.398 29.878 17.271 31.536 16.58 34.591L11.897 30.912L17.503 29.047L22.18 29Z" fill="#AC210E"/>
<path opacity="0.294" d="M22.1792 29C19.4012 29.86 17.2692 31.511 16.5422 34.561L11.8662 30.888L17.5472 29.044L22.1792 29Z" fill="#AB200E"/>
<path opacity="0.309" d="M22.1784 29C19.4044 29.842 17.2664 31.486 16.5044 34.53L11.8364 30.863L17.5934 29.04L22.1784 29Z" fill="#AA200E"/>
<path opacity="0.324" d="M22.1762 29C19.4072 29.824 17.2632 31.462 16.4652 34.5L11.8042 30.839L17.6362 29.037L22.1762 29Z" fill="#A9200E"/>
<path opacity="0.338" d="M22.1754 29C19.4104 29.806 17.2614 31.437 16.4274 34.47L11.7744 30.816L17.6824 29.035L22.1754 29Z" fill="#A8200E"/>
<path opacity="0.353" d="M22.1741 29C19.4131 29.788 17.2591 31.413 16.3901 34.44L11.7441 30.792L17.7281 29.033L22.1741 29Z" fill="#A71F0E"/>
<path opacity="0.368" d="M22.1724 29C19.4154 29.77 17.2564 31.388 16.3514 34.41L11.7134 30.768L17.7724 29.03L22.1724 29Z" fill="#A61F0E"/>
<path opacity="0.382" d="M22.1711 29C19.4181 29.753 17.2541 31.363 16.3131 34.38L11.6821 30.744L17.8171 29.027L22.1711 29Z" fill="#A51F0E"/>
<path opacity="0.397" d="M22.1704 29C19.4214 29.735 17.2524 31.339 16.2754 34.35L11.6514 30.72L17.8624 29.024L22.1704 29Z" fill="#A41F0E"/>
<path opacity="0.412" d="M22.1681 29C19.4241 29.717 17.2491 31.314 16.2361 34.319L11.6201 30.696L17.9061 29.021L22.1681 29Z" fill="#A31E0E"/>
<path opacity="0.426" d="M22.1674 29C19.4274 29.699 17.2474 31.289 16.1984 34.289L11.5894 30.672L17.9514 29.018L22.1674 29Z" fill="#A21E0D"/>
<path opacity="0.441" d="M22.1661 29C19.4301 29.681 17.2451 31.265 16.1601 34.259L11.5591 30.648L17.9961 29.015L22.1661 29Z" fill="#A11E0D"/>
<path opacity="0.456" d="M22.1643 29C19.4323 29.663 17.2423 31.24 16.1213 34.229L11.5273 30.624L18.0403 29.012L22.1643 29Z" fill="#A01E0D"/>
<path opacity="0.471" d="M22.1631 29C19.4351 29.645 17.2401 31.216 16.0831 34.199L11.4971 30.601L18.0861 29.01L22.1631 29Z" fill="#9F1D0D"/>
<path opacity="0.485" d="M22.1623 29C19.4383 29.627 17.2383 31.191 16.0453 34.169L11.4663 30.577L18.1303 29.008L22.1623 29Z" fill="#9E1D0D"/>
<path opacity="0.5" d="M22.1601 29C19.4411 29.609 17.2351 31.166 16.0061 34.139L11.4351 30.553L18.1751 29.005L22.1601 29Z" fill="#9E1D0D"/>
<path opacity="0.515" d="M22.1593 29C19.4443 29.591 17.2333 31.142 15.9683 34.109L11.4043 30.529L18.2193 29.001L22.1593 29Z" fill="#9D1D0D"/>
<path opacity="0.529" d="M22.158 29C19.447 29.573 17.231 31.117 15.93 34.078L11.373 30.504L18.264 28.998L22.158 29Z" fill="#9C1D0D"/>
<path opacity="0.544" d="M22.1563 29.0001C19.4493 29.5551 17.2283 31.0921 15.8913 34.0481L11.3423 30.4811L18.3093 28.9961L22.1563 29.0001Z" fill="#9B1C0D"/>
<path opacity="0.559" d="M22.155 28.9992C19.452 29.5372 17.225 31.0672 15.853 34.0172L11.311 30.4562L18.353 28.9922L22.155 28.9992Z" fill="#9A1C0D"/>
<path opacity="0.574" d="M22.1542 28.9983C19.4552 29.5183 17.2232 31.0413 15.8152 33.9863L11.2812 30.4313L18.3993 28.9883L22.1542 28.9983Z" fill="#991C0D"/>
<path opacity="0.588" d="M22.152 28.9993C19.458 29.5013 17.22 31.0183 15.776 33.9573L11.249 30.4083L18.442 28.9863L22.152 28.9993Z" fill="#981C0C"/>
<path opacity="0.603" d="M22.1512 28.9984C19.4612 29.4824 17.2182 30.9924 15.7382 33.9264L11.2192 30.3834L18.4882 28.9824L22.1512 28.9984Z" fill="#971B0C"/>
<path opacity="0.618" d="M22.15 28.9994C19.464 29.4654 17.216 30.9684 15.7 33.8974L11.188 30.3614L18.533 28.9824L22.15 28.9994Z" fill="#961B0C"/>
<path opacity="0.632" d="M22.1482 28.9995C19.4662 29.4475 17.2132 30.9445 15.6612 33.8665L11.1572 30.3365L18.5772 28.9785L22.1482 28.9995Z" fill="#951B0C"/>
<path opacity="0.647" d="M22.147 28.9986C19.469 29.4286 17.211 30.9186 15.623 33.8356L11.126 30.3116L18.622 28.9746L22.147 28.9986Z" fill="#941B0C"/>
<path opacity="0.662" d="M22.1462 28.9997C19.4722 29.4117 17.2092 30.8947 15.5862 33.8067L11.0962 30.2887L18.6672 28.9727L22.1462 28.9997Z" fill="#931A0C"/>
<path opacity="0.676" d="M22.1444 28.9988C19.4754 29.3928 17.2064 30.8698 15.5474 33.7758L11.0654 30.2638L18.7124 28.9688L22.1444 28.9988Z" fill="#921A0C"/>
<path opacity="0.691" d="M22.1432 28.9988C19.4782 29.3748 17.2042 30.8448 15.5092 33.7458L11.0342 30.2408L18.7572 28.9668L22.1432 28.9988Z" fill="#911A0C"/>
<path opacity="0.706" d="M22.1424 28.9998C19.4814 29.3578 17.2024 30.8218 15.4714 33.7168L11.0044 30.2178L18.8024 28.9648L22.1424 28.9998Z" fill="#901A0C"/>
<path opacity="0.721" d="M22.1402 28.9989C19.4832 29.3389 17.1992 30.7959 15.4322 33.6859L10.9722 30.1929L18.8462 28.9609L22.1402 28.9989Z" fill="#8F190C"/>
<path opacity="0.735" d="M22.1394 28.999C19.4864 29.322 17.1974 30.771 15.3944 33.656L10.9424 30.169L18.8914 28.959L22.1394 28.999Z" fill="#8E190C"/>
<path opacity="0.75" d="M22.1381 29C19.4891 29.305 17.1951 30.748 15.3561 33.626L10.9111 30.146L18.9361 28.957L22.1381 29Z" fill="#8D190C"/>
<path opacity="0.765" d="M22.1364 28.9991C19.4924 29.2861 17.1924 30.7221 15.3174 33.5951L10.8804 30.1211L18.9814 28.9531L22.1364 28.9991Z" fill="#8C190B"/>
<path opacity="0.779" d="M22.1351 29.0002C19.4951 29.2692 17.1901 30.6982 15.2791 33.5662L10.8491 30.0982L19.0251 28.9512L22.1351 29.0002Z" fill="#8B190B"/>
<path opacity="0.794" d="M22.1343 28.9993C19.4983 29.2503 17.1883 30.6733 15.2413 33.5353L10.8193 30.0733L19.0713 28.9473L22.1343 28.9993Z" fill="#8A180B"/>
<path opacity="0.809" d="M22.1321 28.9984C19.5001 29.2314 17.1841 30.6474 15.2021 33.5044L10.7871 30.0484L19.1141 28.9434L22.1321 28.9984Z" fill="#89180B"/>
<path opacity="0.824" d="M22.1313 28.9984C19.5033 29.2134 17.1823 30.6234 15.1643 33.4744L10.7563 30.0254L19.1593 28.9414L22.1313 28.9984Z" fill="#88180B"/>
<path opacity="0.838" d="M22.1301 28.9995C19.5071 29.1965 17.1801 30.5995 15.1261 33.4455L10.7261 30.0025L19.2051 28.9395L22.1301 28.9995Z" fill="#87180B"/>
<path opacity="0.853" d="M22.1283 28.9995C19.5093 29.1785 17.1773 30.5745 15.0873 33.4145L10.6943 29.9775L19.2483 28.9355L22.1283 28.9995Z" fill="#86170B"/>
<path opacity="0.868" d="M22.1271 28.9996C19.5121 29.1606 17.1751 30.5506 15.0491 33.3846L10.6641 29.9536L19.2941 28.9336L22.1271 28.9996Z" fill="#85170B"/>
<path opacity="0.882" d="M22.1263 28.9987C19.5153 29.1417 17.1733 30.5247 15.0113 33.3537L10.6333 29.9287L19.3383 28.9297L22.1263 28.9987Z" fill="#84170B"/>
<path opacity="0.897" d="M22.1241 28.9987C19.5171 29.1237 17.1701 30.4997 14.9721 33.3237L10.6021 29.9057L19.383 28.9277L22.1241 28.9987Z" fill="#83170B"/>
<path opacity="0.912" d="M22.1233 28.9998C19.5203 29.1078 17.1683 30.4768 14.9343 33.2948L10.5713 29.8828L19.4283 28.9258L22.1233 28.9998Z" fill="#82160B"/>
<path opacity="0.926" d="M22.122 28.9989C19.524 29.0889 17.166 30.4509 14.896 33.2639L10.541 29.8579L19.473 28.9219L22.122 28.9989Z" fill="#81160A"/>
<path opacity="0.941" d="M22.1213 28.9999C19.5273 29.0719 17.1643 30.4279 14.8583 33.2349L10.5103 29.8349L19.5183 28.9199L22.1213 28.9999Z" fill="#80160A"/>
<path opacity="0.956" d="M22.119 29C19.529 29.054 17.161 30.403 14.82 33.205L10.479 29.812L19.562 28.918L22.119 29Z" fill="#7F160A"/>
<path opacity="0.971" d="M22.1182 29.0001C19.5322 29.0361 17.1592 30.3781 14.7822 33.1741L10.4492 29.7871L19.6082 28.9141L22.1182 29.0001Z" fill="#7E150A"/>
<path opacity="0.985" d="M22.117 29.0001C19.535 29.0181 17.157 30.3541 14.744 33.1441L10.418 29.7631L19.653 28.9121L22.117 29.0001Z" fill="#7D150A"/>
<path d="M22.1152 28.9992C19.5372 28.9992 17.1542 30.3282 14.7052 33.1132L10.3872 29.7382L19.6972 28.9082L22.1152 28.9992Z" fill="#7C150A"/>
<path opacity="0.091" d="M11.9429 23.4156V28.2376L22.0739 28.9876C17.0799 27.9776 13.4949 23.3956 13.8789 18.1816C13.7319 20.1476 13.0289 21.9366 11.9429 23.4156Z" fill="url(#paint3_linear_38_13487)"/>
<path opacity="0.182" d="M11.9429 23.2429V28.2329L21.9759 28.9759C16.9819 27.9659 13.3969 23.3839 13.7809 18.1699C13.6399 20.0689 12.9729 21.8009 11.9429 23.2429Z" fill="url(#paint4_linear_38_13487)"/>
<path opacity="0.273" d="M11.9429 23.0693V28.2272L21.8779 28.9622C16.8839 27.9522 13.2989 23.3703 13.6829 18.1562C13.5469 19.9892 12.9169 21.6653 11.9429 23.0693Z" fill="url(#paint5_linear_38_13487)"/>
<path opacity="0.364" d="M11.9429 22.8985V28.2245L21.7799 28.9525C16.7859 27.9425 13.2009 23.3605 13.5849 18.1465C13.4539 19.9115 12.8609 21.5305 11.9429 22.8985Z" fill="url(#paint6_linear_38_13487)"/>
<path opacity="0.455" d="M11.9429 22.7238V28.2178L21.6819 28.9388C16.6879 27.9288 13.1029 23.3468 13.4869 18.1328C13.3609 19.8308 12.8049 21.3928 11.9429 22.7238Z" fill="url(#paint7_linear_38_13487)"/>
<path opacity="0.545" d="M11.9429 22.5521V28.2131L21.5839 28.9271C16.5899 27.9171 13.0049 23.3351 13.3889 18.1211C13.2679 19.7531 12.7489 21.2591 11.9429 22.5521Z" fill="url(#paint8_linear_38_13487)"/>
<path opacity="0.636" d="M11.9429 22.3804V28.2094L21.4869 28.9154C16.4929 27.9054 12.9079 23.3234 13.2919 18.1094C13.1749 19.6754 12.6929 21.1234 11.9429 22.3804Z" fill="url(#paint9_linear_38_13487)"/>
<path opacity="0.727" d="M11.9429 22.2057V28.2027L21.3889 28.9017C16.3949 27.8917 12.8099 23.3097 13.1939 18.0957C13.0819 19.5947 12.6369 20.9867 11.9429 22.2057Z" fill="url(#paint10_linear_38_13487)"/>
<path opacity="0.818" d="M11.9429 22.033V28.198L21.2909 28.89C16.2969 27.88 12.7119 23.298 13.0959 18.084C12.9889 19.516 12.5809 20.851 11.9429 22.033Z" fill="url(#paint11_linear_38_13487)"/>
<path opacity="0.909" d="M11.9429 21.8622V28.1952L21.1929 28.8802C16.1989 27.8702 12.6139 23.2882 12.9979 18.0742C12.8959 19.4382 12.5249 20.7162 11.9429 21.8622Z" fill="url(#paint12_linear_38_13487)"/>
<path d="M11.9429 21.6885V28.1895L21.0949 28.8665C16.1009 27.8565 12.5159 23.2745 12.8999 18.0605C12.8029 19.3585 12.4689 20.5805 11.9429 21.6885Z" fill="url(#paint13_linear_38_13487)"/>
<path opacity="0.019" d="M37.936 12.8516L38 14.4606L38.064 16.0696L38.193 19.2876C38.193 18.5146 38.782 17.5336 39.629 16.8856C39.719 16.8166 39.811 16.7516 39.907 16.6916C40.26 16.4666 40.648 16.3036 41.05 16.2336C41.226 16.2026 41.405 16.1906 41.585 16.1986C41.926 16.2146 42.271 16.3046 42.608 16.4896C42.613 16.4886 42.385 15.6686 42.391 15.6686L42.348 15.5176L41.973 14.5706L41.624 13.8716L41.113 13.0556L39.532 12.9536L37.936 12.8516Z" fill="#BE2510"/>
<path opacity="0.038" d="M37.936 12.8516L38 14.4586L38.064 16.0656L38.193 19.2806C38.193 18.5096 38.776 17.5296 39.617 16.8786C39.706 16.8096 39.798 16.7446 39.893 16.6836C40.244 16.4576 40.629 16.2916 41.029 16.2186C41.204 16.1866 41.382 16.1726 41.562 16.1786C41.902 16.1906 42.245 16.2766 42.582 16.4566C42.591 16.4536 42.373 15.6496 42.384 15.6496L42.341 15.4996L41.965 14.5546L41.616 13.8566L41.102 13.0556L39.532 12.9546L37.936 12.8516Z" fill="#BC2410"/>
<path opacity="0.057" d="M37.936 12.8516L38 14.4576L38.064 16.0636L38.193 19.2756C38.193 18.5056 38.77 17.5266 39.604 16.8726C39.692 16.8036 39.784 16.7376 39.878 16.6766C40.226 16.4496 40.609 16.2806 41.007 16.2046C41.181 16.1706 41.359 16.1556 41.537 16.1596C41.875 16.1686 42.218 16.2506 42.554 16.4246C42.568 16.4206 42.359 15.6316 42.375 15.6306L42.331 15.4816L41.955 14.5386L41.607 13.8406L41.09 13.0546L39.531 12.9546L37.936 12.8516Z" fill="#BB2410"/>
<path opacity="0.075" d="M37.936 12.8516L38 14.4566L38.064 16.0616L38.193 19.2706C38.193 18.5026 38.764 17.5246 39.592 16.8676C39.68 16.7976 39.771 16.7316 39.864 16.6706C40.21 16.4416 40.59 16.2716 40.986 16.1916C41.16 16.1566 41.336 16.1386 41.514 16.1416C41.851 16.1466 42.193 16.2246 42.528 16.3936C42.546 16.3886 42.347 15.6136 42.368 15.6126L42.324 15.4636L41.948 14.5226L41.6 13.8246L41.08 13.0536L39.532 12.9536L37.936 12.8516Z" fill="#BA2410"/>
<path opacity="0.094" d="M37.936 12.8516L38 14.4546L38.064 16.0576L38.193 19.2636C38.193 18.4966 38.758 17.5196 39.58 16.8596C39.667 16.7896 39.757 16.7236 39.85 16.6616C40.193 16.4316 40.572 16.2586 40.965 16.1756C41.138 16.1396 41.314 16.1196 41.491 16.1206C41.827 16.1226 42.167 16.1966 42.502 16.3596C42.525 16.3536 42.335 15.5936 42.361 15.5926L42.317 15.4446L41.94 14.5066L41.593 13.8096L41.07 13.0536L39.533 12.9546L37.936 12.8516Z" fill="#B9230F"/>
<path opacity="0.113" d="M37.936 12.8516L38 14.4536L38.064 16.0556L38.193 19.2586C38.193 18.4926 38.752 17.5176 39.568 16.8546C39.655 16.7846 39.744 16.7176 39.836 16.6546C40.177 16.4226 40.553 16.2476 40.945 16.1616C41.117 16.1236 41.292 16.1026 41.469 16.1016C41.803 16.1006 42.143 16.1696 42.478 16.3276C42.506 16.3196 42.325 15.5756 42.356 15.5736L42.312 15.4266L41.935 14.4906L41.588 13.7936L41.062 13.0526L39.537 12.9546L37.936 12.8516Z" fill="#B7230F"/>
<path opacity="0.132" d="M37.936 12.8516L38 14.4516L38.064 16.0516L38.193 19.2516C38.193 18.4876 38.746 17.5126 39.556 16.8466C39.642 16.7756 39.731 16.7086 39.822 16.6456C40.16 16.4126 40.534 16.2356 40.924 16.1466C41.095 16.1076 41.269 16.0846 41.445 16.0816C41.778 16.0766 42.116 16.1416 42.451 16.2956C42.483 16.2866 42.312 15.5566 42.348 15.5556L42.303 15.4086L41.925 14.4746L41.579 13.7786L41.051 13.0516L39.537 12.9546L37.936 12.8516Z" fill="#B6230F"/>
<path opacity="0.151" d="M37.936 12.8516L38 14.4506L38.064 16.0496L38.193 19.2466C38.193 18.4836 38.74 17.5106 39.544 16.8416C39.629 16.7706 39.717 16.7036 39.808 16.6396C40.144 16.4046 40.515 16.2256 40.903 16.1336C41.073 16.0926 41.247 16.0686 41.422 16.0636C41.753 16.0556 42.091 16.1166 42.425 16.2646C42.462 16.2546 42.3 15.5396 42.341 15.5376L42.296 15.3916L41.918 14.4596L41.573 13.7636L41.042 13.0516L39.539 12.9546L37.936 12.8516Z" fill="#B5230F"/>
<path opacity="0.17" d="M37.936 12.8516L38 14.4486L38.064 16.0456L38.193 19.2396C38.193 18.4786 38.734 17.5056 39.532 16.8336C39.617 16.7626 39.704 16.6946 39.794 16.6306C40.127 16.3946 40.496 16.2136 40.882 16.1176C41.051 16.0756 41.224 16.0496 41.399 16.0426C41.729 16.0306 42.066 16.0876 42.399 16.2306C42.441 16.2196 42.288 15.5196 42.334 15.5176L42.289 15.3726L41.911 14.4426L41.566 13.7466L41.032 13.0496L39.54 12.9536L37.936 12.8516Z" fill="#B4220F"/>
<path opacity="0.189" d="M37.936 12.8516L38 14.4476L38.064 16.0436L38.193 19.2356C38.193 18.4756 38.728 17.5046 39.52 16.8286C39.604 16.7576 39.691 16.6886 39.78 16.6246C40.111 16.3876 40.477 16.2036 40.861 16.1046C41.03 16.0606 41.202 16.0336 41.376 16.0256C41.705 16.0106 42.04 16.0636 42.373 16.2006C42.419 16.1876 42.276 15.5026 42.327 15.5006L42.282 15.3556L41.903 14.4276L41.559 13.7326L41.022 13.0506L39.541 12.9556L37.936 12.8516Z" fill="#B2220F"/>
<path opacity="0.207" d="M37.936 12.8516L38 14.4456L38.064 16.0396L38.193 19.2286C38.193 18.4696 38.722 17.4996 39.507 16.8216C39.59 16.7496 39.676 16.6816 39.765 16.6166C40.093 16.3776 40.457 16.1916 40.839 16.0896C41.007 16.0446 41.178 16.0156 41.352 16.0056C41.679 15.9876 42.014 16.0356 42.346 16.1676C42.397 16.1536 42.263 15.4836 42.319 15.4816L42.274 15.3376L41.895 14.4116L41.551 13.7166L41.011 13.0496L39.542 12.9546L37.936 12.8516Z" fill="#B1220F"/>
<path opacity="0.226" d="M37.936 12.8516L38 14.4446L38.064 16.0376L38.193 19.2236C38.193 18.4666 38.715 17.4976 39.495 16.8156C39.578 16.7436 39.663 16.6746 39.751 16.6096C40.077 16.3696 40.438 16.1816 40.818 16.0766C40.985 16.0296 41.155 15.9996 41.328 15.9876C41.654 15.9656 41.987 16.0096 42.32 16.1366C42.375 16.1216 42.251 15.4666 42.313 15.4636L42.267 15.3196L41.887 14.3956L41.544 13.7006L41.001 13.0486L39.543 12.9546L37.936 12.8516Z" fill="#B0210F"/>
<path opacity="0.245" d="M37.936 12.8516L38 14.4426L38.064 16.0336L38.193 19.2166C38.193 18.4606 38.709 17.4936 39.483 16.8086C39.565 16.7366 39.65 16.6666 39.737 16.6016C40.06 16.3596 40.419 16.1696 40.797 16.0616C40.963 16.0136 41.133 15.9816 41.305 15.9676C41.629 15.9426 41.962 15.9826 42.294 16.1046C42.354 16.0886 42.239 15.4486 42.306 15.4456L42.26 15.3026L41.88 14.3806L41.537 13.6866L40.992 13.0496L39.545 12.9566L37.936 12.8516Z" fill="#AF210F"/>
<path opacity="0.264" d="M37.936 12.8516L38 14.4416L38.064 16.0316L38.193 19.2116C38.193 18.4576 38.703 17.4906 39.471 16.8026C39.552 16.7296 39.636 16.6606 39.723 16.5946C40.044 16.3516 40.4 16.1596 40.776 16.0476C40.941 15.9986 41.11 15.9636 41.282 15.9486C41.605 15.9196 41.936 15.9556 42.268 16.0726C42.333 16.0546 42.227 15.4296 42.299 15.4266L42.253 15.2846L41.873 14.3646L41.531 13.6706L40.983 13.0486L39.547 12.9566L37.936 12.8516Z" fill="#AD210E"/>
<path opacity="0.283" d="M37.936 12.8516L38 14.4396L38.064 16.0276L38.193 19.2046C38.193 18.4516 38.697 17.4866 39.459 16.7956C39.54 16.7226 39.623 16.6526 39.709 16.5866C40.027 16.3416 40.381 16.1476 40.755 16.0326C40.919 15.9816 41.088 15.9456 41.259 15.9286C41.58 15.8956 41.911 15.9286 42.242 16.0396C42.311 16.0206 42.215 15.4106 42.292 15.4076L42.246 15.2656L41.865 14.3476L41.523 13.6546L40.972 13.0466L39.547 12.9546L37.936 12.8516Z" fill="#AC200E"/>
<path opacity="0.302" d="M37.936 12.8516L38 14.4386L38.064 16.0256L38.193 19.1996C38.193 18.4476 38.691 17.4836 39.447 16.7896C39.527 16.7166 39.61 16.6456 39.695 16.5796C40.011 16.3336 40.362 16.1366 40.734 16.0186C40.898 15.9666 41.065 15.9286 41.235 15.9096C41.555 15.8736 41.885 15.9016 42.215 16.0076C42.289 15.9876 42.202 15.3926 42.284 15.3886L42.237 15.2476L41.856 14.3316L41.515 13.6386L40.961 13.0456L39.548 12.9546L37.936 12.8516Z" fill="#AB200E"/>
<path opacity="0.321" d="M37.936 12.8516L38 14.4376L38.064 16.0236L38.193 19.1946C38.193 18.4446 38.685 17.4816 39.435 16.7846C39.514 16.7106 39.597 16.6406 39.681 16.5726C39.994 16.3256 40.343 16.1266 40.713 16.0046C40.876 15.9506 41.042 15.9116 41.212 15.8906C41.531 15.8516 41.859 15.8746 42.189 15.9756C42.267 15.9536 42.19 15.3736 42.277 15.3706L42.23 15.2306L41.848 14.3166L41.508 13.6236L40.951 13.0456L39.549 12.9556L37.936 12.8516Z" fill="#AA200E"/>
<path opacity="0.34" d="M37.936 12.8516L38 14.4356L38.064 16.0196L38.193 19.1876C38.193 18.4386 38.679 17.4766 39.423 16.7766C39.502 16.7026 39.583 16.6316 39.667 16.5636C39.978 16.3146 40.324 16.1136 40.692 15.9896C40.854 15.9346 41.02 15.8936 41.189 15.8706C41.506 15.8276 41.834 15.8476 42.164 15.9436C42.247 15.9206 42.179 15.3556 42.271 15.3516L42.224 15.2116L41.842 14.3006L41.502 13.6086L40.942 13.0456L39.551 12.9566L37.936 12.8516Z" fill="#A8200E"/>
<path opacity="0.358" d="M37.936 12.8516L38 14.4346L38.064 16.0176L38.193 19.1826C38.193 18.4346 38.673 17.4746 39.41 16.7716C39.488 16.6976 39.569 16.6256 39.652 16.5576C39.96 16.3076 40.304 16.1046 40.67 15.9766C40.831 15.9196 40.996 15.8776 41.165 15.8526C41.481 15.8066 41.807 15.8216 42.137 15.9126C42.225 15.8886 42.166 15.3386 42.263 15.3336L42.216 15.1946L41.833 14.2846L41.494 13.5926L40.932 13.0446L39.552 12.9556L37.936 12.8516Z" fill="#A71F0E"/>
<path opacity="0.377" d="M37.936 12.8516L38 14.4326L38.064 16.0136L38.193 19.1756C38.193 18.4296 38.667 17.4696 39.398 16.7636C39.475 16.6886 39.556 16.6176 39.638 16.5486C39.944 16.2966 40.285 16.0916 40.649 15.9606C40.809 15.9026 40.974 15.8586 41.141 15.8316C41.455 15.7816 41.781 15.7926 42.11 15.8786C42.202 15.8536 42.152 15.3176 42.255 15.3136L42.207 15.1756L41.824 14.2676L41.485 13.5766L40.92 13.0436L39.551 12.9556L37.936 12.8516Z" fill="#A61F0E"/>
<path opacity="0.396" d="M37.936 12.8516L38 14.4316L38.064 16.0116L38.193 19.1706C38.193 18.4256 38.661 17.4676 39.386 16.7576C39.463 16.6826 39.542 16.6106 39.624 16.5416C39.927 16.2886 40.266 16.0806 40.628 15.9466C40.787 15.8876 40.951 15.8416 41.118 15.8126C41.431 15.7596 41.756 15.7666 42.084 15.8466C42.181 15.8196 42.14 15.2996 42.248 15.2946L42.2 15.1566L41.817 14.2506L41.479 13.5596L40.911 13.0416L39.554 12.9546L37.936 12.8516Z" fill="#A41F0E"/>
<path opacity="0.415" d="M37.936 12.8516L38 14.4296L38.064 16.0076L38.193 19.1636C38.193 18.4206 38.655 17.4636 39.374 16.7506C39.45 16.6756 39.529 16.6026 39.611 16.5336C39.912 16.2786 40.249 16.0696 40.608 15.9316C40.766 15.8706 40.929 15.8236 41.096 15.7926C41.408 15.7356 41.731 15.7386 42.059 15.8136C42.16 15.7856 42.129 15.2806 42.242 15.2756L42.194 15.1386L41.81 14.2346L41.472 13.5436L40.901 13.0406L39.555 12.9536L37.936 12.8516Z" fill="#A31E0E"/>
<path opacity="0.434" d="M37.936 12.8516L38 14.4286L38.064 16.0056L38.193 19.1596C38.193 18.4176 38.649 17.4616 39.362 16.7456C39.437 16.6696 39.516 16.5976 39.597 16.5276C39.895 16.2716 40.23 16.0596 40.587 15.9196C40.745 15.8576 40.907 15.8086 41.073 15.7766C41.383 15.7166 41.706 15.7156 42.033 15.7846C42.139 15.7556 42.117 15.2646 42.235 15.2596L42.187 15.1226L41.803 14.2206L41.466 13.5306L40.892 13.0416L39.557 12.9556L37.936 12.8516Z" fill="#A21E0D"/>
<path opacity="0.453" d="M37.936 12.8516L38 14.4266L38.064 16.0016L38.193 19.1526C38.193 18.4116 38.643 17.4576 39.35 16.7386C39.425 16.6626 39.502 16.5896 39.583 16.5196C39.879 16.2626 40.211 16.0486 40.566 15.9046C40.723 15.8406 40.884 15.7896 41.049 15.7566C41.358 15.6936 41.679 15.6876 42.007 15.7526C42.118 15.7226 42.105 15.2466 42.229 15.2416L42.18 15.1056L41.795 14.2066L41.458 13.5166L40.881 13.0426L39.557 12.9576L37.936 12.8516Z" fill="#A11E0D"/>
<path opacity="0.472" d="M37.936 12.8516L38 14.4256L38.064 15.9996L38.193 19.1476C38.193 18.4086 38.637 17.4546 39.338 16.7326C39.412 16.6566 39.489 16.5826 39.569 16.5126C39.862 16.2536 40.192 16.0376 40.545 15.8906C40.701 15.8256 40.862 15.7726 41.026 15.7376C41.333 15.6706 41.654 15.6606 41.981 15.7206C42.096 15.6886 42.093 15.2286 42.222 15.2226L42.173 15.0876L41.788 14.1906L41.452 13.5006L40.872 13.0416L39.559 12.9576L37.936 12.8516Z" fill="#9F1D0D"/>
<path opacity="0.491" d="M37.936 12.8516L38 14.4236L38.064 15.9956L38.193 19.1406C38.193 18.4026 38.631 17.4506 39.325 16.7256C39.398 16.6486 39.475 16.5756 39.554 16.5046C39.845 16.2446 40.172 16.0256 40.523 15.8756C40.678 15.8086 40.838 15.7546 41.002 15.7176C41.308 15.6476 41.627 15.6336 41.954 15.6876C42.074 15.6546 42.08 15.2086 42.214 15.2036L42.165 15.0686L41.78 14.1736L41.444 13.4846L40.862 13.0406L39.561 12.9566L37.936 12.8516Z" fill="#9E1D0D"/>
<path opacity="0.509" d="M37.936 12.8516L38 14.4226L38.064 15.9936L38.193 19.1356C38.193 18.3996 38.625 17.4476 39.313 16.7196C39.386 16.6426 39.461 16.5686 39.54 16.4976C39.828 16.2356 40.153 16.0156 40.502 15.8616C40.656 15.7936 40.815 15.7376 40.979 15.6986C41.283 15.6246 41.602 15.6066 41.928 15.6556C42.053 15.6216 42.068 15.1906 42.207 15.1846L42.158 15.0506L41.772 14.1576L41.437 13.4686L40.852 13.0396L39.562 12.9566L37.936 12.8516Z" fill="#9D1D0D"/>
<path opacity="0.528" d="M37.936 12.8516L38 14.4206L38.064 15.9896L38.193 19.1286C38.193 18.3936 38.619 17.4436 39.301 16.7126C39.373 16.6356 39.448 16.5606 39.526 16.4886C39.812 16.2256 40.134 16.0026 40.482 15.8456C40.635 15.7756 40.794 15.7186 40.957 15.6776C41.26 15.6006 41.578 15.5786 41.903 15.6216C42.032 15.5866 42.057 15.1706 42.201 15.1646L42.151 15.0316L41.765 14.1406L41.431 13.4526L40.843 13.0386L39.564 12.9566L37.936 12.8516Z" fill="#9C1D0D"/>
<path opacity="0.547" d="M37.936 12.8516L38 14.4196L38.064 15.9876L38.193 19.1236C38.193 18.3896 38.612 17.4406 39.289 16.7066C39.36 16.6296 39.435 16.5536 39.512 16.4816C39.795 16.2166 40.115 15.9926 40.461 15.8326C40.614 15.7616 40.771 15.7026 40.933 15.6596C41.235 15.5796 41.551 15.5526 41.876 15.5906C42.01 15.5536 42.044 15.1536 42.193 15.1466L42.143 15.0136L41.756 14.1246L41.422 13.4366L40.831 13.0376L39.563 12.9556L37.936 12.8516Z" fill="#9A1C0D"/>
<path opacity="0.566" d="M37.936 12.8516L38 14.4186L38.064 15.9856L38.193 19.1186C38.193 18.3866 38.606 17.4386 39.277 16.7006C39.348 16.6226 39.422 16.5476 39.498 16.4746C39.779 16.2086 40.096 15.9816 40.44 15.8186C40.592 15.7466 40.749 15.6856 40.91 15.6406C41.21 15.5566 41.526 15.5256 41.851 15.5596C41.989 15.5216 42.033 15.1356 42.187 15.1296L42.137 14.9976L41.75 14.1106L41.417 13.4226L40.823 13.0386L39.566 12.9576L37.936 12.8516Z" fill="#991C0D"/>
<path opacity="0.585" d="M37.936 12.8516L38 14.4166L38.064 15.9816L38.193 19.1116C38.193 18.3806 38.6 17.4336 39.265 16.6936C39.335 16.6156 39.408 16.5396 39.484 16.4666C39.762 16.1996 40.077 15.9696 40.419 15.8036C40.57 15.7296 40.726 15.6676 40.887 15.6206C41.186 15.5336 41.5 15.4986 41.825 15.5266C41.968 15.4876 42.021 15.1166 42.18 15.1096L42.13 14.9786L41.742 14.0936L41.409 13.4066L40.812 13.0366L39.566 12.9566L37.936 12.8516Z" fill="#981C0C"/>
<path opacity="0.604" d="M37.936 12.8516L38 14.4156L38.064 15.9796L38.193 19.1066C38.193 18.3776 38.594 17.4316 39.253 16.6876C39.323 16.6096 39.395 16.5326 39.47 16.4596C39.746 16.1906 40.058 15.9596 40.398 15.7896C40.548 15.7146 40.703 15.6506 40.864 15.6016C41.161 15.5116 41.475 15.4716 41.799 15.4946C41.947 15.4536 42.009 15.0986 42.173 15.0906L42.123 14.9596L41.735 14.0766L41.403 13.3896L40.804 13.0346L39.57 12.9556L37.936 12.8516Z" fill="#971B0C"/>
<path opacity="0.623" d="M37.936 12.8516L38 14.4136L38.064 15.9756L38.193 19.0996C38.193 18.3716 38.588 17.4276 39.241 16.6806C39.31 16.6016 39.382 16.5256 39.456 16.4516C39.73 16.1816 40.039 15.9476 40.377 15.7746C40.526 15.6976 40.681 15.6326 40.84 15.5816C41.136 15.4876 41.449 15.4446 41.772 15.4616C41.924 15.4196 41.996 15.0786 42.165 15.0716L42.114 14.9416L41.726 14.0606L41.394 13.3746L40.792 13.0346L39.569 12.9556L37.936 12.8516Z" fill="#951B0C"/>
<path opacity="0.641" d="M37.936 12.8516L38 14.4126L38.064 15.9736L38.193 19.0946C38.193 18.3676 38.582 17.4246 39.228 16.6746C39.296 16.5956 39.367 16.5186 39.441 16.4446C39.712 16.1726 40.019 15.9376 40.355 15.7616C40.503 15.6836 40.657 15.6166 40.816 15.5636C41.111 15.4666 41.422 15.4186 41.745 15.4306C41.902 15.3876 41.983 15.0616 42.157 15.0536L42.106 14.9236L41.717 14.0446L41.386 13.3586L40.781 13.0336L39.569 12.9556L37.936 12.8516Z" fill="#941B0C"/>
<path opacity="0.66" d="M37.936 12.8516L38 14.4106L38.064 15.9696L38.193 19.0886C38.193 18.3636 38.576 17.4216 39.216 16.6686C39.284 16.5896 39.354 16.5116 39.427 16.4376C39.696 16.1646 40 15.9266 40.334 15.7476C40.482 15.6676 40.635 15.5996 40.793 15.5446C41.086 15.4436 41.397 15.3916 41.719 15.3996C41.88 15.3556 41.971 15.0446 42.151 15.0366L42.1 14.9066L41.711 14.0296L41.38 13.3436L40.772 13.0336L39.571 12.9566L37.936 12.8516Z" fill="#931A0C"/>
<path opacity="0.679" d="M37.936 12.8516L38 14.4096L38.064 15.9676L38.193 19.0836C38.193 18.3596 38.57 17.4186 39.204 16.6626C39.271 16.5826 39.341 16.5056 39.413 16.4306C39.679 16.1556 39.981 15.9156 40.313 15.7336C40.46 15.6526 40.612 15.5826 40.77 15.5266C41.062 15.4226 41.371 15.3666 41.694 15.3686C41.86 15.3226 41.96 15.0266 42.145 15.0186L42.094 14.8906L41.704 14.0156L41.374 13.3306L40.763 13.0356L39.573 12.9586L37.936 12.8516Z" fill="#911A0C"/>
<path opacity="0.698" d="M37.936 12.8516L38 14.4076L38.064 15.9636L38.193 19.0766C38.193 18.3536 38.564 17.4146 39.192 16.6556C39.258 16.5756 39.327 16.4976 39.399 16.4226C39.663 16.1466 39.962 15.9046 40.292 15.7186C40.438 15.6356 40.589 15.5646 40.746 15.5066C41.036 15.3996 41.345 15.3386 41.667 15.3356C41.838 15.2886 41.947 15.0076 42.137 14.9996L42.085 14.8716L41.695 13.9986L41.366 13.3136L40.752 13.0336L39.574 12.9576L37.936 12.8516Z" fill="#901A0C"/>
<path opacity="0.717" d="M37.936 12.8516L38 14.4066L38.064 15.9616L38.193 19.0716C38.193 18.3506 38.558 17.4116 39.18 16.6496C39.246 16.5696 39.314 16.4906 39.385 16.4146C39.646 16.1376 39.944 15.8926 40.271 15.7036C40.416 15.6196 40.567 15.5466 40.723 15.4866C41.012 15.3756 41.319 15.3116 41.641 15.3026C41.816 15.2546 41.935 14.9886 42.13 14.9796L42.078 14.8526L41.688 13.9816L41.359 13.2966L40.743 13.0316L39.576 12.9566L37.936 12.8516Z" fill="#8F1A0C"/>
<path opacity="0.736" d="M37.936 12.8516L38 14.4046L38.064 15.9576L38.193 19.0646C38.193 18.3446 38.552 17.4076 39.168 16.6416C39.233 16.5606 39.301 16.4826 39.371 16.4056C39.63 16.1266 39.925 15.8796 40.25 15.6876C40.394 15.6026 40.544 15.5266 40.7 15.4656C40.988 15.3516 41.294 15.2826 41.615 15.2686C41.795 15.2196 41.923 14.9676 42.123 14.9596L42.071 14.8336L41.68 13.9646L41.352 13.2806L40.733 13.0296L39.577 12.9556L37.936 12.8516Z" fill="#8E190C"/>
<path opacity="0.755" d="M37.936 12.8516L38 14.4036L38.064 15.9556L38.193 19.0596C38.193 18.3416 38.546 17.4046 39.156 16.6366C39.22 16.5556 39.287 16.4766 39.357 16.3996C39.613 16.1196 39.906 15.8706 40.229 15.6756C40.372 15.5886 40.522 15.5116 40.677 15.4486C40.963 15.3316 41.269 15.2576 41.589 15.2386C41.773 15.1876 41.911 14.9516 42.116 14.9426L42.064 14.8166L41.673 13.9496L41.345 13.2656L40.723 13.0296L39.578 12.9556L37.936 12.8516Z" fill="#8C190B"/>
<path opacity="0.774" d="M37.936 12.8516L38 14.4016L38.064 15.9516L38.193 19.0526C38.193 18.3356 38.54 17.4006 39.144 16.6286C39.208 16.5476 39.274 16.4676 39.343 16.3906C39.597 16.1086 39.887 15.8576 40.208 15.6596C40.35 15.5716 40.499 15.4926 40.653 15.4276C40.938 15.3066 41.242 15.2296 41.562 15.2056C41.751 15.1536 41.897 14.9326 42.108 14.9236L42.055 14.7986L41.663 13.9336L41.336 13.2506L40.711 13.0296L39.577 12.9566L37.936 12.8516Z" fill="#8B190B"/>
<path opacity="0.792" d="M37.936 12.8516L38 14.4006L38.064 15.9496L38.193 19.0476C38.193 18.3316 38.534 17.3986 39.131 16.6236C39.194 16.5416 39.26 16.4626 39.328 16.3846C39.579 16.1016 39.867 15.8486 40.186 15.6466C40.328 15.5566 40.476 15.4776 40.629 15.4096C40.913 15.2856 41.216 15.2036 41.536 15.1746C41.73 15.1216 41.885 14.9146 42.101 14.9056L42.048 14.7816L41.656 13.9196L41.329 13.2366L40.701 13.0306L39.579 12.9586L37.936 12.8516Z" fill="#8A180B"/>
<path opacity="0.811" d="M37.936 12.8516L38 14.3996L38.064 15.9476L38.193 19.0426C38.193 18.3286 38.528 17.3956 39.119 16.6176C39.181 16.5356 39.247 16.4556 39.314 16.3776C39.563 16.0926 39.848 15.8376 40.165 15.6326C40.306 15.5416 40.453 15.4606 40.606 15.3906C40.888 15.2636 41.19 15.1766 41.51 15.1426C41.708 15.0886 41.873 14.8966 42.094 14.8876L42.041 14.7636L41.649 13.9036L41.323 13.2206L40.692 13.0296L39.581 12.9586L37.936 12.8516Z" fill="#89180B"/>
<path opacity="0.83" d="M37.936 12.8516L38 14.3976L38.064 15.9436L38.193 19.0356C38.193 18.3226 38.522 17.3916 39.107 16.6106C39.169 16.5286 39.233 16.4476 39.301 16.3696C39.547 16.0836 39.83 15.8256 40.145 15.6176C40.285 15.5246 40.431 15.4416 40.584 15.3706C40.865 15.2406 41.166 15.1496 41.485 15.1096C41.688 15.0536 41.862 14.8776 42.088 14.8676L42.035 14.7446L41.642 13.8866L41.316 13.2046L40.683 13.0286L39.583 12.9576L37.936 12.8516Z" fill="#87180B"/>
<path opacity="0.849" d="M37.936 12.8516L38 14.3966L38.064 15.9416L38.193 19.0306C38.193 18.3196 38.515 17.3886 39.095 16.6046C39.156 16.5226 39.22 16.4416 39.287 16.3626C39.531 16.0756 39.811 15.8156 40.124 15.6046C40.263 15.5106 40.409 15.4256 40.561 15.3526C40.84 15.2186 41.14 15.1236 41.459 15.0786C41.667 15.0216 41.85 14.8606 42.081 14.8506L42.027 14.7276L41.634 13.8716L41.309 13.1896L40.673 13.0286L39.584 12.9586L37.936 12.8516Z" fill="#86170B"/>
<path opacity="0.868" d="M37.936 12.8516L38 14.3946L38.064 15.9376L38.193 19.0236C38.193 18.3136 38.509 17.3846 39.083 16.5976C39.143 16.5146 39.207 16.4336 39.273 16.3546C39.514 16.0656 39.792 15.8036 40.103 15.5896C40.241 15.4946 40.386 15.4076 40.537 15.3326C40.815 15.1956 41.114 15.0966 41.432 15.0466C41.644 14.9886 41.837 14.8416 42.074 14.8316L42.02 14.7096L41.626 13.8556L41.302 13.1736L40.663 13.0276L39.585 12.9586L37.936 12.8516Z" fill="#85170B"/>
<path opacity="0.887" d="M37.936 12.8516L38 14.3936L38.064 15.9356L38.193 19.0186C38.193 18.3096 38.503 17.3816 39.071 16.5916C39.131 16.5086 39.193 16.4266 39.259 16.3476C39.498 16.0576 39.773 15.7936 40.082 15.5756C40.219 15.4786 40.364 15.3906 40.514 15.3136C40.791 15.1726 41.089 15.0696 41.406 15.0146C41.623 14.9546 41.825 14.8236 42.067 14.8126L42.013 14.6916L41.619 13.8396L41.295 13.1586L40.653 13.0266L39.587 12.9576L37.936 12.8516Z" fill="#84170B"/>
<path opacity="0.906" d="M37.936 12.8516L38 14.3916L38.064 15.9316L38.193 19.0126C38.193 18.3056 38.497 17.3786 39.059 16.5856C39.118 16.5026 39.18 16.4206 39.245 16.3406C39.481 16.0486 39.754 15.7826 40.061 15.5616C40.198 15.4636 40.341 15.3736 40.491 15.2946C40.766 15.1506 41.063 15.0426 41.381 14.9826C41.602 14.9216 41.814 14.8056 42.061 14.7946L42.007 14.6736L41.612 13.8236L41.289 13.1426L40.644 13.0256L39.589 12.9576L37.936 12.8516Z" fill="#82170B"/>
<path opacity="0.924" d="M37.936 12.8516L38 14.3906L38.064 15.9296L38.193 19.0076C38.193 18.3016 38.491 17.3756 39.046 16.5796C39.104 16.4956 39.166 16.4136 39.23 16.3326C39.464 16.0396 39.734 15.7706 40.039 15.5466C40.175 15.4466 40.317 15.3556 40.467 15.2746C40.741 15.1276 41.037 15.0156 41.354 14.9496C41.58 14.8876 41.801 14.7856 42.053 14.7746L41.999 14.6546L41.604 13.8066L41.281 13.1266L40.633 13.0246L39.589 12.9576L37.936 12.8516Z" fill="#81160A"/>
<path opacity="0.943" d="M37.936 12.8516L38 14.3886L38.064 15.9256L38.194 19.0006C38.194 18.2966 38.486 17.3716 39.035 16.5716C39.093 16.4876 39.153 16.4046 39.217 16.3236C39.448 16.0296 39.716 15.7586 40.019 15.5306C40.154 15.4296 40.296 15.3366 40.444 15.2546C40.716 15.1036 41.011 14.9876 41.328 14.9166C41.559 14.8536 41.789 14.7666 42.046 14.7556L41.991 14.6366L41.596 13.7906L41.274 13.1106L40.624 13.0236L39.591 12.9576L37.936 12.8516Z" fill="#80160A"/>
<path opacity="0.962" d="M37.936 12.8516L38 14.3876L38.064 15.9236L38.193 18.9956C38.193 18.2926 38.479 17.3686 39.022 16.5666C39.079 16.4826 39.139 16.3996 39.202 16.3176C39.431 16.0216 39.696 15.7486 39.998 15.5186C40.132 15.4156 40.273 15.3216 40.421 15.2376C40.692 15.0836 40.986 14.9636 41.302 14.8866C41.537 14.8216 41.777 14.7506 42.039 14.7386L41.984 14.6196L41.588 13.7756L41.266 13.0956L40.613 13.0236L39.591 12.9576L37.936 12.8516Z" fill="#7F160A"/>
<path opacity="0.981" d="M37.936 12.8516L38 14.3856L38.064 15.9196L38.193 18.9886C38.193 18.2866 38.473 17.3646 39.01 16.5586C39.066 16.4736 39.126 16.3906 39.188 16.3086C39.414 16.0116 39.677 15.7366 39.977 15.5026C40.11 15.3986 40.251 15.3026 40.398 15.2166C40.668 15.0596 40.961 14.9346 41.276 14.8536C41.516 14.7876 41.765 14.7306 42.032 14.7196L41.977 14.6016L41.581 13.7596L41.26 13.0806L40.604 13.0236L39.594 12.9586L37.936 12.8516Z" fill="#7D150A"/>
<path d="M38.194 18.9836C38.194 18.2096 38.529 17.1656 39.175 16.3026C39.498 15.8706 39.899 15.4836 40.375 15.1986C40.851 14.9126 41.402 14.7286 42.026 14.7016L41.253 13.0656L39.595 12.9586L37.937 12.8516L38.001 14.3846L38.065 15.9176L38.194 18.9836Z" fill="#7C150A"/>
<path d="M38.194 6.81836C38.196 10.2624 40.987 13.0534 44.43 13.0544C40.986 13.0564 38.195 15.8474 38.194 19.2904C38.192 15.8464 35.401 13.0554 31.958 13.0544C35.401 13.0534 38.192 10.2624 38.194 6.81836Z" fill="#EFB81B"/>
<path d="M38.1941 7.18945C38.1961 10.4285 40.8211 13.0545 44.0601 13.0555C40.8211 13.0575 38.1951 15.6825 38.1941 18.9215C38.1921 15.6825 35.5671 13.0565 32.3281 13.0555C35.5661 13.0535 38.1921 10.4285 38.1941 7.18945Z" fill="#F0BC27"/>
<path d="M38.1942 7.55859C38.1952 10.5936 40.6552 13.0536 43.6902 13.0546C40.6552 13.0556 38.1952 15.5156 38.1942 18.5506C38.1932 15.5156 35.7332 13.0556 32.6982 13.0546C35.7322 13.0536 38.1922 10.5936 38.1942 7.55859Z" fill="#F1BF33"/>
<path d="M38.1939 7.92969C38.1949 10.7607 40.4899 13.0547 43.3199 13.0557C40.4889 13.0567 38.1949 15.3517 38.1939 18.1817C38.1929 15.3507 35.8979 13.0567 33.0679 13.0557C35.8979 13.0547 38.1919 10.7597 38.1939 7.92969Z" fill="#F2C33F"/>
<path d="M38.194 8.29883C38.195 10.9248 40.324 13.0538 42.95 13.0548C40.324 13.0558 38.195 15.1848 38.194 17.8108C38.193 15.1848 36.064 13.0558 33.438 13.0548C36.064 13.0538 38.192 10.9248 38.194 8.29883Z" fill="#F3C74B"/>
<path d="M38.1941 8.66992C38.1951 11.0919 40.1581 13.0549 42.5801 13.0559C40.1581 13.0569 38.1951 15.0199 38.1941 17.4419C38.1931 15.0199 36.2301 13.0569 33.8081 13.0559C36.2291 13.0549 38.1921 11.0919 38.1941 8.66992Z" fill="#F4CA57"/>
<path d="M38.1942 9.03906C38.1952 11.2571 39.9932 13.0541 42.2102 13.0551C39.9922 13.0561 38.1952 14.8541 38.1942 17.0711C38.1932 14.8531 36.3952 13.0561 34.1782 13.0551C36.3952 13.0541 38.1932 11.2561 38.1942 9.03906Z" fill="#F4CE64"/>
<path d="M38.1939 9.41016C38.1949 11.4232 39.8269 13.0552 41.8399 13.0562C39.8269 13.0572 38.1949 14.6892 38.1939 16.7022C38.1929 14.6892 36.5609 13.0572 34.5479 13.0562C36.5609 13.0552 38.1929 11.4232 38.1939 9.41016Z" fill="#F5D170"/>
<path d="M38.194 9.7793C38.195 11.5883 39.661 13.0543 41.47 13.0553C39.661 13.0563 38.195 14.5223 38.194 16.3313C38.193 14.5223 36.727 13.0563 34.918 13.0553C36.726 13.0543 38.193 11.5883 38.194 9.7793Z" fill="#F6D57C"/>
<path d="M38.1941 10.1484C38.1951 11.7534 39.4951 13.0534 41.1001 13.0544C39.4951 13.0554 38.1951 14.3554 38.1941 15.9604C38.1931 14.3554 36.8931 13.0554 35.2881 13.0544C36.8921 13.0534 38.1931 11.7534 38.1941 10.1484Z" fill="#F7D988"/>
<path d="M38.1942 10.5195C38.1952 11.9195 39.3302 13.0545 40.7302 13.0555C39.3302 13.0565 38.1952 14.1915 38.1942 15.5915C38.1932 14.1915 37.0582 13.0565 35.6582 13.0555C37.0582 13.0545 38.1932 11.9195 38.1942 10.5195Z" fill="#F8DC94"/>
<path d="M38.1938 10.8887C38.1948 12.0847 39.1638 13.0537 40.3598 13.0547C39.1638 13.0557 38.1948 14.0247 38.1938 15.2207C38.1928 14.0247 37.2238 13.0557 36.0278 13.0547C37.2238 13.0537 38.1928 12.0847 38.1938 10.8887Z" fill="#F9E0A0"/>
<path d="M11.9432 18.7363C11.9462 24.4033 16.5392 28.9963 22.2052 28.9983C16.5382 29.0013 11.9452 33.5943 11.9432 39.2603C11.9402 33.5933 7.34715 29.0003 1.68115 28.9983C7.34715 28.9963 11.9402 24.4033 11.9432 18.7363Z" fill="#EFB81B"/>
<path d="M11.943 19.3457C11.946 24.6757 16.266 28.9967 21.596 28.9987C16.266 29.0017 11.945 33.3217 11.943 38.6517C11.94 33.3217 7.62004 29.0007 2.29004 28.9987C7.62004 28.9967 11.941 24.6757 11.943 19.3457Z" fill="#F0BC25"/>
<path d="M11.9429 19.9551C11.9449 24.9491 15.9929 28.9971 20.9869 28.9991C15.9929 29.0011 11.9449 33.0491 11.9429 38.0431C11.9409 33.0491 7.89293 29.0011 2.89893 28.9991C7.89293 28.9971 11.9409 24.9491 11.9429 19.9551Z" fill="#F2C030"/>
<path d="M11.9433 20.5625C11.9453 25.2205 15.7213 28.9955 20.3793 28.9985C15.7213 29.0005 11.9463 32.7765 11.9433 37.4345C11.9413 32.7765 8.16532 29.0015 3.50732 28.9985C8.16532 28.9955 11.9413 25.2205 11.9433 20.5625Z" fill="#F3C43A"/>
<path d="M11.9432 21.1719C11.9452 25.4939 15.4482 28.9969 19.7702 28.9989C15.4482 29.0009 11.9452 32.5039 11.9432 36.8259C11.9412 32.5029 8.43819 28.9999 4.11719 28.9979C8.43819 28.9959 11.9412 25.4929 11.9432 21.1719Z" fill="#F5C844"/>
<path d="M11.9431 21.7812C11.9451 25.7662 15.1751 28.9973 19.1611 28.9993C15.1761 29.0013 11.9451 32.2312 11.9431 36.2172C11.9411 32.2312 8.7111 29.0002 4.7251 28.9982C8.7111 28.9972 11.9411 25.7662 11.9431 21.7812Z" fill="#F6CC4F"/>
<path d="M11.943 22.3906C11.945 26.0396 14.903 28.9976 18.552 28.9996C14.903 29.0016 11.945 31.9596 11.943 35.6086C11.941 31.9596 8.98298 29.0016 5.33398 28.9996C8.98398 28.9976 11.941 26.0396 11.943 22.3906Z" fill="#F8D059"/>
<path d="M11.9434 23C11.9454 26.313 14.6304 28.998 17.9434 29C14.6304 29.002 11.9454 31.687 11.9434 35C11.9414 31.687 9.25636 29.002 5.94336 29C9.25636 28.998 11.9424 26.313 11.9434 23Z" fill="#F9D464"/>
<path d="M11.9432 23.6074C11.9442 26.5844 14.3572 28.9974 17.3342 28.9984C14.3572 28.9994 11.9442 31.4124 11.9432 34.3894C11.9422 31.4124 9.52925 28.9994 6.55225 28.9984C9.52925 28.9974 11.9422 26.5844 11.9432 23.6074Z" fill="#FBD86E"/>
<path d="M11.9431 24.2168C11.9441 26.8578 14.0851 28.9978 16.7251 28.9988C14.0851 29.0008 11.9441 31.1408 11.9431 33.7808C11.9421 31.1408 9.80213 29.0008 7.16113 28.9988C9.80213 28.9978 11.9421 26.8578 11.9431 24.2168Z" fill="#FCDC78"/>
<path d="M11.943 24.8262C11.944 27.1302 13.812 28.9982 16.116 28.9992C13.812 29.0002 11.944 30.8682 11.943 33.1722C11.942 30.8682 10.074 29.0012 7.77002 28.9992C10.074 28.9982 11.942 27.1312 11.943 24.8262Z" fill="#FEE083"/>
<path d="M11.9434 25.4336C11.9444 27.4016 13.5394 28.9966 15.5074 28.9976C13.5394 28.9986 11.9444 30.5936 11.9434 32.5616C11.9424 30.5936 10.3474 28.9986 8.37939 28.9976C10.3474 28.9966 11.9424 27.4016 11.9434 25.4336Z" fill="#FFE48D"/>
<defs>
<radialGradient id="paint0_radial_38_13487" cx="0" cy="0" r="1" gradientUnits="userSpaceOnUse" gradientTransform="translate(16.806 16.7012) scale(23.479 23.479)">
<stop stop-color="#FF7666"/>
<stop offset="0.126" stop-color="#FB6C59"/>
<stop offset="0.714" stop-color="#EC4023"/>
<stop offset="1" stop-color="#E62F0E"/>
</radialGradient>
<linearGradient id="paint1_linear_38_13487" x1="24.224" y1="10.4952" x2="23.474" y2="38.4132" gradientUnits="userSpaceOnUse">
<stop offset="0.147" stop-color="#F4523D" stop-opacity="0"/>
<stop offset="0.845" stop-color="#A52510"/>
</linearGradient>
<radialGradient id="paint2_radial_38_13487" cx="0" cy="0" r="1" gradientUnits="userSpaceOnUse" gradientTransform="translate(15.1565 15.4195) rotate(-34.5419) scale(7.58889 5.10873)">
<stop offset="0.129" stop-color="#F9A29B"/>
<stop offset="0.834" stop-color="#F9A29B" stop-opacity="0"/>
</radialGradient>
<linearGradient id="paint3_linear_38_13487" x1="15.8019" y1="26.8976" x2="8.79187" y2="17.9526" gradientUnits="userSpaceOnUse">
<stop stop-color="#B9240F"/>
<stop offset="0.235" stop-color="#A11E0E" stop-opacity="0.077"/>
<stop offset="0.597" stop-color="#7C150A" stop-opacity="0"/>
</linearGradient>
<linearGradient id="paint4_linear_38_13487" x1="16.0209" y1="27.0029" x2="8.82287" y2="18.3389" gradientUnits="userSpaceOnUse">
<stop stop-color="#B3220F"/>
<stop offset="0.235" stop-color="#9E1D0D" stop-opacity="0.155"/>
<stop offset="0.597" stop-color="#7C150A" stop-opacity="0"/>
</linearGradient>
<linearGradient id="paint5_linear_38_13487" x1="16.2439" y1="27.0902" x2="8.87387" y2="18.7162" gradientUnits="userSpaceOnUse">
<stop stop-color="#AD210E"/>
<stop offset="0.235" stop-color="#9A1C0D" stop-opacity="0.232"/>
<stop offset="0.597" stop-color="#7C150A" stop-opacity="0"/>
</linearGradient>
<linearGradient id="paint6_linear_38_13487" x1="16.4709" y1="27.1615" x2="8.94487" y2="19.0875" gradientUnits="userSpaceOnUse">
<stop stop-color="#A71F0E"/>
<stop offset="0.235" stop-color="#961B0D" stop-opacity="0.31"/>
<stop offset="0.597" stop-color="#7C150A" stop-opacity="0"/>
</linearGradient>
<linearGradient id="paint7_linear_38_13487" x1="16.6989" y1="27.2118" x2="9.03487" y2="19.4458" gradientUnits="userSpaceOnUse">
<stop stop-color="#A11E0D"/>
<stop offset="0.235" stop-color="#921A0C" stop-opacity="0.387"/>
<stop offset="0.597" stop-color="#7C150A" stop-opacity="0"/>
</linearGradient>
<linearGradient id="paint8_linear_38_13487" x1="16.9279" y1="27.2481" x2="9.14287" y2="19.7951" gradientUnits="userSpaceOnUse">
<stop stop-color="#9A1C0D"/>
<stop offset="0.235" stop-color="#8F1A0C" stop-opacity="0.464"/>
<stop offset="0.597" stop-color="#7C150A" stop-opacity="0"/>
</linearGradient>
<linearGradient id="paint9_linear_38_13487" x1="17.1569" y1="27.2634" x2="9.26787" y2="20.1324" gradientUnits="userSpaceOnUse">
<stop stop-color="#941B0C"/>
<stop offset="0.235" stop-color="#8B190B" stop-opacity="0.542"/>
<stop offset="0.597" stop-color="#7C150A" stop-opacity="0"/>
</linearGradient>
<linearGradient id="paint10_linear_38_13487" x1="17.3839" y1="27.2597" x2="9.40887" y2="20.4527" gradientUnits="userSpaceOnUse">
<stop stop-color="#8E190C"/>
<stop offset="0.235" stop-color="#87180B" stop-opacity="0.619"/>
<stop offset="0.597" stop-color="#7C150A" stop-opacity="0"/>
</linearGradient>
<linearGradient id="paint11_linear_38_13487" x1="17.6069" y1="27.239" x2="9.56387" y2="20.761" gradientUnits="userSpaceOnUse">
<stop stop-color="#88180B"/>
<stop offset="0.235" stop-color="#83170B" stop-opacity="0.697"/>
<stop offset="0.597" stop-color="#7C150A" stop-opacity="0"/>
</linearGradient>
<linearGradient id="paint12_linear_38_13487" x1="17.8259" y1="27.2022" x2="9.73287" y2="21.0552" gradientUnits="userSpaceOnUse">
<stop stop-color="#82160B"/>
<stop offset="0.235" stop-color="#80160A" stop-opacity="0.774"/>
<stop offset="0.597" stop-color="#7C150A" stop-opacity="0"/>
</linearGradient>
<linearGradient id="paint13_linear_38_13487" x1="18.0399" y1="27.1445" x2="9.91387" y2="21.3315" gradientUnits="userSpaceOnUse">
<stop stop-color="#7C150A"/>
<stop offset="0.235" stop-color="#7C150A" stop-opacity="0.852"/>
<stop offset="0.597" stop-color="#7C150A" stop-opacity="0"/>
</linearGradient>
</defs>
</svg>
