<svg width="16" height="16" viewBox="0 0 16 16" fill="none" xmlns="http://www.w3.org/2000/svg">
<g id="icons8-collapse_arrow 3">
<path id="Vector" d="M7.99275 12.1665C7.86264 12.1646 7.73839 12.112 7.6464 12.02L1.1464 5.51997C1.09841 5.4739 1.0601 5.41871 1.03371 5.35765C1.00732 5.29659 0.993378 5.23087 0.992702 5.16435C0.992025 5.09783 1.00463 5.03184 1.02977 4.97026C1.05492 4.90867 1.0921 4.85272 1.13914 4.80568C1.18618 4.75864 1.24213 4.72146 1.30372 4.69631C1.3653 4.67117 1.43129 4.65857 1.49781 4.65924C1.56433 4.65992 1.63005 4.67386 1.69111 4.70025C1.75217 4.72664 1.80736 4.76495 1.85343 4.81294L7.99992 10.9594L14.1464 4.81294C14.1925 4.76495 14.2477 4.72664 14.3087 4.70025C14.3698 4.67386 14.4355 4.65992 14.502 4.65924C14.5685 4.65857 14.6345 4.67117 14.6961 4.69631C14.7577 4.72146 14.8137 4.75864 14.8607 4.80568C14.9077 4.85272 14.9449 4.90867 14.9701 4.97026C14.9952 5.03184 15.0078 5.09783 15.0071 5.16435C15.0064 5.23087 14.9925 5.29659 14.9661 5.35765C14.9397 5.41871 14.9014 5.4739 14.8534 5.51997L8.35343 12.02C8.30616 12.0673 8.24988 12.1046 8.18793 12.1298C8.12598 12.1549 8.05961 12.1674 7.99275 12.1665Z" fill="black"/>
</g>
</svg>
