<svg width="21" height="21" viewBox="0 0 21 21" fill="none" xmlns="http://www.w3.org/2000/svg">
<g id="icons8-adventures 1">
<path id="Vector" d="M10.7188 1.3125C5.53219 1.3125 1.3125 5.53219 1.3125 10.7188C1.3125 15.9053 5.53219 20.125 10.7188 20.125C15.9053 20.125 20.125 15.9053 20.125 10.7188C20.125 5.53219 15.9053 1.3125 10.7188 1.3125ZM10.7188 3.0625C11.081 3.0625 11.375 3.3565 11.375 3.71875C11.375 4.081 11.081 4.375 10.7188 4.375C10.3565 4.375 10.0625 4.081 10.0625 3.71875C10.0625 3.3565 10.3565 3.0625 10.7188 3.0625ZM3.71875 11.375C3.3565 11.375 3.0625 11.081 3.0625 10.7188C3.0625 10.3565 3.3565 10.0625 3.71875 10.0625C4.081 10.0625 4.375 10.3565 4.375 10.7188C4.375 11.081 4.081 11.375 3.71875 11.375ZM5.90625 16.1875C5.544 16.1875 5.25 15.8935 5.25 15.5312C5.25 15.169 5.544 14.875 5.90625 14.875C6.2685 14.875 6.5625 15.169 6.5625 15.5312C6.5625 15.8935 6.2685 16.1875 5.90625 16.1875ZM5.90625 6.5625C5.544 6.5625 5.25 6.2685 5.25 5.90625C5.25 5.544 5.544 5.25 5.90625 5.25C6.2685 5.25 6.5625 5.544 6.5625 5.90625C6.5625 6.2685 6.2685 6.5625 5.90625 6.5625ZM10.7188 18.375C10.3565 18.375 10.0625 18.081 10.0625 17.7188C10.0625 17.3565 10.3565 17.0625 10.7188 17.0625C11.081 17.0625 11.375 17.3565 11.375 17.7188C11.375 18.081 11.081 18.375 10.7188 18.375ZM12.1783 12.3904L7.47513 14.5285C7.41869 14.5543 7.35787 14.567 7.29837 14.567C7.18725 14.567 7.07788 14.5232 6.99606 14.4419C6.87006 14.3159 6.8355 14.1247 6.909 13.9624L9.04662 9.25925C9.0895 9.16519 9.16475 9.0895 9.25881 9.04706L13.9619 6.909C14.1243 6.8355 14.3154 6.87006 14.441 6.99563C14.567 7.12162 14.6016 7.31281 14.5281 7.47513L12.3904 12.1783C12.348 12.2723 12.2723 12.348 12.1783 12.3904ZM15.0938 16.1875C14.7315 16.1875 14.4375 15.8935 14.4375 15.5312C14.4375 15.169 14.7315 14.875 15.0938 14.875C15.456 14.875 15.75 15.169 15.75 15.5312C15.75 15.8935 15.456 16.1875 15.0938 16.1875ZM15.5312 6.5625C15.169 6.5625 14.875 6.2685 14.875 5.90625C14.875 5.544 15.169 5.25 15.5312 5.25C15.8935 5.25 16.1875 5.544 16.1875 5.90625C16.1875 6.2685 15.8935 6.5625 15.5312 6.5625ZM17.7188 11.375C17.3565 11.375 17.0625 11.081 17.0625 10.7188C17.0625 10.3565 17.3565 10.0625 17.7188 10.0625C18.081 10.0625 18.375 10.3565 18.375 10.7188C18.375 11.081 18.081 11.375 17.7188 11.375Z" fill="white"/>
</g>
</svg>
