<svg width="22" height="22" viewBox="0 0 22 22" fill="none" xmlns="http://www.w3.org/2000/svg">
<g id="icons8-whatsapp 1">
<path id="Vector" d="M11 1.83203C5.94567 1.83203 1.83337 5.94433 1.83337 10.9987C1.83337 12.4999 2.22878 13.9031 2.87 15.1541L1.87634 18.7116C1.64491 19.5381 2.46217 20.3554 3.28894 20.1242L6.84908 19.1305C8.09913 19.7704 9.50026 20.1654 11 20.1654C16.0544 20.1654 20.1667 16.0531 20.1667 10.9987C20.1667 5.94433 16.0544 1.83203 11 1.83203ZM11 3.20703C15.3113 3.20703 18.7917 6.68748 18.7917 10.9987C18.7917 15.3099 15.3113 18.7904 11 18.7904C9.62431 18.7904 8.3374 18.4326 7.21521 17.8075C7.05703 17.7193 6.87045 17.6971 6.696 17.7457L3.31042 18.6901L4.25574 15.3063C4.30457 15.1316 4.28237 14.9446 4.19397 14.7862C3.56755 13.6632 3.20837 12.3758 3.20837 10.9987C3.20837 6.68748 6.68882 3.20703 11 3.20703ZM7.90181 6.87459C7.75561 6.87459 7.51936 6.92944 7.31816 7.14852C7.11741 7.36669 6.55188 7.89582 6.55188 8.9729C6.55188 10.05 7.33573 11.0901 7.44527 11.2368C7.55436 11.3821 8.95924 13.6637 11.1844 14.5409C13.0334 15.2697 13.4094 15.1246 13.8109 15.0879C14.2124 15.0521 15.1064 14.5592 15.2889 14.0477C15.4713 13.5362 15.4714 13.0987 15.4178 13.0084C15.3632 12.9172 15.217 12.8619 14.9979 12.7524C14.7793 12.6428 13.7037 12.1136 13.503 12.0407C13.3022 11.9678 13.1555 11.9308 13.0097 12.1499C12.864 12.369 12.4447 12.8617 12.3169 13.0075C12.189 13.1542 12.0615 13.1725 11.8424 13.063C11.6229 12.9525 10.9185 12.7219 10.0816 11.9762C9.43075 11.3964 8.99291 10.6798 8.86503 10.4607C8.73761 10.2425 8.85127 10.1226 8.96082 10.014C9.05936 9.91591 9.17981 9.75873 9.28935 9.63086C9.39797 9.50298 9.434 9.41227 9.50688 9.26652C9.57975 9.12123 9.54351 8.99292 9.48897 8.88338C9.43443 8.77384 9.0088 7.69086 8.81401 7.25773C8.65038 6.89382 8.47795 6.88592 8.32166 6.87996C8.19424 6.87492 8.04756 6.87459 7.90181 6.87459Z" fill="#3E2ABB"/>
</g>
</svg>
