<svg width="40" height="40" viewBox="0 0 40 40" fill="none" xmlns="http://www.w3.org/2000/svg">
<g id="icons8-hotel_star 1">
<path id="Vector" d="M20 0.833984C19.8389 0.83388 19.6779 0.919896 19.5996 1.09115L19.1911 1.98958L17.946 2.18164C17.5901 2.23664 17.4477 2.67292 17.7018 2.92708L18.5449 3.76855L18.3691 4.81999C18.3091 5.18165 18.692 5.45234 19.0137 5.27734L20 4.74023L20.9863 5.27897C21.308 5.45397 21.6892 5.18165 21.6292 4.81999L21.4551 3.77018L22.2982 2.92708C22.5523 2.67292 22.4099 2.23664 22.054 2.18164L20.8089 1.99121L20.4004 1.09115C20.3225 0.919479 20.1611 0.834089 20 0.833984ZM13.3333 3.33398C13.1722 3.33388 13.0113 3.4199 12.9329 3.59115L12.5244 4.48958L11.2793 4.68164C10.9235 4.73664 10.781 5.17292 11.0352 5.42708L11.8783 6.26855L11.7025 7.31999C11.6425 7.68165 12.0253 7.95234 12.347 7.77734L13.3333 7.24023L14.3197 7.77897C14.6413 7.95397 15.0226 7.68165 14.9626 7.31999L14.7884 6.27018L15.6315 5.42708C15.8857 5.17292 15.7432 4.73664 15.3874 4.68164L14.1423 4.49121L13.7337 3.59115C13.6558 3.41948 13.4945 3.33409 13.3333 3.33398ZM26.6667 3.33398C26.5055 3.33409 26.3442 3.41948 26.2663 3.59115L25.8577 4.49121L24.6126 4.68164C24.2568 4.73664 24.1143 5.17292 24.3685 5.42708L25.2116 6.27018L25.0374 7.31999C24.9774 7.68165 25.3587 7.95397 25.6803 7.77897L26.6667 7.24023L27.653 7.77734C27.9747 7.95234 28.3575 7.68165 28.2975 7.31999L28.1217 6.26855L28.9648 5.42708C29.219 5.17292 29.0765 4.73664 28.7207 4.68164L27.4756 4.48958L27.0671 3.59115C26.9887 3.4199 26.8278 3.33388 26.6667 3.33398ZM19.9398 7.50228C19.7714 7.51039 19.6064 7.55247 19.4548 7.62598L7.57975 13.3844C7.57867 13.385 7.57758 13.3855 7.5765 13.3861C6.01167 14.1513 5 15.7493 5 17.5088V34.584C5 35.7241 5.94318 36.6673 7.08333 36.6673H18.3333H18.75H21.25H21.6667H32.9167C34.0568 36.6673 35 35.7241 35 34.584V17.5088C35 15.7493 33.9883 14.1513 32.4235 13.3861C32.4224 13.3855 32.4213 13.385 32.4202 13.3844L20.5452 7.62598C20.357 7.53472 20.1488 7.49219 19.9398 7.50228ZM20 10.1406L31.3265 15.6322C32.045 15.9835 32.5 16.7016 32.5 17.5088V34.1673H22.5V27.9173C22.5 27.5858 22.3683 27.2679 22.1338 27.0335C21.8994 26.7991 21.5815 26.6674 21.25 26.6673H18.75C18.4185 26.6674 18.1006 26.7991 17.8662 27.0335C17.6317 27.2679 17.5 27.5858 17.5 27.9173V34.1673H7.5V17.5088C7.5 16.7029 7.95364 15.9858 8.67025 15.6338L8.6735 15.6322L20 10.1406ZM10.8333 18.334C10.3733 18.334 10 18.7073 10 19.1673V22.5007C10 22.9607 10.3733 23.334 10.8333 23.334H14.1667C14.6267 23.334 15 22.9607 15 22.5007V19.1673C15 18.7073 14.6267 18.334 14.1667 18.334H10.8333ZM18.3333 18.334C17.8733 18.334 17.5 18.7073 17.5 19.1673V22.5007C17.5 22.9607 17.8733 23.334 18.3333 23.334H21.6667C22.1267 23.334 22.5 22.9607 22.5 22.5007V19.1673C22.5 18.7073 22.1267 18.334 21.6667 18.334H18.3333ZM25.8333 18.334C25.3733 18.334 25 18.7073 25 19.1673V22.5007C25 22.9607 25.3733 23.334 25.8333 23.334H29.1667C29.6267 23.334 30 22.9607 30 22.5007V19.1673C30 18.7073 29.6267 18.334 29.1667 18.334H25.8333ZM10.8333 26.6673C10.3733 26.6673 10 27.0407 10 27.5007V30.834C10 31.294 10.3733 31.6673 10.8333 31.6673H14.1667C14.6267 31.6673 15 31.294 15 30.834V27.5007C15 27.0407 14.6267 26.6673 14.1667 26.6673H10.8333ZM25.8333 26.6673C25.3733 26.6673 25 27.0407 25 27.5007V30.834C25 31.294 25.3733 31.6673 25.8333 31.6673H29.1667C29.6267 31.6673 30 31.294 30 30.834V27.5007C30 27.0407 29.6267 26.6673 29.1667 26.6673H25.8333Z" fill="white"/>
</g>
</svg>
