<svg width="120" height="120" viewBox="0 0 120 120" fill="none" xmlns="http://www.w3.org/2000/svg">
<g id="icons8-wish_list 1">
<path id="Vector" d="M74.0625 48.75C71.8125 48.75 69.9375 50.4375 69.5625 52.5H78.75C78.1875 50.4375 76.3125 48.75 74.0625 48.75Z" fill="url(#paint0_linear_107_7090)"/>
<path id="Vector_2" d="M86.25 88.125V78C90.75 75.9375 106.875 67.5 106.875 52.875C106.875 46.5 101.438 41.25 94.6875 41.25C91.5 41.25 88.5 42.5625 86.25 44.625V16.875C86.25 13.6875 83.8125 11.25 80.625 11.25H16.875C13.6875 11.25 11.25 13.6875 11.25 16.875V95.625C11.25 99.1875 12.75 102.562 15.1875 105C17.625 107.438 20.8125 108.75 24.375 108.75H95.625C102.938 108.75 108.75 102.938 108.75 95.625V88.125H86.25ZM86.4375 51.75C87 47.8125 90.5625 45 94.6875 45C99.375 45 103.125 48.5625 103.125 52.875C103.125 65.25 87.9375 73.125 84.375 74.625C80.8125 72.9375 65.625 65.25 65.625 52.875C65.625 48.5625 69.375 45 74.0625 45C78.1875 45 81.75 48 82.3125 51.75L82.5 53.4375H85.875L86.4375 51.75ZM15 16.875C15 15.75 15.75 15 16.875 15H80.625C81.75 15 82.5 15.75 82.5 16.875V19.125C81.9375 18.9375 81.375 18.75 80.625 18.75H16.875C16.125 18.75 15.5625 18.9375 15 19.125V16.875ZM24.75 105C22.125 105 19.6875 104.062 18 102.375C16.125 100.5 15.1875 98.25 15.1875 95.625V24.375C15.1875 23.25 15.9375 22.5 17.0625 22.5H80.8125C81.9375 22.5 82.6875 23.25 82.6875 24.375V44.4375C80.4375 42.375 77.4375 41.25 74.25 41.25C67.5 41.25 62.0625 46.5 62.0625 52.875C62.0625 67.3125 78 75.75 82.6875 78V88.125H33.75V95.0625C33.75 100.5 29.625 104.812 24.75 105ZM105 95.625C105 100.875 100.875 105 95.625 105H33.375C35.8125 102.562 37.5 99 37.5 95.0625V91.875H105V95.625Z" fill="url(#paint1_linear_107_7090)"/>
<path id="Vector_3" d="M26.25 33.75C23.0625 33.75 20.625 36.1875 20.625 39.375C20.625 42.5625 23.0625 45 26.25 45C29.4375 45 31.875 42.5625 31.875 39.375C31.875 36.1875 29.4375 33.75 26.25 33.75ZM26.25 41.25C25.125 41.25 24.375 40.5 24.375 39.375C24.375 38.25 25.125 37.5 26.25 37.5C27.375 37.5 28.125 38.25 28.125 39.375C28.125 40.5 27.375 41.25 26.25 41.25Z" fill="url(#paint2_linear_107_7090)"/>
<path id="Vector_4" d="M56.25 37.5H35.625V41.25H56.25V37.5Z" fill="url(#paint3_linear_107_7090)"/>
<path id="Vector_5" d="M26.25 50.625C23.0625 50.625 20.625 53.0625 20.625 56.25C20.625 59.4375 23.0625 61.875 26.25 61.875C29.4375 61.875 31.875 59.4375 31.875 56.25C31.875 53.0625 29.4375 50.625 26.25 50.625ZM26.25 58.125C25.125 58.125 24.375 57.375 24.375 56.25C24.375 55.125 25.125 54.375 26.25 54.375C27.375 54.375 28.125 55.125 28.125 56.25C28.125 57.375 27.375 58.125 26.25 58.125Z" fill="url(#paint4_linear_107_7090)"/>
<path id="Vector_6" d="M56.25 54.375H35.625V58.125H56.25V54.375Z" fill="url(#paint5_linear_107_7090)"/>
<path id="Vector_7" d="M26.25 67.5C23.0625 67.5 20.625 69.9375 20.625 73.125C20.625 76.3125 23.0625 78.75 26.25 78.75C29.4375 78.75 31.875 76.3125 31.875 73.125C31.875 69.9375 29.4375 67.5 26.25 67.5ZM26.25 75C25.125 75 24.375 74.25 24.375 73.125C24.375 72 25.125 71.25 26.25 71.25C27.375 71.25 28.125 72 28.125 73.125C28.125 74.25 27.375 75 26.25 75Z" fill="url(#paint6_linear_107_7090)"/>
<path id="Vector_8" d="M56.25 71.25H35.625V75H56.25V71.25Z" fill="url(#paint7_linear_107_7090)"/>
<path id="Vector_9" d="M99.1875 52.5C98.8125 50.4375 96.9375 48.75 94.6875 48.75C92.4375 48.75 90.5625 50.4375 90.1875 52.5H99.1875Z" fill="url(#paint8_linear_107_7090)"/>
</g>
<defs>
<linearGradient id="paint0_linear_107_7090" x1="74.0625" y1="48.5156" x2="74.0625" y2="52.8375" gradientUnits="userSpaceOnUse">
<stop stop-color="#6DC7FF"/>
<stop offset="1" stop-color="#E6ABFF"/>
</linearGradient>
<linearGradient id="paint1_linear_107_7090" x1="60" y1="11.4487" x2="60" y2="107.82" gradientUnits="userSpaceOnUse">
<stop stop-color="#1A6DFF"/>
<stop offset="1" stop-color="#C822FF"/>
</linearGradient>
<linearGradient id="paint2_linear_107_7090" x1="26.25" y1="11.4487" x2="26.25" y2="107.82" gradientUnits="userSpaceOnUse">
<stop stop-color="#1A6DFF"/>
<stop offset="1" stop-color="#C822FF"/>
</linearGradient>
<linearGradient id="paint3_linear_107_7090" x1="45.9375" y1="11.4487" x2="45.9375" y2="107.82" gradientUnits="userSpaceOnUse">
<stop stop-color="#1A6DFF"/>
<stop offset="1" stop-color="#C822FF"/>
</linearGradient>
<linearGradient id="paint4_linear_107_7090" x1="26.25" y1="11.4488" x2="26.25" y2="107.82" gradientUnits="userSpaceOnUse">
<stop stop-color="#1A6DFF"/>
<stop offset="1" stop-color="#C822FF"/>
</linearGradient>
<linearGradient id="paint5_linear_107_7090" x1="45.9375" y1="11.4488" x2="45.9375" y2="107.82" gradientUnits="userSpaceOnUse">
<stop stop-color="#1A6DFF"/>
<stop offset="1" stop-color="#C822FF"/>
</linearGradient>
<linearGradient id="paint6_linear_107_7090" x1="26.25" y1="11.4488" x2="26.25" y2="107.82" gradientUnits="userSpaceOnUse">
<stop stop-color="#1A6DFF"/>
<stop offset="1" stop-color="#C822FF"/>
</linearGradient>
<linearGradient id="paint7_linear_107_7090" x1="45.9375" y1="11.4487" x2="45.9375" y2="107.82" gradientUnits="userSpaceOnUse">
<stop stop-color="#1A6DFF"/>
<stop offset="1" stop-color="#C822FF"/>
</linearGradient>
<linearGradient id="paint8_linear_107_7090" x1="94.6875" y1="48.5156" x2="94.6875" y2="52.8375" gradientUnits="userSpaceOnUse">
<stop stop-color="#6DC7FF"/>
<stop offset="1" stop-color="#E6ABFF"/>
</linearGradient>
</defs>
</svg>
