<svg width="16" height="16" viewBox="0 0 16 16" fill="none" xmlns="http://www.w3.org/2000/svg">
<circle cx="8" cy="8" r="8" fill="#8AC926"/>
<g clip-path="url(#clip0_107_11727)">
<path d="M8.00164 4.83326C7.95492 4.83297 7.90904 4.84577 7.86923 4.87022C7.82941 4.89468 7.79725 4.9298 7.77638 4.9716L6.91765 6.68905L4.87859 7.00285C4.83295 7.00991 4.79015 7.02946 4.75495 7.05935C4.71974 7.08924 4.69351 7.1283 4.67914 7.1722C4.66478 7.21609 4.66286 7.2631 4.67359 7.30802C4.68431 7.35294 4.70727 7.39401 4.73992 7.42668L6.1504 8.83716L5.83627 10.8785C5.82925 10.9242 5.83501 10.9709 5.85293 11.0135C5.87085 11.0561 5.90023 11.0929 5.93779 11.1198C5.97536 11.1467 6.01964 11.1627 6.06574 11.1659C6.11183 11.1692 6.15792 11.1596 6.1989 11.1383L8.00001 10.1985L9.80112 11.1383C9.8421 11.1596 9.88819 11.1692 9.93429 11.1659C9.98038 11.1627 10.0247 11.1467 10.0622 11.1198C10.0998 11.0929 10.1292 11.0561 10.1471 11.0135C10.165 10.9709 10.1708 10.9242 10.1637 10.8785L9.84962 8.83716L11.2601 7.42668C11.2927 7.39401 11.3157 7.35294 11.3264 7.30802C11.3372 7.2631 11.3352 7.21609 11.3209 7.1722C11.3065 7.1283 11.2803 7.08924 11.2451 7.05935C11.2099 7.02946 11.1671 7.00991 11.1214 7.00285L9.08237 6.68905L8.22364 4.9716C8.20302 4.93029 8.17136 4.8955 8.13218 4.87108C8.09299 4.84666 8.04781 4.83357 8.00164 4.83326Z" fill="white"/>
</g>
<defs>
<clipPath id="clip0_107_11727">
<rect width="8" height="8" fill="white" transform="translate(4 4)"/>
</clipPath>
</defs>
</svg>
