<svg width="16" height="16" viewBox="0 0 16 16" fill="none" xmlns="http://www.w3.org/2000/svg">
<g id="icons8-worldwide_location 1">
<path id="Vector" d="M7.99992 1.33325C4.32392 1.33325 1.33325 4.32392 1.33325 7.99992C1.33325 11.6759 4.32392 14.6666 7.99992 14.6666C11.6759 14.6666 14.6666 11.6759 14.6666 7.99992C14.6666 7.63892 14.6298 7.28764 14.5741 6.94198C14.5091 7.03098 14.4411 7.11839 14.3684 7.20239C14.3027 7.27673 14.0113 7.60494 13.6659 7.98494C13.6659 7.99028 13.6666 7.99492 13.6666 7.99992C13.6666 8.58022 13.577 9.13947 13.414 9.66658H5.77596C5.70661 9.1468 5.66658 8.59024 5.66658 7.99992C5.66658 7.40958 5.70663 6.85292 5.77596 6.33325H7.72713C7.5728 6.01492 7.46236 5.67892 7.39836 5.33325H5.95695C6.38628 3.48792 7.22359 2.33325 7.99992 2.33325C8.02425 2.33325 8.04882 2.33743 8.07349 2.33976C8.32915 1.98376 8.64225 1.67225 8.99992 1.41659C8.67292 1.36692 8.34058 1.33325 7.99992 1.33325ZM11.3333 1.33325C9.50222 1.33325 7.99992 2.8097 7.99992 4.62622C7.99992 5.44202 8.3045 6.19199 8.802 6.76554L8.80461 6.76815L8.80656 6.77075C8.80656 6.77075 10.1091 8.24103 10.6132 8.71476C11.0144 9.09201 11.6521 9.09201 12.0533 8.71476C12.6178 8.18395 13.8612 6.76945 13.8612 6.76945L13.8632 6.7675L13.8645 6.76554C14.3615 6.19215 14.6666 5.44229 14.6666 4.62622C14.6666 2.8097 13.1643 1.33325 11.3333 1.33325ZM11.3333 2.33325C12.6315 2.33325 13.6666 3.35807 13.6666 4.62622C13.6666 5.1943 13.4577 5.70755 13.1099 6.10929C13.1096 6.10966 13.1096 6.11023 13.1093 6.1106C13.1041 6.11638 11.8077 7.57321 11.3684 7.98625C11.3456 8.00767 11.3215 8.00767 11.2987 7.98625H11.2981V7.9856C10.9402 7.64928 9.56152 6.11351 9.55656 6.10799C9.2092 5.70654 8.99992 5.19339 8.99992 4.62622C8.99992 3.35807 10.035 2.33325 11.3333 2.33325ZM5.94328 2.72518C5.50561 3.40351 5.15712 4.29492 4.93612 5.33325H3.00252C3.63719 4.14892 4.68128 3.21918 5.94328 2.72518ZM11.3333 3.83325C11.1122 3.83325 10.9003 3.92105 10.744 4.07733C10.5877 4.23361 10.4999 4.44557 10.4999 4.66658C10.4999 4.8876 10.5877 5.09956 10.744 5.25584C10.9003 5.41212 11.1122 5.49992 11.3333 5.49992C11.5543 5.49992 11.7662 5.41212 11.9225 5.25584C12.0788 5.09956 12.1666 4.8876 12.1666 4.66658C12.1666 4.44557 12.0788 4.23361 11.9225 4.07733C11.7662 3.92105 11.5543 3.83325 11.3333 3.83325ZM2.58455 6.33325H4.77205C4.70572 6.86525 4.66658 7.42125 4.66658 7.99992C4.66658 8.57849 4.70434 9.13519 4.77075 9.66658H2.58586C2.42285 9.13947 2.33325 8.58022 2.33325 7.99992C2.33325 7.41992 2.42189 6.86058 2.58455 6.33325ZM3.00708 10.6666H4.94198C5.16351 11.7008 5.50636 12.5976 5.94328 13.2747C4.68231 12.7812 3.64241 11.848 3.00708 10.6666ZM5.9576 10.6666H10.0396C9.61097 12.5111 8.77582 13.6666 7.99992 13.6666C7.22354 13.6666 6.38677 12.5121 5.9576 10.6666ZM11.0605 10.6666H12.9928C12.3574 11.848 11.3175 12.7812 10.0566 13.2747C10.4938 12.5971 10.8396 11.7025 11.0605 10.6666Z" fill="white"/>
</g>
</svg>
