<svg width="16" height="16" viewBox="0 0 16 16" fill="none" xmlns="http://www.w3.org/2000/svg">
<g id="icons8-funnel 1">
<path id="Vector" d="M6.83333 14C6.755 14 6.67667 13.9817 6.60433 13.9447C6.438 13.8587 6.33333 13.6873 6.33333 13.5V8.464L2.95467 5.828C2.34733 5.34967 2 4.63367 2 3.863V2.83333C2 2.37367 2.374 2 2.83333 2H13.1667C13.626 2 14 2.37367 14 2.83333V3.863C14 4.634 13.6527 5.34967 13.0473 5.82667L9.66667 8.464V11.8333C9.66667 11.9947 9.58867 12.1463 9.45733 12.2403L7.124 13.907C7.03767 13.9687 6.93567 14 6.83333 14Z" fill="#3E2ABB"/>
</g>
</svg>
