<svg width="24" height="25" viewBox="0 0 24 25" fill="none" xmlns="http://www.w3.org/2000/svg">
<g id="ic:outline-cake" clip-path="url(#clip0_1079_6902)">
<path id="Vector" d="M12 6.94727C11.4696 6.94727 10.9609 6.73655 10.5858 6.36148C10.2107 5.98641 10 5.4777 10 4.94727C10 4.56727 10.1 4.21727 10.29 3.91727L12 0.947266L13.71 3.91727C13.9 4.21727 14 4.56727 14 4.94727C14 6.04727 13.1 6.94727 12 6.94727ZM6 9.94727H11V7.94727H13V9.94727H18C19.66 9.94727 21 11.2873 21 12.9473V21.9473C21 22.4973 20.55 22.9473 20 22.9473H4C3.45 22.9473 3 22.4973 3 21.9473V12.9473C3 11.2873 4.34 9.94727 6 9.94727ZM5 20.9473H19V17.9473C18.1 17.9373 17.24 17.5773 16.6 16.9373L15.51 15.8673L14.44 16.9373C13.13 18.2473 10.85 18.2373 9.55 16.9373L8.47 15.8673L7.4 16.9373C6.76 17.5773 5.9 17.9373 5 17.9473V20.9473ZM5 16.4473C5.51 16.4373 5.99 16.2473 6.35 15.8773L8.48 13.7473L10.62 15.8773C11.36 16.6173 12.65 16.6173 13.39 15.8773L15.52 13.7473L17.66 15.8773C18.01 16.2373 18.49 16.4373 19 16.4473V12.9473C19 12.3973 18.55 11.9473 18 11.9473H6C5.45 11.9473 5 12.3973 5 12.9473V16.4473Z" fill="#4ED1FF"/>
</g>
<defs>
<clipPath id="clip0_1079_6902">
<rect width="24" height="24" fill="white" transform="matrix(-1 0 0 1 24 0.947266)"/>
</clipPath>
</defs>
</svg>
