<svg width="16" height="16" viewBox="0 0 16 16" fill="none" xmlns="http://www.w3.org/2000/svg">
<path d="M7.16667 1.00005C7.10041 0.999113 7.03463 1.01135 6.97315 1.03606C6.91166 1.06077 6.8557 1.09745 6.80852 1.14397C6.76133 1.19049 6.72386 1.24593 6.69829 1.30706C6.67271 1.36819 6.65955 1.43379 6.65955 1.50005C6.65955 1.56631 6.67271 1.63191 6.69829 1.69304C6.72386 1.75417 6.76133 1.80961 6.80852 1.85613C6.8557 1.90265 6.91166 1.93933 6.97315 1.96404C7.03463 1.98875 7.10041 2.00099 7.16667 2.00005H7.5V2.69211C4.42525 2.94758 2 5.52714 2 8.66672C2 11.9751 4.69167 14.6667 8 14.6667C11.3083 14.6667 14 11.9751 14 8.66672C14 7.19219 13.4632 5.84208 12.5775 4.79627L13.1855 4.1882C13.2577 4.11795 13.3069 4.02756 13.3268 3.92886C13.3467 3.83015 13.3364 3.72774 13.2971 3.63502C13.2579 3.54229 13.1916 3.46358 13.1068 3.40918C13.0221 3.35478 12.9229 3.32723 12.8223 3.33013C12.6924 3.33391 12.5691 3.38808 12.4785 3.48117L11.8704 4.08924C10.9443 3.30493 9.77881 2.79836 8.5 2.69211V2.00005H8.83333C8.89959 2.00099 8.96537 1.98875 9.02685 1.96404C9.08834 1.93933 9.1443 1.90265 9.19148 1.85613C9.23867 1.80961 9.27614 1.75417 9.30171 1.69304C9.32729 1.63191 9.34046 1.56631 9.34046 1.50005C9.34046 1.43379 9.32729 1.36819 9.30171 1.30706C9.27614 1.24593 9.23867 1.19049 9.19148 1.14397C9.1443 1.09745 9.08834 1.06077 9.02685 1.03606C8.96537 1.01135 8.89959 0.999113 8.83333 1.00005H7.16667ZM10.1667 6.00005C10.2946 6.00005 10.4225 6.04887 10.5202 6.14653C10.7155 6.34153 10.7152 6.65823 10.5202 6.85357L8.96289 8.41086C8.98456 8.49286 9 8.57772 9 8.66672C9 9.21905 8.55233 9.66672 8 9.66672C7.44767 9.66672 7 9.21905 7 8.66672C7 8.11438 7.44767 7.66672 8 7.66672C8.089 7.66672 8.17386 7.68183 8.25586 7.70383L9.81315 6.14653C9.91082 6.04887 10.0388 6.00005 10.1667 6.00005Z" fill="#28C7FF"/>
</svg>
