<svg width="48" height="48" viewBox="0 0 48 48" fill="none" xmlns="http://www.w3.org/2000/svg">
<g id="icons8-restaurant_table 4">
<path id="Vector" d="M16.9996 4C15.9387 4 14.9213 4.42143 14.1712 5.17157C13.421 5.92172 12.9996 6.93913 12.9996 8C12.9996 9.06087 13.421 10.0783 14.1712 10.8284C14.9213 11.5786 15.9387 12 16.9996 12C18.0604 12 19.0779 11.5786 19.828 10.8284C20.5782 10.0783 20.9996 9.06087 20.9996 8C20.9996 6.93913 20.5782 5.92172 19.828 5.17157C19.0779 4.42143 18.0604 4 16.9996 4ZM16.9996 14C14.7896 14 12.9996 15.79 12.9996 18V26C12.9996 28.125 14.6566 29.8632 16.7496 29.9922C16.7762 29.9938 19.6177 29.995 22.3258 29.9961L21.8746 32H14.2476C14.1592 31.9855 14.0696 31.979 13.9801 31.9805C12.7341 31.9526 11.7056 31.054 11.5504 29.8105L9.98786 17.3145C9.94612 16.9372 9.76288 16.5897 9.4751 16.3422C9.18732 16.0946 8.81639 15.9654 8.43708 15.9805C8.2279 15.9889 8.02279 16.0409 7.83495 16.1334C7.64711 16.2258 7.48069 16.3565 7.3464 16.5171C7.2121 16.6777 7.11291 16.8646 7.0552 17.0659C6.99749 17.2671 6.98253 17.4782 7.0113 17.6855L8.5738 30.1816C8.83332 32.2599 10.2515 33.9455 12.1246 34.6445L10.0543 42.0977C10.0014 42.2875 9.9865 42.4858 10.0103 42.6814C10.0341 42.877 10.0962 43.0659 10.1931 43.2375C10.2899 43.4091 10.4196 43.5599 10.5748 43.6813C10.7299 43.8028 10.9074 43.8925 11.0972 43.9453C11.287 43.9981 11.4854 44.0131 11.681 43.9893C11.8765 43.9654 12.0655 43.9033 12.2371 43.8065C12.4086 43.7096 12.5595 43.5799 12.6809 43.4248C12.8024 43.2697 12.8921 43.0921 12.9449 42.9023L15.1402 35H21.1988L20.0347 40.1719C19.9167 40.6969 20.0899 41.2454 20.4879 41.6094C20.5959 41.7064 23.1606 44 27.4996 44C30.2996 44 32.3606 43.0448 33.4996 42.3418C34.6386 43.0458 36.6996 44 39.4996 44C40.3276 44 40.9996 43.329 40.9996 42.5V20.5C40.9996 19.671 40.3276 19 39.4996 19H28.4C26.28 19 24.4743 20.4437 24.0093 22.5117L23.3101 25.6152L20.9996 25.0059V18C20.9996 15.79 19.2096 14 16.9996 14Z" fill="#3E2ABB"/>
</g>
</svg>
