<svg width="48" height="48" viewBox="0 0 48 48" fill="none" xmlns="http://www.w3.org/2000/svg">
<g id="icons8-heart 1">
<path id="Vector" d="M15 7C8.94244 7 4 11.9424 4 18C4 22.0962 7.08764 25.9529 10.8516 29.9082C14.6155 33.8635 19.2484 37.8695 22.9395 41.5605C23.2208 41.8417 23.6022 41.9997 24 41.9997C24.3978 41.9997 24.7792 41.8417 25.0605 41.5605C28.7516 37.8695 33.3845 33.8635 37.1484 29.9082C40.9124 25.9529 44 22.0962 44 18C44 11.9424 39.0576 7 33 7C29.5236 7 26.4968 8.86649 24 12.0371C21.5032 8.86649 18.4764 7 15 7Z" fill="#3E2ABB"/>
</g>
</svg>
